<svg xmlns="http://www.w3.org/2000/svg" xmlns:xlink="http://www.w3.org/1999/xlink" version="1.1" x="0px" y="0px" viewBox="0 0 909.5 1000" xml:space="preserve" enable-background="new 0 0 909.5 1000"><style type="text/css">
	.st0{fill:none;stroke:#000000;stroke-width:2;stroke-linecap:round;stroke-linejoin:round;stroke-miterlimit:10;}
</style><g><path class="st0" d="M642.2 99.3c-14.5-20.8-34.1-35.8-55.7-48.4 -13.8-8.1-27.4-16.5-42.2-22.5 -13.7-5.6-28-8.7-42.7-10.3 -9.6-1-19.2-1.2-28.8-0.7 -13.7 0.6-27.3 2.4-40.8 4.6 -26.2 4.2-48.4 16.8-69.6 31.7 -8.6 6-16.2 13.3-24.4 19.8 -0.7 0.6-1.8 1.1-1.5 2.4"/><path class="st0" d="M88.8 583.6c3.2 4.9 2.4 10.5 3.6 15.9 -11-1.4-15.5-9.3-20.1-17.5 -1.7 4.3-1.6 8.5-0.6 12.7 0.3 1.4 0.6 2.8-0.2 3.8 -1 1.2-2.5 0.4-3.8 0.1 -9.6-2.3-17-7.6-23.1-15.3 -7.9-9.9-16.9-18.8-24-29.3 -1.7-2.4-3.8-5-7.6-6 -2.6 5.3-2 11-1.9 16.5 0.8 26.2 9.5 50.7 17.3 75.3 6.8 21.4 18.7 40.1 32.5 57.7 11.9 15.2 24.5 29.8 37.1 44.5 4.5 5.3 9 10.8 14.3 15.5 1.4 1.2 3.1 2.5 2.4 4.8"/><path class="st0" d="M230.9 765.1c-2.6 9-5.5 17.8-5.9 27.4 -0.5 13 3.8 24.6 7.8 36.5 4.5 13.6 12.7 25.3 19.1 38 7.3 14.3 14.2 28.8 20.1 43.7 5.9 14.9 2.1 29.3-6.6 42.1 -11.8 17.5-29.1 27.8-48.4 35 -0.6 0.2-1.7 0.5-2.4-0.4"/><path class="st0" d="M169 341.2c-4.7 1.9-7.9 5.9-11.4 9.2 -11.9 11.3-25.5 20.2-39.9 27.8 -12.7 6.7-25.9 12.6-37.4 21.2 -6.5 4.9-12.1 10.9-17.8 16.7 -3.2 3.3-3.4 8.2-4.3 12.4 -1.8 8.7-1.8 17.4 0.1 26.4 2 9.2 7.7 15.6 13.7 22 4.4 4.7 9.1 9.1 13.8 13.9 -2.6 3.3-7.4 1-9.6 4.4"/><path class="st0" d="M61.4 113.2c3.8 4 7.8 7.9 11.5 12 7.6 8.5 16.4 15.9 24.1 24.4 15.5 17.1 28.4 35.5 34.6 58.1 2.3 8.6 4.1 17.2 5.1 26 2.1 18.3 8.9 34.8 17.4 50.9 2.1 3.9 4.8 7.5 5.8 12"/><path class="st0" d="M153.6 812.6c-8.3 6.4-17 12.3-25.1 19.1 -12.7 10.8-19.7 24.8-25.4 40 -4.3 11.4-7.5 23.1-8.8 35.1 -1.5 14.2-3 28.7 1.3 42.7 2.3 7.4 6.9 13.3 14.7 16.5 11.3 4.5 24.7 7.3 33.2 6.1 -4.4-9.5-9.3-18.8-11.8-29.2 -0.5-2-0.4-3.9-0.8-5.8"/><path class="st0" d="M783.4 213.1c1.2 7.6 0.7 15.4 1.2 23.1 0.6 10.5 0.9 21.1 1.1 31.7 0.4 14.7 0.8 29.4 0.4 44.2 -0.4 18.9-2.8 37.6-9 55.7 -5.3 15.3-13 29-23.5 41.3 -6.6 7.7-13.2 15.3-20.2 22.5 -1 1.1-1.7 2.9-4.1 2.3 -1.8-3.9 0-9.3-4.2-13.1 -4.9 9.4-6.1 20.1-10.1 30.2 -3-4.8-6.6-8.5-8.8-13.1"/><path class="st0" d="M679.2 190c8.6-1.8 15.9-6.4 23.5-10.5 10.9-5.9 16.5-15.6 20.8-26.8 4.7-12.5 10.7-24.4 15.2-37 3.7-10.1 6.4-20.3 6.9-31.2 0.3-5.3 3.2-10.4 7.9-14 3-2.4 6.5-4.3 8.9-7.5 -1.5-0.7-2.6-0.3-4.1 0.3 -8.8 3.2-17.8 5.2-27.3 5.6 -13.3 0.6-26.7 1.8-39.8 4.7 -7 1.5-13.6 4.6-19.7 8.5 -9.6 6-19.3 11.8-28.6 18.6 8.6 13.3 15 27.5 20.9 41.9 0.9 2.1 1.4 4.4 3.9 5.3"/><path class="st0" d="M783.8 763.1c1.8 5.6 4.1 11.1 0.1 17.6 -4.6-5.5-8.3-11.3-13.1-16.1 -5.8-5.8-11.9-11.9-21.1-10 -6.9 1.4-13.5 4.1-20.2 6.5 -15.5 5.6-30.1 13.3-45.5 18.9 -8.8 3.2-17.2 1.8-26 1 -8.2-0.8-12.8-6.2-17.8-11.6 -3.1-3.3-7-5.8-10.5-8.7"/><path class="st0" d="M176.6 819.8c5.5-3.4 10.3-7.7 15.4-11.5 6.1-4.6 13.3-6.9 21.1-8.5 0.1-10.7 3.9-20.4 6.5-30.5 -4.3-2.6-9.2-2.7-13.7-3.6 -4.6-0.8-9.3-1.5-13.8-2.3 -6.4-1.2-10 1.6-13 6.4 -5.3 8.5-8.8 17.9-12 27.3 -0.7 2-0.4 3.6 0.5 5.3 3.4 5.7 5.4 12 8.6 17.8"/><path class="st0" d="M350.9 555.8c-12.7 16-27.1 28.9-48 33.8 -18.2 4.3-36 10.5-53.8 16.6 -9.1 3.1-18.5 4.7-27.9 6.2 -7.6 1.2-15.3 2.8-23 2.9"/><path class="st0" d="M644.6 167.9c-3.2 11.3-7.1 22.6-6.2 34.6 0.8 10.6 2.8 21.2 4.6 31.7 2.4 14 5.1 27.9 8.3 41.7 3.1 13.1 5.5 26.5 11 38.9"/><path class="st0" d="M533.3 188.6c0.3 1.8-0.7 3.3-1.4 4.8 -13.6 27.3-28.2 54.1-44.2 80.2 -9.9 16.2-23.2 29.4-37 42.2 -5.1 4.8-10.9 8.9-15.4 14.4"/><path class="st0" d="M758.4 138.2c2.5 5.5 2.4 11.5 3.3 17.3 1.9 13.2 3.9 26.5 4.7 39.8 0.7 12.6 0.1 25.3-2 38 -2.6 16.1-6.7 31.7-12.3 47"/><path class="st0" d="M249.6 31.6c-2 3.4-1.7 7.4-1.8 11 -0.4 14.7-0.4 29.4-0.6 44.2 -0.5 27.8 4.2 54.6 13.9 80.6 0.5 1.4 1 2.9 1.4 4.3"/><path class="st0" d="M389.3 73.9c-8 5.5-14.8 12.4-22 18.8 -19.3 17.2-37.1 35.9-50.9 58 -10.8 17.3-20.8 35-28 54.2 -0.3 0.9-0.6 2.3-1.8 2.9"/><path class="st0" d="M286.6 335c1.7 8.9 5.3 17.1 9.7 24.9 1.3 2.3 4.1 3.6 6.7 4.3 5.5 1.6 6.7 5.8 7.2 10.6 1.9 17 5.5 33.6 10.5 49.9 7.3 23.6 16.1 46.4 29.6 67.3 4.6 7.1 9.8 13.7 14.2 21 1 1.7 1 2.6 0.5 4.4 -2.5 10.4-3.5 21.1-5.1 31.6 -2.1 13.5-3.9 27-6.4 40.4 -1.9 10-2.7 20.2-4.6 30.2 -0.5 2.9-0.8 5.7-4.2 7.3 -2.7 1.3-3.6 4.7-5.3 7.1 -14.9 21.2-29.8 42.3-46.2 62.3 -10.6 12.9-22.2 25.1-34 37 -9.3 9.4-18.8 18.6-28.4 28.2 -6.9-0.9-14.5-1.7-22-3.1 -8.7-1.6-16.7-5.2-24.9-8.4 -5.6-2.1-5.4-2.5-8.2 2 -8.9 14.2-14.9 29.8-21.6 45.1 -1.4 3.2-2.5 6.4-3.9 10 3 4.6 7.8 7.8 11.2 12.5 3.9 5.3 6.1 11.4 9.2 17 2.1 3.7 0.1 9-0.9 13.2 -1.8 7.4-5.7 13.5-12.1 18.5 -10 7.7-15.7 18.7-19.8 30.5 -1.5 4.4-2.9 9-4.3 13.4"/><path class="st0" d="M757.9 133.4c-0.5 6.3-2.9 12.2-4.5 18.2 -4.5 17.1-9.7 34.1-16.6 50.5 -2.8 6.7-5.6 13.5-9.7 19.6 -2.4 3.7-5.6 6.8-9.6 8.6 -10.1 4.6-17 12.7-23.5 21.2 -1.9 2.5-4.1 5-5.7 7.7 -1.2 2.1-2.6 0.7-3.9 0.9"/><path class="st0" d="M247.7 252.4c-0.3-7.8-1-15.6-0.7-23.5 0.4-10.6 3-20.6 5.5-30.7 1.8-7.1 3.6-14.1 5.6-21.6 -1-2.7-4-4.3-6.5-6.2 -15-11.6-29.5-23.9-45.6-34.1 -9.1-5.8-19.1-9.8-28.8-14.4 -15.4-7.4-30.6-15-45.6-23 -2.5-1.3-4.9-2.6-7.7-3.4"/><path class="st0" d="M250.6 193.4c-11 22.2-20 45.3-26.7 69.2 -2.9 10.5-3.6 21.6-4.7 32.6 -1.3 12.3-0.4 24.7-1 37 -0.4 7.5 0.4 15-0.2 22.6 -1.1 15.6-1.4 31.3-5 46.5 -2.7 11.9-6.7 23.4-10.4 35.1 -5.8 18.3-10.1 36.9-14.1 55.6 -2.7 12.4-4.7 25-7 37.5 -1.2 6.3-1.4 12.8-1.9 19.2 -1.7 23.6-1.4 47.4-0.9 71 0.4 18.6 0.7 37.1 0.2 55.7 -0.6 21.6-1.3 43.2-1.3 64.8 0 0.6-0.3 1.3-0.5 1.9"/><path class="st0" d="M367.7 157.9c-11.3 16.3-23.7 31.8-36.9 46.6 -14.9 16.8-30 33.3-45.7 49.4 -9.4 9.6-19.7 18.1-32.2 23.5 -0.8 0.3-1.3 0.6-1.4 1.5"/><path class="st0" d="M378.2 213.5c-0.3 2.7-2.6 4.1-4.4 5.2 -17 10.6-33.3 22.1-50.8 31.8 -15.7 8.7-32.5 14.8-49 21.6 -12.8 5.3-26.5 7.7-39.4 12.8 -0.9 0.4-1.6 1.6-2.8 1.1"/><path class="st0" d="M251 31.6c2.1 12.3 3.8 24.7 6.3 36.9 3.6 17.5 7.7 35 15.2 51.4 5.8 12.7 12.8 24.8 19.2 37.8 -3.6 0.3-6.3-1.3-8.5-2.9 -4.3-3.1-9.5-4.9-13-9"/><path class="st0" d="M85.4 253.4c-1 5.4 0.4 10.6 1 15.8 1.4 11.7 2.5 23.4 6.7 34.6 2.9 7.7 6.7 15 10.1 22.6 1.9 4.3 2.6 8.8 3.7 14.1 -10.4-2.5-19.6-5.5-27.7-11.2 -2.9-2.1-5.8-4.1-8.6-6.3 -1.3-1-2.5-0.9-3.9-0.9"/><path class="st0" d="M215.5 865.9c5.5 12.6 14 23.4 21.1 35.1 4.7 7.8 10.8 15.1 13.4 24 3.7 12.5 2.3 23.7-7.5 33.7 -8.9 9.2-18.1 18-27.5 26.7"/><path class="st0" d="M341.8 673.9c-3.5 7.9-6.4 16-9.6 24 -5 12.3-13.3 22.7-24.2 29.3 -9.5 5.8-13.6 14.8-19.8 22.6 -5 6.3-9.4 13-14.3 19.9 11 12.2 23 22.3 40.2 24.7 10.7 1.5 21.5 2.8 32.2 4.4 7.6 1.1 15.2 2.9 22.6 5 5.6 1.6 11.5 2.7 17.2 4 2.7 0.6 4.1-0.2 3.9-3.4 -0.8-9.4-0.7-18.9-0.2-28.3 0.1-2.4-0.6-5.2-1.9-7.1 -5.7-8.2-7-17.3-6.2-27 1.2-13.7 4.2-26.8 12-38.4 3.7-5.5 7.8-10.7 12.5-15.4 11.9-12.1 22.9-25 35-37 1.2-1.2 2-2.8 2.9-4.3"/><path class="st0" d="M869.8 466c-16.3 4.4-30.6 12.2-43.3 23.5 -6.2 5.5-13.4 9.9-19.5 15.5 -6.9 6.3-14.7 6.4-22.6 4 -3.6-1.1-4.7-0.1-4.8 2.6 -0.4 10.3-5 18.3-12.6 25"/><path class="st0" d="M757 667.6c12.2 5.1 24.6 9.7 37 14.2 21.8 7.9 38.5 21.4 49.4 41.9 3.6 6.8 5.7 14.2 7.7 21.6 0.2 0.7-0.3 1.6-0.4 2.4"/><path class="st0" d="M328.8 277.4c-0.9 6.2-0.8 12.5-1.3 18.7 -0.6 8.4 0.1 17-0.2 25.4 -0.3 8.3 2 16.2 4.1 23.9 3.2 11.3 5.7 22.8 10.3 33.7 7 16.4 14 32.7 23.1 48 1.8 3 4.8 3.9 7.6 5.4 7.7 4.1 15.2 8.6 23.1 12.4 21.5 10.3 44.1 17 67.2 22.7 7.8 1.9 14.5-1 21.6-2.6 19-4.3 36.9-11.6 54.2-20.2 14.3-7.1 28.3-14.8 39-27.2 12.8-14.9 21.8-31.8 27.9-50.4 3.4-10.4 6.9-20.7 10-31.2"/><path class="st0" d="M128.2 887c0.7 9.2 0.9 18.5 3.8 27.4 0.2 0.6 0 1.3 0 1.9 0.9 19.4 8.7 35 24.9 46.1 7.3 5 15.7 5.8 24 7.2 5.4 1 10.9 0.8 16.3 0.9"/><path class="st0" d="M299.5 302.8c-6.7-2.1-13.7-2.1-20.6-1.8 -1.6 0.1-3.4 1.2-4.9 2.7 -5.6 5.8-8 12.6-8.7 20.7 -1.2 14 3.6 25.4 12.6 35.6 9 10.2 20 17.9 30.8 25.9 0.5 0.4 1.4 0.4 2.1 0.5"/><path class="st0" d="M571.7 596.1c6.4 10.5 14.5 19.8 21.6 29.7 18.8 26.3 37.8 52.6 53.4 81 7 12.8 14 25.7 21.8 38.3 3-4.3 5.9-8.3 8.7-12.3 7.8-11.4 19.7-18.2 30.3-26.4 13.7-10.6 28.4-20 41.3-31.7 2.4-2.2 3.8-5.1 6.2-7.2"/><path class="st0" d="M612.5 407.5c-10.6 24.9-24.2 48.2-39.3 70.6 -8.9 13.3-18.3 26.3-27 39.7 -0.7 1-1.5 2.6-3.3 2.4"/><path class="st0" d="M864.5 304.7c-4.3 4.7-6.7 10.6-10 15.9 -7.9 12.6-15.2 25.4-23.9 37.5 -5.3 7.2-12.4 11-20.3 12.1 -12.5 1.7-24 5.4-35 11.3 -0.6 0.3-1.6 1.2-2.4 0"/><path class="st0" d="M380.6 268.7c-0.4 3-2 5.4-3.8 7.7 -5 6.2-5.2 14.5-9.1 21.1 -2.4 4-4.1 8.3-4.8 13 -2.4 14.5 2.6 26.2 13.6 35.4 3.9 3.3 9.4 3.5 14.3 4.3 5.4 1 9.9-1.2 14.5-4.5 7.9-5.7 13-12.7 15.3-22.2 2.6-10.8 2-21.5 0-32.2 -0.3-1.8-0.1-3.6 0.9-5.3"/><path class="st0" d="M369.1 804.4c-2.2 4.7-6.9 6.9-10.6 10 -11.7 9.8-23.6 19.3-36.8 27.1 -13 7.7-27 13.1-40.9 18.5 -6.9 2.7-13.9 5.3-21.1 7.2"/><path class="st0" d="M577.4 231.8c-3.2 1-6.4 0.2-9.6 0.5 -9.3 1-18.5 2.6-26.4 8.1 -2 1.4-4.1 2.6-4 5.8 0.1 2.7-2.8 4.2-4.3 6.1 -6.5 8-13.4 15.7-21 22.6 -15.1 13.8-30 27.8-47 39.4 -9.2 6.3-18.7 12-29.3 15.9 -1.7 0.6-3 1.7-4.3 2.9"/><path class="st0" d="M307.7 439.6c-12.5 16.1-25.4 31.8-42.3 43.6 -14.9 10.4-31.8 17.4-48.4 24.5 -3.3 1.4-6.8 2.5-10 3.9 -1.7 0.8-2.9 1.6-1.6 4.3 7.8 16.5 18.5 30.6 32.2 42.8 8.9 7.9 18.2 15.3 27 23.4"/><path class="st0" d="M586.1 510.7c6.4 2 10.4 7.1 15.1 11.7 -3.6 4-8.8 4.9-13.2 6.9 -21.1 9.2-42.8 16.4-65.7 20.5 -16.7 3-33.3 6.6-50 9.6 -13.1 2.3-26.2 4.5-39.3 6.6 -13.2 2.2-26.4 4.3-39.4 7.5 -0.8 0.2-1.6 0-2.4 0"/><path class="st0" d="M475.2 767.9c-3.5 10-4.5 20.6-7.7 30.7 -1.4 4.5-2.5 9.1-4.3 13.4 -2 4.7-4.6 6.1-9.6 5.3 -16.1-2.6-31.3-8.1-45.6-15.9 -1.5-0.8-2.9-2-4.8-1.9"/><path class="st0" d="M346.6 626.8c0.5 6-2.1 11.5-4 16.7 -9.2 24.7-20.4 48.4-32.9 71.6 -1.5 2.7-2.5 5.7-4.4 8.1 -1.6 2-1.9 4-1.8 6.3"/><path class="st0" d="M167 765.5c-1.1-0.3-2-0.7-3.4-0.6 -14.4 0.8-28.9 1.7-43.2-0.9 -13.2-2.4-25.8-7-38.4-11.4 -4.1-1.4-7.9-3.8-12.8-4 -0.7 16 1.9 30.7 14.2 42.4 4.3 4 7.9 8.8 11.8 13.2 -4 2.8-9.6 4.1-15.1 5.4 -1.3 0.3-2.6 0.3-3.3 1.5"/><path class="st0" d="M538.1 181.4c-3 5.2-8.1 8.3-12.1 12.4 -15.2 15.7-30.3 31.4-46.1 46.5 -9.6 9.2-18.5 19.4-30.6 25.5 -5.2 2.6-10.5 4.8-15.8 7.2"/><path class="st0" d="M661.4 345.5c-1.9 2.5-0.7 5.4-0.9 8.2 -0.8 9.5-4.8 17.6-10 25.5 -9 13.8-22.9 20.5-36 28 -2.6-1.1-1.3-2.7-1-3.6 6.4-15.8 9.5-32.5 13.4-49 2-8.6 3.3-17.4 5.7-25.9 0.3-1.2 0-2.5 0-3.8"/><path class="st0" d="M96.5 518.3c-4.9 3.2-9.4 7.3-16.7 6.1 10.4 15.8 19.4 30.8 27.7 46.3 2.7 5.1 4.5 10.7 6.3 16.3 3.7 11.5 8.9 22.1 18.2 30.3 1.4 1.2 3.5 2.2 2.9 4.8"/><path class="st0" d="M439.7 462.2c-1.3 2.6 0.1 5.1 0.1 7.7 -0.2 7-3.1 10.3-9.2 12 -5.7 1.6-11.4 2.2-17.3 2.5 -8.2 0.5-16.5 1-24.4 3 -6.6 1.7-11.9 6.3-15.5 12.7 -2.6 4.6-4.4 9.6-8.1 13.5"/><path class="st0" d="M870.2 543.3c-10.7-17.6-27.1-24.8-47-24.4 -7.7 0.1-14.9 3.4-22.1 6.1 -7.6 2.9-14.4 7.5-22.1 10.1"/><path class="st0" d="M607.7 546.2c-10.1 5-20 10.2-30.3 14.8 -12.8 5.7-26.6 8.3-40.3 11.1 -7.2 1.5-14.3 3.3-21.6 3.9 -0.5 0-1 0.9-1.4 1.4"/><path class="st0" d="M876.5 625.4c4.6-3 9.1-1.2 13.4 0.6 3.7 1.6 7 3.9 11.4 6.4 -1.6-8.6-1.2-16.5-2.6-24.3 -1.6-8.8-5.6-16.4-10.7-23.5 -6.9-9.6-16.9-9.7-27.3-8.2 -6.1 0.9-11.9 3.5-18.2 3.4"/><path class="st0" d="M292.8 745.4c6.8 2.5 14.1 3.2 21.1 4.7 11.2 2.4 22.3 5.4 33.1 9.3 11.2 4 22.8 6.2 34.6 7.6 1.1 0.1 2.3 0.2 3.4-0.5"/><path class="st0" d="M388.3 668.1c-1.2 10.1-3.5 19.9-5.8 29.7 -4.4 18.7-7.7 37.7-12.7 56.2 -0.5 1.9-0.7 4.1-1.1 6.2"/><path class="st0" d="M419 678.7c5.2 11 11 21.8 17.4 32.1 7.9 12.7 19 22.6 30.7 31.7 15 11.7 30.3 23 46 33.8 18.2-16.1 34.5-33.6 47.1-54.4 2.5-4.1 5.3-7.9 7.4-12.4 1.9-3.8 5.5-7.7 11.2-6.4 3.4 0.8 6.7-1.1 10.1-0.5"/><path class="st0" d="M408.5 686.8c8.3 13.2 16.1 26.7 24.4 39.9 7.4 11.6 16.4 21.4 27.4 29.8 15.8 12.1 33.1 21.6 50.5 31.1 2.9 1.6 4 3.4 3.9 6.8 -0.3 7 0 14.1-0.1 21.1 -0.2 20.9-4.5 40.7-13.7 59.6 -6.5 13.4-13.8 26.2-20.8 39.3 -1 1.9-1.3 3.9-1.1 6.2 0.7 9.9 2.4 19.6 4.6 29.2 2 8.8 8.1 15.1 14.8 20.6 3.1 2.6 6.2 5.2 10 6.9 3.3 1.5 6.4 1.2 9.3 1.3 1.7-2.5 0.4-4.4-0.2-6.2 -1.2-3.9-1-8-0.9-12 0.1-3.8-2.5-5.3-5.2-4.2 -6.6 2.8-12.6-0.1-18.8-1.2 -2.1-0.4-4.2-0.5-6.3-0.4"/><path class="st0" d="M706.6 441.5c-1 5.2-0.3 10.6-1.4 15.9 -1.3 6.1-4 11.3-8.7 15.3 -19.3 16.2-39 32-59.5 46.6"/><path class="st0" d="M865.9 300.4c-1 6-0.4 12.2-0.9 18.2 -1 13.2-1.6 26.3-4 39.3 -2.1 11.4-5.5 22.6-9.2 33.6 -0.5 1.6-0.9 2.8-0.3 4.4"/><path class="st0" d="M490.1 584.6c-3.2-3.1-7.1-2-10.5-1.3 -17.7 3.3-35.5 5.9-53.3 8.7 -11.7 1.8-23.5 3-35.1 5.6 -0.9 0.2-1.9 0-2.9 0"/><path class="st0" d="M84.5 246.7c-0.3 5.1 3.8 8 5.8 12 6.7 13.5 14.4 26.4 24.9 37.5 8 8.5 17.3 9.3 27.9 6.7 9.1-2.2 17.4-6.5 26.8-8.1 5.3-0.9 10.1-0.2 14.9 0.9 11.3 2.7 21.6 8.1 32.2 12.8"/><path class="st0" d="M575 180.4c2 4.6 0.1 9.4-0.2 13.9 -0.8 9.8 1.3 19.2 1.9 28.8 0.5 8.6 4.5 10.8 12.2 12.3 7.8 1.5 15.4 5.2 21.1 11.3 1.1 1.2 2.6 1.5 3.9 2.3 8.9 5 10.1 14.5 13.3 22.7 7.3 18.9 14.5 38 23.7 56.1 7.2 14.1 18.2 25.1 30.3 34.9 3.6 2.9 7.5 5.2 10.4 8.8"/><path class="st0" d="M634.1 560.6c22.7 15 45.5 30 68.1 45.1 16.3 10.9 33 21 49.4 31.7 5.7 3.7 10.5 8.5 13.5 14.8 1.4 3 4.9 3.5 7.2 3.6 7.2 0.3 14.5-0.2 21.1-3.6"/><path class="st0" d="M580.3 234.7c0.5 6.8 3.2 12.9 5.3 19.2 4.7 14.1 10.7 27.7 17.7 40.8 4 7.5 8.2 14.8 12.5 22.1 0.6 1.1 1.2 2 2.4 2.4"/><path class="st0" d="M360 96.9c-14.4-12.5-28.2-25.6-44.6-35.5 -8.1-4.9-17.3-7.3-25.9-11 -11.7-5-22.3-11.9-33.5-18 -2.2-1.2-6 0.1-6.9-3.6"/><path class="st0" d="M552.5 620.1c-8.4 3.9-13 11.4-17.8 18.7 -4.4 6.6-9.1 13.1-13.4 19.7 -1.9 2.9-3.6 3-6.8 2 -14.8-4.6-29.6-9.2-44.6-12.9 -7.2-1.8-14.7-2.6-22-4 -0.7-0.1-1.6 0.3-2.4 0.5 -1-2.7-2-5.5-3.3-9.1 22.5 1.7 43.9 5.7 64.2 14.8"/><path class="st0" d="M748.8 636.4c-30 28.7-62.6 53.8-98.9 73.9"/><path class="st0" d="M577.4 319.1c1.5-8.6-2.8-15.9-5.4-23.5 -0.3-0.8-0.3-1.7-0.8-2.5 -1.5-2.6-0.1-6.5-3.9-8.2 -4.5-2-9.3-2.4-13.9-1.7 -3.8 0.5-7.9 1.2-10.6 4.7"/><path class="st0" d="M538.6 294.7c-1.1 3.2-3.7 5.4-5 8.6 -2.2 5.2-6.4 9.6-4.6 15.9 -4.2 7.8-1.2 16-0.8 24 0.4 8.1 5.5 14.1 11 19.6 1.1 1.1 3.1 0.8 4.7 1.1 8.7 1.2 17.1 0.8 24.5-4.8 5.1-3.9 7.5-9.1 8.7-15.4 1.4-6.7 2-13.4 1.8-20.2 -0.1-2 0.3-4.2-2.9-3.6"/><path class="st0" d="M191.5 910c3.7 11.3 9.1 21.3 18.7 28.9 4.7 3.7 8.8 8.2 11 13.9 2.2 5.5 2.3 11.1-0.9 16.3 -2.7 4.3-4.3 9.1-7.5 13.1 -0.8 1-3 3.8 0.8 4.7"/><path class="st0" d="M390.2 776.6c3.5 4.9 5.4 10.6 8.2 15.8 8.5 16.2 17.1 32.3 26.4 48 8.5 14.3 6.5 28.8 0 43.2 -0.1 0.2-0.4 0.3-0.5 0.5 -0.5 3.6-5 7-3.1 9.9 3.1 4.7 7.1 9.8 13.2 10.6 7 0.9 12.9-2.8 18.2-7 3.2-2.6 4.8-6.7 8.3-9.3 1.3 0.7 2.7 1.4 4.1 2.1"/><path class="st0" d="M124.8 96.9c3.1 7.8 8 14.6 11.5 22.1 3.1 6.6 7.2 18.2 6.2 23.1 -3.7-0.2-6.5-2.5-9.6-3.9 -20.1-9.6-41.1-16.7-62.4-23 -1.6-0.5-3.5-0.1-5.3-0.1"/><path class="st0" d="M768 551.5c-2.4 1.4-4.8-0.1-7.2-0.1 -3.6 0-5.8 1.3-7.2 4.4 -2.1 4.5-3.4 9.2-4.8 13.9 -3.9 12.4-10.5 23.3-18.2 33.6 -3.3 4.5-6.7 9-10.1 13.4"/><path class="st0" d="M338.9 409.9c1.3 3.6 0.8 7.4 0.9 11 0.6 21.7 6.4 42.3 14 62.4 1.1 2.9 1.6 6 3.4 8.6"/><path class="st0" d="M462.7 145.9c-1.4 7.6-4.2 14.8-6.7 22.1 -4.3 12.4-8.8 24.8-15.8 36 -3.9 6.3-8.6 12.1-13.9 17.3"/><path class="st0" d="M340.3 416.1c3.6 2.4 4.3 6.7 6.1 10.1 7.9 14.8 17.2 28.6 29.4 40.2 6.3 6.1 13.9 10.4 21.6 14.4 0.3 0.2 0.6 0 1-0.5"/><path class="st0" d="M222.2 407c9.7 13.8 20.2 27 31.8 39.3 6.7 7.1 15.8 11 24.8 14.5 2.1 0.8 4.5 1.6 5.3 4.3"/><path class="st0" d="M609.6 248.6c-2.2 6-1.1 12.2-0.8 18.2 0.9 16.1 5.2 31.6 9.3 47.1 1.3 4.8 2.2 9.7 4 14.4"/><path class="st0" d="M173.3 334c0 0.5 0.2 1 0 1.4 -4.4 8.9-7.8 18.1-10.1 27.8 -1.9 8.2-0.1 16 0.9 25 10-9.2 19-19.2 33.9-17.7 0.3 3.8-2.9 6.8-4.7 9.9 -7.3 12.7-10.4 26.8-15.3 40.4 -2.4 6.6 2.5 9.6 4.6 14 0.8 1.7 3 2.5 3.8 4.4"/><path class="st0" d="M745 83.9c-12.5 5.4-24.7 11.7-35 20.7 -14.8 12.9-27.6 27.8-40.9 42.1 -2.1 2.3-2 4.8-1.2 6.7 4.2 10.5 7.5 21.4 10.2 32.3 1.9 8.1 2.9 16.5 3.5 24.9 0.4 6.1 2.6 11.8 3.7 17.7 1.6 8.5 0.3 16.8-0.4 25 -1.1 12.1-3.4 24.2-6.5 36 -2.6 10.2-7.6 19-14.4 26.9"/><path class="st0" d="M604.3 761.2c-1.2 6.7-5.4 12.1-8.7 17.7 -15.2 26.1-31.6 51.6-45 78.8 -4.1 8.2-6.7 16.9-7.5 26.3 -0.8 8.5-1.9 17-2.3 25.5 -0.3 7.4-1.1 14.7-1.2 22.1 -0.1 5.4-1.6 10.6-2.6 15.8 -0.3 1.4-1.3 3.5-3.7 3.4 -1 0-2 0.7-2.8 1.1 -2.4 1.2-5.5 0.9-7.2 3.2 -2.1 2.7 0.4 5.4 1.2 7.6 1 2.6-0.5 5.6 1.6 7.8"/><path class="st0" d="M889 638.3c-4 0.7-7-3.3-11.3-2.3 0 1.2 0 2.5 0 4.9 -12.5-12-27.1-17.7-43.5-20.4 2.7 3.2 5.3 6.3 8.6 10.2 -5.7 0.1-10.4-1.6-15.2-1.5 -8.2 0-16.1 2.3-24 4 -9.2 2-18.2 4.8-27.4 7 -1.2 0.3-1.9 1.1-2.9 1.5"/><path class="st0" d="M459.4 790c-5.2 6.3-7.1 6.7-14.9 4.4 -16.7-5-33.1-10.7-49.5-16.7 -0.7-0.2-1.9-1.2-2.8-0.1"/><path class="st0" d="M504.5 585.5c2.6-2.7 6.6-3.8 8.9-7.4 -4.9-1.8-9.2 0.2-12.1 2.8 -2.4 2.2-4.6 3.2-7.4 3.1 -3.3-0.2-4.5 1.1-4.4 4.4 0.2 3.2 0.4 6.4-0.6 10.2 5.4 1.2 6.5 6 7.8 10.5 4.1 13.7 12.1 25 22.1 35 2.2 2.2 3.3 5.7 6.7 6.7"/><path class="st0" d="M441.6 416.6c-2.7-5.4-3.1-11.4-4-17.9 19.3 0.6 37.7 3 56.7 7.5 -6.2 8.7-10.3 18.3-18.7 24.2 -12.7 8.8-28 5.2-33.5-10.9 -0.2-0.5-1.1-0.7-1-1.2 4.6-5.9 7.1-13.2 13.5-17.5"/><path class="st0" d="M618.7 638.3c10 15.6 20.5 30.9 31.2 46.1 3.5 5 8.4 8.7 13.5 11.9 1.3 0.8 2.1 1.8 3.3 2.5"/><path class="st0" d="M639.4 748.7c-6.1-4.7-12.7-5.6-20.2-4 -3 0.6-5.5 3-9.1 2.3 -2.5-0.5-3.6 2.6-5 4.7 3.2 6.7 8.2 12.5 10 20 0.4 1.9 0.9 3.9 1.6 5.9 2.2 6.2 3.1 7 10.3 6.2 -0.2-4.9-2.8-9.2-4-13.9 -0.9-3.5-2.9-6.7-2.3-10.6"/><path class="st0" d="M875 397.4c-2.1 11.4-8.2 20.9-14.5 30.2 -6.1 9-13.1 17.5-20.5 25.6 -1.6 1.7-3.9 3.2-3.4 6.2"/><path class="st0" d="M598.6 340.3c-1.3-3.9-0.1-7.7 0.5-11.5 2.8-17.9-8.1-34.8-24-40.9 -1.6-0.6-2.8-1-4.4-0.4"/><path class="st0" d="M459.8 947c-5.8-2.9-10.5-7.2-14.2-12.5 -4.7 0.6-9.1 1.6-13.7 1.5 -8.6-0.1-17.3 0.3-25.9 0.4 -1.6 0-3.3 0.3-4.8-0.5"/><path class="st0" d="M368.6 299.9c5.2 6.2 8.3 13.8 13.2 20.3 6.2 8.1 14 8.8 22.8 8 5-0.5 9.1-2.4 12-6.7 0.7-1.1 1.8-2.1 3.3-1.9"/><path class="st0" d="M264.5 174.7c3.9 12.2 12 22.1 18.9 32.5 1.8 2.8 1.8 4.7 0.8 7.3 -2.7 6.9-5.4 13.8-8.2 20.6"/><path class="st0" d="M549.6 599c-0.3 5.7 0.5 11.3 2 16.8 0.7 2.4 2 4.5 4.1 6.4 5.9 5.1 12.3 9.5 18.7 13.9 7.9 5.5 16 11 21.7 19.1 9.9 14.3 15.5 30 15.8 47.5 0.1 4.6-0.3 9.3 0.1 13.9 0.5 6.6-1 12.9-2.3 19.1 -0.8 3.9 0.5 7.4-0.2 11.1"/><path class="st0" d="M229 358c4.1 7.4 7 15.4 10.6 23 6.2 13.3 13.5 25.9 25 35.5"/><path class="st0" d="M237.6 616.3c10 12.7 19.4 25.8 31.2 36.9 6.2 5.8 13.4 10.4 20.6 14.9"/><path class="st0" d="M62.9 317.7c4.4 4.1 5.2 10 7.9 15 9 16.3 20.2 30.9 33.3 44 1 1 2.2 1.8 2.4 3.4"/><path class="st0" d="M573.6 270.2c-3.4-0.3-6.7-0.5-10.1-1 -13.8-1.9-25.8 1.9-36.5 10.6 -3.5 2.9-7 5.8-10.6 8.6"/><path class="st0" d="M577.9 168.9c-6.5 18.5-14.7 36.3-24.4 53.3 -1.6 2.7-3 5.6-4.9 8.1 -1.4 1.8-1.5 3.7-1.4 5.8"/><path class="st0" d="M420.5 894.2c-3.7 5.3-6.8 11.1-9.4 16.9 -2.2 5.1-4.8 10.1-7.2 15.2 -2.2 4.6-2.6 9.8-5.5 14.1 -0.6 0.8-0.4 2.6 0.9 3.3 11.7 6.1 22.4 14.6 36.5 14.4 6-0.1 11.7-2 17.2-3.9 1.2-0.4 2 0 2.9 0.1"/><path class="st0" d="M366.7 270.7c-0.2-1.9 0.2-3.6 1.9-4.8 2.3-1.7 4.8-3.2 6.7-5.3 4.6-5.1 10.1-5.5 16.4-4.3 7.9 1.5 15.9 1.8 23.5 4.8 10.3 4.1 17 12.3 24 20.2"/><path class="st0" d="M873.1 464.6c-3.6 0.8-6.8-1.3-10-2.1 -18.3-4.7-36-2.5-53.3 4.1 -9.6 3.7-18.9 7.9-28.3 11.9"/><path class="st0" d="M584.6 421.9c-10.9 21.2-23.3 41.6-41.5 57.4 -6.2 5.4-10.7 12.4-17.6 17"/><path class="st0" d="M224.6 806.3c-14.6 6.6-29.4 13-42.7 22.1 -3.7 2.5-7.4 5.1-11 7.7"/><path class="st0" d="M639.8 747.3c4.3-0.5 7.8 2.5 12.4 2.4 -1-5.7-3-11-4.9-16.7 -12.3 5.9-24.9 6.5-37.8 5.7"/><path class="st0" d="M437.3 165.1c-5.7 4.4-10.3 9.8-15.3 14.9 -9.4 9.6-19.3 18.6-30.3 26.3 -0.1 0.1-0.6 0-0.9 0.5 -3.7 5.8-9 6-15.4 5.6 -5-0.4-10.3 1.4-15.3 3.1 -9.3 3.1-18.5 6.7-26.9 12 -1.6 1-3.2 2.2-5.3 2"/><path class="st0" d="M565.9 429.5c1.1 5.6-2.1 10.1-3.9 14.9 -4.6 12.3-12.9 22.3-20.6 32.7 -1.1 1.4-2.9 2.5-2.4 4.8"/><path class="st0" d="M91.2 587.9c5.3 5.5 8 12.7 12.3 18.9 2.9 4.2 6.5 6.4 10.8 8 11.6 4.1 22.8 8.5 32.8 16.2 8.2 6.3 16.7 12.5 25.3 18.4 1.8 1.2 3.4 2.8 5.7 2.9"/><path class="st0" d="M495.8 888.4c3.4 2.6 6.6 5.2 10.1 7.6 2.3 1.6 5.2 2.2 7.6 1.3 2.6-1 2-4.1 2-6.5 0-3.6 0.4-7.2-1.7-11 -5.1 0-10.2 2.7-15.6 1.9"/><path class="st0" d="M538.6 935.9c-2.8-0.7-4.3 0.7-5.8 2.9 -2.7 4-6.4 7.3-10.6 9.5 -7.9 4.3-16.3 2.6-24.4 0.9 -3.1-0.7-6.6-1.2-9.2-3.7"/><path class="st0" d="M308.6 268.7c-2.2 12.4-4.3 24.8-5.5 37.4 -1.2 12 0.8 23.4 2.1 35.1 0.8 7.1 1.7 14.1 3 21.1 0.2 1.2 0.2 2.6-0.4 3.8"/><path class="st0" d="M400.8 215.5c-3.2 6.7-8.8 11.4-14 16.3 -10.6 9.9-21.8 19.2-33.1 28.4"/><path class="st0" d="M445.4 155c-5.3 4.8-7.1 11.8-10.6 17.7 -8 13.4-17.6 25.6-27.8 37.4 -1.2 1.4-2.8 2.6-2.4 4.8"/><path class="st0" d="M530.4 928.7c-5.5 3.9-12.1 4.4-18.3 5.6 -9.9 2-19.9 3.4-29.7 5.4"/><path class="st0" d="M369.1 431.9c-0.4 2.3 1.3 3.6 2.4 5.3 8.5 12.9 16.9 26 25.6 38.8 1.4 2.1 1 5.9 4.7 6.3"/><path class="st0" d="M662.9 315.8c3.4 13.5 10.4 25.5 17.3 37.4 2 3.5 5.3 6.5 5.3 11"/><path class="st0" d="M581.8 430c0.4 6.1-2.4 11.5-3.8 17.3 -4.3 18.4-15 33.6-23.6 49.9 -3.5 6.5-8.2 12.5-10.8 19.3 -3.4 9-9.6 16.2-14.1 24.4 -0.7 1.3-1.5 2.3-2.9 2.9"/><path class="st0" d="M515 722.3c5.2 4.2 12.7 3.8 17.4 8.7 -0.8 4.2-4.2 5.2-6.8 7.1 -4.3 3.3-4.2 4.6 0.5 7.2 3.8 2.1 8 2.8 12 4.3"/><path class="st0" d="M411.4 539.5c-12.9 9.4-23 21.2-26.1 37 -3 15.1-2.8 30.1 9.2 42.8 9.6 10.1 20.6 12.3 33.8 11.1 8.9-0.8 17.3-2.4 25.4-6 7.4-3.3 14-8.1 21.1-12"/><path class="st0" d="M568.8 701.7c-5.2 0-10.3-0.6-15.4 1.3 -2.1 0.8-4 0.5-4.3 3.5 -0.4 3.5-1.2 7.4 2.1 9.4 2.1 1.2 5.3 1.4 8.1-0.2 2.6-1.6 3.8-5 7.2-5.3"/><path class="st0" d="M601 523.6c5.7 5.1 6.9 12.3 7.4 19.2 0.5 6 0.8 12.1-0.6 18.2 -2.1 8.7-6.3 15.9-13.1 21.6 -6.4 5.4-13.3 10-21.6 12 -5.3 1.2-10.8 1.9-16.3 2.5 -7.2 0.9-14.5 0.3-21.6 1.8"/><path class="st0" d="M853 748.7c-2.1 0.1-4.1-0.6-5.7-1.5 -7.1-4-14.7-2.4-22.1-2.7 -0.6 0-1.3 0.6-2.3 1 4.7 5.3 9.1 10.7 13.4 16.2 5 6.4 5.8 13.2 3.8 20.7 -0.8 2.9-0.8 6.2-3.1 8.9 -6.6-6.3-9.8-15.9-18.5-20.4"/><path class="st0" d="M547.2 766c3.2 6.2 5.9 12.6 9 18.8 3.5 7.2 9.4 11.5 16 15.3 2.6 1.5 5.4 2.6 8.1 3.9"/><path class="st0" d="M515 879.8c3.1-1.3 6.2-2.5 9.3-1.5 1.5 5.6-0.3 11-0.6 16.4 -0.4 7.5-9 13.5-16.4 9.7 -5.5-2.8-10.9-6.2-16.7-8.3"/><path class="st0" d="M875 352.3c-3.2 8.2-6.1 16.5-9.7 24.4 -3.7 8.4-9.6 15.4-15.8 22.1"/><path class="st0" d="M529.4 319.6c4.1 1.2 8.1 2.7 12.5 2.4 4.6-0.4 8.3-3.7 8.6-7.7 0.5-4.9-1.3-9.5-5.7-11.1 -3-1.1-5.4 1.7-8.3 0.8 -0.4-0.1-1.5-0.2-2.3-0.2"/><path class="st0" d="M372 643.1c-1.8 0-3.5 0-5.3 0 -5.2 0-5.5 0.3-5.8 5.8 -0.3 5.9 0.4 11.8 0.5 17.8 0.1 6.5 0.1 6.2-6.4 7.7 0.9 2.1 1.6 4.2 2.6 6.2 2.7 5.7 2.7 5.7-2.4 9.6 -0.6 0.5-1.5 0.9-1.5 1.9"/><path class="st0" d="M532.3 937.4c-16.3 2.7-32.6 5.4-49 8.2"/><path class="st0" d="M374.4 305.7c1.5-0.5 2.7-0.3 4.4 0.3 4.3 1.6 9.7-1.1 11.5-5.1 1.9-4.5-1.4-11.7-4.4-12.8 -2.8-1-6-1-8.5 0.9 -1.7 1.3-3.4 1.4-5.3 1.4"/><path class="st0" d="M540.5 903.8c-6.3 0.3-12.5 2.3-17.5 5.2 -4.5 2.6-9.2 4.8-13.6 7.4 -3.4 2-7.5 2.7-10.6 2.4 -4.6-0.4-9 1-13.5 0.4 -2.4-0.4-4.8 1.3-7.2 0.1 -2.5 2.4-4.6 5.2-5.8 8.6 -0.9 2.6-2.8 3.7-5.7 3.4 -4-0.3-8.1 0.2-12 1.4"/><path class="st0" d="M593.8 781.4c-3.4-1-6.7-2.1-10.1-2.8 -5-1.2-9.5-3.5-12.9-7.3 -5.1-5.6-10.3-11.2-15-18.7 -6.7 6.6-11.8 14.5-19 20.2 -7.3 5.8-14.4 12-22.1 17.2"/><path class="st0" d="M697.9 634.5c2.2 1.5 4.4 2.9 5.4 5.7 0.9 2.5 3.1 4.2 6.2 4.4 -2.2 4.5-7.5 6.6-9.1 11.5 -0.5 1.5-1.8 2.2-2.9 2.3 -3.9 0.4-4.2 5.6-8.1 5.9 -0.8 0.1-0.4 1.2-0.5 1.9 -0.5 5.1-1.6 9.9-7.2 12.1 -1 0.4-1.6 1.5-2.4 2.3"/><path class="st0" d="M396.5 623c-2.9 3.2-2.2 7.5-2.6 11.1 -1 8.3-2.6 16.6-3.6 24.9 -0.3 2.4-1.5 4.7-1 7.2"/><path class="st0" d="M406.6 629.2c-1.9 14.2-3.3 28.4-3.8 42.7"/><path class="st0" d="M431 295.6c-2.3-5.8-7.8-8.9-11.5-13.4 -1.1-1.3-2.2-2.6-3.4-3.8"/><path class="st0" d="M404.2 270.2c-3.6-1.1-6.9-3-10.6-3.9 -3.8-0.9-7.6-2-11 1 -0.6 0.5-1 1-1.9 1 -12.1-0.6-22.9 6.5-28.4 18.2 -3 6.4-3.6 13.4-4.7 20.2 -1.6 10.1 0.3 20.2 1.4 30.2"/><path class="st0" d="M355.7 367.6c13.9 5.2 28.1 9.2 42.2 13.4"/><path class="st0" d="M472.8 924.4c-3.8-1.7-7.5 0.2-11 0.7 -8.3 1.4-16.7 2.1-25 3.5 -3.4 0.6-6.4-0.3-9.2-2.8 -5.2-4.5-11.3-8.1-16.3-13"/><path class="st0" d="M417.6 901.4c3.6 3.4 7.6 6.1 11.4 9.3 4.4 3.6 9.1 4.3 14 2.6 8.6-3 16.2-7.5 19.8-16.7 0.2-0.5 0.3-1 0.5-1.4 2.4-5.3 2.4-5 8.6-4.4 6.4 0.6 12.9-0.5 19.2 1"/><path class="st0" d="M431.5 662.3c1 1 1.9 2 2.9 2.9 4.5 3.7 5.8 8.3 2.8 13.4 -1.7 3-0.7 5.3 1.6 6.7 5.1 3 8.4 7.6 12.5 11.6 3.1 3.1 4.5 5.7 1.6 10.2 -3.6 5.5-1.1 11.7 5.2 13.7 2.7 0.8 5.8 0.6 8.6-0.8 2.4-1.2 4.9-2.4 7.7-3.8 5.3 6.4 8.9 14.6 15.3 20.1 1.2 0.1 1.4-0.3 1.5-0.9 1-7.6 5.9-11.1 13-11.9 2.8-0.3 4.7-3.1 7.7-2.5"/><path class="st0" d="M352.8 694c-0.4 4.2 0.9 8.4-1.8 12.6 -2.5 3.9-4.3 5.9-8.8 5.1 -1.3-0.3-2.6-0.2-3.9-0.3 -2-0.2-3.8-0.1-3.9 2.8 -0.1 1.9-1 3.9-2.8 4.8 -4.3 2.1-7.1 5.7-9.6 9.6"/><path class="st0" d="M521.3 909.1c-3-1.7-5.9 0.2-8.6 0.6 -8.5 1.3-17.1 1.9-25.5 3.6 -1.8 0.4-3.9 0.6-5.7-0.4"/><path class="st0" d="M421.9 223.1c0.1 3-2.6 3.5-4.3 4.8 -10.5 7.6-20.7 15.4-30.7 23.6 -1.1 0.9-2.4 1.8-2.9 3.3"/><path class="st0" d="M641.8 347.5c-0.4 8.2-0.1 16.6-5.8 23.5 -3.9 4.7-8.1 8.8-14.4 10.1"/><path class="st0" d="M540 910c-3.7 0-6.5 2.5-9.5 4 -15.3 7.9-31.8 13-47.6 19.5 -0.5 0.2-1.3 0-1.9 0"/><path class="st0" d="M532.3 321.5c1.6 5.2 2.7 10.5 6.2 14.9 7.8 9.8 17.4 9.1 26 1 5.1-4.8 8-11 11.5-16.9"/><path class="st0" d="M614.4 176.6c-1.3 12.4-1.5 25-2.4 37.4"/><path class="st0" d="M612.5 215c2.1 4.9 1.8 10.3 2.7 15.4 0.8 4.7 1.9 9.3 3 13.9 0.6 2.4 1.2 5.1 0.1 7.7"/><path class="st0" d="M398.9 943.6c-4.1 7.6-2.3 23.5 5.2 29.4 9.9 7.8 20.2 7.7 31.3 4.2 7.9-2.5 12.7-8.6 16.8-15.4 5.5-9.2 10.8-18.6 16.4-27.8 0.6-0.9 0.9-1.5 0.4-2.4"/><path class="st0" d="M781.9 212.6c-2.5 5.7-3.2 11.9-5.3 17.8 -1 2.8-1.9 5.6-4.3 7.7 -3.6 3.2-6.8 6.7-9.1 11"/><path class="st0" d="M73.4 810.7c5.1 1.7 10 3.6 14.7 6.3 -3.9 5.4-9 6.4-14.7 6.3 -3-0.1-6.2-0.7-9.1 0.9"/><path class="st0" d="M565 692.6c2.8-2.4 3.5-5.9 4.2-9.1 0.7-3.2 0.1-6.1-3.6-8.3 -7.1-4.1-14.3-2.8-21.1-0.6 -4.4 1.4-6.8 10.5-3.4 15.6 4.9 7.1 7.2 7 15.3 0"/><path class="st0" d="M59 823.1c5.8 0.4 10.1 4.5 15.3 6.4 7.1 2.6 14.2 5.2 21.7 6 2.1 0.2 3.8 3 6.2 1.1"/><path class="st0" d="M568.3 633.5c-0.9 2.2-0.7 4.5-0.9 6.7 -0.7 6.7 1.7 12 8.8 14.9 -3.3 4.2-6.3 8.1-9.3 12"/><path class="st0" d="M619.2 755.5c-0.2 1.4 0.5 2.4 1.4 3.4 7.4 7.3 12.7 16 16.7 25.5 1.2 2.8 4.1 5 3.4 8.6"/><path class="st0" d="M363.8 388.3c11.4 2.7 22.7 5.4 34.1 8.2"/><path class="st0" d="M585.6 590.3c7.4 8 12.4 17.7 18.7 26.4 1.7 2.3 3.2 4.8 4.8 7.2"/><path class="st0" d="M653.3 588.4c4.3 1.7 4.9 6.3 6.5 9.7 1.6 3.3 3 5.4 6.9 4.7 0.6-0.1 1.3-0.1 1.9 0.4 3.7 3.1 8.1 4.5 13.3 3.7 -1.6 4.3-5.8 4.9-6.7 8.3"/><path class="st0" d="M575 713.7c3.3 5.1 5.9 10.5 8.5 15.9 2.7 5.6 7.1 8.4 12.2 10.9 2 1 3.9 0.9 5.8-0.4 2.2-1.5 4.5-3 7.2-1"/><path class="st0" d="M785.8 759.3c10.3 5 18.2 12.4 23.5 22.5 0.9 1.7 1.7 3.3 1.4 5.3"/><path class="st0" d="M327.8 464.6c-4.4 11.6-8.9 23.1-17.3 32.6"/><path class="st0" d="M541.4 444.9c-2.3 7.8-8.1 12.7-14.4 17.3 -4.3 3.1-9.4 4.9-13.1 9 -2.5 2.8-12.4 2-16.6-1 -1.6-1.1-3.8-1.4-4.5-3.6 -2.7 2.4-1.5 5.1-1.8 7.5"/><path class="st0" d="M428.2 877.4c10 3.1 19.5 7.8 29.7 10.1 0.6 0.1 1 0.9 1.5 1.4"/><path class="st0" d="M179 917.7c-3.5 5.4-6.8 10.9-8.8 17.2 -1.9 6.1-0.9 11.1 3 15.9 6.1 7.6 14.2 12.7 21.6 18.7"/><path class="st0" d="M548.6 612.4c-9.7 7.7-18.1 16.6-25 26.9 -0.8 1.1-1.6 2.2-2.4 3.4"/><path class="st0" d="M274.1 379.1c3.2 6.1 5.3 12.7 8.6 18.7 2.3 4.3 4.7 8.4 9.6 10.1"/><path class="st0" d="M545.8 465.5c-6.6 0.7-13.1 2.1-19.2 4.8 -3.7 1.6-7.5 2-11.5 1.5"/><path class="st0" d="M535.2 950.8c-1.2 10.9-5.5 20.1-14.4 26.8 -0.4 0.3-1.4 0.4-1.9-0.4"/><path class="st0" d="M389.8 557.2c-3.4-1.4-6.7-3.1-10.1-4.3 -4.9-1.8-9.8-4-15.4-2.5 -1.2 0.3-2.5-0.3-3.8-0.4"/><path class="st0" d="M518.4 707.5c0.3 1.6-1 2.5-1.4 3.8 -1.6 4.5-4.7 8.2-5.8 12.9 -1.2 4.9-6.3 6.2-9.5 9.1 -4.1 3.7-4.1 4.7 0.5 7.7 5.9 3.9 5.9 5.3 1 10.6 -3.1 3.4-7.2 5.6-10.1 9.1"/><path class="st0" d="M611.5 215c-2.2 7.1-1.9 14.3-1.9 21.6 0 2.6 0.3 5.2-1.9 7.2"/><path class="st0" d="M576.5 724.7c-6.8 8.9-13 18.2-20.6 26.4 -0.4 0.4-0.4 1.3-0.5 1.9"/><path class="st0" d="M585.1 703.6c0.5 2.7 3.2 2.3 4.8 3.4 3.4 2.3 4.2 4.9 2.4 7.7 -1.7 2.5-5.9 3.3-8.6 1.4 -1.4-1-2.6-2.2-3.9-3.3 -2.4-2.2-4.8-4.5-7.2-6.7"/><path class="st0" d="M165.1 512.6c0.3 4.8 1.7 9.4 3 13.9 1.6 5.5 6.4 8.2 11.8 9.6"/><path class="st0" d="M548.2 696.4c-2.1 5.3-5.7 10.2-4.7 16.3 0.4 2.3 0.7 4.5-0.1 6.7 -2.9 0.1-5.1-1.8-7.6-2.6 -4.6-1.4-8.6-1.8-13.1 0.5 -1.9 1-4.7 2.4-7.1 0.2"/><path class="st0" d="M587 379.1c-8.6 2.9-17.3 5.8-25.9 8.6 -0.6 0.2-1 0.3-0.9 1"/><path class="st0" d="M216.5 684.4c7.9 7.1 17.5 11.6 26.9 16.3"/><path class="st0" d="M383 585.1c-9.3 0-18.3-1.7-26.9-5.3"/><path class="st0" d="M600 662.3c-4.1 4.8-6.9 10.5-10 15.9 -1.9 3.4-6 5.2-6.4 9.5"/><path class="st0" d="M684 151.6c1.7-5.2 5.8-9.5 5.8-15.6 -3.4-2.2-6.7 2.5-10.1 0.2"/><path class="st0" d="M862.6 560.6c-9-0.8-17.4 0.6-25.3 7.8 9.2 0.2 17.6 1.8 26.2 0.4"/><path class="st0" d="M397.9 952.3c7.6 2.1 14.3 6 21.1 9.6 2.2 1.1 3.1 2.6 2.5 5.3 -0.8 3.6-1 7.3-1.5 11"/><path class="st0" d="M286.6 618.2c-7.7 0-15.3 1.7-23 1 -0.7-0.1-1 0.3-1 1"/><path class="st0" d="M193.9 488.6c2.9 8.3 5.7 16.6 10.6 24"/><path class="st0" d="M473.8 531.8c10.6 4.3 17.2 13.1 24 21.6"/><path class="st0" d="M541.4 889.4c-8.3 1.6-9.2 1-11.4-9.6 -0.8-3.8-2.1-3.3-4.5-1.9"/><path class="st0" d="M472.8 891.3c-0.4 2.1-1.2 4.1-1.6 6.2 -1.3 7.5-1.1 8.1 6.3 11.2 1.3 0.5 2.7 0.9 3.9 1.8"/><path class="st0" d="M99.4 837.5c-6.8 4-13 8.4-15 16.8 -0.3 1.2-0.1 2.3-0.4 3.5 5.7 1.4 11.3-0.6 16.9-0.8 2.7-0.1 4.6 0.5 6.7 1.7"/><path class="st0" d="M460.3 902.8c0.7 2.1-1.2 4.1-0.5 6.2 1.8 4.9 2.9 9.4 10.5 8.7 1.1-0.1 2.2 0 3.4 0"/><path class="st0" d="M464.6 761.2c-2.2 4.2-1.5 9-2.2 13.5 -0.5 3.1-1.8 6.3-1.1 9.6"/><path class="st0" d="M771.4 641.7c5.9 4 12 7.3 19.2 8.1 1.3 0.1 1.9 1.1 2.9 1.5"/><path class="st0" d="M584.2 396.4c-6.5 1.1-13 2.5-19.7 2.8 -1.1 0.1-1.4 1.1-2.4 1"/><path class="st0" d="M662.4 760.3c-7.1-4.3-15.1-6.6-22.1-11"/><path class="st0" d="M538.1 292.3c-2.2-0.1-3.9 0.4-5.8 1.8 -5.5 4.2-10.6 8.9-15.8 13.5"/><path class="st0" d="M584.2 509.7c-7-2.2-13.8-4.8-21.1-5.8"/><path class="st0" d="M340.3 742c-1-0.6-1.4-1.9-2.9-2 -5.3-0.3-10.3-3.6-15.9-1.4 -0.6 0.2-1.6-0.3-2.4-0.4"/><path class="st0" d="M574.1 708.4c-0.3 4.1-1.8 7.8-3.3 11.5 -1.9 4.8-1.7 4.8-5.8 1.9"/><path class="st0" d="M695.5 167.9c-4.7 4.5-8.8 9.5-12.6 14.8 -1 1.4-1.6 3.8-4.2 3.4"/><path class="st0" d="M519.8 920.1c5.4 5.4 12 8.8 19.2 11"/><path class="st0" d="M878.9 351.3c0 6.4 0 12.8 0 19.2"/><path class="st0" d="M607.7 679.1c-4.9 4-7.2 10-11 14.9 -0.8 1-1.3 2.2-2.4 2.9"/><path class="st0" d="M575.5 488.6c3.3 1.9 7 3 10.6 4.3 9.7 3.7 13 12.1 8.6 22.1"/><path class="st0" d="M666.7 760.7c-9.9 1.7-18.7-2.8-27.8-5.3"/><path class="st0" d="M525.6 886.5c1.4 1.7 1.9 4 3 5.7 3 4.3 7.8 5.2 12.8 4.9"/><path class="st0" d="M90.2 504.9c-4.3 1.9-9 0.2-13.5 1.4 4.2 6.7 9.8 11.3 17.8 12.5"/><path class="st0" d="M294.2 564.4c-6.1 0.5-12.2 1-18.2 1.4"/><path class="st0" d="M331.7 726.7c5.4 0 10.9 0 16.3 0 -6 4.2-13.3 5.6-18.3 11"/><path class="st0" d="M642.7 757.9c0 3.6 3.4 4.6 5.4 6 3.2 2.3 6.8 4.3 10.9 5"/><path class="st0" d="M781 539.9c-6.6-0.1-12.2 2.7-18.2 5.4 2.8 3.8 6.1 6.2 9.6 8.5"/><path class="st0" d="M340.3 746.8c0.1 2.1-1.1 4.9 3.4 3.1 3.4-1.3 7.6-0.1 11.5-0.5 1.8-0.2 3.2 2.3 4.3 4.1"/><path class="st0" d="M388.3 211.6c5.1 1.9 10.6 2.1 15.8 3.4 10.8 2.9 20.6 8 29.7 14.4 1.1 0.8 2.6 1.1 3.4 2.3"/><path class="st0" d="M497.3 920.6c-5.3 2.9-11.2 3.9-16.8 5.8"/><path class="st0" d="M332.6 305.2c2.6 5.9 6.5 9.6 13.4 9.1"/><path class="st0" d="M461.3 940.3c-2.9 0-5.3-1.8-6.1-3.9 -2-5.4-5-3.7-8.3-1.9"/><path class="st0" d="M344.2 530.8c-4.8 5.8-10 11.1-15.4 16.3"/><path class="st0" d="M449.3 964.7c-5.4-1.3-10.9-0.1-16.3-0.7 -2.5-0.3-4.5 2.4-4.3 5.5 0.2 3 0.3 6.1 0.5 9.1"/><path class="st0" d="M268.3 550c-5.4 0-10.9 0-16.3 0"/><path class="st0" d="M588.5 706c0.7-1.4 0.7-3.1 1.9-4.3 4.4-4.5 3.7-9.2-1.9-12 -5.2-2.7-7.3-2-10.1 3.4 -1.6 3.2-3.7 6.1-4.8 9.6"/><path class="st0" d="M271.7 148.7c-1.1 4.6 1.6 8 3.8 11.6 0.9 1.5 2.6 2.4 3 4.5 -2.8 1.9-6.3-0.3-9.2 1.2"/><path class="st0" d="M561.6 341.2c1.2 6.3 4.3 10.8 11 12"/><path class="st0" d="M656.6 769.9c-4 3-8.2 3.2-12.5 0.5 -1-0.6-1.8-1.1-2.9-0.5"/><path class="st0" d="M576.5 413.7c-5.4-0.3-10.2-2.9-15.4-3.8"/><path class="st0" d="M499.7 583.6c1.6 3.9 1.3 8 1.8 12 0.3 2.8-1.1 5.4-4.7 5.7"/><path class="st0" d="M692.6 634c5.7 0 11.2-1.6 17.7-2.1 -5.2-4.1-4.5-11.6-11-13.7"/><path class="st0" d="M699.4 147.8c-6.5 0.7-12.4 3-18.2 5.8"/><path class="st0" d="M74.4 494.8c5.7 2.8 12.1 4.3 16.4 9.6 0.5 0.7 1.9 0.7 2.8 1"/><path class="st0" d="M691.7 617.2c-4.8-0.8-9.5-2.5-14.4-1"/><path class="st0" d="M526.6 916.7c2.9 5 7.8 7 13 8.6"/><path class="st0" d="M572.2 704.1c-3.1-1.4-3.4-4.4-4.4-7.2 -1.7-4.5-1.8-4.3-6.7-2.5 -3.2 1.2-6.5 2.4-10.1 1"/><path class="st0" d="M609.6 331.1c-1.3 4.3-4.3 7.4-8.2 8.4 -4.4 1.1-5 4-5.7 7.4 -0.6 2.4-1.3 4.8-1.9 7.2"/><path class="st0" d="M765.1 653.7c-3.6 4.1-6.8 8.4-9.1 13.4"/><path class="st0" d="M187.7 566.3c2.2 4.5 4.5 9 6.7 13.4"/><path class="st0" d="M342.2 591.3c-4.5 3.8-9 7.7-13.4 11.5"/><path class="st0" d="M219.4 637.4c3.1 4.8 6.7 9.2 10.6 13.4"/><path class="st0" d="M246.2 739.1c-4.9-0.3-8.9-3.4-13.4-4.8"/><path class="st0" d="M477.6 584.6c3 4.1 7.6 4.3 12 4.8"/><path class="st0" d="M200.2 440.6c-2.8-0.5-5.3 1.4-8.2 1 -1.7-0.2-3.5-0.1-4.8-1.5"/><path class="st0" d="M408 919.6c2.1 1 3.9 2.5 5.2 4.4 4.2 5.6 9.9 5.4 15.9 4.3"/><path class="st0" d="M543.4 873.1c-4.4 1-8.8 1.9-13 3.8"/><path class="st0" d="M387.4 414.7c-4.3 0.5-8.2 2.6-12.5 2.9"/><path class="st0" d="M877.4 626.3c5 4 9.4 8.6 13.4 13.4"/><path class="st0" d="M367.2 483.8c-3.4 3-6.8 6-10.2 8.9 0.9 4.7 4.4 8.4 3.5 13.2"/><path class="st0" d="M526.6 667.6c8.6-1.8 17.2-3.1 25.8-6 -1.7-3.7-4.3-6.1-7.3-9.1 -1.6 4.4-4 7.8-4.1 12.2"/><path class="st0" d="M763.7 539c4-0.5 8-3 12 0"/><path class="st0" d="M526.1 652.7c4.4 3.1 7.3 7.8 11.5 11"/><path class="st0" d="M599 742c0.7 3.1 2.1 5.8 3.3 8.7 0.7 1.6 1.7 0.6 2.5 0.9"/><path class="st0" d="M500.6 580.3c-4-0.6-7.8 0.5-11.5 1.9"/><path class="st0" d="M467.5 503.9c-0.9-6.1-1.5-6.7-7.2-6.7"/><path class="st0" d="M503.5 707.5c3.1 3.5 5.3 7.7 9.6 10.1"/><path class="st0" d="M565 337.9c3.8 0.7 7.6 1.5 11 3.4"/><path class="st0" d="M301.4 315.3c-2.6-0.7-5.1-1.6-7.7-2.3 -4.9-1.4-6.8 0.1-8.2 5.2 -0.3 1.1 0.2 2.5-0.9 3.4"/><path class="st0" d="M699.4 152.6c-3.1 3.7-7.4 5.8-11 8.6"/><path class="st0" d="M852.5 570.7c-4.6 3-8.5 6.8-12.5 10.6"/><path class="st0" d="M539.5 666.7c-1.6 3.5-2.4 7.4-4.8 10.6"/><path class="st0" d="M210.7 471.3c2 3.6 4.1 7.3 6.7 10.6"/><path class="st0" d="M202.1 700.7c2.2 3.5 4.5 7 6.7 10.6"/><path class="st0" d="M405.6 926.8c3.2 1.8 6.7 0.9 10.1 1"/><path class="st0" d="M356.2 278.8c-4.9-2.2-6.7 3-10.1 4.3"/><path class="st0" d="M564.5 476.6c-2.5-3.2-6.1-5-9.1-7.7"/><path class="st0" d="M234.7 468.4c3.1 2.1 6.2 4.2 9.6 5.8"/><path class="st0" d="M455.5 497.2c-3.2 0-6.4 0-9.6 0"/><path class="st0" d="M593.3 498.7c-4.1 4.1-8.8 5.7-14.4 3.8"/><path class="st0" d="M648 779.9c-3.4 1.7-5.7 4.4-6.7 8.2"/><path class="st0" d="M302.9 411.8c-2.9-1-5.8-1.9-8.6-2.9"/><path class="st0" d="M812.6 773.7c0.1 3-1.2 5.7-1.4 8.6"/><path class="st0" d="M209.8 594.2c2.6 1.9 5.7 2.7 8.6 3.8"/><path class="st0" d="M407.5 791c2.7 1.9 5.8 0.6 8.6 1"/><path class="st0" d="M176.6 428.1c-1 2.8-2.4 5.5-2.4 8.6"/><path class="st0" d="M335.5 631.6c-2.9 1.9-5.8 3.8-8.6 5.8"/><path class="st0" d="M499.7 531.8c-2.3 2.1-2.2 5-2.9 7.7"/><path class="st0" d="M267.8 176.1c2.5 1.7 5.5 2 8.2 3.4"/><path class="st0" d="M273.6 172.3c-2.8 0.9-5.2 2.7-8.2 2.9"/><path class="st0" d="M342.2 672.9c2.4 1.9 2.4 1.9 2.4 7.7"/><path class="st0" d="M495.8 543.3c1.3 2.4 0.9 5.1 1 7.7"/><path class="st0" d="M275 237.1c-1 2.6-1.9 5.1-2.9 7.7"/><path class="st0" d="M565.9 775.6c2.6 1.9 3.6 4.9 4.8 7.7"/><path class="st0" d="M877.9 375.3c0 2.6 0 5.1 0 7.7"/><path class="st0" d="M877 386.8c0.7 2.7-1.3 5-1 7.7"/><path class="st0" d="M131.5 927.3c-2.6 2.2-1 5.1-1.4 7.7"/><path class="st0" d="M506.4 488.6c-2.4 1.1-4.9 2-7.7 1.9"/><path class="st0" d="M585.1 789.1c-2.5 0.2-4.2-2.3-6.7-1.9"/><path class="st0" d="M262.6 163.1c5.3 1.2 8.3 5.8 12.5 8.6"/><path class="st0" d="M430.6 273.1c-2 1.4-4.2 2.3-6.7 2.4"/><path class="st0" d="M427.7 795.8c1.6 1.8 3.9 2.5 5.8 3.8"/><path class="st0" d="M555.4 764.1c2.8 0.4 2.8 3 3.8 4.8"/><path class="st0" d="M541.4 666.2c1.8 2.6 0.6 5.9 1.9 8.6"/><path class="st0" d="M530.4 671c1.4 1.6 2.4 3.4 3.4 5.3"/><path class="st0" d="M491 494.3c-1.6 1.4-1.6 3.5-2.4 5.3"/><path class="st0" d="M397.9 411.8c-1.8-0.6-3 1.6-4.8 1"/><path class="st0" d="M183.8 911c-1.3 1.6-2.6 3.2-3.8 4.8"/><path class="st0" d="M438.7 630.2c1.1 1.6 1.8 3.5 3.4 4.8"/><path class="st0" d="M877.9 345.5c-0.5 1.7-0.6 3.5-1.9 4.8"/><path class="st0" d="M393.1 450.2c-1 1.6-1.9 3.2-2.9 4.8"/><path class="st0" d="M569.3 486.7c1.6 1.2 1.7 3.1 2.4 4.8"/><path class="st0" d="M493.9 481.9c1.4 1.5 3.1 2.7 4.8 3.8"/><path class="st0" d="M627.4 555.8c1.6 1.3 3.2 2.6 4.8 3.8"/><path class="st0" d="M685.9 161.7c2.2 0.2 4.5 0.3 6.7 0.5"/><path class="st0" d="M213.6 856.3c0 1.3 0 2.6 0 3.8"/><path class="st0" d="M565.9 479.5c1.4 0.7 1.2 2.5 2.4 3.4"/><path class="st0" d="M445 803.5c1 1 1.9 1.9 2.9 2.9"/><path class="st0" d="M518.4 647.5c-0.7 0.6-0.4 2-1.4 2.4"/><path class="st0" d="M561.1 503c-0.8-0.2-1.7 0.4-2.4-0.5"/></g></svg>