<svg xmlns="http://www.w3.org/2000/svg" xmlns:xlink="http://www.w3.org/1999/xlink" version="1.1" id="Layer_1" x="0px" y="0px" viewBox="0 0 806 1166" xml:space="preserve" enable-background="new 0 0 806 1166">
  <style type="text/css">
    
	.st0{fill:none;stroke:#000000;stroke-width:2;stroke-linecap:round;stroke-linejoin:round;stroke-miterlimit:10;}

  </style>
  <g id="XMLID_10_">
    <path id="XMLID_927_" class="st0" d="M254.4 174.7c-8.7-8.1-18.8-14.3-28.8-20.6 -12.7-7.9-25.7-15.2-40.2-19.9 -13.4-4.4-27.1-5.2-40.9-4.5 -20.3 1.1-39.5 6.8-58.1 15.1 -27.2 12.1-46.3 31.7-58.6 58.6 -5.1 11.1-9.1 22.6-10.8 34.6 -2.6 18.1-1.1 35.9 5 53.3 8 22.5 19.1 43.2 33.2 62.4 7.4 10 17.8 16 29.3 20.1 8.7 3.1 17.8 5.4 26.9 7.2 5.7 1.2 7.1 2.2 5.6 7.2 -1.3 4.3-1.1 8.8-1.5 13 -1 12.6-2.4 25.2-3.4 37.9 -1.1 13.5-2.1 27.1-2 40.6 0.1 15.6 0.4 31.2 2 46.8 1.1 11 2.6 21.8 6.2 32.1 4.4 13 11.4 24.7 19.9 35.7 18 23.1 41.3 39.1 67.8 50.8 0.3 0.2 0.9-0.3 1.4-0.4"/>
    <path id="XMLID_926_" class="st0" d="M642.3 902.4c3 1.8 6.4 2.1 9.6 2.7 13.4 2.7 24 9.2 32.2 20.2 10.5 14.2 18.8 29.8 28.3 44.6 11.6 17.9 18.5 37.7 23.2 58.2 3 13 5 26.2 3.7 39.8 -1.4 14.9-7.5 27.6-16.6 38.8 -15.1 18.5-34.8 29.6-58.4 33.7 -12.8 2.2-25.5 1.9-38.4 0.6 -9.3-0.9-18.4-2.5-27.3-4.9 -12.7-3.5-24.2-9.7-34.5-17.8 -18.4-14.3-30.4-33.2-37.4-55.2 -2.8-8.8-3.9-18.1-5.5-27.3 -2.9-16.5-4-33.2-3.7-49.9 0.1-7.2 0.8-14.5 2-21.6 0.8-4.6 3.3-8.8 6.2-12.4 1.5-1.9 2.6-3.8 3.8-5.8"/>
    <path id="XMLID_925_" class="st0" d="M693.6 220.3c4.4 4.2 8.9 8.4 13.7 12.9 4-8.3 7.8-16.2 11.4-24.4 5-11.4 9.2-23 13.4-34.6 5.7-15.6 5.6-31.4 1.6-47 -4-15.5-10.1-30.5-16.6-45.2 -7.9-17.8-21.7-30.4-36.5-42.2 -10.5-8.4-22.1-14.8-35-18.8 -8.8-2.7-17.8-4.5-26.9-5.9 -5-0.7-10-0.8-14.9-1.2 -14.8-1.2-28.4 3.8-42.2 8.1 -10.5 3.2-20.5 7.7-29.7 13.6 -10.5 6.8-18.8 16.2-24.5 27.3 -7.4 14.4-14.1 29.1-19 44.5 -0.5 1.7-0.3 2.9-0.3 4.4"/>
    <path id="XMLID_924_" class="st0" d="M534.3 134.1c1.1-0.4 1.5-1.9 3.4-1.3 23.2 7.5 46.7 14.1 68.6 25.1 14.3 7.2 26.9 16.9 39.4 26.9 7.7 6.2 7.7 6.5 12-2.5 6.2-12.9 10.3-26.2 10.3-40.8 0-8.6 0-17-2.3-25.5 -2.8-10.4-8.2-19-16.1-25.8 -11.5-9.8-25-15.2-40.2-14.9 -24.8 0.5-43.7 12-58.1 31.6 -4.9 6.7-9.3 13.7-13 21.1"/>
    <path id="XMLID_923_" class="st0" d="M665.3 1077.1c8.7 8.5 16.9 7 25.9 0 2-1.6 2.8-4 2.8-6.2 0.3-13.2-0.3-26.2-4.6-38.9 -2.4-7.3-6.8-12.3-13.5-15.9 -13.7-7.4-28.2-11.3-43.7-9.9 -11.6 1-23.6 2.1-34 7.7 -13.8 7.4-22.7 18.1-24.9 34.9 -2.3 17.7 0.3 33.5 11.5 47 9.2 11 21.4 16.6 36.3 13.1 6.6-1.6 10.3-7 13.9-12 6.8-9.5 15.6-16.1 26.4-20.2 1.4-0.5 2.3 0.3 3.4 0.1"/>
    <path id="XMLID_922_" class="st0" d="M171.9 903.3c-2.3 2.3-5.5 1.6-8.2 1.8 -8.9 0.5-15.6 3.8-21.2 11.1 -16.9 21.8-30.5 45.5-41.6 70.7 -4.2 9.6-6.1 19.8-6.3 30.2 -0.3 14.1 0.3 28.1 4.2 41.8 2.3 7.8 7 13.8 11.5 20.2 8 11.1 19.9 17 31.3 23.4 11.1 6.3 22.7 11.6 35.5 13.5 7.4 1.1 14.8 0.7 22.1-0.1 17-1.9 32.8-8.2 46.9-17.4 14.5-9.4 25-22.9 33.3-38.2 4.6-8.5 7.7-17.6 11.5-26.4"/>
    <path id="XMLID_921_" class="st0" d="M708.5 234.2c5.9 6.4 11.8 12.8 17.8 19.2 1.8 1.9 3.3 4 4.8 6.2 7.3 10.5 15.5 20.5 21.1 32.2 9 18.8 15.8 38.4 21.3 58.5 2.3 8.6 4.9 17.3 6.9 26 2.3 9.6 4.1 19.3 5 29.2 0.9 9.8 2 19.5 1.8 29.3 -0.4 17.2-3 34.2-7.3 50.9 -4 15.9-9.8 31.1-18.6 45.2 -6.6 10.6-15.3 19.2-23.6 28.3 -2.6 2.8-6.1 4.9-7.7 8.6"/>
    <path id="XMLID_920_" class="st0" d="M499.2 233.7c-5.6-20.2-16.1-36.5-35-47.2 -14.3-8.1-29.4-13.4-45.3-16.4 -15.8-3-31.8-2.4-47.5 2.2 -15.7 4.5-31.2 10-45.6 17.8 -19.3 10.5-34.4 25.1-41.8 46.5 -2.5 7.1-3.3 14.6-3.9 22.1 -0.5 7.7-1.4 15.3-1 23"/>
    <path id="XMLID_919_" class="st0" d="M304.4 1126c16.1 6.1 32.4 11.2 49 15.9 9.7 2.7 19.4 5.6 29.3 7.7 13.5 2.9 26.9 4.4 40.8 2.9 14-1.5 27.8-4.2 41.8-5.3 4.9-0.4 9.9-0.8 14.9-1.1 11.4-0.7 22.8-1.4 34.1-2.8 4.3-0.5 8.7-0.6 13-0.9 20.4-1.2 40.6-3.6 61-5 1.2-0.1 2.3-0.3 3.4-0.9"/>
    <path id="XMLID_918_" class="st0" d="M514.1 242.8c-4.1-3.1-9.2-3.6-13.9-5.3 -2.1-0.7-2.8 1.3-3.8 2.4 -8 8.9-15.9 18-24.9 26 -14.1 12.6-30.7 20.4-48.1 26.7 -15.7 5.6-31.7 9.8-48.4 11.2 -13 1.1-25.7-0.2-38.4-3 -19.3-4.1-38-10.3-56.8-16.8 -6.7 7.4-13.3 15-20.2 22.3 -16.3 17.1-31.7 35-46.2 53.6 -15.7 19.9-29.6 41-40.9 63.8 -7.8 15.7-13.1 32.1-15.9 49.4 -2.1 12.9-2.8 25.9-3.4 38.9 -0.5 11.7-0.5 23.4-0.2 35 0.1 5.3-0.3 10.6 0.8 15.8"/>
    <path id="XMLID_917_" class="st0" d="M467.6 120.4c-4.6-1.3-9.2-1.2-13.9-1.5 -13-1-25.9-0.9-38.9-0.8 -17.6 0-34.7 2.9-51.9 6.5 -10.5 2.2-21 3.9-31.1 7.4 -15.5 5.4-28.9 14.5-42.7 23 -15.9 9.8-31.8 19.5-47.1 30.2 -1.7 1.2-3.5 1.9-3.8 4.2"/>
    <path id="XMLID_916_" class="st0" d="M619.7 337.4c0.5 9 1.7 17.9 2.8 26.9 0.5 4.1 0.7 8.3 0.9 12.5 0.6 12 1.3 24 0.4 36 -0.9 13.4-3.1 26.8-7 39.9 -6.6 22.6-12.9 45.2-23.9 66.3 -7.3 14.1-16.4 26.8-26.1 39.2 -2.9 3.7-4.1 8.6-7.6 11.5 -9.5 7.9-15.9 18.1-23 27.9"/>
    <path id="XMLID_915_" class="st0" d="M195.4 208.8c-12.4-5.8-25-11.3-37.9-15.9 -21.8-7.9-41.5-3.5-59.5 9.8 -10.7 7.8-19.2 17.4-22.3 31.1 -2.9 12.8-0.2 24.7 4 36.5 3.9 10.8 11.7 19 20.1 26.4 7.6 6.6 15.9 12.4 24.4 17.8"/>
    <path id="XMLID_914_" class="st0" d="M502.1 693.6c0.6 4.7 4.1 8 6.5 11.4 15.5 21.9 25.6 46.1 33.5 71.6 9.1 29.4 17.4 59.1 25.2 88.9 3.1 11.8 1.9 23.9 2 36 0 1.8-0.9 3.8 0.9 5.3"/>
    <path id="XMLID_913_" class="st0" d="M385 705.6c-5.5 2.5-8.9 7.1-12 12 -2.1 3.4-6.2 5.3-6.8 10.1 -1.3 10.4-3.1 20.7-3.8 31.2 -0.6 9 0.4 18 1.5 26.9 2.3 17.6 4.9 35.2 7.7 52.8 1.9 12 2.9 24 4.5 36 1 6.8 1.4 13.8 2.2 20.6 1.2 9.6 1.7 19.3 3.6 28.8 0.5 2.8 0.4 5.8-0.4 8.6"/>
    <path id="XMLID_912_" class="st0" d="M760.8 596.1c0 2 1.2 3.5 2.5 4.7 7 7 7.9 15.9 8.6 25 1.1 13.8 0.6 27.6-0.6 41.3 -1.3 13.7-2.4 27.6-8.5 40.3 -4.5 9.5-11.6 16.7-20.2 22.6 -15.4 10.4-32.6 15.2-50.9 16.8 -22.6 2-43.4-3.9-62.9-14.9 -14.2-8-21.5-21.5-28-35.9 -6.1-13.6-5.4-27.8-4.4-41.8 1.1-14.8 4.5-29.5 6.9-44.2"/>
    <path id="XMLID_911_" class="st0" d="M292.4 606.7c-1.2 5.2 1.1 10 1.9 14.9 2 11.4 9.3 20 15.4 29.2 6.9 10.6 14.3 20.9 21.6 31.2 1 1.4 1.8 2.6 1.9 4.4 -3.1 0.2-5.5-1.7-8.1-2.5 -2 10.3-1.8 20.6-2.3 30.8 -0.4 9.1-0.7 18.3-1.4 27.3 -1.3 17.3-1.7 34.6-2.7 51.9 -1.1 19.5-2.2 39.1-3.6 58.5 -0.8 10.7 0 21.2 0.5 31.7 0.8 15.9 3 31.7 4.6 47.5 0.1 0.6 0.3 1.3 0.5 1.9"/>
    <path id="XMLID_910_" class="st0" d="M573.6 610c-5 0.3-9.4 2.7-13.9 4.4 -18.1 7.1-36.3 14-53.8 22.5 -10.7 5.2-20.4 12.1-28.9 20.5 -0.9 0.9-1.5 2.1-2.7 2.4 -6.9-1-13.6 0.3-20.3 0.5 -10.4 0.4-20.8 0.9-31.2 1.9 -10.3 1-20.5-0.1-30.7-0.8 -15.5-1.1-30.8-4.1-45.6-8.9 -13.1-4.2-26.3-8.2-39.3-12.7 -1.8-0.6-2.6-0.3-3.9 0.2"/>
    <path id="XMLID_909_" class="st0" d="M433 207.3c11 12.2 21.2 25.1 31.1 39.4 -21.4 4.7-42.5 7.7-62.8 14.2 -22 7-41.9 18.3-62.5 28.7 -2.6-8.2-3.7-16.6-5.7-24.7 -2.3-9.6-2-19.5-2.9-29.3 -0.2-1.9 0.5-2.8 2.4-3.4 12-3.6 24-7.3 36-11 18.2-5.5 35.7-12.9 52.8-21.2 2.8-1.3 5-2.7 6.8 1.4 0.9 2.1 3.8 3.1 4.2 5.8"/>
    <path id="XMLID_908_" class="st0" d="M494.9 628.3c5.5-7.1 9-15 8.5-24 -0.4-7.9-1.3-15.7-2.4-23.5 -0.3-2.3-1.6-3-4.8-2.1 -15.6 4.5-30.8 10.3-46.5 14.8 -10.2 2.9-20.7 4.6-30.3 9.4 -5.8 2.9-5.7 2.5-5.3 8.7 0.3 5.5 1.2 10.8 3.4 15.8 4.7 10.7 14.2 14.9 24.5 16.5 8.6 1.3 17.7 1.2 26.4-1.1 0.7-0.2 0.9-0.7 1.4-1"/>
    <path id="XMLID_907_" class="st0" d="M505 268.3c3-6.5 4.8-13.4 7.2-20.2 0.7-2 1.2-4.2 2.9-5.8 17.3 5.7 34.2 12.3 50.9 19.7 3.3 1.5 5.2 3.4 5.3 7.2 0.2 12 0.8 24 1.1 36 0.3 10.5-3.1 19.5-7.9 28.3 -2.1 3.8-4.5 7.3-7 11.3 4 1.1 7.1-1 10.4-1.7 6.1-1.3 11.8-4 17.2-6.8 9.6-4.9 13.3-14 15.4-23.9 1.7-8.2 2.3-16.6 2.9-25"/>
    <path id="XMLID_906_" class="st0" d="M579.9 752.6c1.2 8.2 5.2 15.2 10.1 21.6 15.1 19.8 29.6 40.1 42 61.6 8.1 14 13.9 29.3 19.4 44.5 2.7 7.5 5.1 15.1 7.8 22.5 0.4 1.2 0.1 2.3 0.4 3.4"/>
    <path id="XMLID_905_" class="st0" d="M657.2 930.7c-4.2 3.3-9.2 5.3-13.6 8.5 -10.2 7.6-14.8 27.9-3.3 38.6 2.2 2.1 4.1 4.5 6.3 6.7 5.3 5.4 11.6 6.6 18.7 4.3 5.2-1.6 10.2-3.6 14.8-6.3 6.1-3.6 8.1-8.2 6.2-14.8 -2.7-9.4-4.8-19.2-11.5-26.9 -4.6-5.3-10.5-8.6-17.3-10.6"/>
    <path id="XMLID_904_" class="st0" d="M319.2 760.8c-5.5 3-8.5 8.5-12.4 13 -12.5 14.5-24.3 29.7-33.6 46.5 -6.7 12-11 25-15.3 37.9 -4.5 13.3-8.5 26.8-12.5 40.3 -0.7 2.2-1.5 4-3.4 5.3"/>
    <path id="XMLID_903_" class="st0" d="M225.2 907.2c-6.1-0.6-12.3-3.6-18.3 0.9 -2.4 1.8-4.9 3.3-7.3 5.9 -5.8-4.4-12.5-6.5-18.6-9.8"/>
    <path id="XMLID_902_" class="st0" d="M212.7 405.6c-1.9 8.1-2.6 16.3-3.8 24.5 -2.2 15-4 30.1-5.8 45.1 -1.5 12.8-2.4 25.6-3.6 38.4 -1.3 13.5-1.1 27-0.9 40.3 0.3 21.2 3 42.4 9.2 62.9 1.2 4.1 1.9 8.3 0.4 13 -1.4 4.8-0.3 10.5-0.1 15.7 0.5 13.6-0.6 27-3.3 40.3 -1.1 5.7-4.9 10.6-9 14.9 -7.1 7.6-15.5 13.7-24.9 20 12.1 3.9 23.4 6.4 35 1.5 6.5-2.7 12.8-5.7 19.2-8.6 1.2-0.6 2.4-1.6 3.8-0.5"/>
    <path id="XMLID_901_" class="st0" d="M642.8 355.6c-2.1 8.5-2.8 17.3-4.3 25.9 -2 11.5-3.6 23-5.3 34.5 -1.7 11.2-3.3 22.4-5.3 33.6 -3.2 17.7-4.6 35.9-11.5 52.8 -7 17.1-16.7 32.3-30.6 44.8 -6.7 6.1-13.4 12.2-20.2 18.2 -1 0.9-1.9 1.7-3.4 1.4"/>
    <path id="XMLID_900_" class="st0" d="M579.4 969.1c1.2 5.4 1.4 11 3.3 16.3 2 5.5 5.2 10.3 10.2 12.7 5.7 2.7 12.4 2.6 18.6 1.9 2.5-0.2 4.8-2.6 6.8-4.6 3.2-3.3 6.5-6.5 8.6-10.6 2.7-5.3-0.2-10.4-1.2-15.3 -0.9-4.4-3.2-8.7-4.9-13.1 -3.7-9.8-12.4-11.5-20.8-13.8 -0.6-0.2-1.4 0.1-1.9 0.5 -7 5.7-14.6 11-17.8 20.1 -0.6 1.7 0.9 3.8-1 5.3"/>
    <path id="XMLID_899_" class="st0" d="M414.8 1011.3c5.3 7.8 12.5 14.3 17.3 22.5 4.6 7.9 10.6 14.9 14.8 23.1 6.5 12.5 7.3 24.8-0.3 37.5 -6.6 11-14.1 21.1-23.6 29.7 -4.6 4.2-9.4 6.5-15.9 4.4 -3.4-1.1-6.7-2.2-10.1-3.4 -2.8-1-4.2-2.9-5.3-5.4"/>
    <path id="XMLID_898_" class="st0" d="M656.2 406.5c4 18.8 7.7 37.6 14.3 55.7 2.9 7.9 6.2 15.4 10.6 22.5 12.3 20 26.2 38.8 40.6 57.3 1.5 1.9 4.4 2.7 4.5 5.6"/>
    <path id="XMLID_897_" class="st0" d="M150.8 980.1c5-1.1 10-1.9 14.9-3.2 7.4-2.1 10.1-7.6 10.8-14.1 0.4-3.9 1.3-7.7 0.6-12 -1.8-10.2-9.5-14.9-16.8-19.4 -6.4-3.9-12.7 0.3-18.1 4.1 -11 8-14 20.8-8.8 33.1 3.3 7.8 10.2 9.2 16.9 11.5"/>
    <path id="XMLID_896_" class="st0" d="M571.7 265.9c8.2 2.7 15.2 7.8 22.5 12.1 28.4 16.3 51.4 38.6 70 65.3 7.3 10.4 13.6 21.5 20.2 32.3 7 11.3 13.5 22.8 19.4 34.5 6.9 13.6 10.4 28.3 8.6 44.1 -0.9 7.7-2 15.4-3.2 23 -0.3 1.7-0.4 4.1-2.8 4.8"/>
    <path id="XMLID_895_" class="st0" d="M269.8 979.2c-11.5-2.7-17.3-3.9-24.4 7.2 -2.6 4.1-5 8.3-6.8 12.9 -3.5 9.2 0.1 17.9 9.1 22.1 4.9 2.3 10.2 3.5 15.4 4.1 6.9 0.8 11.2-4 13.8-9.5 6.1-12.9 4.3-25.1-4.2-36.4 -0.1-0.1-0.3 0-0.5 0"/>
    <path id="XMLID_894_" class="st0" d="M605.3 361.4c0.2 16.6 0.3 33.3 0.5 49.9 0.1 12.4-1.5 24.7-2.7 37 -1.8 18.4-6.3 36.1-11.2 53.8 -5.7 20.9-17.2 38.6-29.3 56.2 -2.9 4.2-5.8 8.3-8.6 12.5 -0.8 1.1-1.1 2.4-1 3.8"/>
    <path id="XMLID_893_" class="st0" d="M374.9 573.6c6-10.3 8.2-21.4 6.6-33.1 -0.9-6.3-2.4-12.6-4.6-18.8 -3.9-10.8-9.6-20.4-17.9-28.2 -4.6-4.4-9.7-8.5-15.8-10.5 -5.6-1.9-11.2-3-17.3-2.6 -4.1 0.2-6.5 2.7-9.1 5 -10.4 9.4-16.4 21.2-18.8 35 -0.9 5.1-2.2 10.2-3 15.3 -0.7 4.7 0 9 1.1 13.8 3.4-1.4 6.8 0.2 10 0.8 4.7 0.9 4.9 4.7 2.3 9.3 -1.9 3.5-6.1 4.2-9.7 5.8 6.9 9.9 13.6 20.2 24.8 25.2 9 4.1 18.5 7.1 29.2 4.3 10.4-2.7 16.3-9.4 21-18 0.5-0.8 1.6-1.6 1-2.9"/>
    <path id="XMLID_892_" class="st0" d="M233.3 425.7c-1.9 10.7-3.6 21.4-5 32.1 -1.5 11.4-0.1 22.4 1.1 33.6 1.1 9.8 2.7 19.5 4 29.3 0.8 6 2.4 11.9 3.8 17.8 0.9 4 0.4 8.1 1.4 12"/>
    <path id="XMLID_891_" class="st0" d="M180 439.2c-4.4 2.4-4.6 7.2-6.1 11.1 -5.7 14.8-7.3 30.5-9.7 46 -2.7 17.9-5.1 35.8-7.4 53.7 -0.5 4.3 0 8.9-2.2 13"/>
    <path id="XMLID_890_" class="st0" d="M478.1 948c-5.6-1.8-10-5.7-13.8-9.7 -5-5.3-11-8-17.4-10.4 -1.3-0.5-2.8 0.1-3.8 1 -2 1.8-3.9 3.8-5.3 6.2 -1.6 2.7-0.3 7.4 3.4 10.5 7.8 6.6 15.7 13 24.5 18.3 2 1.2 3.8 2.6 5.8 3.8 5.7 3.4 12.8 0.6 14.8-5.8 0.2-0.6-0.1-1.3 0-1.9 2.4-8 2.4-8-4.8-10.6 -1-0.4-2.4 0-2.9-1.4"/>
    <path id="XMLID_889_" class="st0" d="M468 121.4c-5.8 12-2.4 32.1 12.3 39.2 8.4 4 16.3 4.9 25.1 4.1 6.2-0.6 12.5-0.3 18.7-1.3 6.7-1 10.2-5.1 11.3-10.4 1.9-9.4 1.3-18.9-7.5-25.3 -4.6-3.4-8.9-7.1-13.3-10.8 -5.1-4.3-10.8-5.4-16.9-5.1 -6.7 0.3-13.3 0.6-19.7 3.1 -3.8 1.5-6.7 3.9-10 5.9"/>
    <path id="XMLID_888_" class="st0" d="M420.5 365.7c1.3 6.1 2.1 12.3 3.9 18.2 4.3 13.9 6.9 28.3 12.3 41.8 1 2.5 2.5 2.4 4.4 2.3 19-0.9 37.5-4.3 54.7-13 4.2-2.1 8-4.8 12-7.1 5.1-2.9 3.4-7.8 2.6-11.5 -1.1-5.6-3.9-11-5.1-16.5 -2.2-9.4-8.6-16.1-12.4-24.4"/>
    <path id="XMLID_887_" class="st0" d="M290 979.4c1.4-4.3 1.3-8.9 2.4-13.2 2.7-10.2 9.8-16.5 18.7-21.7 18.6-10.8 38.8-14.9 60-13.8 16 0.8 26.1 9.8 29.9 25.4 1.4 5.9 2.2 11.9 3.1 17.8 1 6.5-0.2 13.1-3.8 18.6 -2.7 4.2-7.8 5.2-12.4 6.8 -13.6 4.9-27.4 9.2-41.3 13.4"/>
    <path id="XMLID_886_" class="st0" d="M711.9 744c0.5 0.8 0.4 1.6 0 2.4 -4.9 9.7-10.3 19.1-18.2 26.9 -7.9 7.8-17.7 9.5-27.9 8.4 -9.5-1.1-18.9-3.6-27.9-7.4 -12.5-5.4-22.6-13.5-31.3-24 -8.5-10.2-15.2-21.5-22.9-32.3 -0.2-0.3 0-0.9 0-1.4"/>
    <path id="XMLID_885_" class="st0" d="M238.6 189.6c4.7 1.2 9.5 2.2 13.4 5.3 7.5 5.9 7.9 14.5 6.5 22.5 -2.5 14.9-10 26.7-25.2 32.3 -5.6 2.1-10.7 0.7-15.3-1.6 -12.7-6.3-21.1-20.2-17.4-35.9 1.5-6.5 6.6-9.7 11.6-12.9 7.7-5 16.3-8.1 25.4-9.7"/>
    <path id="XMLID_884_" class="st0" d="M194.9 407.5c-5.2 9.6-10.6 19.3-13.2 29.8 -5.2 21.7-10.6 43.4-3 66.3 5.2 15.7 10.1 31.5 16.1 46.9 0.7 1.8 1.7 3 2.9 4.3"/>
    <path id="XMLID_883_" class="st0" d="M540.5 431.5c10.3 0.4 19 4.2 25.4 12.5 8.8 11.3 15.4 23.9 22.5 36.7 -2.1 1.1-3.9 1.9-6.1 2.3 -4.2 0.8-7.2 3.8-8.1 8 -0.8 3.8 1.2 6.1 4.6 8.3 7 4.4 6.7 4.6 4 13.3 -0.5 1.7-1.1 3.5-1.5 5.2 -0.8 3.3-2.4 6.3-3.5 9.6 -3.4 10.4-11.6 14.3-21 15.5 -5.3 0.7-10.6 0.5-15.9 0.6 -15.2 0.3-29.6-2.1-37.9-17.1 -5-9.2-7.3-19.2-6.2-29.7 0.9-8.5 0.7-17 2.3-25.4 2.2-11.4 6.2-22.2 13.6-31.1 7-8.4 16.7-10.3 27.2-8.7"/>
    <path id="XMLID_882_" class="st0" d="M334.6 687.3c10.5 4.7 21.6 7.4 32.7 10.5 8.1 2.2 16.4 3.8 24.9 4 10.5 0.3 20.5-1.8 30.2-5 8-2.7 16.2-4.6 24.5-6.1 0.6-0.1 1.3 0.3 1.9 0.4"/>
    <path id="XMLID_881_" class="st0" d="M424.4 387.3c-2.6 5-0.1 10 0.3 14.9 0.6 7.9 1.8 15.8 3.4 23.6 1.6 7.7 1.2 7.6-6.1 11.5 -7.6 4-15 8.4-23.5 10 -7.5 1.4-15 0.6-22.5 0 -1.4-0.1-2-1.5-2.9-2.4 -5.3-5.9-9.2-12.6-10.6-20.6 -2.3-12.7-5.1-25.3-7.6-37.9"/>
    <path id="XMLID_880_" class="st0" d="M602.9 445.9c-7.3-1.1-11.9-7-17.6-10.7 -12.6-8.2-25.7-15.2-40.5-17.9 -16.6-3-32.5-1.1-44.5 12.4 -5.2 5.8-7.3 13.5-9.2 21"/>
    <path id="XMLID_879_" class="st0" d="M713.8 583.2c-4.1-0.7-8.2-1.4-12.5-1.5 -7.8-0.4-12 4.5-14.7 10.3 -2.3 5-1.9 10.3 2.1 15.4 5.6 7.1 11.6 12.3 21.2 13.6 7.1 1 11.1-1.8 14-8.4 4.7-10.8 0.6-19.2-6.8-26.9"/>
    <path id="XMLID_878_" class="st0" d="M758.9 624c-5.1-1.3-9.9-3.3-15.4-3 -7.1 0.4-19.1 9.2-20.6 15.9 -0.4 1.7-0.3 3.5 0.4 5.3 4 9.8 11.5 15.7 21.6 17.7 9.5 1.9 17.9-9.5 18.2-16.2 0.3-5.9-0.6-11.7-2.4-17.3"/>
    <path id="XMLID_877_" class="st0" d="M353.8 478c-4.7 1.3-9-0.9-13.4-1.6 -14-2.3-27.1-1.1-39.4 6.3 -9.3 5.6-13.8 14.7-18.6 23.6 -2.8 5.3-4.5 11.9-8.1 16 -7.1 7.9-2.9 14.4-0.1 21.4 9 22.2 22.4 41.8 36.4 61 6.6 9 13.4 17.9 20.6 26.4 0.8 0.9 1.8 1.9 1.5 3.3"/>
    <path id="XMLID_876_" class="st0" d="M199.2 223.2c-17.7 12.7-31.7 28.6-41.8 48 -8.4 16-12.7 33.4-18.1 50.4 -0.3 1 0.2 2.3-0.5 3.3"/>
    <path id="XMLID_875_" class="st0" d="M684 377.2c-0.8 1.2-0.8 2.3-0.6 3.9 3.9 25.5 8.3 50.9 15.1 75.8 2.4 8.7 5.4 17.3 7.8 26 4.6 16.8 10.6 33.1 15.1 49.9 1 3.8 3.5 7.3 2.9 11.5"/>
    <path id="XMLID_874_" class="st0" d="M592.8 441.6c-3.5 0.6-6.2-1.6-9.1-2.9 -9.3-4.2-18.1-8.9-28.3-11.3 -23.3-5.4-42.9-0.9-58.6 17.6 -1.3 1.6-2.5 3.3-4.3 4.3"/>
    <path id="XMLID_873_" class="st0" d="M245.8 433.9c-3.1 5.9-3.4 12.5-4.7 18.7 -3.7 17.7-4.4 35.7-4 53.7 0.2 8.3 0 16.6 0 25"/>
    <path id="XMLID_872_" class="st0" d="M221.3 561.1c1.8 11.7 3.7 23.4 5.5 35.1 2.2 14 9.2 25.4 18.1 35.3 17.1 19 38.8 32 61.7 42.9 5.9 2.8 11.8 5.6 17.3 9.1"/>
    <path id="XMLID_871_" class="st0" d="M371.6 516c-2.6 5.1-2.3 10.9-3.7 16.4 -2.6 10-9.2 15.6-18.4 18.1 -10.4 2.8-20.8 2.3-30.7-2.8 -6.4-3.3-10.2-9.1-13.9-14.9 -1.8-2.8-2.9-6-4.4-9.1"/>
    <path id="XMLID_870_" class="st0" d="M230.4 611c-2.4 2.4-0.3 5 0.1 7.2 3 14.9 6.4 29.8 9.4 44.7 2.6 12.7 5.4 25.3 8.1 37.9 0.8 3.6 0.6 7.5 2 11"/>
    <path id="XMLID_869_" class="st0" d="M239.1 514.5c2.3 5.6 3.2 11.5 4.7 17.3 3.6 14.4 10.3 27.2 17.9 39.8 10.2 17.1 24.9 29.8 40.8 41.3 9.1 6.6 17.9 13.5 26.9 20.1 3.1 2.2 6.5 3.9 9.1 6.8"/>
    <path id="XMLID_868_" class="st0" d="M561.2 351.8c3.1 9 7.6 17.3 10.7 26.3 2.2 6.5 0.5 12.9 1.2 19.3 0 0.4-0.8 0.7-0.9 1.4 -0.3 2.3 1.3 5.4-1.5 6.6 -2.4 1.1-5.4 1.5-8.1 1.5 -11.4 0.2-22.5-1.3-33.1-5.7 -7.9-3.2-12.5-9.8-17.3-16.3 -2.3-3.1-3.9-6.8-7.2-9.1"/>
    <path id="XMLID_867_" class="st0" d="M649 564.4c-4.7 2.2-8.1 7-13.9 7.2 -1.3 0.1-1.6 1.6-2.3 2.4 -10.4 12.3-21.7 23.7-33.2 35 -7.4 7.2-14.6 14.6-22.7 21 -6.2 5-6.6 12-8.9 18.4 -4.2 11.6-5.1 23.7-4.4 36 1.1 17.1-6.9 29.7-19.8 39.7 -1 0.8-1.1 2.6-2.8 2.5"/>
    <path id="XMLID_866_" class="st0" d="M576 461.7c-3.8 5.8-6.5 12.3-10.1 18.2 -8.5 14.2-21.4 19.9-37.4 20.8 -9.8 0.5-18-3.1-25.9-7.9 -1.4-0.9-2.4-2.5-4.4-2.3"/>
    <path id="XMLID_865_" class="st0" d="M204.5 373.9c4.6 7.2 6.8 15.6 11 23.1 3.7 6.7 7.8 13 14 17.7 4.8 3.6 10.7 4.9 16.3 5.1 8.4 0.3 17 1.9 25.4-0.3"/>
    <path id="XMLID_864_" class="st0" d="M209.8 626.8c4.4 6.3 6 13.8 9 20.7 4.6 10.5 9.5 20.8 14.5 31.2 4.1 8.6 8.4 17.1 13 25.4 0.4 0.7 0.6 1.3 1.5 1.4"/>
    <path id="XMLID_863_" class="st0" d="M349 189.6c1.6 7.4 3.1 8.2 9.6 9.1 8 1.2 14.7-2.4 21-6.4 3.6-2.3 2.2-6.8 1.5-10.4 -0.7-3.6-3.8-3-6.2-2.8 -9.6 0.7-18.4 3.9-25.9 10"/>
    <path id="XMLID_862_" class="st0" d="M222.8 354.2c3.7 9.8 6.6 19.9 11.6 29.3 2.7 5.1 5.1 10.3 8.6 14.9 6.6 8.7 16.1 13.1 25.5 17.7 2.2 1 3.8 3.5 6.7 2.9"/>
    <path id="XMLID_861_" class="st0" d="M314.4 1067c-3.4 12.3-6.7 24.5-3 37.5 3.3 11.4 15.2 20.5 26.5 22.1 13.6 1.9 27.1 2.6 40.8 0.5 8.4-1.3 14.8-7 15.5-17.3 1.2-17.1-6.1-31-14.6-44.7"/>
    <path id="XMLID_860_" class="st0" d="M568.8 308.6c-10.2-9.3-21.9-13.8-36-14.2 -10.6-0.3-19 2.8-26.4 9.9 -2.7 2.6-5.7 4.8-8.6 7.2"/>
    <path id="XMLID_859_" class="st0" d="M517 1005.6c-8.3 3.7-16.5 7.6-25 11 -8.3 3.3-16.9 5.8-25.9 6.3 -9.9 0.5-19.5-2-28.7-4.9 -5.5-1.7-10.9-5-16.4-5.7 -9.9-1.4-14.4-8.9-20.6-14.7"/>
    <path id="XMLID_858_" class="st0" d="M362 481.4c-6.7-1.7-11.2-7.2-17.1-10.3 -10.3-5.5-20.6-5.8-31.3-3.5 -4.2 0.9-8.4 2.1-12 4.7 -3.3 2.3-6.7 3.7-11 4.2 -4.6 0.5-8.3 4.7-12.5 6.9 -3.5 1.9-6.7 4.1-10.8 5.5 -5.4-7.1-10.9-13.5-13.6-22.7 -3.2-11.2-3.9-22.8-7.7-33.7 -0.6-1.6 0.5-3.2 0.5-4.8"/>
    <path id="XMLID_857_" class="st0" d="M432 207.8c-2.1 3.2-0.5 7.3-2.8 10.6 -3.1 0.5-4-4.1-7.3-3.9 -1.2 3.1 0.4 6.5-1.2 9.7 -2.4-1.4-3.6-4.2-6.1-6.4 -3.3 5-3 9.8-1.9 14.9 1.1 4.9-1.1 6.8-5.7 4.7 -2.9-1.4-5.8-3.1-7.8-6.1 -1.3-2-3.4-3.6-5.2-5.3 -2.7 2.4-2.5 6.4-4.7 9.1 -3.3-0.5-4.4-4-7.6-5.1 -4.3 3.4-4.4 9-6.7 13.5 -3.3-2.6-6.4-5.1-9.8-7.8 -3.2 4-1.8 9.1-4.1 12.9 -5.6-0.1-9.5-3.4-13.5-6.4 -3.7 3.6-0.8 9-4 12.9 -4.5-1.7-6.9-6.7-11.9-7.4"/>
    <path id="XMLID_856_" class="st0" d="M682.6 491.5c-8.8 16.8-17.4 33.7-27.3 49.9 -1.8 2.9-5.2 5.3-3.4 9.6"/>
    <path id="XMLID_855_" class="st0" d="M560.2 678.7c-7.8 1.9-15.1 5.1-22.5 7.9 -17.5 6.5-35.3 7.1-53.3 5 -11.4-1.3-22.7-1.3-34.1-1.3"/>
    <path id="XMLID_854_" class="st0" d="M261.2 1087.6c1.8 5 1.6 10.3 2.7 15.4 1.3 6.1 3.4 11.9 7 16.7 5.3 6.9 13.2 7.6 21.5 6.9 9.6-0.8 16.1-6.3 22.1-13"/>
    <path id="XMLID_853_" class="st0" d="M578 523.6c-5-2.9-9.9-5.4-15.8-6.3 -14.2-2.2-29.6 7.1-29.8 23.6 0 0.3-0.6 0.6-0.4 1"/>
    <path id="XMLID_852_" class="st0" d="M266.9 725.2c-16.8 6-34 10.7-51.4 14.9 -1.7 0.4-3.4 1.6-5.9 0.1 8.6-11.9 15.4-25.2 28.9-32.7"/>
    <path id="XMLID_851_" class="st0" d="M589.5 554.4c-2.7 17.5-5.7 34.9-12.6 51.3 -6.5 15.5-15.7 29.6-24.9 43.7 -0.9 1.4-2.5 2.4-1.4 4.3"/>
    <path id="XMLID_850_" class="st0" d="M365.3 436.8c-1.2 4.6 2.3 8.5 1.2 14 -1.2 1-3.7 1.6-6.4 2.4 -9 2.7-18 5.9-27.4 7.1 -9.2 1.2-16.4-0.4-22.4-8.9 -5.7-8.1-6.3-16.7-6.8-25.6 -0.2-4.5-1.8-8.9-0.6-13.4"/>
    <path id="XMLID_849_" class="st0" d="M631.2 904.3c-4.1 4.2-8.4 8.2-12.2 12.9 -11.7-4.1-23.4-5.2-35.3-3.3"/>
    <path id="XMLID_848_" class="st0" d="M326 353.7c-6.1-0.3-12.1-1.8-18.2-1.9 -16.2-0.3-28.5 6.3-37 20.2 -3.5 5.8-5.5 12.1-8.1 18.3"/>
    <path id="XMLID_847_" class="st0" d="M297.6 672.4c0.5 4.8 2.4 9.2 3.5 13.9 1.9 8.9 2.6 18 2.4 26.9 -0.1 7.5-4.2 14.5-8.8 20.6 -8.9 11.8-17.9 23.5-29.7 32.7 -1.1 0.9-1.9 2.2-2.9 3.3"/>
    <path id="XMLID_846_" class="st0" d="M446.4 817.4c-4.4 3.9-9 7.7-12.1 12.9 -2.3 4-1.5 7.9-0.2 11.5 0.9 2.5 3.7 3.7 7 2.5 12.9-4.8 21-14.5 26.7-26.5 1.1-2.3 2-6-1.4-7.5 -2.7-1.2-5.3-4-9.2-0.8 -3.2 2.6-6.5 5.6-10.4 7.4"/>
    <path id="XMLID_845_" class="st0" d="M374.4 573.6c-6.6-3.7-13.5-6.1-21.1-6.3 -6.3-0.1-11.2 2.6-14.8 7.3 -4 5.2-6.9 11-9.2 17.2"/>
    <path id="XMLID_844_" class="st0" d="M446.9 729.6c6.2 0.5 12.3-0.7 18.2-2.5 3.4-1 4.8-3.5 4.4-7.2 -0.7-5.6-2.7-8.4-6.3-9.7 -8.4-2.9-16 1.2-24 2.2 -1.2 0.2-3 0.6-4.4 1.1 -6.7 2.2-8.9 7.1-5.7 13.6 1.5 3.1 5.2 4.7 9.1 3.2 2.9-1.1 5.5-0.8 8.2-0.4"/>
    <path id="XMLID_841_" class="st0" d="M255.9 476.1c-0.1 6.8 2.5 13.1 3.9 19.7 2.1 9.7 4.9 19.2 7.6 28.8 0.3 0.9 0.7 1.8 1.4 2.4"/>
    <path id="XMLID_840_" class="st0" d="M540 432c0 3 0.2 6.1 0 9.1 -1.1 12.8-5.8 12.9-13.9 15.3 -7 2.1-13.7 0.8-20.2-2.4"/>
    <path id="XMLID_839_" class="st0" d="M296.7 674.8c-4.2 7.1-6.9 14.8-10.6 22 -5.2 9.9-10 20.2-18.6 27.3 2.5 13.3 4.9 25.9-1.8 38.1 -0.4 0.8-1.4 2.2-0.1 3.3"/>
    <path id="XMLID_838_" class="st0" d="M574.1 383.5c5.3 7.4 7.5 16.1 10.4 24.5 0.3 0.9 0.8 1.9 1.1 2.8 2.8 9.9 6.3 12.1 16.8 10.1"/>
    <path id="XMLID_837_" class="st0" d="M292.4 476.6c0.3 2.4-1.6 3.4-2.9 4.8 -7.3 8.1-13.4 16.9-16.8 27.4 -1.8 5.6-2.2 11.4-1.9 17.3"/>
    <path id="XMLID_836_" class="st0" d="M446.4 750.7c7.1 5 13.3 11 20.2 16.3 2.9 2.2 1.3 4.7 0.5 7.2 -0.9 2.8-3 3.6-5.8 3.4 -9.1-0.9-16.5-5.6-23.5-11.1 -2.6-2-5.1-4.2-7.7-6.2 -3.1-2.4-2.9-5.5-0.9-8.1 5.2-6.8 2.6-7.5 11.9-3.9 1.5 0.6 2.9 1.3 4.3 1.9"/>
    <path id="XMLID_835_" class="st0" d="M223.2 266.4c-3.5 4.3-7.7 8.1-10.6 13 -2.6 4.3-4.5 9-7.6 13.1 -3.3-4.7-6.5-9.4-10-14.5 -5.1 9.7-5.3 20-4.9 30.7 -8.2-2.7-14-7.3-20.2-11.2 -4.7 7.1-3.3 15-2.9 23.4 -6.1-2.4-11.5-4.5-16.9-6.5"/>
    <path id="XMLID_834_" class="st0" d="M598.1 690.7c-4.6 3.2-6.3 8.7-9.5 13 -4.7 6.2-8.9 12.9-15.5 17.2 -4.7 3-9.8 5.5-15.8 4.4"/>
    <path id="XMLID_833_" class="st0" d="M701.8 558.2c-8.8 0.4-16.8 3.5-24.5 7.7 -1.5 0.8-3.3 0.9-4.3 0.3 -3.5-2.1-7.6-2.8-11.1-4.7"/>
    <path id="XMLID_832_" class="st0" d="M470.9 972.9c1.3 7 2.5 14.1 3.9 21.1 1.6 8.7 3 17.4 5.3 25.9"/>
    <path id="XMLID_831_" class="st0" d="M689.3 509.2c0 14.7-1.6 29.2-4.3 43.7 -0.2 1-1 2.2-0.1 3.3"/>
    <path id="XMLID_830_" class="st0" d="M237.2 907.2c1.7 6 7 10.1 8.3 16.3 0.2 1.2 0.4 2.3 0.3 3.4 -0.1 1.6 0.7 3.4 1.5 3.7 7.4 2.7 13.3 10.1 22.5 6.9"/>
    <path id="XMLID_829_" class="st0" d="M572.2 915.3c-5.1 8.3-11 16.2-15.2 25 -1.4 3-2.4 3.7-5.5 2.9 -3.1-0.8-6.4-0.3-9.6-0.3 -2 0-3.2-1.1-4.8-1.2"/>
    <path id="XMLID_828_" class="st0" d="M314 490c1.6 1.3 2.4 3 3.4 4.8 3 5.8 8.2 7.9 14.4 8.1 9 0.3 17.8-0.5 24.5-7.7"/>
    <path id="XMLID_826_" class="st0" d="M271.2 946.5c2.9 9.4 6 18.7 13 25.9 5 5.1 7.3 11.3 7.6 18.3 0 0.3 0 0.6 0 1 0.5 13.8 9.3 21.1 20.6 26.4"/>
    <path id="XMLID_823_" class="st0" d="M445 776.6c2.3 2.8 0.4 5.8 0.4 8.6 0.2 8.3-0.1 16.6 0.5 25 0.1 1.1 0.6 2.4-0.4 3.4"/>
    <path id="XMLID_822_" class="st0" d="M468 888.4c6.7 4.6 8.1 7.9 6.8 15.2 -8.4 1.4-14.5-1.7-18.8-8.9"/>
    <path id="XMLID_820_" class="st0" d="M416.7 664.3c2.9 1.9 6.4 2.1 9.6 3.3 10.7 3.9 17.2 12.4 23.5 21.2 0.3 0.4 0.4 1.4-0.4 1.9"/>
    <path id="XMLID_818_" class="st0" d="M285.2 288.4c0.8 3.3-1.6 5.8-2.5 8.6 -2.8 8.4-4.9 17.1-9 25"/>
    <path id="XMLID_817_" class="st0" d="M597.2 160.3c-0.2 0.5-0.3 1-0.5 1.4 -2.3 6.8-6.6 8.1-12.5 3.8 -1.8-1.3-3.4-3-5.4-4.7 -1 3.9 0.1 7.3 1.2 10.5 1.1 3.6-0.6 3.8-3.4 3.9 -5.9 0.2-11.2-1.8-16.6-4.5 -1.1 1.2-0.6 2.6-0.2 4 1.7 5.8 1.8 12.9-2.4 18.7 -5.5-2.2-9.9-6.4-15.4-8.6"/>
    <path id="XMLID_816_" class="st0" d="M448.8 875.5c-1.4-0.3-2.6-1.1-3.8-1.9 -5.8-3.7-10.1-2.5-14.1 4.1 2.9 4.7 8.5 5.3 12.9 7.6"/>
    <path id="XMLID_815_" class="st0" d="M652.4 360.4c-1.9 11-5.3 21.7-7.7 32.6"/>
    <path id="XMLID_814_" class="st0" d="M318.8 681.6c-1.6 4.2-2.1 8.7-3.3 13 -1.8 6.3-5.4 11.7-8.7 17.3 -0.5 0.9-1.4 1.1-2.4 1"/>
    <path id="XMLID_812_" class="st0" d="M446.4 843.3c1.6 11.7 1.9 23.5 4.2 35.4 -4 5.1-9.9 8.8-13.8 14.4 1.2 2.8 2.9 5.1 4.9 7.4 7.2-2.3 13.8-5.7 20-9.9 4.8-3.2 7-8.6 8.5-13.9 0.9-3.2-1.4-6.8-2.6-10 -3.5 0-5.6 2.6-8.2 4.3 -2.9 1.9-4.7 5.4-8.6 5.8"/>
    <path id="XMLID_807_" class="st0" d="M344.2 448.8c-4.5-0.8-8.9-2.1-13.4-3 -6.3-1.2-11.3 0.5-15.4 5.3 -0.6 0.8-1.2 1.8-2.4 1.9"/>
    <path id="XMLID_806_" class="st0" d="M455.6 902.8c2.1 9.8 3.9 19.6 6.7 29.3 0.2 0.5-0.3 1.3-0.4 1.9"/>
    <path id="XMLID_805_" class="st0" d="M461.8 761.2c2.1-3 4.5-6.4 3.7-10 -0.9-3.9-3.1-7.8-8-8.1 -4.3-0.3-6.4 2.9-8.2 6.2"/>
    <path id="XMLID_803_" class="st0" d="M305.3 446.8c-1.3 3.4 0.3 6.7 0.1 10.1 -0.2 3.5-0.8 5.9-3.8 8.3 -3.5 2.9-7.5 5.7-9.3 10.4"/>
    <path id="XMLID_801_" class="st0" d="M585.6 647.5c-1.1 8.3-1.2 16.8-3.3 25 -0.3 1.2 0 2.5 0 3.8"/>
    <path id="XMLID_799_" class="st0" d="M473.8 660.4c-8.4 8.8-16.4 17.9-24 27.4"/>
    <path id="XMLID_798_" class="st0" d="M294.8 1005.6c-0.2 0.2-0.5 0.3-0.5 0.5 -0.6 8.9-0.9 17.8-2.6 26.8 5-5.7 10.9-10.1 16.5-14.8"/>
    <path id="XMLID_797_" class="st0" d="M568.8 727.2c2.4 6.4 4.6 12.9 7.3 19.2 1.4 3.2 3.5 5.2 7.5 6.6 8.1 2.9 15.5 2.6 23.2-0.3"/>
    <path id="XMLID_796_" class="st0" d="M478.6 947.5c2.2-4.7 5.2-9.1 6.4-14.4 1.2-5.2-3-6.5-5.4-9.2 -2.3-2.6-3.7-0.4-5.8 0.4 -5.1 1.8-7 6-9.1 10.2"/>
    <path id="XMLID_795_" class="st0" d="M465.6 965.2c-2.1 3.3-4.2 6.7-8.2 8.2 -7.2 2.7-11.4-0.7-11.1-8.6 0.1-3.6 1.9-6.3 3.5-9.1"/>
    <path id="XMLID_793_" class="st0" d="M717.2 561.6c5.1 3.9 11.6 5.2 16.9 9 5.8 4.2 8.8 9.3 8.1 16.4 -0.1 1.3 0 2.6 0 3.8 6.6 0.9 7.2 0.8 12-1.4"/>
    <path id="XMLID_788_" class="st0" d="M491.6 247.6c6 6.9 8.8 15.6 13 23.5"/>
    <path id="XMLID_787_" class="st0" d="M746.4 297.1c1.8 8 3.7 15.9 4.8 24"/>
    <path id="XMLID_785_" class="st0" d="M735.9 267.8c-1 1.9 0.1 3.2 0.9 4.8 2.5 5.5 4.6 11.2 6.8 16.8"/>
    <path id="XMLID_784_" class="st0" d="M462.3 829.4c1.8 1.9 3.5 3.8 5.3 5.8 3.2 3.5 3.4 7.7 2.4 12 -0.7 2.9-4.2 3.9-8.6 2.4 -4.5-1.6-7.9-4.7-10.1-9.1"/>
    <path id="XMLID_783_" class="st0" d="M446.4 816.9c-2.7-4.7-8-5.8-12.1-8.5 -0.9-0.6-3.2 0.8-3.7 2.7 -0.6 2.4-2.6 4.7 0 7.2 2.1 2 5.1 2.4 7.2 4.3"/>
    <path id="XMLID_782_" class="st0" d="M651.9 552.4c-1.2 1.2-3.1-0.2-4.4 1.9 -3.5 5.5-8.2 10.3-10.9 16.4"/>
    <path id="XMLID_781_" class="st0" d="M435.9 766c-2.2 2-3.2 4.8-4.6 7.3 -0.7 1.3-1.9 3.4-0.4 5.8 1.2 1.9 1.6 4.4 4 5.1 3.2 1 4.1-1.9 5.2-3.8 1.6-2.6 4.6-3.8 5.8-6.7"/>
    <path id="XMLID_780_" class="st0" d="M446.4 730.5c1.1 6.6 0.5 13.1-0.5 19.7"/>
    <path id="XMLID_778_" class="st0" d="M570.3 637.4c-6.2 3-9.8 9.1-15.2 13.1 -3.3 2.4-7 4.7-9.2 8.5"/>
    <path id="XMLID_775_" class="st0" d="M246.3 1099.2c5 4.7 11.2 6.3 17.8 7.2"/>
    <path id="XMLID_774_" class="st0" d="M682.1 1069.9c-4.5 2-9.4 2.6-13.9 4.4 -1.2 0.5-3-0.1-3.4 1.9"/>
    <path id="XMLID_773_" class="st0" d="M371.6 704.1c-0.8 5.8-3.9 11.2-2.9 17.3"/>
    <path id="XMLID_772_" class="st0" d="M510.3 401.7c-7.1 0.4-12.4 3.9-16.3 9.6"/>
    <path id="XMLID_771_" class="st0" d="M259.7 307.6c4.6 5.4 9.3 10.9 13.9 16.3"/>
    <path id="XMLID_770_" class="st0" d="M568.8 708.9c-3.8 5.3-7.7 10.6-11.5 15.8 -1.1 1.5-2.6 1.8-4.3 2 -3.4 0.3-6.7 1-10.1 0"/>
    <path id="XMLID_769_" class="st0" d="M639.9 408.4c-1.6 4.2-3.2 8.3-4.8 12.5 -0.4 0.9-0.4 2.2-1.9 1.9"/>
    <path id="XMLID_748_" class="st0" d="M511.7 402.2c4 0 8 0 12 0.5"/>
    <path id="XMLID_744_" class="st0" d="M154.1 564c0 3.8-0.8 7.7-0.5 11.5"/>
    <path id="XMLID_712_" class="st0" d="M446 765.6c-0.3 1.3 0.5 2.7-0.5 3.8"/>
    <path id="XMLID_705_" class="st0" d="M499.2 129.1c-3.1 0.4-6.2 1.3-7.6 4.3 -1.2 2.5-2.1 5.4 0.5 7.6 2 1.7 2.9 4.9 6.2 4.8 3.8 0 7.5-1 11-2.5 2.4-1 2-7.5-0.4-10.4 -2.4-2.9-5.8-3.1-9.1-3.8"/>
    <path id="XMLID_704_" class="st0" d="M229.5 209.2c-5.5 2.1-9.2 5.3-8.7 12 0.4 4.9 2.7 8.4 6.8 9.1 5.6 0.9 10.8-1.6 12.5-6.2 2.5-6.9 0.4-13.5-10.1-14.9"/>
    <path id="XMLID_703_" class="st0" d="M163.7 993.6c-10.5 5.3-21.1 10.4-30.3 18.2 -13.1 11.1-23.6 35-5.7 53.8 2.4 2.5 4.2 5.4 8 7 7.4 3.1 13.1-1.2 19.3-3.2 6.5-2.1 12.7-3.2 19.8-2.1 8.3 1.3 10.8 6.6 12.4 13.2 1.5 6.3 2.1 6.7 8.7 8.2 10.1 2.4 18.7-0.5 26.4-6.8 3.3-2.6 6.8-4.9 9.7-8.1 6.4-7.3 7.4-15.7 6.9-25 -0.4-7.3-0.7-14.7-2.8-21.5 -4.5-14.8-16-22.7-30.1-26.8 -10.6-3.1-21.6-4.7-32.6-6 -3-0.3-6.1-0.8-9.1-0.8"/>
    <path id="XMLID_702_" class="st0" d="M667.7 634.5c-12.7 2.4-23.5 8.3-33.1 16.8 -3.3 2.9-6.6 5.9-9.6 9.1 -7.1 8-8.6 14.8-2.9 25.8 4.9 9.4 11.3 17.3 21.9 21.4 4.3 1.6 7.5-0.3 11.1-0.9 5.3-0.8 10.6-1.5 15.9-1.2 4.8 0.3 8.6 3.1 11.4 6.8 0.8 1.1 1.7 2.1 2.6 3.2 5.8 7.8 13.6 7.9 22.1 5.8 13.3-3.4 19.5-12.5 22.2-25.4 2.6-12.2 0-22.4-7.6-32.3 -9-11.6-19.1-21.2-32.8-26.8 -6.7-2.7-13.7-2.4-20.7-2.4"/>
    <path id="XMLID_701_" class="st0" d="M647.6 583.6c-5.8 0.9-11.5 1.9-15.4 7.2 -3.3 4.4-4 9.2-3.8 14.4 0.4 12.6 9.4 15 19.2 16.3 7.7 0.9 14.1-1.8 19.2-7.6 3.1-3.5 1.2-7.7 1.3-11.5 0.1-2.9-0.9-5.8-1.8-8.6 -1.2-4-3.6-7.1-8.1-7.7 -3.5-0.4-6.8-1.2-10.1-2.4"/>
    <path id="XMLID_700_" class="st0" d="M546.3 977.7c-3.8 1.9-7.3 4-10.6 6.6 -5 3.8-6.4 8.9-5.6 14.5 1.1 6.9 3.4 13.4 8.5 18.8 5.2 5.6 11.6 6.1 18.3 4.7 7.9-1.7 15.7-11.7 16.4-19.6 0.7-7.9-4.6-19.8-13-23 -4.2-1.6-8.9-1.3-13.4-2"/>
    <path id="XMLID_699_" class="st0" d="M209.3 940.3c-11.2 1.7-14.5 10.4-17.3 19.7 -2.1 7-0.3 12.8 4.8 17.8 5.6 5.4 12.4 8 20.1 7.1 9.1-1.1 19-11.6 19.1-20.6 0-5.5-1.5-10.9-5.2-15.3 -2-2.3-4.3-4.3-6.2-6.7 -1.3-1.6-3.1-2.1-5.3-2 -3.2 0.2-6.4 0-9.6 0"/>
    <path id="XMLID_1_" class="st0" d="M654.7 551.9c-2.2 0.3-4.3 0.7-5.7 2.6 -1.2 1.6-1.5 3.4-1.4 5.3 0.1 4.6 3.5 5.5 7.2 5.9 2.9 0.3 5.3-0.7 7.2-2.8 1.1-1.3 0.4-2.8 0.5-4.2 0-1-0.4-2.1-0.7-3.1 -0.5-1.5-1.3-2.6-3-2.8 -1.3-0.2-2.5-0.5-3.8-0.9"/>
    <path id="XMLID_2_" class="st0" d="M709.2 550.3c-2.2 0.3-4.3 0.7-5.7 2.6 -1.2 1.6-1.5 3.4-1.4 5.3 0.1 4.6 3.5 5.5 7.2 5.9 2.9 0.3 5.3-0.7 7.2-2.8 1.1-1.3 0.4-2.8 0.5-4.2 0-1-0.4-2.1-0.7-3.1 -0.5-1.5-1.3-2.6-3-2.8 -1.3-0.2-2.5-0.5-3.8-0.9"/>
    <path id="XMLID_3_" class="st0" d="M761.3 582.6c-2.2 0.3-4.3 0.7-5.7 2.6 -1.2 1.6-1.5 3.4-1.4 5.3 0.1 4.6 3.5 5.5 7.2 5.9 2.9 0.3 5.3-0.7 7.2-2.8 1.1-1.3 0.4-2.8 0.5-4.2 0-1-0.4-2.1-0.7-3.1 -0.5-1.5-1.3-2.6-3-2.8 -1.3-0.2-2.5-0.5-3.8-0.9"/>
    <path id="XMLID_4_" class="st0" d="M176 890.3c-2.2 0.3-4.3 0.7-5.7 2.6 -1.2 1.6-1.5 3.4-1.4 5.3 0.1 4.6 3.5 5.5 7.2 5.9 2.9 0.3 5.3-0.7 7.2-2.8 1.1-1.3 0.4-2.8 0.5-4.2 0-1-0.4-2.1-0.7-3.1 -0.5-1.5-1.3-2.6-3-2.8 -1.3-0.2-2.5-0.5-3.8-0.9"/>
    <path id="XMLID_5_" class="st0" d="M232.1 895.4c-2.2 0.3-4.3 0.7-5.7 2.6 -1.2 1.6-1.5 3.4-1.4 5.3 0.1 4.6 3.5 5.5 7.2 5.9 2.9 0.3 5.3-0.7 7.2-2.8 1.1-1.3 0.4-2.8 0.5-4.2 0-1-0.4-2.1-0.7-3.1 -0.5-1.5-1.3-2.6-3-2.8 -1.3-0.2-2.5-0.5-3.8-0.9"/>
    <path id="XMLID_6_" class="st0" d="M276 933.3c-2.2 0.3-4.3 0.7-5.7 2.6 -1.2 1.6-1.5 3.4-1.4 5.3 0.1 4.6 3.5 5.5 7.2 5.9 2.9 0.3 5.3-0.7 7.2-2.8 1.1-1.3 0.4-2.8 0.5-4.2 0-1-0.4-2.1-0.7-3.1 -0.5-1.5-1.3-2.6-3-2.8 -1.3-0.2-2.5-0.5-3.8-0.9"/>
    <path id="XMLID_7_" class="st0" d="M529.5 932.3c-2.2 0.3-4.3 0.7-5.7 2.6 -1.2 1.6-1.5 3.4-1.4 5.3 0.1 4.6 3.5 5.5 7.2 5.9 2.9 0.3 5.3-0.7 7.2-2.8 1.1-1.3 0.4-2.8 0.5-4.2 0-1-0.4-2.1-0.7-3.1 -0.5-1.5-1.3-2.6-3-2.8 -1.3-0.2-2.5-0.5-3.8-0.9"/>
    <path id="XMLID_8_" class="st0" d="M577.5 902.3c-2.2 0.3-4.3 0.7-5.7 2.6 -1.2 1.6-1.5 3.4-1.4 5.3 0.1 4.6 3.5 5.5 7.2 5.9 2.9 0.3 5.3-0.7 7.2-2.8 1.1-1.3 0.4-2.8 0.5-4.2 0-1-0.4-2.1-0.7-3.1 -0.5-1.5-1.3-2.6-3-2.8 -1.3-0.2-2.5-0.5-3.8-0.9"/>
    <path id="XMLID_9_" class="st0" d="M635.5 891.3c-2.2 0.3-4.3 0.7-5.7 2.6 -1.2 1.6-1.5 3.4-1.4 5.3 0.1 4.6 3.5 5.5 7.2 5.9 2.9 0.3 5.3-0.7 7.2-2.8 1.1-1.3 0.4-2.8 0.5-4.2 0-1-0.4-2.1-0.7-3.1 -0.5-1.5-1.3-2.6-3-2.8 -1.3-0.2-2.5-0.5-3.8-0.9"/>
  </g>
</svg>
