<?xml version="1.0" encoding="utf-8"?>
<!-- Generator: Adobe Illustrator 19.0.0, SVG Export Plug-In . SVG Version: 6.00 Build 0)  -->
<svg version="1.1" id="Layer_1" xmlns="http://www.w3.org/2000/svg" xmlns:xlink="http://www.w3.org/1999/xlink" x="0px" y="0px"
	 viewBox="0 0 893.7 1087.3" style="enable-background:new 0 0 893.7 1087.3;" xml:space="preserve">
<style type="text/css">
	.st0{fill:none;stroke:#000000;stroke-width:2;stroke-linecap:round;stroke-linejoin:round;stroke-miterlimit:10;}
</style>
<g id="XMLID_1_">
	<path id="XMLID_947_" class="st0" d="M629.7,645.2c3.5,6.4,8.9,11.2,13.5,16.8c6.7,8.1,13.2,16.5,20.6,24c3.7,3.7,3.7,8.7,5.7,13
		c12,25.6,23.3,51.5,35.1,77.3c9.6,21,18.8,42.3,28.1,63.5c6.8,15.5,11.4,31.8,15,48.4c2.9,13.4,5.2,26.8,7.4,40.3
		c1.3,8.5,1.7,17,1.1,25.5c-0.9,11.5-4.7,22.5-9.1,33.1c-2.7,6.4-11.1,8.7-17.6,6.4c-20.8-7.4-31.4-23.6-38.5-43.2
		c-3.6-9.9-3.9-20.1-4.1-30.3c-0.4-18.9,0.6-37.8,0.4-56.6c-0.2-26.8-5.5-52.5-14.3-77.8c-8.8-25.6-19.8-50.2-31-74.8
		c-0.3-0.7-0.3-1.3-0.4-1.9"/>
	<path id="XMLID_946_" class="st0" d="M678.6,653.8c1.3,5.3,5.6,8.6,8.8,12.3c11.1,13.1,22.4,26.2,35.3,37.6
		c11.2,9.9,24,17.4,36.5,25.5c21.8,14.1,44.2,27.3,64.8,43.2c16,12.4,27.3,28.9,37.1,46.5c8.8,15.9,15.7,32.5,20.5,50
		c2.9,10.6,3.5,21.5,2.6,32.6c-2,24.4-9.1,47.4-17.9,70c-3.4,8.7-10.4,13.5-19.2,15.8c-4.3,1.2-6.1,0-7.7-4.3
		c-2.1-5.7-3.2-11.7-3.8-17.8c-1.2-13.9-3.2-27.6-5.9-41.3c-2.9-14-6-27.9-10.9-41.3c-5.8-15.9-14.1-30.4-24.5-43.7
		c-3.2-4.1-6.4-8.3-9.6-12.5"/>
	<path id="XMLID_945_" class="st0" d="M574,404.2c3-6.4,4.1-13.3,4.7-20.2c0.5-5.9,1.3-12.1-0.5-17.7c-2.8-8.6,0.6-16.4,1.5-24.5
		c0.8-7,1.5-14.1,1.4-21.1c-0.1-16.2,0.7-32.3-0.8-48.5c-0.6-6.9-0.9-13.8-1.5-20.6c-1-11-2.5-21.8-4.5-32.6
		c-2.1-11.4-5-22.7-8.9-33.7c-8.3-23.6-22.1-42.9-42.8-57c-3.3-2.2-7.1-3.9-11-4.8c-5.4-1.2-10.2-0.3-14.4,3.8
		c-7.4,7.3-13.1,15.7-16.8,25.5"/>
	<path id="XMLID_944_" class="st0" d="M680.5,293.8c-2.8-6.2-7.9-10.7-12.1-15.8c-18.9-22.6-35.5-46.8-49.9-72.5
		c-11.2-20.2-23.9-39.4-37.4-58.1c-12.3-17.1-29.6-26.6-49.9-30.6c-2.8-0.6-5.9-1.3-8.6-0.9c-11.9,1.5-22.3-3.4-33.2-6.8
		c-9.7-3.1-19.7-4.8-29.7-6.4c-13.4-2.1-26.9-2.6-40.3-2.2c-5.1,0.2-10.4,0.1-15.4,1.8"/>
	<path id="XMLID_943_" class="st0" d="M247.1,263.6c-25.3-32-50.5-64.1-75.4-96.5c-14.6-19-29.4-37.7-42.7-57.6
		c-8.1-12.2-15.1-25-22.1-37.9c-4.7-8.7-9.8-17.4-13.8-26.5C92,42.7,90,41.7,88.2,41c-14.8-5.6-29-12.3-43.6-18.4
		c-9.3-3.9-18.6-8-27.8-12c-0.8-0.4-1.6-0.4-2.4,0"/>
	<path id="XMLID_942_" class="st0" d="M10.5,7.8c0.6,13.6,3.1,26.9,4.8,40.3c2,16.3,6.4,32.1,10.6,48c0.7,2.7,3.1,4,5.3,5.3
		c21,12,41.9,24.1,60,40.4c15.2,13.7,29.1,28.8,43.2,43.7c9.8,10.3,19.6,20.7,29.3,31.2c18.9,20.4,37.8,41,56.7,61.4
		c0.7,0.8,1.1,1.4,0.9,2.4"/>
	<path id="XMLID_941_" class="st0" d="M11.4,9.7c4.2,2.8,7.2,7,10.4,10.7C30.7,30.2,40,39.7,49,49.4c18.5,20,35.9,40.9,53.7,61.5
		c22.1,25.8,44.3,51.4,66.2,77.3c12.6,14.9,25.3,29.8,38,44.6c10.8,12.6,21.4,25.3,32.2,37.9"/>
	<path id="XMLID_940_" class="st0" d="M389.2,107.6c-4,5.7-8.8,10.8-12.6,16.7c-12.2,19.3-20.6,40.2-25.1,62.5
		c-2.4,11.9-2.6,24.2-1.8,36.5c0.5,8.3,0.8,16.7,2.1,24.9c1.6,10.1,2.6,20.4,5.6,30.1c2,6.6,6.1,12.7,9.7,18.9
		c5.3,8.9,10.5,17.9,17.8,25.4"/>
	<path id="XMLID_939_" class="st0" d="M454.9,139.8c-7-9-14.4-17.6-24.5-23.6c-8.8-5.2-18.3-8.6-27.9-11.9c-0.7-0.2-1.6,0.1-2.4,0.2
		c-12.1,1.7-23.9,4.2-34.1,11.7c-16.1,11.8-34,20.9-51.4,30.7c-18.4,10.4-31.2,25.8-42.2,43.3c-7.1,11.3-13.6,22.9-20.1,34.6
		c-0.7,1.2-1.2,2.4-1,3.8"/>
	<path id="XMLID_938_" class="st0" d="M614.8,643.8c2.7-0.9,5.5-0.7,8.1-0.4c11.2,1.5,22.5,0.5,33.6,2.8c6.7,1.4,13.3,3.2,19.7,5.7
		c5,2,10.1,3.9,15.4,5.2c6.4,1.6,11.1-1.8,14.2-6.7c2.3-3.6,4.8-4.7,8.8-4.8c8.1-0.2,15.9-2.1,22.5-7.1c4.9-3.7,6.1-7.3,3.8-12.4
		c-3-6.8-6.6-13.4-11.9-18.7c-5.7-5.7-12.6-6.8-20.2-4.8c-7.8,2.1-15.6,4.2-22.6,8.7"/>
	<path id="XMLID_937_" class="st0" d="M622,262.6c3.1,5.7,1.9,12.2,2.8,18.3c1.4,9.9,2.3,19.8,3.1,29.7c1.6,18.8,0.5,37.2-5.4,55.2
		c-3.5,10.8-6.9,21.7-11.6,32.1c-0.6,1.4-0.4,3.3-2.4,3.8"/>
	<path id="XMLID_936_" class="st0" d="M654.1,610.2c0.8,7.6-3.3,12.1-10.1,10.5c-14.1-3.3-28.2-6.7-42.2-10.1
		c-1.7-0.4-3.7-0.7-4.9-2.5c1.2-4.3,3.7-8.2,4.6-13.3c-5.8-1.3-11.7-2.3-17.4-3.9c-8.8-2.4-17.2-5.7-24.9-10.6
		c-3.2-2.1-5-1.6-6.8,1.5c-10.1,16.8-26.4,26.5-42.8,35.8c-5.9,3.3-12.8,5-19.6,6.4"/>
	<path id="XMLID_935_" class="st0" d="M212.5,333.2c6.6,1.7,12.9,4.5,19.7,5.9c3.7,0.8,8.2-1.4,10.9,1.1c2.7,2.5,2.9,7,4.9,10.4
		c2.1,3.4,5.3,5.6,8.7,5.5c6.8-0.1,10,4.1,12.9,8.9c15.9,25.6,31.7,51.2,47.5,76.8c12.7,20.5,25.2,41.3,39.9,60.4
		c10.9,14.2,23.7,26.8,36.4,39.5c5,5,10.1,9.7,14.4,15.3c3.2,4.1,7.6,5.2,12.4,3.8c6.3-1.8,12.5-3.8,18.7-5.7"/>
	<path id="XMLID_934_" class="st0" d="M587.4,654.8c-5.3,8.1-12.1,15.1-18.2,22.6c-15.3,18.4-34.3,32.3-54.2,45.1
		c-5.9,3.8-11.7,7.9-17.8,11.4c-4.1,2.3-8.9,2.8-13.4,3.9c-2,0.5-3.8,1.3-5.8,1.9"/>
	<path id="XMLID_933_" class="st0" d="M374.8,796.9c-0.1-2.4,0.4-4.6-1.8-6.9c-2.3-2.4-3.2-6.1-5-8.9c-1.1-1.7-1.7-3.6-0.5-5
		c1.5-1.8,3.4-0.2,4.9,0.7c8.7,4.8,16.8,10.3,25,15.8c17.2,11.8,33.9,24.1,49.9,37.5c15.7,13.2,31.3,26.5,45.3,41.6
		c4,4.3,8.2,8.6,12.2,13.6c-10.2,3.8-17.3,10.9-24.7,17.7"/>
	<path id="XMLID_932_" class="st0" d="M262.5,362c1.5,3.7-0.5,7.3-0.3,11.1c0.5,6.4,0.9,12.8,1.6,19.2c0.9,7.8,2,15.5,3.9,23
		c3.3,12.9,10.8,23.5,18.4,34c5.9,8.2,12.2,16.1,19.1,23.6c2.6,2.8,5.9,5.1,7.7,8.6"/>
	<path id="XMLID_931_" class="st0" d="M507.3,290.5c1.6,1.1,3.3,2.1,4.8,3.4c5.3,4.5,4.6,12.3-1.5,15.7c-0.8,0.5-2.1,0.9-3.3,0.6
		c-2.7-0.7-4.9-2.4-7.6-3.1c-1.7-0.4-2.6-2.3-1.5-4.7c5.1-10.7,12.8-18.8,23.6-23.3c7.8-3.2,16.2-5.1,24.4-7.2
		c1.4-0.4,2.3-1.7,4.3-0.9c6.5,16.2,10.2,33.8,14.1,51.6c4.3,19.5,4.6,39.3,5.5,59.1c0.1,2.3-0.8,4.8-0.9,7.2"/>
	<path id="XMLID_930_" class="st0" d="M326.8,147.9c-4.6,16.7-9.6,33.3-14.3,50c-1.6,5.6-2.9,11.3-3.1,17.2
		c-0.1,2.6,0.9,4.8,1.3,7.2c1.3,8.6-1.9,16.9-0.7,25.5c1.5,10.3,0.8,20.8,1.6,31.2c1.1,15.2,4.8,30,10.5,44.1
		c3.4,8.2,8.2,16.2,10.1,24.6c3.2,14.3,14,22.6,22.1,33c10.3,13.2,21.9,25.4,33.6,37.5c12.6,13.2,25.1,26.5,39.8,37.5
		c12.8,9.6,25.4,19.4,39.4,27.3c3.6,2,4.3,5,3.8,8.7"/>
	<path id="XMLID_929_" class="st0" d="M649.3,741.4c-3.6,5.8-8.9,10.3-12.9,15.6c-11.1,14.7-22.3,29.5-31,46
		c-8.1,15.6-17.6,30.4-26.2,45.7c-7.1,12.6-15.7,24.1-24.6,35.4c-2.3,3-5.6,5.3-8.6,7.7c-1,0.8-1.2,2-1.9,2.9"/>
	<path id="XMLID_928_" class="st0" d="M680.1,1003.3c-3.2,0.8-5.2-1.5-7.7-2.8c-5.7-3-11.6-6.1-18.2-3.4c-8.7,3.7-15,10.1-19.3,18.6
		c-3.7,7.2-3.4,14.5-1.9,22.1c2.4,11.3,6,22.2,12.1,32.1c1.2,1.9,1,3.8,0.9,5.8"/>
	<path id="XMLID_927_" class="st0" d="M764.5,800.7c-16.2-18.1-32.3-36.1-48.5-54.2c-8.7-9.7-17.3-19.5-25.9-29.3
		c-4.6-5.2-9-10.5-13.4-15.8c-2.5-3-5.1-5.8-8.2-8.1"/>
	<path id="XMLID_926_" class="st0" d="M598,672.6c3.8,4,8.8,5.6,13.9,6.3c0,0.9,0,1.4,0,1.8c0.1,1-0.7,2-1.1,2.3
		c-21.5,21.8-35.8,48.5-50.9,75.5c-8.9-7.1-17.2-13.3-25.9-19.2"/>
	<path id="XMLID_925_" class="st0" d="M586.5,682.6c-2.1-0.1-3.1,1.6-4.3,2.9c-12.5,13.8-26.5,26.1-40.8,37.9
		c-16.6,13.7-35.2,23.9-54.7,32.6c-0.9,0.4-1.9,0.7-2.9,1"/>
	<path id="XMLID_924_" class="st0" d="M609,341.8c-2.3,1.9-2.4,1.9-2.4,3.8c-0.1,5.1-0.4,10.3-0.4,15.4c0.2,21.9-5.5,42.5-14.1,62.4
		c-2.6,5.9-4.1,12.3-8.6,17.3"/>
	<path id="XMLID_923_" class="st0" d="M370.9,797.4c1.7-0.8,3.3-0.7,4.8,0.5c8.6,6.5,18.5,11.2,26.4,18.7
		c11.9,11.2,22.7,23.5,33.2,36c14.4,17.1,27.1,35.3,40.4,53.4c-1.8,4.3-4.9,7.8-6.9,11.9c-0.5,1-1.4,1.1-2.4,1"/>
	<path id="XMLID_922_" class="st0" d="M587.4,642.8c7.8,0.2,15.7,0.3,23.5,0.5c1.3,0,2.5-0.2,3.4,1.4c7.7,13.9,16.4,27.4,20.2,43.2
		c3.7,15.7,4.9,31.5,2.9,47.5c-0.3,2-0.5,4.2,0.4,6.2"/>
	<path id="XMLID_921_" class="st0" d="M404.1,181.5c-5.5,4.9-7.2,12-9.9,18.3c-10.5,23.7-10.1,49.1-9.7,74.3c0,0.6,0.3,1.3,0.5,1.9"
		/>
	<path id="XMLID_920_" class="st0" d="M601.3,212.2c6.9,10,14.6,19.3,22.2,28.7c3,3.7,4.6,7.4,5.4,12.1c1.2,6.8,3.8,13.4,5.5,20.2
		c4,15.3,7.5,30.6,7.7,46.6c0.1,6.6,0.6,13.1,0.9,19.7c0.1,1.7,0.2,3.4-1.2,4.8"/>
	<path id="XMLID_919_" class="st0" d="M453,896.7c8.6,5,11.4,13.4,12.9,22.6c0.2,1.5-0.1,3-0.9,4.3c-16.9,26.6-31.8,54.5-47,82.1
		c-6.4,11.7-12.2,23.7-19.2,35.1c-8.9,14.5-21.2,24.4-37.5,28.7c-12,3.2-17.5,0.4-23.4-10c-3.2-5.7-5.7-11.8-7.3-17.7
		c12.6-14.5,24.7-28.8,32.3-46.5c4.1-9.7,3.8-18.1-2.5-26.5c-5.8-7.7-9.2-7.6-15.7-0.3c-2.1,2.4-3.8,3.9-6.9,3.7
		c-0.2,0-0.3,0.1-0.5,0.2c0.1,0.1,0.2,0.2,0.2,0.2"/>
	<path id="XMLID_918_" class="st0" d="M369,797.1c0.3,0.1,0.9,0.2,0.9,0.2c-0.1,11.6,3,22.9,3.5,34.6c0.6,12.8-2.3,24.9-5.9,36.9
		c-2.4,7.9-4.6,15.8-7.5,23.4c-3,7.8-5.9,15.7-8.7,23.7c-4.4,12.3-8.7,24.6-10.9,37.5c-1,6-2.2,12.1-2.6,18.2"/>
	<path id="XMLID_917_" class="st0" d="M387.3,896.7c1,0,1.9,0.1,1.9,1.4c0,9.1,4.3,16.9,7.7,25c0.4,1.1,1.7,2.2,0.9,3.3
		c-1,1.4-2.4,1.3-4.3,1.1c-14-1.8-26.9,1.4-37.9,10.5c-6,5-10,11.7-13.6,18.6c-0.2,0.5,0,1.8-1.4,1.5"/>
	<path id="XMLID_916_" class="st0" d="M613.3,1047.4c3-3.3,1.2-7.3,0.7-10.5c-1.2-8.3-2.7-16.7-3.9-25c-1.6-11.4-5.9-21.2-13.6-29.8
		c-6-6.6-11.9-13.4-18.3-19.6c-0.6-0.6-1.4-1.1-3-0.9c0.6,1.7,0.4,3.3,0.9,5.3c6.6,26.9,18.7,51.3,32.1,75.2
		c5.5,9.9,11,20,18.9,28.5c4,4.4,7.9,9.1,14.4,7.4c4.6-1.2,9.6-1.9,13.5-5.1c11.4-9.6,21.3-20.4,24.4-35.5c2.5-12.2,2.8-24.6,1-36.9
		c-0.1-0.8-0.4-1.7-1-2.4c-11.3-13.9-17.2-30.3-20.5-47.6c-2.1-10.6,1.6-20.6,4.2-30.7c0.3-1,0.8-0.9,1.5-0.9"/>
	<path id="XMLID_915_" class="st0" d="M519.3,229c-1.1-11.1-3.1-22.2-6.9-32.6c-5.6-15.5-16.5-26.5-32.2-33c-5.7,5.4-5,12.3-5.1,19"
		/>
	<path id="XMLID_914_" class="st0" d="M703.1,843c4.3,14.1,9,28,14.4,41.8c6.3,16.2,12.8,32.3,19.2,48.5"/>
	<path id="XMLID_913_" class="st0" d="M711.7,889c2.4,10.3,5.7,20.3,7.7,30.7c1,4.9,1.7,9.9,1.9,14.9c0.5,12.5,1.7,24.9,0.5,37.4
		c-0.2,2.1,0,4.2,0,6.2"/>
	<path id="XMLID_912_" class="st0" d="M590.8,533.4c-3.2,2.2-5.9,4.9-6.9,8.6c-2.6,0.5-4.5-1-6.6-1.4c-9.1-1.8-13.3,0.7-17.2,10.1
		c-0.2,0.4-0.2,1-0.5,1.4c-4.5,10.4,0,17.6,11.5,17.6c4.5,0,8.5,0.6,12,3.5c2.2,1.8,4.8,2.9,7.2,4.3c5.1,3,10.5,2.2,15.8,1.4
		c1.9-0.3,2.1-2,2.5-3.8c2-8.5-0.5-16.4-3.6-24c-5.5-13.7-15.8-23.1-28.6-30.4c-8.2-4.7-16.1-10-24.1-15.2
		c-9-5.9-18.6-10.6-27.5-16.7c-2.7-1.8-4.7-3.7-4.7-6.8c0.2-12.4-1.7-24.6-1.9-37c0-1.6-0.6-3.3,1.1-5.3c6.9,1.4,12.1-3.6,18.1-6.8
		c8.3-4.4,12.9-3.9,19.7,2.4c1.5,1.4,2.9,2.9,4.6,4.6c-9.5,10.5-13.5,23.2-15.3,37.2c-0.9,7.2-2,14.6-4.1,21.6"/>
	<path id="XMLID_911_" class="st0" d="M500.1,308.2c2.6,13.6,6.2,26.6,21.1,32.2c7.7,2.8,14.2-0.1,20.1-4.4
		c4.9-3.6,8.2-8.4,8.7-14.8c0.3-3.1-0.6-5.2-3.9-5.2c-2.6,0-4.8-0.8-7.2-1.5"/>
	<path id="XMLID_910_" class="st0" d="M651.3,814.2c-4.7,1.6-7,5.8-10.1,9.1c-17,18.5-32.2,38.4-46.6,59
		c-4.4,6.3-8.3,12.9-11.9,19.7c-3.7,7.1-1.2,14.1,1.6,20.5c3.4,7.8,7.9,15.1,14.7,20.8c1.7,1.4,3.5,2.3,5.3,3.3c1.7,1,4,1.4,4.3,3.8
		"/>
	<path id="XMLID_909_" class="st0" d="M443.4,958.2c-3.1-2.6-5.6,0.3-8.1,1.1c-15.4,4.8-26.3,15.2-33.5,29.2
		c-4.3,8.3-2.6,17.4-2.1,26.3c0.2,3.8,1.5,7.6,0.6,11.5c-0.2,0.8,0.9,1.9,1.3,2.9"/>
	<path id="XMLID_908_" class="st0" d="M629.7,912.6c9,1.3,11.7,9.1,15.7,15.4c0.4,0.6,0.7,1.7,1.1,2.3c5.2,7.1,3,13.6-1,20.2
		c-3.1,5.3-7.6,2.8-11.6,2.3c-12.6-1.5-23.8-16.9-21.6-29.2c1.2-6.7,6.6-10.9,13.4-10.6c1.1,0.1,2.3,0.2,3.4-0.5"/>
	<path id="XMLID_907_" class="st0" d="M235.1,368.7c2,3.5,0.8,7.4,0.9,11c0.5,18.8,9.2,34.1,19.6,49c9.1,13.1,19.8,25,28,38.8"/>
	<path id="XMLID_906_" class="st0" d="M652.2,866.5c4,6.3,4.5,13.7,6.2,20.6c2,8.1,4.1,16.3,5.7,24.5c3.5,18.1,8.1,36,11.2,54.2
		c1.5,8.7,3.3,17.2,4.8,25.9c0.4,2.1,0.4,3.9-0.6,5.8"/>
	<path id="XMLID_905_" class="st0" d="M444.4,672.6c14.9,6.2,29.7,12.6,44.7,18.7c11.9,4.8,23,11.1,33.6,18.3"/>
	<path id="XMLID_904_" class="st0" d="M433.8,686.5c7.5,2.9,15,5.9,22.6,8.6c13.7,4.9,26,12.6,38.8,19.3c5.3,2.7,10.8,5.2,15.4,9"/>
	<path id="XMLID_903_" class="st0" d="M403.6,735.4c-10,1.8-13.8,8.1-11.7,17.8c0.5,2.2,0.8,4.7,1.7,6.6c2.5,5,7.8,4.9,12.4,5.2
		c15.2,1.2,30.4,0.5,45.6,0.6c1,0,2-0.3,2.9-0.9"/>
	<path id="XMLID_902_" class="st0" d="M433.8,459.4c7.6-5,15.9-7.3,25-7.3c7.4,0,14.7,0.4,22.4,0.7c0.5,6.8-0.6,13.4-0.4,20
		c0.2,5.7,1.8,11,3.5,16.3c1.1,3.3,5.1,3,8,3.9c2.8,0.8,5.7,0.5,8.6,0.5c5.5,0,6.9,1.9,5.3,7.2c-2.6,8.7-5.8,17.3-8.7,25.9
		c-4.2,12.2-8.4,24.4-11.4,37c-2.4,10-1.8,20.2-1.3,30.2c0.4,8.8,2,17.6,3.2,26.4c0.6,4,1.3,8.1,2.5,12c0.6,1.8-0.1,3.2-0.1,5.1
		c-6.9-2.6-12.9-6.8-19.1-10.5c-9.2-5.6-18.6-9.6-29.4-9.9c-1.7-0.1-3.5,0-3.3-2.4c0.7-15.7-9.1-26.7-17.3-38.4
		c-2.6-3.6-5.5-7-8.1-10.6c-1.1-1.6-2.9-2.9-2.4-5.2"/>
	<path id="XMLID_901_" class="st0" d="M625.8,272.7c5.2,12.2,9.4,24.7,11.1,37.9c1.3,10.4,1.4,21,3.7,31.1c1.9,8.3,1,16.5,2.4,24.6
		c0.2,1.4,0.3,2.9-0.4,4.3"/>
	<path id="XMLID_900_" class="st0" d="M646.5,747.9c2.7,5.4,0.3,10.9-0.2,16.3c-1,11.8-2.2,23.7-2.8,35.5c-0.2,4.7-1,9.3-1.4,13.9
		c-0.1,1.5-0.3,3.1,0.9,4.3"/>
	<path id="XMLID_899_" class="st0" d="M220.2,280.9c-4.1,0.8-6,4.1-8.2,7.2c-7.6,11-13.1,23-16.3,36c-2.4,9.6-0.6,18.8,2.9,27.8
		c1.7,4.4,3.8,8.7,5.8,13.1c-1.9,2.8-3.5,5.8-4.9,9c-1.3,3-0.5,4.2,2.4,5.4c5.2,2.1,10.2,1.9,15.4,0.4"/>
	<path id="XMLID_898_" class="st0" d="M469.8,183.4c-8.3-11.7-19.8-18.5-33.6-22.1c-4-1.1-8-1.1-12-0.8c-8,0.5-12,6.2-15.9,12.4
		c-4.3,6.8-4.2,14.1-4.3,21.6c0,1.3,0.9,1.6,1.5,2.4c2-2.1,3-4.8,4.4-7.2c4.7-8.4,12.4-12.4,21.6-13.9c4.5-0.7,8.9-1.8,13.4-1.9"/>
	<path id="XMLID_897_" class="st0" d="M336.9,973.5c-3.7,5-3.2,11.2-4.1,16.8c-2.6,14.7-3,29.7-3,44.6c0,1.7-0.5,3.6,1.4,4.8"/>
	<path id="XMLID_896_" class="st0" d="M474.6,547.3c-2.1,13.9,0,27.6,1.6,41.3c0.8,6.8,1.8,13.6,3.7,20.2c0.5,1.6,0.4,3.2,0.5,4.8"
		/>
	<path id="XMLID_895_" class="st0" d="M414.1,344.2c7.7,12,8.1,20.2-1.1,32.1c-8.4,10.8-17.4,12.1-31.5,8.3"/>
	<path id="XMLID_894_" class="st0" d="M37.8,90.3c0.3,2.9,3,3.7,4.9,4.7c21.5,12.1,40.4,27.7,58.5,44.3"/>
	<path id="XMLID_893_" class="st0" d="M55.6,39c8.5,2.4,17,5,25,9.1c2.2,1.1,3.8,2.4,4.9,4.8c4.8,11.1,9.9,22.1,15.8,32.7"/>
	<path id="XMLID_892_" class="st0" d="M261,386c-1.8,20.1-0.5,39.8,9.2,58c0.8,1.5,1.4,2.7,1.4,4.4"/>
	<path id="XMLID_891_" class="st0" d="M497.2,872.2c10.5-15.7,21.5-31,30.8-47.5c1.4-2.5,3.1-5.4,6.6-4.7c3.3,0.7,4.1,3.6,4.9,6.6
		c4.2,17.2,10,33.9,14.9,50.9c0.3,1.2,0.6,2.6,1.9,3.4"/>
	<path id="XMLID_890_" class="st0" d="M399.7,1026.3c-1.9,0.1-3.1-1.2-4.3-2.4c-7.7-7.3-23.4-11.9-36.5-2.4
		c-5.2,3.8-10.5,7.4-15.9,11c-1.4,0.9-2.9,1.8-4.8,1.5"/>
	<path id="XMLID_889_" class="st0" d="M310,235.3c-15-1-27.8,4.7-39.9,12.9c-7.5,5.1-15.2,9.9-22,16.4c1,4.4,5.5,4.9,9,6.7"/>
	<path id="XMLID_888_" class="st0" d="M609.5,342.8c1.2,10.8,2.5,21.7,1.8,32.6c-0.5,7.1-1.6,14.1-2.9,21.1c-0.7,4.2,0,8.6-2.3,12.5
		"/>
	<path id="XMLID_887_" class="st0" d="M643.1,906.3c-3.4-2.9-6-6.5-9.6-9.1c-7.2-5.2-14.9-6.7-24-5.6c-8,0.9-15.3,3.9-23,5.6"/>
	<path id="XMLID_886_" class="st0" d="M713.7,888.1c1.5,6.8,4.2,13.3,6.9,19.6c5.3,12.6,11.2,25.1,18.1,37"/>
	<path id="XMLID_885_" class="st0" d="M832.7,806.5c7.5,13.2,14.1,26.9,20.2,40.8c2,4.6,4.1,9.2,5.7,13.9"/>
	<path id="XMLID_884_" class="st0" d="M291.7,305.4c1.5,0.6,2.7,1.6,4.3,2c4.3,1.1,7.4,3.8,9.2,8.1c6,14.2,16,25.6,25.4,37.4
		c0.5,0.7,1.4,1.1,2.4,1"/>
	<path id="XMLID_883_" class="st0" d="M407.9,823.3c-1,1.9-0.9,3.5-0.2,5.8c5.1,16.1,10,32.2,18.6,46.8c-1.3,1.8-2.6,1.4-4,0.7
		c-4.1-2-8.5-3.2-13-4.3c-6.7-1.6-12.4,2-16.4,9c-2.7,4.8-3.5,10.1-4.3,15.4"/>
	<path id="XMLID_882_" class="st0" d="M607.1,689.8c9.1,13.1,19.1,25.7,24,41.3c2.1,6.7,2.7,13.7,3.3,20.6c0.1,1.3-0.3,2.8,1,3.8"/>
	<path id="XMLID_881_" class="st0" d="M546.6,223.8c-8.5,1.9-17,3.1-25.5,5.2c-19.7,4.9-37.1,14-51.8,28c-1.1,1.1-3,1.5-3.4,3.3"/>
	<path id="XMLID_880_" class="st0" d="M629.2,249.2c3.8,2,6,5.7,8.5,8.7c11.3,13.7,25.3,24.2,39.5,34.5c2.7,1.9,6.5,2.4,7.7,6.2"/>
	<path id="XMLID_879_" class="st0" d="M30.1,35.6c-1.4,4-0.1,8,0.1,12C31.2,60.9,33.5,74,36.8,87c0.1,0.5,0,1,0,1.4"/>
	<path id="XMLID_878_" class="st0" d="M618.1,914.5c-2.6-2.9-4.8-6-7.6-8.7c-2-2-3.9-3.8-6.8-3.2c-5.9,1.2-8.6,2.1-7.6,8.6
		c1.5,9.9,5.2,16.5,15.3,18.3"/>
	<path id="XMLID_876_" class="st0" d="M290.8,252.1c1.4,5.5,3.9,10.6,6.1,15.7c3.7,9.1,3.2,17.6-0.4,26c-5,11.9-11.2,23.3-21.5,31.7
		c-8.7,7.1-18.4,11.9-29.7,13c-0.3,0-0.6,0.6-1,0.9"/>
	<path id="XMLID_875_" class="st0" d="M450.6,618.8c-1.4,1.5,0,2.9,0.6,3.8c2.6,4.4,3.9,9.3,5.8,13.9c3.4,8.3,0.7,15.3-3.5,22.1
		c-2.6,4.2-5.5,8.1-9.1,11.6"/>
	<path id="XMLID_874_" class="st0" d="M653.2,809.4c-2.4,3.4-0.1,7-0.4,10.6c-0.7,8.6-2.3,17.2-1.5,25.9c0.5,5.6-0.1,11.2,0.9,16.8
		c0.4,2-0.6,2.8-2.3,4c-7.6,5-13.1,12-17.8,19.6c-1,1.6-1.9,3.2-2.9,4.8"/>
	<path id="XMLID_873_" class="st0" d="M437.7,911.6c-0.2-1.4,1.4-1.9,1.5-3.4c0.4-5.9,4.3-9,9.6-10.5c1.4-0.4,2.7-0.6,3.9-2.3
		c-2.2-4.5-4.9-9.4-9.7-12.6c-5.2-3.5-10.5-0.1-12,7.2c-1.4,7.1,0.5,13.6,4.5,19.1c2.6,3.6,3.4,7.1,3.7,11.2
		c0.7,9.9,4.4,18,13.2,23.3"/>
	<path id="XMLID_871_" class="st0" d="M496.7,593.8c4.1-0.1,7.7,2.1,12,2.1c7.5,0,14-2.1,19.7-6.9c5.2-4.4,8.6-10.6,13.5-15.3
		c4.6-4.4,2.3-11.1-1.6-16.3c-3.7-5.1-9.5-7.5-15.3-9.6c-0.7-0.2-1.6,0.1-2.4,0.3c-4.6,1.2-7.1,4.9-9.5,8.3c-2,2.9-0.4,6.8,2.8,9
		c4.4,3.1,9.1,4.6,14.4,2.4c0.5-0.2,1.3,0.3,1.9,0.4"/>
	<path id="XMLID_870_" class="st0" d="M597,609.2c-4.4,9.1-9.1,18.1-10.5,28.3c-0.7,5-1.5,10.3,1.1,14.8c2.4,4.1,4.8,8.2,7.6,12
		c2.7,3.6,2.1,6.4-0.6,9.2c-2.6,2.6-6.1,5.5-6.8,8.3c-1.8,7.8-7.5,13-11.1,19.5c-5.7,10.5-11.1,21.2-17.8,31.6
		c-5.7-1.9-10-5.9-14.7-9.4"/>
	<path id="XMLID_869_" class="st0" d="M577.3,855c-0.3,7.6-3,14.8-5,22c-2.5,9.4-5.1,18.8-8.9,27.9c-1.2,2.8-2.8,5.1-4.9,7.2
		c-3.6,3.6-8.7,5-12.3,8.6c-0.6,0.6-2,0.2-3.1,0.3"/>
	<path id="XMLID_868_" class="st0" d="M441,673.5c-4.4,7.5-9.7,14.3-14.4,21.6c-6.5,10.1-14.6,19.2-18.7,30.7
		c-2.2,6.1-5.3,12-5.8,18.7"/>
	<path id="XMLID_867_" class="st0" d="M201,259.8c-10.7,13.4-9.8,27.8-3.8,42.7c0.8,2,0.8,4.4,3.4,5.3"/>
	<path id="XMLID_866_" class="st0" d="M287.4,428.2c-0.6,4.6,2.2,8.2,3.9,12c5,10.5,10,20.9,16.1,30.8c0.6,1,2.4,2.4,1.1,4.2"/>
	<path id="XMLID_865_" class="st0" d="M310.9,234.8c2.3,1.3,4.8,0.4,7.2,0.8c3,0.5,5.8,1.1,7.6,3.5c4.1,5.4,9.9,4.6,15.4,4.2
		c4.5-0.3,6.7,1.4,5.8,5.9c-2,9.7-9.2,13.6-18.7,10.7c-5.6-1.7-4.5-6.5-5.7-10.2c-0.3-1,0-2.2,0-3.4c-4-1.6-8.2-2-12.5-1.9"/>
	<path id="XMLID_864_" class="st0" d="M866.3,917.8c-1.6,10.2-4.8,20-8.2,29.8c-1.9,5.5-4.1,10.9-6.2,16.3"/>
	<path id="XMLID_863_" class="st0" d="M309,243.9c-9,0.8-17.7,2.2-25.9,6.2c-9.5,4.5-17.3,11.2-24.4,18.8c-1.3,1.4-1.9,3.7-0.4,5.1
		c2.1,2.1,0.8,4.2,0.3,5.8c-1.1,3.2-2.7,6.4-4.7,9.1c-1.7,2.3-4.4,3.7-7.6,3.4c-1.4-0.1-2.9-0.2-4.3,0c-6.1,0.8-10.8-1.2-14.5-6.2
		c-1.4-2-3.5-3.6-5.2-5.3"/>
	<path id="XMLID_862_" class="st0" d="M608.5,588.1c13.6,7.8,27.7,14.7,42.3,20.6c1.8,0.7,4,0.6,6.2,0.4c8-0.8,16.1-0.3,24,1.7
		c4.8,1.2,8.8,8.9,8.2,14.5c-9.1,0.2-18.1,2.2-27.3,1.8c-1.9-0.1-3.1-0.9-4.3-2c-1.6-1.4-2.6-3.5-4.8-4.3"/>
	<path id="XMLID_861_" class="st0" d="M446.8,743.6c-14.3,2.5-28.8,1.8-43.2,1.9c-3.6,0-7-0.7-10.6-1"/>
	<path id="XMLID_860_" class="st0" d="M360.9,892.9c3.4,7.6,6.9,15,12.9,21.8c-7.8,0.6-14.4,2.4-20.5,5.7c-1.1,0.6-1.9,0.9-2.9,0.4"
		/>
	<path id="XMLID_859_" class="st0" d="M567.3,514.2c1.9-3.8,4.7-7,6.4-11c1.4-3.3,0.8-5.8-1.6-7.7c-8-6.2-16.1-12.1-25.4-16.4"/>
	<path id="XMLID_857_" class="st0" d="M356.1,285.2c2,3.6,1.1,7.7,1.7,11.6c1.6,9.2,2.5,18.6,4,27.8c0.4,2.6,1.2,3.6,4.4,3
		c9.4-1.7,18.8-3.4,28.3-0.7c1.9,0.5,3.1,1.6,4.5,2.5"/>
	<path id="XMLID_856_" class="st0" d="M407.9,333.7c3.8,1.3,7.5,3,11,4.8"/>
	<path id="XMLID_855_" class="st0" d="M231.3,292.4c-3.1,3.5-7.3,5.7-10.1,9.6c-5.9,8.2-6.7,18-8.5,27.4c-0.6,3.4-1.2,6.9-1.2,10.5
		c0,6.5,1.5,12.4,6.4,16.7c7.4,6.5,5.8,12.4,2.3,19.7c-3.7,7.8-5.3,16.4-10.5,23.6c-1.6,2.2-2.9,4.5-4.3,6.7"/>
	<path id="XMLID_854_" class="st0" d="M282.6,388.4c-1.4,0.8-1,2.2-0.9,3.4c0.8,10.6,1.1,21.3,3.4,31.7c0.4,2,1.3,3.7,3.7,5
		c3.1,1.7,5.6,4.6,8.3,7c5.5,5,12.1,8,18.7,11.1c1.4,0.7,2.3-0.3,3.4-0.1"/>
	<path id="XMLID_853_" class="st0" d="M575.9,407.1c1.9-1.5,1.2-4.7,4.1-6c6.7,14.6,2.6,29.6,2.2,44.4"/>
	<path id="XMLID_851_" class="st0" d="M274.9,278.5c0.2,2.2,0.2,4.5,0.5,6.7c1.9,14.3-6.4,22-17.8,27.9c-0.4,0.2-0.6,0.6-1,0.9"/>
	<path id="XMLID_849_" class="st0" d="M643.1,1073.8c-6.4-4.4-10.2-10.4-11.1-18.2c-0.8-7.1-2.5-8.4-10.1-5.3
		c-2,0.8-3.3,3.1-5.7,2.9"/>
	<path id="XMLID_848_" class="st0" d="M526,279c3.4,3.8,7.1,7.4,10,11.6c4.7,6.7,7.1,14,2.5,22c-4.2,7.4-10.4,11.1-18.8,11.5
		c-3.8,0.2-7.6,1.5-11.5,0.9"/>
	<path id="XMLID_847_" class="st0" d="M499.6,570.3c5.4,2.9,10.6,5.9,16.3,8.1c5.7,2.2,11.5,3.4,17.3,0.1c0.7-0.4,2.3-0.6,3.3,0.4"
		/>
	<path id="XMLID_846_" class="st0" d="M375.3,366.8c0.3-0.5,0.8-0.7,1-1.4c0.7-2.7,1.2-5.4,5.2-4.9c3.7,0.4,6.6,0.9,7.8,5.3
		c1.3,5.3,1.3,10-3.5,13.4c-1.5,1.1-2.2,3.1-4.8,3.1c0.2,7.7,4,13.9,6.3,20.5c1.8,5,3.8,9.9,5.7,14.9c0.6,1.5,0.7,2.9,0,4.3"/>
	<path id="XMLID_845_" class="st0" d="M487.6,508.4c-4.7,11.3-8.6,22.8-12,34.6c-0.2,0.7,0,1.6,0,2.4"/>
	<path id="XMLID_844_" class="st0" d="M518.3,458.5c-3.8,2.4-7.7,4.7-11.5,7.2c-7.6,5-16.2,5.9-25,6.2"/>
	<path id="XMLID_842_" class="st0" d="M561.5,536.2c-2.1-1.4-2.5-4.5-5.4-5.3c-4.8,4.2-2.4,11.2-5.7,15.9c-6.1-0.8-8.7-6-12.8-8.9
		c-3.2-2.3-6.9-3.5-10.3-5.5c-2.6-1.5-5.6,0.6-7.1,4.2c-0.5,1.3-1.3,2.5-1.4,3.8c-0.1,1.6-1.1,2.5-1.1,4.7
		c-6.4-6.5-10.6-14.5-20.1-15.2"/>
	<path id="XMLID_841_" class="st0" d="M408.9,278c-8.9-3.2-19.2-3.7-24.7-1.1c0.4,16,0.8,31.8,1.1,47.7"/>
	<path id="XMLID_840_" class="st0" d="M413.2,337c0.5,5.9-0.9,11.6-2,17.3c-0.9,4.5-3.1,8.5-6.7,11.5c-3.4,2.9-7,5.5-10.5,8.2
		c-1.1,0.8-2.4,1.4-3.8,0.5"/>
	<path id="XMLID_839_" class="st0" d="M518.8,230c2.7,3.8,1.7,8.4,2.1,12.5c1,9,2,18,3.6,26.8"/>
	<path id="XMLID_838_" class="st0" d="M486.1,396.6c3,0.2,6.1,0.2,9.1,0.5c5.3,0.6,7.9,3.8,7.6,9.6c-0.4,9.4-1.3,18.7-5.2,27.4
		c-0.2,0.5,0,1.3,0,1.9"/>
	<path id="XMLID_837_" class="st0" d="M527.9,191.1c1,11.7,1.9,23.4,2.9,35"/>
	<path id="XMLID_835_" class="st0" d="M398.8,330.8c-2.8,1.1-5.7,0.7-8.6,0.6c-8.6-0.4-17.1,0.2-25.4,2.8"/>
	<path id="XMLID_833_" class="st0" d="M535.6,276.1c0.9,1.6,2.3,2.8,3.8,3.9c10,6.6,10.6,16.9,11.1,27.3c0,0.3,0,0.6-0.6,1
		c-2.6-0.8-4.8-3.5-8.1-2.5"/>
	<path id="XMLID_832_" class="st0" d="M302.8,244.9c-0.3,9.4-0.7,18.9-0.9,28.3c-0.1,1.7-0.2,3.4-1.9,4.3"/>
	<path id="XMLID_831_" class="st0" d="M455.9,182c-6.9-1.6-13.8-2.8-20.6,0.1c-4.2,1.8-8.4,0.3-12.5,0.9"/>
	<path id="XMLID_830_" class="st0" d="M447.7,744.1c0.6,11.3,6.9,19.6,14,27.5c2.4-0.4,3.5-1.8,4.9-3.1c-3.5-10-7.1-20.1-10.6-30.2
		c-1.9-5.4-3.1-6.3-8.6-5.7c0,3.6,0,7.3,0,11"/>
	<path id="XMLID_829_" class="st0" d="M617.7,951.9c-9.1-1.7-18.3-1.7-27.3,0.2c-5,1-9.7,3.7-13.5,7.5"/>
	<path id="XMLID_828_" class="st0" d="M467.9,401.4c-3.5,2.7-7.3,5.2-10.5,8.2c-4.2,3.9-4,8.3,0,12.4c6.1,6.4,13.4,11.2,21.6,14.4
		c1.1,0.4,2.2,1,3.4,1.4"/>
	<path id="XMLID_824_" class="st0" d="M547.6,265c-2.7-8.3-7-15.8-10.9-23.6c-0.8-1.5-1.3-2.6-3-2.3c-1.7,0.3-2.6,1.4-3,3.3
		c-1.1,5.8-2.1,11.6-3.7,17.3c-0.6,2.1-1.3,4-2.5,5.7"/>
	<path id="XMLID_823_" class="st0" d="M363.3,328.4c0.2,5.5,2,10.6,3.4,15.8c3.7,13.1,7.9,26,13.4,38.4"/>
	<path id="XMLID_822_" class="st0" d="M227.9,234.8c7.3-2.6,15-4.4,22.6-5.6c4.4-0.7,9.1,0.8,13.4,2.6c5.6,2.2,11.2,4.4,16.3,7.8"/>
	<path id="XMLID_821_" class="st0" d="M477.5,739.8c-0.5-1.3-1-2.5-1.4-3.8c-2.2-6.5-2.2-6.5-9.4-5.2c-1.5,15.2,5.5,27.1,15.1,37.9
		c4.2-1.2,3.7-4.5,2.9-7.2c-2.1-7.1-4.7-14.1-7.1-21.2"/>
	<path id="XMLID_820_" class="st0" d="M549.5,547.8c3.4,8.5,4.5,17.5,6.2,26.4"/>
	<path id="XMLID_819_" class="st0" d="M452.5,604.9c7.8,6,16.3,10.3,25.9,12.5"/>
	<path id="XMLID_817_" class="st0" d="M583.6,543c2.8,7.2-2.6,16-10.1,16.3c-1.6,0-3.2,0.6-4.8,0.5"/>
	<path id="XMLID_815_" class="st0" d="M572.5,408.1c-1.8,0.9-2.5,2.6-3.4,4.3c-3.4,6-7.3,11.7-12.4,16.4c-1.2,1.1-2.6,2-2.9,3.8"/>
	<path id="XMLID_814_" class="st0" d="M485.7,175.8c1.7,6.7,3.9,12.5,13,10.8c1.3-0.2,4.7,1,5.7,3.6"/>
	<path id="XMLID_813_" class="st0" d="M577.8,911.1c-4.1,7.7-6.4,16.1-10.1,25.3c-5.6-8-14.2-10.3-21.1-15.2"/>
	<path id="XMLID_812_" class="st0" d="M235.6,340.4c-0.2,1.2-0.2,2.4-1,3.3c-4.4,5.1-7.5,10.9-9.5,17.3c-0.3,1-1,1.3-1.5,1.9"/>
	<path id="XMLID_811_" class="st0" d="M443.9,671.1c-1,1.1-2.1,1.9-3.8,2c-6,0.4-10.7,3.6-15.2,7.2c1.3,3.9,4.7,4.4,7,6.2"/>
	<path id="XMLID_810_" class="st0" d="M383.4,277c-8,0.4-15.6,2.9-23,5.8"/>
	<path id="XMLID_809_" class="st0" d="M358,282.8c-5.6,4.2-12.6,5.2-18.7,8.1c-2.2,1-4.7,1.4-6.7,2.9"/>
	<path id="XMLID_808_" class="st0" d="M235.6,366.8c-6,7.2-12.2,14.1-17.8,21.6c-0.5,0.7-1.1,1.8-2.4,1.5"/>
	<path id="XMLID_807_" class="st0" d="M105,92.2c4.6,7.2,9.3,14.4,13.9,21.6"/>
	<path id="XMLID_805_" class="st0" d="M491.4,548.2c8.1-0.3,14.6,3.7,21.1,7.7"/>
	<path id="XMLID_803_" class="st0" d="M569.2,939c1.5,7.2,2.5,14.5,5.8,21.1"/>
	<path id="XMLID_796_" class="st0" d="M499.6,270.8c-5.6,3.7-11.7,7-14.9,13.4c-0.6,1.2-1,2.6-1.5,3.8"/>
	<path id="XMLID_795_" class="st0" d="M250,268.4c-4.1-0.5-7.6,0.6-11.1,2.8c-5,3.2-8.2,7-6.3,13.5c0.5,1.6,0.4,3.6-0.4,5.3"/>
	<path id="XMLID_791_" class="st0" d="M658.5,890c-7.8,3.3-11.9,9.8-14.9,17.3"/>
	<path id="XMLID_790_" class="st0" d="M607.1,322.6c0,6.3,1.2,12.5,1,18.7"/>
	<path id="XMLID_788_" class="st0" d="M490,590c4,1,6.4,4.1,8.6,7.2c1,1.4,1.3,3.1-0.9,4.3c-3.3,1.9-6.6,3.8-10.6,3.8"/>
	<path id="XMLID_786_" class="st0" d="M573.5,405.2c0.8,7.8-3,14.5-5.3,21.6"/>
	<path id="XMLID_785_" class="st0" d="M542.8,894.8c7.3,1.3,13.1,6,19.7,9.1"/>
	<path id="XMLID_784_" class="st0" d="M574,521.8c-7.9,2.8-11.1,8.8-11.5,16.8"/>
	<path id="XMLID_782_" class="st0" d="M575.9,363c-2.1,5.6-2.4,11.7-4.8,17.3"/>
	<path id="XMLID_781_" class="st0" d="M395.9,771.9c-0.7,5.7-1.6,11.3-3.4,16.8"/>
	<path id="XMLID_780_" class="st0" d="M308.1,218c-1.6,5.5-2.8,11.1-3.4,16.8"/>
	<path id="XMLID_778_" class="st0" d="M594.6,555.9c-3.3,6.1-8.6,10.3-14.4,13.9"/>
	<path id="XMLID_777_" class="st0" d="M365.7,338c3.8-0.9,7.1-1.7,11.2,0.7c3.7,2.2,4.1,4.8,3.6,7.9c-0.5,3.5-3,5.7-6.6,6.2
		c-1.1,0.2-2.2,0-3.4,0"/>
	<path id="XMLID_775_" class="st0" d="M541.8,531c2.6,4.7,6.3,9,6.2,14.9"/>
	<path id="XMLID_774_" class="st0" d="M564.9,266.5c-4.8,1.1-9.5,2.6-13.9,4.8"/>
	<path id="XMLID_773_" class="st0" d="M606.6,579.4c-0.1,5.3-2.7,9.8-4.8,14.4"/>
	<path id="XMLID_771_" class="st0" d="M301.8,295.8c-0.3,3.3,0.8,6.4,1.5,9.6c0.4,1.7,0.7,3.2-0.1,4.8"/>
	<path id="XMLID_762_" class="st0" d="M456.9,412.4c4.2,1.8,8.6,1.4,13,1.4"/>
	<path id="XMLID_758_" class="st0" d="M530.8,227.1c1.4,4.1-0.6,8.5,1.2,12.5"/>
	<path id="XMLID_756_" class="st0" d="M501,400.9c-4.2,2.1-6,7-10.5,8.7c-0.5,0.2-0.9,0.4-1.5,0.4"/>
	<path id="XMLID_752_" class="st0" d="M497.7,305.8c-3.2,3.5-3.9,8.3-6.7,12c-0.2,0.3,0.3,1.2,0.4,1.9"/>
	<path id="XMLID_751_" class="st0" d="M560.1,265.5c-3.9-2.3-7.7,0.8-11.5,0.5"/>
	<path id="XMLID_741_" class="st0" d="M648.4,741.7c-5-2.8-9.2,1.3-13.9,1.4"/>
	<path id="XMLID_739_" class="st0" d="M385.8,313c6.4-2,11.9,0.2,17.3,3.4"/>
	<path id="XMLID_736_" class="st0" d="M300.4,284.2c1,3.2,0.2,6.4,0.5,9.6"/>
	<path id="XMLID_735_" class="st0" d="M466.5,741.2c-3,0.5-6.1,1-9.1,1.4"/>
	<path id="XMLID_734_" class="st0" d="M475.1,760.9c-2.8,1.9-6.1,2.1-9.1,3.4"/>
	<path id="XMLID_733_" class="st0" d="M231.7,311.1c2.6,2,5.6,2.8,8.6,3.8"/>
	<path id="XMLID_730_" class="st0" d="M485.2,177.2c-1.4,2.2-2.1,4.6-1.9,7.2"/>
	<path id="XMLID_716_" class="st0" d="M478.5,759.4c-0.6,0.8-1.4,1.2-2.4,1.4"/>
	<path id="XMLID_714_" class="st0" d="M765.5,802.6c0.6,0.6,1.3,1.3,1.9,1.9"/>
</g>
</svg>
