<?xml version="1.0" encoding="utf-8"?>
<!-- Generator: Adobe Illustrator 19.0.0, SVG Export Plug-In . SVG Version: 6.00 Build 0)  -->
<svg version="1.1" id="Layer_1" xmlns="http://www.w3.org/2000/svg" xmlns:xlink="http://www.w3.org/1999/xlink" x="0px" y="0px"
	 viewBox="0 0 1008 1169.9" style="enable-background:new 0 0 1008 1169.9;" xml:space="preserve">
<style type="text/css">
	.st0{fill:none;stroke:#000000;stroke-width:2;stroke-linecap:round;stroke-linejoin:round;stroke-miterlimit:10;}
</style>
<g id="XMLID_1_">
	<path id="XMLID_1335_" class="st0" d="M384.8,11.2c5.7,5.6,9.6,12.5,14.2,18.8c12.3,16.7,28.6,26.2,48.7,30.1
		c10.4,2,20.6,5.3,31.2,6.7c8.6,1.1,17.3,1.8,25.9,3c20.7,2.9,39.7,10.6,57.6,21.2c24.4,14.5,46.9,31.4,66.3,52.3
		c11,11.8,19.8,25.3,28.3,38.9c12.3,19.8,22.9,40.6,31.3,62.3c4.7,12.2,7.3,25,9,37.9c1,7.3,2.3,14.6,2,22.1"/>
	<path id="XMLID_1334_" class="st0" d="M494.2,835.3c1,3.3,0.5,6.7,0.8,10.1c1,10,1,20.2,2.1,30.2c1.2,10.6,2.8,21.2,4.5,31.7
		c2.3,14,4.6,28.1,6.4,42.2c1.2,9.1,2.4,18.3,4.1,27.3c2.6,13.6,4.5,27.3,6.7,40.9c2,11.8,3.4,23.7,5.2,35.5
		c2.4,15.4,4.9,30.7,6.8,46.1c1.9,15.4,4,30.9,4.6,46.5c0.5,12.5-7.8,15.9-16.9,17.2c-7.2,1-12.9-2.4-17.7-7.2
		c-18-17.8-30.7-38.9-38.9-62.9c-5.2-15.1-10.2-30.3-12.8-46.1c-1.9-11.4-3.8-22.9-4.4-34.5c-0.6-11-1.2-22.1-2.2-33.1
		c-0.9-9.9-0.1-19.9-2.1-29.8c-1.3-6.2-4.5-11.5-7.5-16.7c-2.2-3.7-3.5-8.2-7-11.2"/>
	<path id="XMLID_1333_" class="st0" d="M625.7,92.3c3.9,3.5,5.4,8.6,7.6,13c11.3,23,30,38.6,50.9,52.4c13.3,8.8,26.7,17.6,37.1,30.1
		c12.3,14.8,19.2,32,23.5,50.4c3.2,13.5,5.2,27.2,7.1,40.8c1.7,11.9,3,23.9,2.4,36c-0.7,15.1-6.8,28.2-16.2,39.9
		c-9.1,11.3-21,18.9-33.1,26.5c-1.9,1.2-5,1.8-4.9,5.2"/>
	<path id="XMLID_1332_" class="st0" d="M664.6,939.5c-2.6,3.4,0.6,6.2,1.6,8.5c9.8,21.2,19,42.6,27.1,64.5
		c3.5,9.4,5.4,19.3,6.9,29.2c1.2,7.4,2.2,14.7,2.7,22.1c0.4,6.4-1,12.6-5.2,17.7c-4.7,5.6-12.8,6.5-19.6,2.4
		c-11.9-7.2-21.8-16.7-30.3-27.8c-10.3-13.6-17.9-28.7-25.1-44.1c-6-12.8-10.2-26.1-14.9-39.4c-4-11.4-10.4-21.6-17.7-31.2
		c-14.2-18.7-28.9-37-43.1-55.8c-7.4-9.8-15.8-19.1-20.8-30.6c-2.5-5.8-3.1-12.1-5.7-17.8"/>
	<path id="XMLID_1331_" class="st0" d="M733.2,772.9c3.3-0.7,5.7,1.8,8.1,3.1c22.5,11.5,45.1,22.7,67.8,33.8
		c18.4,9,36.7,18.2,55.1,27.1c18.8,9.1,38.6,15.3,58.1,22.4c22.1,8.1,44.2,16.3,66.2,24.5c2.4,0.9,5,1.3,7.1,2.5
		c2.1,1.1,5.5,0.8,5.8,4.2c0.2,3.7,0.4,7.5-2.4,10.6c-3.1,3.5-5.5,7.5-9.2,10.6c-59.4-29.9-121.9-53.1-181.2-83.9
		c-2.6,21.7-0.7,41.8,8.9,60.9c2.8,5.6,6.1,11.4,4.4,18.2"/>
	<path id="XMLID_1330_" class="st0" d="M235.5,25.1c-0.2,8.3-3.3,16.2-3.9,24.5c-1,13.8-1,27.5,5.3,40.3c5,10.2,14.6,14.8,25.9,14.1
		c6.5-0.4,13.1-0.9,19.7-1.2c9.5-0.4,18.9-1.5,28.3-2.3c7.4-0.6,14.7-1.2,22.1-1.9c11.2-1.1,22.4-1.9,33.6-2.5
		c0.5,0,1.3-0.4,1.9-0.4c19.5-0.3,39-2.4,58.6-1.4c26.8,1.4,52.6,6.7,75.4,22c1.9,1.3,3.8,2.6,5.8,3.8"/>
	<path id="XMLID_1329_" class="st0" d="M559.5,804.1c4.3,4,7.1,9.3,10.5,13.9c1.8,2.4,4,3.6,7.1,4.5c12.2,3.9,24.6,6.6,37,9.5
		c17.9,4.2,35.9,8.3,53.8,12.4c7,1.6,14.1,1.8,21.1,1.8c10,0,17.5,3.7,23.1,12.1c3.5,5.3,7.5,10.6,14.3,12
		c5.5,1.2,11.2,1.8,16.8,2.5c15.7,2.1,31.8,2,47.1,7.1c4.1,1.4,7.8,3.2,11.1,6.2c6.9,6.1,13.1,12.8,19.1,19.8"/>
	<path id="XMLID_1328_" class="st0" d="M362.2,241.6c-0.6,2.2-2.8,2.4-4.4,3.3c-8,4.7-11.8,11.8-13.5,20.7
		c-2.3,11.7-1.4,23.3-0.5,35.1c0.6,8.4,1.9,16.5,4.4,24.5c2.9,9,7.8,17,14,23.9c8.9,9.9,18.6,18.9,30.2,25.4
		c6.8,3.8,14.1,6.2,22,6.4c10.9,0.2,21.5-1.1,31.7-5.2c6.6-2.7,10.5-7.7,14.4-13.1c6.9-9.5,8.5-20.7,11-31.7
		c0.2-0.7-0.3-1.6-0.6-2.9c-4.4,5.2-9.1,9.8-13.8,14.4c-4.8,4.6-9.6,9-16.2,11.2c-6.1,2-12,2.6-18.3,1.8
		c-10.1-1.2-19.6-3.7-26.4-12.1c-5.2-6.3-7.1-14-9-21.6c-0.3-1.3-1.2-2.4-1.1-3.8"/>
	<path id="XMLID_1327_" class="st0" d="M215.3,58.2c-9.8,17.5-17.4,35.7-20.7,55.7c-1.9,11.4-2.1,22.8-1.1,34.1
		c1.8,21.7,9.6,41.6,21.3,60.1c10.8,17,21.8,33.8,33.1,50.4c2.8,4.1,4.3,9.1,8.7,11.9"/>
	<path id="XMLID_1326_" class="st0" d="M574.8,822.8c4.5,7.5,10.8,13.6,17.9,18c15.4,9.7,31.8,17.8,48.5,24.8
		c19.3,8,38.3,16.3,56.4,26.5c23.6,13.3,45.6,29,66.9,45.8c15.6,12.3,30.5,25.4,44.5,39.5c6.3,6.3,12.6,12.9,17.3,20.6
		c2.7,4.5,4.3,9.5,4.4,14.8"/>
	<path id="XMLID_1325_" class="st0" d="M624.3,87.5c1.5,6.5,1.4,13.2,2.8,19.7c2.1,10.1,4.1,20.3,8.4,29.7
		c3.9,8.6,10.1,16,15.6,23.6c15.7,21.5,32.6,42.2,46.2,65.2c8.3,13.9,10.8,28.4,9.6,44.3c-0.5,7.4-1.9,14.7-2.1,22.1"/>
	<path id="XMLID_1324_" class="st0" d="M407.8,846.8c-9,10.6-19,20.1-30.2,28.4c-10.6,7.9-22.5,11.4-35.5,9.9
		c-10.6-1.2-20.9-4.2-31.2-7.2c-6.8-2-13.6-3.4-20.7-3.8c-6.2-0.4-12.3-1.6-18.7-1c-22.8,1.9-39.6,12.6-50.4,32.7
		c-0.4,0.8-1.3,1.3-2.4,2.5c-6.6-13.1-13.7-25.8-12.3-40.8c0.8-8.5,6.7-14.4,13.3-19.1c12.5-8.8,24.6-18.2,38.4-25
		c9.7-4.8,10.2-10.7,7.6-21.2c-0.6-2.3-1.3-4.5-1.9-6.8c4.5-0.9,8.7,0.9,12.9,1.6c9.5,1.7,19.2,3.1,28.3,6.2
		c8.2,2.8,16.2,6.3,24.1,9.8c8.4,3.7,17.6,5.8,25.8,9.9c7.5,3.8,13.4,0.3,19.8-1.8c1-0.3,1.8-0.9,2.9-0.8"/>
	<path id="XMLID_1323_" class="st0" d="M417.4,222.8c0-9.2,3.6-17.7,5.9-26.4c2.2-8.2,5.4-16.1,8.5-24c1.6-4.1,6.1-4.9,9.6-6.7
		c15.2-8.2,32.2-11.2,48.5-16.3c4.3-1.3,8.6-2.3,13.2-3.6c6.3,7.4,9,16.4,11.2,25.6c1,4.1,1.6,8.4,3,12.4c0.6,1.7-0.1,2.6-0.7,3.4
		c-7.8,10.1-15.4,20.2-25,28.8c-1,0.9-2.2,1.4-1.8,2.9c0.4,1.8,1.8,1.8,3.3,2c23.7,2.7,46.2,9.7,68.2,18.7c2.5,1,5.3,1.6,7.6,2.9
		c7.9,4.4,16.1,7.6,25.5,7.8c3.7,0.1,7.2,2.6,10.1,5.5c13.8,14,26.6,28.8,38.9,44.1c14.5,18.1,23.8,38.7,30.6,60.6
		c2.6,8.4,6.3,16.5,7.3,25.4"/>
	<path id="XMLID_1322_" class="st0" d="M404,226.2c-0.9-6.3,0.9-12.5,1.4-18.7c0.9-9.1,1.5-18.3,2.8-27.4c0.2-1.6-0.3-2.7-1.8-3.9
		c-13.6-11.1-28.8-19.7-43.7-28.7c-3.2-2-4.5-0.6-5.3,2.4c-4.7,16.7-9.2,33.5-10.6,50.9c-0.1,0.8-0.8,1.5-0.4,2.4
		c0.3-0.3,0.5-0.5,0.8-0.8c8.4,8.9,16.8,17.8,25.1,26.7c1.5,1.7,3.7,2.8,4.3,5.3"/>
	<path id="XMLID_1321_" class="st0" d="M815.8,805.5c7.7-1.4,15.3-3,23-4.3c4.4-0.7,8.6,0.8,13.5,2c-0.7-4.3-3.1-6.9-4.9-9.7
		c-7.8-12.2-16.5-23.7-30.3-29.7c-16.8-7.3-34.4-12.8-52.3-16.1c-7.8-1.4-16.1-2.3-24.5-0.2c-4.3,1.1-9.5,0.2-14.3,0.8
		c-1,0.1-1.8,0.1-2.4,1"/>
	<path id="XMLID_1320_" class="st0" d="M136.1,492.6c1.6-10.4-0.5-20.3-4.5-29.7c-2.6-6.2-7.9-7.8-16.2-6.7
		c-18.1,2.4-35.8,7.2-53.8,10.2c-11,1.9-22.1,3.4-33.1,5.2c-6.9,1.1-14.1,1.3-20.7,4.2"/>
	<path id="XMLID_1319_" class="st0" d="M479.8,815.6c-3.1,20.2-7.4,40.1-16.5,58.5c-5.7,11.5-14.5,21.1-23.4,30.3
		c-12.7,13.2-25.8,26.1-38.3,39.5c-6.4,6.8-12.7,13.8-17.4,22c-4.6,7.9-6.5,16.7-8.6,25.5"/>
	<path id="XMLID_1318_" class="st0" d="M337.7,907.8c-3.1-0.2-4.6,2.2-6.7,3.8c-13.9,10.3-26.9,21.4-36.9,35.6
		c-8.5,12-13.4,25.6-16.9,39.8c-3.5,14.5-6.4,29.1-9,43.7c-1.2,6.7-2.6,13.3-3,20.4c15-5.2,28.7-11.5,39.5-23.4
		c4.9,6.2,8.5,12.7,13.3,18.4c4.5,5.4,9,10.9,14.1,15.7c7.5,7.2,16.7,10.6,26.9,12.1c10.7,1.5,21.4,2.5,32.2,2.3
		c1.6,0,3.3,0.3,4.8-0.5"/>
	<path id="XMLID_1317_" class="st0" d="M474.5,218.5c0.8-5.2,5.1-8.4,7.8-12.4c3.8-5.6,8.7-10.5,13.9-14.8c3.4-2.8,4.6-5.2,2.8-9.3
		c-2.6-6.1-2.9-12.9-4.8-19.4c-9.7,2.8-19.1,6.7-28.8,9.4c-5.8,1.6-11.4,3.6-17.3,4.8c-2.7,0.6-4.5,2-4.4,5.3
		c0.4,11.6-1.7,23-2.5,34.5c-0.1,1.1,0.7,2.1,0.2,3.1"/>
	<path id="XMLID_1316_" class="st0" d="M277.2,403.3c-6.4-3.2-10.5-9.1-15.3-14c-7.5-7.7-14.3-16.2-17.3-26.8
		c-2.1-7.4-2.9-15.1-5-22.5c-4-14.3-10.3-27.7-18.8-39.8c-5-7.1-12.9-10.3-21.5-11.6c-4.9-0.7-9.9-1.3-14.9-1.9"/>
	<path id="XMLID_1315_" class="st0" d="M663.2,388c1.1-0.4,2-1,3.4-1c15.6-0.3,31.2-1,46.6,2c13.3,2.6,26.8,3,40.3,3.3
		c1.2,0,2.2,0.6,3.6,0.5c-5.1,10.5-10.5,21.2-21,26.6c-9.7,5-20.1,9.1-30.6,12.7c-7.2,2.5-14.2,5.7-21.5,7.9
		c-1.5,0.4-2.9,0.5-4.4,0.8"/>
	<path id="XMLID_1314_" class="st0" d="M351.2,616.9c3.2-1.9,6.7-3.3,9.6-5.7c2.3-1.9,5.4-3,6.2-6.3c1-4.7,1.2-9.5-1-13.9
		c-2.9-6-7.8-9.4-14.3-11.1c-13.6-3.5-26.2-1.5-35.9,8.8c-10.9,11.7-11.6,24.8-0.2,36.9c9,9.5,18.2,10.9,33.6,9.5
		c5.9,7.9,10.7,16.7,16.2,25.1c7.7,11.5,14.8,23.4,23.2,34.5c4.4,5.9,9.5,11.3,14.9,16.3c5.5,5,11.6,5.3,18.2,1
		c17.5-11.6,33.5-24.8,43.2-44.1"/>
	<path id="XMLID_1313_" class="st0" d="M308,334.2c-2.1,5.8-6.3,10.5-9.2,15.8c-9.2,16.9-17.5,34.3-20.9,53.3
		c-2.6,14.7-2.3,29.7,3.1,44.1c5.2,13.7,10.7,27,19.6,39c7.4,10,17.4,14.1,28.9,16.3c8.9,1.7,17.9,1.9,26.9,1.8c0.3,0,0.6-0.6,1-0.9
		"/>
	<path id="XMLID_1312_" class="st0" d="M497.6,93.2c11.1,2.2,22.2,4.4,33.2,7.5c16.6,4.8,31.5,11.8,42.7,25.6
		c11.4,14.1,22.2,28.6,30.7,44.7"/>
	<path id="XMLID_1311_" class="st0" d="M431.8,172c-15.5-12.1-30.4-24.9-47-35.5c-9.8-6.2-19.5-12.5-29.3-18.7
		c-4.3-2.7-5.3-2.4-7.7,2.4c-9.3,18.6-16.3,38.1-23.5,57.6c-2.9,7.8-5.8,15.7-8.6,23.5c-0.7,2-1.8,3-3.8,4
		c-11.4,5.6-22.9,10.9-33.7,17.6c-3,1.9-4.4,3.6-4,7.7c1.5,15.2,3.6,30.2,6.9,45.1c0.4,2,0.8,4.3,0.8,6.2c0,5.2,3.5,5.3,6.9,5.8
		c3,0.4,6.2-0.9,9.1,1"/>
	<path id="XMLID_1310_" class="st0" d="M367.5,606.4c5.5,3.5,12,4.5,17.8,7.2c17,7.9,34.2,15,51.3,22.6
		c24.6,10.8,49.2,21.6,73.4,33.1c8.3,4,16.6,8.2,25.1,11.8c14.2,5.9,27.9,12.8,41.5,19.7c26.5,13.5,53.5,25.8,79.5,40.3
		c4.2,2.4,8.4,5.8,13.8,6.1c1,0.1,2,1.2,2.5,2.7c1.7,4.7,4,9.2,6,13.7c-8.7,3-16.2,7.9-24.3,11.3c-14.2,5.8-27.2,13.9-40.4,21.5
		c-7.5,4.4-15.8,6.5-24.5,7.2c-4.6,0.4-8.6-1.9-11.9-4.9c-1.6-1.5-3.8-2.8-4.8-4.7c-2.7-4.9-7-4-11.1-3.3c-5.9,1-11.7,2.8-17.8,3.3"
		/>
	<path id="XMLID_1309_" class="st0" d="M399.6,638c1.6,0.3,3.1,0,4.9,0.8c19.5,9.6,39.4,18.4,59,27.9c25.3,12.2,50.9,23.9,76.3,36.1
		c13.7,6.6,27.5,13.2,41.3,19.6c22.8,10.5,45.7,20.9,68.7,31.2c6.5,2.9,13.2,5.5,19.7,8.7c1.4,0.7,3,0.8,3.3,2.7"/>
	<path id="XMLID_1308_" class="st0" d="M577.7,282.8c11.8,11.3,22.9,23.3,33,36.1c15.3,19.3,30.4,38.9,44.7,59
		c6.2,8.7,12.7,17.3,16.8,27.3c4.6,11.4,6.6,23.4,6.5,35.5c-0.1,5.8-2.5,11.9-6.4,16.8"/>
	<path id="XMLID_1307_" class="st0" d="M548.9,810.8c2,22.5,7.2,43.7,24.4,60c10.1,9.6,19.3,20.2,30.3,28.7
		c8.5,6.5,17.7,12.1,26.7,18c27.3,17.8,56.1,33.2,82.8,51.9c14.6,10.2,22.8,23.5,27.3,40c1.4,5,1.8,10.2,4.2,14.9"/>
	<path id="XMLID_1306_" class="st0" d="M479.8,654.8c0.9-5.4,0.4-10.9,1.7-16.4c0.6-2.4-0.5-5.2-2.1-7.7c-3.6-5.6-7-11.4-12-17.3
		c5.1,0.4,8.6,2.7,12.4,4c9,3,18.2,2.3,27.4,1.5c10.7-1,21.4-2.7,32.2-3c4.6-0.1,9.1-1.2,14-0.2c8.3,1.8,15,5.7,21.1,11.2
		c0.6,0.5,0.9,1.5,1.9,1.5"/>
	<path id="XMLID_1305_" class="st0" d="M111.6,503.2c-15.6-7-31.2-14-48-17.7c-13.3-2.9-26.8-4.6-40.3-6.4
		c-5.1-0.7-10.4-0.9-15.4-2.3"/>
	<path id="XMLID_1304_" class="st0" d="M279.6,548.8c11.2-12.6,22.7-25.1,27.9-42.9c-8.8,3.7-16,7.9-24,10.3
		c-10.1,3.1-13.7,1.9-18.2-7.8c-4-8.5-9.6-15.6-16.9-21.6c-5.3-4.3-11.4-6.3-18.2-6.9c-4.5-0.3-8.7,0.1-13,1.1
		c-6.5,1.5-10.9,5.9-14.9,11c-7.7,9.8-9.9,21.2-8.4,33.1c1.2,9.4,7.1,16.4,15.1,21.7c7.3,4.8,14.6,7.1,23.1,3.4
		c1.8-0.8,4.2-1.3,6.2,0.4"/>
	<path id="XMLID_1303_" class="st0" d="M613.7,421.1c2.4,3.6,0.6,7.4,0.4,11c-0.9,16.3-3.6,32.2-12,46.5
		c-9.9,17-22.7,31.7-38.8,43.2"/>
	<path id="XMLID_1302_" class="st0" d="M725.1,854.5c-1.8-1.6-3.7-3.1-5.3-4.8c-8.3-9.4-19.2-12.9-31.2-15c-12-2.2-24-4.1-36.1-5.8
		c-8.4-1.2-16.8-3.3-25.4-3.1"/>
	<path id="XMLID_1301_" class="st0" d="M206.7,235.3c0.7,7,4.6,12.9,7.3,19.2c9.3,22.2,22.9,41.6,38.7,59.6c5.2,5.9,11,11.3,15,18.1
		"/>
	<path id="XMLID_1300_" class="st0" d="M729.9,921.7c12.5,9.4,24.8,18.9,37,28.7c19.1,15.4,36.8,32.3,53.2,50.5
		c1.9,2.1,3.9,4.1,5.8,6.2"/>
	<path id="XMLID_1299_" class="st0" d="M620.4,361.1c9.1,11.9,18.3,23.7,27.1,35.9c9.3,12.8,14.7,27,19,41.9
		c1.5,5.4,3.2,10.8,4.5,16.3c1.5,6.4,0.3,12.5-0.2,18.7c-0.4,4.8-1,9.7-3.8,13.9c-5.7,8.5-13.9,13-24,13.9c-2,0.2-4.2,1.5-6.2,0.1"
		/>
	<path id="XMLID_1298_" class="st0" d="M562.4,522.4c-9.8,7.1-20.6,12.1-31.7,16.9c-14.6,6.4-29.6,11.8-45.2,15.2
		c-15.8,3.5-31.9,3.3-48,1.2c-8.4-1.1-16.5-2.7-24.5-5.8c-11.5-4.4-18.3-13-21.9-24.1c-4.9-15.1-13.7-27.8-23.6-39.8
		c-2.5-3.1-5.2-6-7.7-9.1c-1.1-1.3-1.7-3-3.9-2.9"/>
	<path id="XMLID_1297_" class="st0" d="M352.6,872.8c-12.1,0.5-23.5-3.1-34.5-7.3c-14.3-5.4-28.7-9.7-44.2-8.6
		c-5.2,0.3-10.3,1.1-15.4,2.5"/>
	<path id="XMLID_1296_" class="st0" d="M562.4,524.3c2,2.4,1,5.5,1.3,8.2c0.9,8.3,4.4,13.7,12,18c8.9,5.1,18.8,5.5,28.1,8.6
		c8.9,3,17.3,6.7,24.9,12.2c7.8,5.7,12.6,14.1,16.2,22.6c7.1,16.9,16.2,32.8,22.8,49.8c3.9,10,8.1,20,12.6,29.7
		c7.7,16.4,14.5,33.2,23.2,49.1c3.9,7.1,8.7,13.7,11.1,21.6"/>
	<path id="XMLID_1295_" class="st0" d="M547.5,233.4c2.5-6.1,6.2-11.6,8.7-17.7c3.3-8.2,7-16.3,10.5-24.5c1.1-2.7,0.7-4.2-2.9-4.4
		c-15.2-0.8-30.4-1.7-45.6-1.4"/>
	<path id="XMLID_1294_" class="st0" d="M574.8,282.8c-12.5,9.9-25.3,19-40.7,24.2c-10.3,3.5-20.2,2.2-30.3,0.7
		c-7.7-1.1-15-3.9-22.6-5.3"/>
	<path id="XMLID_1293_" class="st0" d="M596.4,421.6c3.2,9.9,0.7,18.9-5.3,26.8c-10.3,13.6-29,15-42.1,10.8
		c-8.8-2.7-13.1-10.5-15-19.4"/>
	<path id="XMLID_1292_" class="st0" d="M388.6,772c-3.2,10.3-7,20.4-12.5,29.9c4.9,4.3,10.9,7.1,16.5,10.2
		c8.5,4.7,14.2,11.3,17.5,20c1.5,3.8,3.8,3.6,6.4,3.2c12.6-1.6,24-6.1,34.1-13.8c2.3-1.8,4.9-3.1,7.1-4.9c1.1-0.8,1.6,0,2.4,0.1"/>
	<path id="XMLID_1291_" class="st0" d="M397.2,726.8c7.1,11.4,18.3,17.7,29.2,24.6c17.4,11,35.2,21.3,53.8,30.2
		c1.3,0.6,2.5,1.2,3.2,2.2c-1.6,7.8-1.9,15.4-1.4,23.3c0.7,11,6.5,18.5,15,24.5c0.5,0.4,0.5,0.9,0.5,1.4"/>
	<path id="XMLID_1290_" class="st0" d="M317.6,586.2c-0.5-2.7-3.1-2.9-4.9-3.7c-4.8-2.1-9.2-5-13.9-7.3
		c-9.1-4.5-14.6-12.4-18.5-21.2c-2.9-6.5-7.9-10.2-13.2-13.7c-4.7-3-9.8-3.7-15.3-0.7c-11.4,6.2-15.9,12.1-14.4,24.6
		c0.5,4.2,3.4,6.4,6.3,8.6c4.5,3.4,9.5,5.5,15.4,4.4c1.3-0.2,2.5,0.2,3.9,0.8c14.9,7.5,29.7,15.1,44.1,23.6"/>
	<path id="XMLID_1289_" class="st0" d="M176.4,526.2c-6.5-7.4-15.4-12-22.1-19.2c-1.8-1.9-3.4-4.1-4.8-6.3
		c-4.7-7.4-12.2-8.3-19.7-7.5c-13.4,1.4-20.3,10.5-23.9,22.4c-1.3,4.2,0.4,8.3,1.7,12.5c3.3,10.7,11.1,16.8,20.4,20.8
		c5.2,2.3,10.9,5.1,17.2,4.1c5.2-0.8,10.2-2.5,15.4-3.4c4-0.7,8-1.3,12.1-1.9c3.1,7.4,10.9,9.2,17,13.3c-1.5,2.6-0.8,5.2-0.8,7.8
		c0,5.4-1.1,10.8-0.6,16.3c0.5,5.8,2.1,10.6,7.4,13.4c8.9,4.7,18.2,6.4,27.8,2.4c8.1-3.4,12.5-12.7,10.6-24.5
		c-2.7,0.9-4.3,3.4-6.7,4.8c-2.3,1.3-4.6,3.3-7.7,2c-10.6-4.4-12.7-10.7-7.6-21.1c1.7-3.5,4.4-6.4,6.6-9.6"/>
	<path id="XMLID_1288_" class="st0" d="M388.1,771c0-2.8,1.5-5.1,2.4-7.7c2.8-8.1,5.1-16.3,5.4-25c2-0.3,2.8,1,3.6,2
		c15.7,18.8,36.2,29.9,59.1,37.4c6.2,2.1,12.3,4.9,18.8,6c6.9,1.2,13.4,3.8,20.1,5.5"/>
	<path id="XMLID_1287_" class="st0" d="M210.3,483.5c-2.7-7.7-3.8-15.7-5.9-23.5c-4.2-15.9-14.4-19.2-27-20.1
		c-10.1-0.6-19.9,1.5-29.3,5.2"/>
	<path id="XMLID_1286_" class="st0" d="M829.7,1013.4c-10.7,1.3-20.6-1.6-30.2-5.8c-5.7-2.5-11.7-4-17.8-4.7
		c-8.9-1.1-15.8,3-21.7,9.5c-3.9,4.3-7.6,8.7-11.4,13.1c-0.7,0.8-1.1,1.9-2.5,1.9"/>
	<path id="XMLID_1285_" class="st0" d="M374.7,991.8c2-0.7,1.9,0.9,1.9,1.9c-0.5,13.2,4.6,24.5,11,35.6
		c9.1,15.8,18.3,31.4,28.4,46.5"/>
	<path id="XMLID_1284_" class="st0" d="M443.8,480.6c5.5,14.7,0.1,28.6-15.3,31.5c-21.2,4-32.6-9.5-39.4-25.2
		c1.1-1.4,2.8-1.1,4.3-1.5c4.3-1.1,5.2-4.5,5.4-8.6c0.1-4.1-2.3-5.7-5.4-7.2c-2.2-1.1-4.2-0.2-5.7,1.1c-2.2,1.7-4,4.2-6.9,5.6
		c-4.3-4.2-4.6-9.8-6.1-14.8c-0.8-2.9-1.4-5.9-3-8.6"/>
	<path id="XMLID_1283_" class="st0" d="M383.3,8.3c1.8,8.9,3.6,17.7,6.3,26.4c3.7,12.4,7.1,24.9,15.8,35
		c5.8,6.7,12.1,12.9,18.7,18.7c1.7,1.5,4.1,2.4,3.8,5.3"/>
	<path id="XMLID_1282_" class="st0" d="M644,395.6c-1.5,14.9-1.6,30-7.2,44.1c-4.3,10.7-10.4,20.4-16.2,30.3
		c-8.2,14.1-12.6,29.2-10,45.6c2,12.9,6.3,25.4,10.2,37.9c0.5,1.5,0.5,2.9,0.9,4.7c-18.6-10.5-34.9-22.8-41.9-44"/>
	<path id="XMLID_1281_" class="st0" d="M653.1,437.9c3.4,4.1,5,9,6.9,13.9c-4.7,5.7-7.8,12.4-12.1,18.3c-5.4,7.3-12.4,13-18.9,19.1
		c-6.8,6.4-10.4,14.4-13.8,22.7c-0.9,2.1-1.5,4.3-3.4,5.7"/>
	<path id="XMLID_1280_" class="st0" d="M467.8,799.8c-3.8-1-7.7-0.5-11.5-0.8c-10.4-0.9-19.4-5.3-28.3-10.2
		c-14-7.7-28.3-14.3-43.7-18.7c-3.8-1.1-5.1-3.2-3.3-7.2c3-6.4,4.9-13.2,7.7-19.7c1.5-3.5,2.3-7.2,4.1-10.7c3.8-7.2,5.9-8.9,13.6-7
		c3.7,0.9,7.6,1.7,11.1,3.7"/>
	<path id="XMLID_1279_" class="st0" d="M601.2,890c24.9,17.2,49.4,34.9,78.7,44.2"/>
	<path id="XMLID_1278_" class="st0" d="M352.6,248.8c-7-6.7-15.4-11.7-22.7-18.1c-4.2-3.7-7.1-8.7-12.9-11.4
		c-6.8,6.6-15.4,10.7-24.1,14.5c-3.3,1.4-3.1,3.1-2.3,5.4c3.6,10.4,6.1,21.1,9.2,31.9c3.7,1.2,7.4-0.4,10.9-0.9
		c10.1-1.6,20.1-2.3,30.3-2.6c0.8,0,1.6,0.3,2.4,0.5"/>
	<path id="XMLID_1277_" class="st0" d="M551.3,362.5c-10.6,6.5-22.3,10-34.1,13.4c-13.8,3.9-26.6-1-39.3-5.4c-1.7-0.6-3-1.9-4.8-0.9
		"/>
	<path id="XMLID_1276_" class="st0" d="M344.9,515.2c3.5,0.9,5.7,3.6,7.6,6.3c7.9,11.1,17,20.9,28.9,27.7c6,3.5,12.1,6.8,18.2,10.1
		c11.7,6.3,18,16.3,21.2,28.8c0.8,3.1,1.3,6.4,3.3,9.1c1.4,1.9-0.4,3.9,0.5,5.8"/>
	<path id="XMLID_1275_" class="st0" d="M731.3,790.7c26.4,10.7,51.5,23.9,76.8,37"/>
	<path id="XMLID_1274_" class="st0" d="M576.3,388.4c-0.9-3.8-4.4-4-7.2-4.8c-16.3-4.5-32.3-3.5-47.5,4.4
		c-7.5,3.9-12.2,10.1-12,19.1"/>
	<path id="XMLID_1273_" class="st0" d="M576.3,281.4c-1.1-2.1-2.4-0.5-3.3,0c-5.2,3.2-10.7,5.8-16.4,8c-8.2,3.2-16.9,2.6-25.4,2.3
		c-8.3-0.3-16.7-1.1-25-2.6c-1.9-0.3-3.7-1.6-5.7-1.1"/>
	<path id="XMLID_1272_" class="st0" d="M577.2,314c-7.7-0.8-15.3-2.1-23-2.6c-12.6-0.8-24.3,2.4-36,6.4
		c-15.6,5.3-28.2,14.6-37.9,27.9"/>
	<path id="XMLID_1271_" class="st0" d="M296.9,964c-10.8,16.1-14.6,34.1-15.1,53.3c-0.2,7.5-0.8,15-0.8,22.6"/>
	<path id="XMLID_1270_" class="st0" d="M514.4,991.8c-7.3-0.2-12.7-4.6-18.2-8.7c-3.5-2.6-7-5.5-10-9c-3.8,3.4-6.8,7-9.7,10.5
		c-8.2,9.9-18.6,17.6-28.3,26c-1,0.8-2,0.2-2.9,0.5"/>
	<path id="XMLID_1269_" class="st0" d="M582,305.4c8.1,13.2,16,26.5,21.3,41.2c3.7,10.2,3.5,20.4,3.7,30.8
		c0.2,6.7-0.8,13.4-0.6,20.2"/>
	<path id="XMLID_1268_" class="st0" d="M619,608.8c0.8,6.8,5.8,10.9,10.1,15.4c8.2,8.6,6.5,18,1.9,27.3
		c-4.2,8.5-10.9,14.9-18.7,20.1c-8.2,5.5-14.9,12.9-23.1,18.2c-4.6,3-8.4,6.5-11.4,10.9"/>
	<path id="XMLID_1267_" class="st0" d="M187.5,565.1c-4.1,1.8-6.9,5.4-9.9,8.3c-13,12.5-27.9,13.8-44.3,9.4
		c-5.3-1.4-10.7-2.8-15.8-4.8"/>
	<path id="XMLID_1266_" class="st0" d="M216.8,58.7c-1.1,8.3-1.9,16.7-3.5,24.9c-0.9,4.7,1.5,8.1,2.5,12
		c2.9,10.6,5.8,21.1,10.1,31.2"/>
	<path id="XMLID_1265_" class="st0" d="M132.8,514.7c4.7,1.5,9.7,2.2,14.5,3.6c5.1,1.6,7.1,5,8,9.4c0.9,4.8-1.5,8.5-5.6,11
		c-7.8,4.6-21.3,1.1-26.4-6.7c-1.9-2.9-0.5-5.8-0.9-8.7"/>
	<path id="XMLID_1264_" class="st0" d="M501.9,326.5c6.5,5.2,14.2,8.1,21.2,12.4c9.9,6.1,18.7,13.5,27.3,21.2
		c6.7,6.1,13.1,12.5,20,19.2c1.7-5.2,0.1-10-0.9-14.4c-2.2-9.6-7.8-17.6-12.8-26c-0.5-0.9-1.3-1.7-0.5-2.9"/>
	<path id="XMLID_1263_" class="st0" d="M342,522.8c1.3,2.1,1,4.5,1.5,6.7c2.7,13.5,10.9,23.3,20.4,32.8c6.4,6.3,19.6,8.5,28,5.4
		c-3-2-6.2-1.6-9.1-2.3c-8.1-2-15.4-5.4-20.7-12.3c-8.3-10.9-12.9-23.3-15.8-36.5"/>
	<path id="XMLID_1262_" class="st0" d="M400.6,642.4c-1.6,5.3,0.9,10.3,1.7,15.3c1.7,10.2,3.1,20.4,3.1,30.8c0,2.2,0.3,4.5,0.5,6.7
		c0.2,2.8-0.3,4.6-3.9,4.4c-2.4-0.1-4.8,0.6-7.2,0.9"/>
	<path id="XMLID_1261_" class="st0" d="M466.4,811.3c-5.3,4-7.8,9.8-11.3,15.2c-7.4,11.3-15.7,22.1-27.1,29.9
		c-15.6,10.8-32.8,18.8-49.5,27.7c-11.4,6.1-22.7,12.2-34,18.4c-3.1,1.7-4.9,4.5-7,7.5c-6.8,9.5-14.8,18.1-22.3,27.1"/>
	<path id="XMLID_1260_" class="st0" d="M353.1,466.7c0.7-7.9,2.8-15.3,9.1-20.6c7.9-6.6,16.8-8,26.9-6c7,1.4,13.4,4.9,20.6,5.6
		c5.6,0.5,9.3,5.3,13.9,8.1c6,3.8,10.8,9.3,15.9,14.3c1.6,1.6,2.1,3.7,2.9,5.7c2.2,5.6,2.4,5.6-3,7.6c-0.9,0.3-0.7,1.3-1.4,1.5"/>
	<path id="XMLID_1259_" class="st0" d="M530.2,832.9c-0.4-1.4,0.5-2.3,1.5-2.8c7.3-4,9.5-10.9,10.5-18.3c0.9-6.9-0.3-13.8-1.7-20.7
		c-0.8-3.7-2-4.4-5.4-2.9c-6.9,2.9-7,2.8-11.5-2.8c-2.4-3-4.5-6.3-7.6-8.9c-5.8,2.7-10.7,6.4-15.9,9.9c-1.4,0.9-1.9,2.1-1.7,4.3
		c0.5,4.2-0.2,8.6-0.3,12.9c-0.1,1.7-0.1,3.2,1.8,4.4c3.6,2.4,6.7,5.4,10.2,8c1.4,1,2.8,1.2,4.9,0.2c2.5-1.2,4.8-2.8,7.5-3.7
		c3.3-1.1,4.8-4,4.5-8c-0.3-4.6-0.9-9.4,0.8-13.9"/>
	<path id="XMLID_1258_" class="st0" d="M409.2,649.6c-2.4,2.7-0.5,5.7,0.2,8.1c3.8,15,4.1,30.4,5.1,45.6c0.2,2.9-3,4.9-7.6,4.2
		c-1.9-0.3-3.3,0.1-4.8,0.6"/>
	<path id="XMLID_1257_" class="st0" d="M578.2,173.9c9.4,11.6,15.4,25.2,22,38.5c3.8,7.7,6.5,15.9,9.7,23.9"/>
	<path id="XMLID_1256_" class="st0" d="M324.8,366.8c-6.4,8.3-11.4,17.4-15.8,26.9c-1,2.3-1,5.2-1.7,7.6c-2.7,9.3-3.9,18.7-3.7,28.4
		c0.2,10.8,2.1,21.2,6.3,31.2c0.9,2.1,1.6,4.6,4.3,5.3"/>
	<path id="XMLID_1255_" class="st0" d="M475.5,673.6c-1.8,2.7-2.6,5.8-3.7,8.7c-4.4,12-13.9,19-23.7,25.9
		c-9.5,6.7-19.5,12.9-28.5,20.5c-3.3,2.7-5.8,6.1-9,8.8"/>
	<path id="XMLID_1254_" class="st0" d="M581.6,391.8c-0.2,2.6,0.5,4.7,2.3,6.8c5,5.7,8.3,12.4,11.6,19.1c1,2,0.4,3.3-0.9,4.8
		c-8.1,9.8-17.7,17.3-30.3,20.1c-8.4,1.9-16.5-0.8-24.4-2.9c-1.1-0.3-2.3-0.1-3.4-0.8c-1.1-0.6-2.7,0.6-3.5-2
		c-0.8-2.7,1.5-2.6,2.2-3.9c0.2-0.4,1.2-0.5,1.9-0.5c2.9-0.2,5.9-0.2,7.2-3.4c1.4-3.6,0.3-7.2-1-10.5c-1.4-3.5-6.3-4.6-9.5-2.4
		c-2,1.4-4.5,2.2-5.5,4.8"/>
	<path id="XMLID_1253_" class="st0" d="M559.5,337.6c7.7,8.5,15.8,16.6,22.6,25.9c7.1,9.8,11.6,20.9,15.8,32.2c0.3,0.7,0,1.6,0,2.4"
		/>
	<path id="XMLID_1252_" class="st0" d="M559.5,658.7c1.5-3.1,1.3-5.7-0.3-9.2c-6.1-13.9-19-15.5-30.5-15.1
		c-5.6,0.2-8.6,6.5-6.3,11.4c1.5,3.1,2.7,6.4,4.8,9.1"/>
	<path id="XMLID_1249_" class="st0" d="M678,764.8c3.4,5.3,6.5,10.7,10.1,15.8c7.6,11,18.4,16.2,31.6,16.9c5.6,0.3,8.9-3,10.9-6.9
		c5.5-10.9,1.8-31.8-7.1-40.1c-5-4.7-11.6-7.2-18.2-9.1c-0.9-0.3-1.4-1.1-2.4-1.1"/>
	<path id="XMLID_1248_" class="st0" d="M226.8,128.8c5.6,15.2,11.6,30.3,22.6,42.7c4.9,5.6,10.2,10.9,15.8,15.8"/>
	<path id="XMLID_1247_" class="st0" d="M679.5,674c-5.2,0.9-9.5-2.4-14.4-3c-2.4-0.3-4.8-0.7-7.2-1.2c-3-0.7-5.3,0-6.8,3.7
		c-3.6,8.7-7.8,17.2-7.6,26.9c0,0.8-0.9,1.6-1.4,2.4"/>
	<path id="XMLID_1246_" class="st0" d="M307,407.2c1.9,3.2,1.2,6.8,0.8,10.1c-1.8,15.4,1.9,29.9,5.5,44.7
		c2.3,9.3,7.4,15.9,13.3,22.5c6.2,6.9,13.6,12.4,22.1,16.3c1.6,0.7,3.1,1.2,3.8,2.9"/>
	<path id="XMLID_1245_" class="st0" d="M674.7,663c-3.9,0.4-7.3-1.8-11-2.5c-2.4-0.5-5-0.4-7.2-1c-6.9-2.1-10.3,1.6-13,6.9
		c-3,6-5.5,12.3-7.7,18.7c-0.7,2.1-0.8,4.5-2.4,6.2"/>
	<path id="XMLID_1244_" class="st0" d="M660.3,453.7c3.4,7,2.3,14.1,0,21.1c-4.8,14.5-14.9,23.4-29.3,27.8"/>
	<path id="XMLID_1243_" class="st0" d="M334.4,130.2c-17.2-3.7-34.7-5.8-52.3-5.8c-1.1,0-2.2-0.3-3.4-0.5"/>
	<path id="XMLID_1241_" class="st0" d="M529.7,627.5c-2.1-1.9-4.6-0.8-6.7-0.4c-6.7,1.4-13.2,3.1-20.2,2.9
		c-8.4-0.3-15.7-3.3-23.1-6.7c-1.3-0.6-2.8-2.4-4.7-1.1"/>
	<path id="XMLID_1240_" class="st0" d="M346.8,395.2c2,1.8,0.4,3.5,0,5.3c-3.7,14.8-3.3,29.4,2.4,43.7c0.7,1.7,1.6,3.4,0.5,5.3"/>
	<path id="XMLID_1239_" class="st0" d="M226.8,100c5.5,10.6,10.2,21.7,16.8,31.7c5.2,8,11.5,14.9,18.7,21.1"/>
	<path id="XMLID_1238_" class="st0" d="M602.7,410c-0.1-3.7-3.4-6.6-2.7-11c-6.3,0.2-9.8-5.1-15-7.2"/>
	<path id="XMLID_1237_" class="st0" d="M574.8,388.9c-3.5,1.5-6.7-0.6-10.1-1c-13.2-1.7-25.6-0.7-37.1,7.1c-2.8,1.9-4,2.9-2.9,6.4
		c1.2,4,1.1,8.3,1.6,12.4c0.2,2.1,1,3.9,1.9,5.8"/>
	<path id="XMLID_1236_" class="st0" d="M455.3,823.8c-6,4.2-11.1,9.7-17.8,12.9c-8.1,3.9-16.8,6.2-25.4,8.6
		c-2.4,0.7-3.8-0.8-5.4-2.8c-6-7.5-11.5-15.6-19.1-21.7c-5.7-4.6-11.4-9.1-17.3-13.4c-3-2.2-3.3-4.1-1.5-7.3
		c4.6-8.2,8.7-16.6,13-24.9c0.8-1.5,1.5-3,1.4-4.8"/>
	<path id="XMLID_1235_" class="st0" d="M566.2,810.8c5.7,0.7,10.4,4.4,15.8,5.7c10.2,2.5,20.4,4.4,30.7,6.2c1.9,0.3,3.7,1.7,5.7,1.1
		"/>
	<path id="XMLID_1234_" class="st0" d="M368.9,1024.4c0.4,9.3,4.7,17.3,8.6,25.4c4.6,9.5,11.9,17.2,18.2,25.4c1,1.2,2.4,1.5,3.8,1.5
		c4.8,0,9.7,0.2,14.4-1"/>
	<path id="XMLID_1233_" class="st0" d="M212.9,92.3c-1.9,5.8-0.7,11.8-1,17.8c-0.6,11.3,2.4,22.1,4.3,33.1"/>
	<path id="XMLID_1232_" class="st0" d="M524,650.5c-4.5-1.2-6.5-5.1-8.5-8.7c-0.8-1.5,0-3.5,1.2-5.3c3.4-4.8,9-6.1,13.6-8.9
		c2-1.2,5,0.9,7.5,1.4c8.8,1.8,17.2,4.7,25,9.4c1.8,1.1,2.6,2,2.4,3.9c-0.1,0.6,0,1.3,0,1.9c-0.3,8.4,2.9,14.5,11.5,16.8
		c1.4,0.4,2.3,1.8,3.4,2.8"/>
	<path id="XMLID_1231_" class="st0" d="M186.5,492.6c-1.6-3.8-3.5-7.2-8.2-8.2c-6.4-1.3-10.7-0.2-14.8,6.8
		c-2.5,4.2,0.3,11.1,5.2,13.9c1.4,0.8,2.9,1.2,4.3,2c6.9,3.9,11.6,0.2,13.4-5.3c0.4-1.1,1.6-2,1-3.3"/>
	<path id="XMLID_1230_" class="st0" d="M642.5,867c1.3,5,6.3,5.6,9.7,7.5c14.5,8.1,28.9,16.5,43.1,25.1"/>
	<path id="XMLID_1229_" class="st0" d="M369.9,388.9c0,6.2,0.3,12.3,1.9,18.2c2.3,9,7.6,16.4,12.4,24c1.5,2.3,3.5,4.5,2.9,7.6"/>
	<path id="XMLID_1228_" class="st0" d="M327.2,409.1c3.3-0.4,4.8-3.3,6.6-5.3c3.4-3.8,7-7.2,12.1-8.5c2.4-0.6,3.3-3.4,5.8-4
		c2.4,0.6,3.2,2.3,2.8,4.4c-1.9,9.6,2.7,17,8.3,24c4.8,6.1,10.5,11.3,17.2,15.4c1.3,0.8,3.1,1.4,2.9,3.6"/>
	<path id="XMLID_1227_" class="st0" d="M357.4,558.4c-7.5,3-15.1,6-23.1,6.5c-8.8,0.5-17.4-1.8-25.5-5.4c0.2-2.9,2.7-3.2,4.4-4.5
		c9.5-7,17.1-15.8,23-25.9c1.4-2.3,3-4.3,4.8-6.3c2.5-2.9,3.8-6.7,2.8-10.5c-0.6-2.3-0.8-4.5-0.8-6.8"/>
	<path id="XMLID_1226_" class="st0" d="M225.9,169.1c6.9,18.9,20.8,31.4,37.9,40.8c0.7,0.4,1.3,0.6,1.4,1.5"/>
	<path id="XMLID_1225_" class="st0" d="M314.7,204.6c12.9,15.6,29.8,26.1,47,36.1c1.6,0.9,2.9,0.3,3.8-0.2c2-1.1,4.1-2,6.3-2.8"/>
	<path id="XMLID_1224_" class="st0" d="M565.7,716.8c-6.4,7.6-13,15.2-15.8,25c-2.1,7.2-3.1,14.5,0.9,21.6"/>
	<path id="XMLID_1223_" class="st0" d="M620,597.2c1.1,2.6-0.1,5.1-0.2,7.7c-0.1,2.2-2.2,4.3-4.6,4.2c-11.2-0.3-19.1,7-27.8,12.2
		c-3.3,2-7.6,2.8-9.7,6.6"/>
	<path id="XMLID_1222_" class="st0" d="M497.6,325.1c-15.3-7.6-30.5-15.5-46.1-22.6"/>
	<path id="XMLID_1221_" class="st0" d="M202.8,227.6c3.4,7.4,9.2,13.2,14,19.6c5.5,7.4,14.1,10.1,22.5,12.4c3.5,0.9,6.2,3.7,10,3.5"
		/>
	<path id="XMLID_1220_" class="st0" d="M331,294.4c-6.4-1.1-12.6-2.2-19.2-1.7c-4.8,0.3-7.2,2.8-9.6,6c-3.7,5-6.4,10.6-9.9,16.1
		c8.1,2.5,16.4,2.7,24.3,5"/>
	<path id="XMLID_1219_" class="st0" d="M519.6,545.4c1.4,7.5,0.2,9.2-6.7,12.6c-8.7,4.2-18.1,6.5-27,10.3c-1.8,0.8-2.7,1.2-3.3,3
		c-1.6,4.3-4.7,7.7-7.2,11.5c-1.9,2.9-5.1,4.7-8.5,5.8"/>
	<path id="XMLID_1218_" class="st0" d="M452,375c13.8,7.1,27.7,13.7,41.7,20.2c0.9,0.4,1.6,0.3,2.4,0.4"/>
	<path id="XMLID_1217_" class="st0" d="M403.5,839.6c-11,11.3-23,21.3-37,28.8c-2,1.1-4.2,1.6-6.2,2.4"/>
	<path id="XMLID_1216_" class="st0" d="M249.4,342.8c0.6,1.3,1.6,1.8,2.8,2.5c7.7,4.5,12.2,11.9,15.7,19.6c3.6,7.9,9.3,11,17.4,11"
		/>
	<path id="XMLID_1215_" class="st0" d="M616.1,671.2c7.2,9.3,14.5,18.5,21.6,27.9c10.3,13.8,21.3,27,30.2,41.8c1,1.7,2.8,3.3,2,5.7"
		/>
	<path id="XMLID_1214_" class="st0" d="M610.4,637.1c4.1-0.9,6.7-4.4,6.4-7.7c-0.3-4.5-4.5-7.7-8.4-9.4c-3.1-1.3-6.3,0.6-8.5,3.2
		c-3.4,3.8-6,8.1-7.8,12.9c-0.5,1.4-0.6,2.4-0.5,3.9c0.6,5.4,0.6,10.9-0.4,16.3"/>
	<path id="XMLID_1213_" class="st0" d="M742.4,749.4c10.4,3.4,21.2,5.3,31.7,8.1c3.8,1,7.7,1.9,11.5,2.9"/>
	<path id="XMLID_1212_" class="st0" d="M421.2,553.6c-0.3,5.4,2.1,10.2,3.1,15.3c1.8,9.2,2.3,18.2,0.7,27.4"/>
	<path id="XMLID_1211_" class="st0" d="M620.4,594.4c-3.6,7.1-10.6,8.6-17.3,10.6c-9.9,3-16.6,9.6-21.1,18.7"/>
	<path id="XMLID_1210_" class="st0" d="M573.4,627c-5.7,1.5-11.2-0.6-16.8-1.1c-7.7-0.6-15.4-0.2-23-0.3c-0.4,0-2.1,0.1-1.9,1.6"/>
	<path id="XMLID_1209_" class="st0" d="M796.6,881.9c0.1-1.5-0.2-2.7-1.4-3.9c-10.5-11.1-22.8-17.6-38.4-16.8"/>
	<path id="XMLID_1208_" class="st0" d="M224.9,282.4c-3-1-6.1-1.8-9.1-2.9c-8.9-3.1-17.2-0.7-25.4,2.6c-2.1,0.8-4.5,1.5-6.3,3.2"/>
	<path id="XMLID_1207_" class="st0" d="M483.2,956.3c-3.5,6.8-9.1,12-13.9,17.7c-6.7,7.9-15.3,13.5-23.5,19.7c-0.3,0.2-0.9,0-1.4,0"
		/>
	<path id="XMLID_1206_" class="st0" d="M152.4,553.1c-1.3,10.5-7,16.9-17.3,19.8c-5,1.4-10.2,2.4-14.9,4.7"/>
	<path id="XMLID_1204_" class="st0" d="M241.2,517.6c2.9,8.1-4,17.8-12.5,18.4c-7.5,0.6-12.1-2.6-15.4-8.8"/>
	<path id="XMLID_1203_" class="st0" d="M437.6,484c-3.8,2.2-7.5,4.9-11.6,6.6c-7.3,3.1-14.3,1-21.1-2.3c-2.3-1.1-4.5-2.5-6.7-3.8"/>
	<path id="XMLID_1202_" class="st0" d="M551.3,810.4c3.4,13.6,8.6,26.6,14.4,39.4"/>
	<path id="XMLID_1200_" class="st0" d="M197.6,496.4c-2.3-6.8-5.2-13.2-11-17.8c-5.5-4.4-10.4-9.9-18.2-10.1
		c-2.2-0.1-4.2,0.4-6.3,1.4c-10.4,5.4-15,14.4-16.3,25.5"/>
	<path id="XMLID_1199_" class="st0" d="M473.6,680.8c6.9,3.8,10.6,10.6,15.5,16.5c7.2-1.4,14.4-2.8,20-8.3"/>
	<path id="XMLID_1198_" class="st0" d="M615.2,908.8c-6,11.7-12.7,23.1-19.2,34.6c-0.6,1-0.6,2.6-2.4,2.4"/>
	<path id="XMLID_1197_" class="st0" d="M623.8,175.3c6.9,12.5,14.1,24.8,19.7,37.9"/>
	<path id="XMLID_1196_" class="st0" d="M333.9,371.6c-2.3,8.8-5.4,17.4-6.6,26.4c-0.5,3.5-2.4,6.9-0.6,10.6c0.1,0.3,0.1,0.7,0,0.9
		c-3.3,8.6,1.9,15,5.8,21.6c3.8,6.2,8.6,11.7,13.9,16.8c2.1,2,5.5,2.8,6.2,6.3"/>
	<path id="XMLID_1195_" class="st0" d="M342,272.3c-3.7,0.4-2.4,3.9-3.2,5.8c-1.3,3.5-3.1,5.1-6.9,5.8c-10,1.9-19.9,4.3-30.3,3.7
		c-1.5-0.1-2.9,0.2-3.8,1.4c-7.1,9.6-15.4,18.3-20.7,29.3c-2.4,5-1.8,7.5,3.4,9c6.6,2,13.2,4.1,20.1,4.4c2.7,0.1,5.1,1.5,7.9,2
		c10.5-15.4,21.8-30.4,27.6-48.6c0.2-0.5,0.1-1.1-0.5-1.4"/>
	<path id="XMLID_1194_" class="st0" d="M249.9,863.2c-12.9,8.6-24.3,19.1-35.5,29.8c-0.4,0.4-0.7,1.1-1.4,1"/>
	<path id="XMLID_1193_" class="st0" d="M482.7,569.4c-6.2-0.2-11.5,2.8-16.7,5.4c-10,5-16.8,13.5-23.1,22.4
		c-7.4,10.4-12.4,22-16.3,34.1"/>
	<path id="XMLID_1192_" class="st0" d="M320,151.8c-9.7-11-21.5-18.7-35.5-23"/>
	<path id="XMLID_1190_" class="st0" d="M604.1,901.1c-2.9,5.2-4.3,11-6.5,16.4c-2.7,6.6-5.9,12.9-9.3,19.1"/>
	<path id="XMLID_1186_" class="st0" d="M532.1,197.9c-1.6,0-3.4,0.4-4.7-0.6c-1.5-1.1-3.2-0.4-3.8,0.2c-8.1,7-15.4,14.8-21.2,23.9"
		/>
	<path id="XMLID_1185_" class="st0" d="M513.9,807c6.9-6.6,7.1-12.9,0.2-20.9c-3.6,2.6-5.4,6.8-8.3,10c-0.5,0.5-0.6,2.3,0.4,3.3
		c2.5,2.5,4.2,5.7,7.2,7.7"/>
	<path id="XMLID_1184_" class="st0" d="M237.4,19.3c-2.9,7.1-8,12.9-11.6,19.7c-3.3,6.2-7.4,12-9.6,18.7"/>
	<path id="XMLID_1183_" class="st0" d="M489.4,219.5c-4.6,1-9.3,0.8-13.9-0.1c-3.4-0.7-6.7-0.4-10.1-0.4c-15.8,0.1-31.6,1-47,4.4
		c-10.3,2.3-20.7,4.5-30.7,8"/>
	<path id="XMLID_1180_" class="st0" d="M447.6,135c-9.8-3.5-19.5-7-29.3-10.6c-0.9-0.3-1.6-0.2-2.4-0.4"/>
	<path id="XMLID_1179_" class="st0" d="M403.5,322.7c1,7.4,5.4,13.2,9.2,19.2c1.9,3.1,4.5,5.8,6.7,8.7c0.8,1.1,1.4,2.4,0.5,3.8"/>
	<path id="XMLID_1178_" class="st0" d="M237.4,512.8c-5.2-4.8-11.6-4.1-17.8-3.7c-4.2,0.2-7.6,5.6-8.2,11.4"/>
	<path id="XMLID_1177_" class="st0" d="M149.6,445.6c5.2,3.1,11,4.8,15.9,8.6c5,3.9,8.5,8.4,8.6,15"/>
	<path id="XMLID_1176_" class="st0" d="M702,944.8c11.7,5.7,22.4,12.8,31.2,22.6"/>
	<path id="XMLID_1175_" class="st0" d="M370.8,609.2c0.6,3.9,4,5.7,6.4,8c6.7,6.7,12.8,14,20.3,20.1c3.7,3,7.7,6.3,10.8,10.2
		c1.6,2,3.9,2.8,6.1,3.5c2.2-0.9,2.8-2.9,4-4.4"/>
	<path id="XMLID_1173_" class="st0" d="M605.6,399.5c0,10.7,0.1,21.5-1.4,32.2c-0.2,1.7-0.6,3.6,0.4,5.3"/>
	<path id="XMLID_1171_" class="st0" d="M608,639.5c3.4-3.3,3.6-10.1,0.5-13c-1.3-1.2-2.9-1.3-3.8-0.8c-4.8,2.9-7.4,7.5-8.1,12.9
		c-0.6,4.8-0.8,9.9,4.3,12.9c0.9,0.5,2.1,0.7,2.8,1.5"/>
	<path id="XMLID_1170_" class="st0" d="M620.9,364c0.6,6.6,1.4,13.1,1.9,19.7c0.9,11-3.6,20.8-7.2,30.7c-3.3,9.3-7.3,18.2-12,26.9"
		/>
	<path id="XMLID_1169_" class="st0" d="M439.5,249.2c9.1,9.5,18.7,18.5,29.3,26.4"/>
	<path id="XMLID_1165_" class="st0" d="M476.4,587.6c-0.2,2.7,0.4,5.5-0.5,8.3c-3.9-0.9-6.9-4-10.8-4.4c-1.3,3.3-0.8,6.8-1.6,10.3
		c-4-2.1-6.5-5.6-9.6-8.4"/>
	<path id="XMLID_1163_" class="st0" d="M411.2,122c-6.8-0.4-13.3-2.9-20.1-3.5c-2.5-0.2-5.1-0.8-7.7-0.8"/>
	<path id="XMLID_1162_" class="st0" d="M192.8,517.6c-2.9-0.2-5.3,1.2-7.1,3c-4.3,4.2-9.5,7.4-12.7,12.8c-1.7,2.8-2.1,5.4-1.7,8.2
		c0.3,1.9,0.2,3.9,0.4,5.8"/>
	<path id="XMLID_1161_" class="st0" d="M483.6,958.2c4.6,2,7.3,6.2,11,9.2c4,3.2,8.1,6,12.5,8.7c1.6,1,2.9,0.6,4.4,0.8"/>
	<path id="XMLID_1160_" class="st0" d="M374.2,992.8c-3.8,8.9-4.9,18.4-6.2,27.8"/>
	<path id="XMLID_1159_" class="st0" d="M268.1,551.2c0.5,3.3,2.5,6.2,3,9.6c0.8,5.2-1.6,8.7-4.9,12c-1.4,1.4-2.9,2.9-4.3,4.3"/>
	<path id="XMLID_1158_" class="st0" d="M470.7,367.8c3.7,3,5.5,7.6,8.6,11.1c6.8,7.7,14.4,14.6,23.1,20.1"/>
	<path id="XMLID_1156_" class="st0" d="M542.7,200.8c2.1-0.3,3.7,0.8,5.3,1.9c-3.8,7.8-7.1,15.9-12.9,22.6c-0.8,1-1.6,2.3-1.5,3.8"
		/>
	<path id="XMLID_1155_" class="st0" d="M396.8,444.1c-4.9,2.2-10.3,1.5-15.4,3.1c-8,2.4-13.9,6.7-18.7,13.2c-2.2,3-3.9,6.5-6.7,9.1
		c-0.7,0.6-1,1.2-0.9,2c0.8,7.7-3.7,11.4-10.1,14c-0.6,0.2-2.1-0.2-2,1.3"/>
	<path id="XMLID_1153_" class="st0" d="M825.9,781.1c-0.9,2.6-3.8,3-5.3,4.8c-4.1,5-6.1,10.9-5.6,17.3c0.2,3-0.3,5.5-1.1,8.2"/>
	<path id="XMLID_1152_" class="st0" d="M542.2,150.4c9.1,3.2,17.6,7.3,25.4,13"/>
	<path id="XMLID_1151_" class="st0" d="M435.2,467.2c-0.2,0.2-0.3,0.4-0.5,0.5c-2.9,0.8-7.1,0-7.1,4.8c0,4.8,3.5,8.2,8.6,8.6
		c1,0.1,1.7,0.5,2.4,1"/>
	<path id="XMLID_1150_" class="st0" d="M287.3,168.1c7.6,5,16.3,7.8,24,12.5"/>
	<path id="XMLID_1148_" class="st0" d="M706.4,416.3c-7,3.1-14.2,5.9-22.1,5.7c-0.9,0-1.4,0.4-1.9,1"/>
	<path id="XMLID_1147_" class="st0" d="M740.9,284.3c0.3,8.1-1.5,16-2.4,24"/>
	<path id="XMLID_1146_" class="st0" d="M747.2,1000.4c0,8,0.3,16.1-1.4,24"/>
	<path id="XMLID_1141_" class="st0" d="M560.9,763.3c-2.1,3-3.2,6.5-5.1,9.7c-3.7,6-9.2,9-15.1,11.8c-0.6,0.3-0.9,0.7-1.4,1"/>
	<path id="XMLID_1139_" class="st0" d="M476.4,837.2c7-2.6,14.4-2.5,21.6-3.9c3.6-0.7,7.2,2.2,11,3.1c5.1,1.3,9.8,0.9,14.4-1.2
		c3-1.4,5.8-2,9.2-1.5c6.4,1,12.9,0.3,19.2-1.3"/>
	<path id="XMLID_1137_" class="st0" d="M652.1,247.8c0,7.4,0.2,14.7-0.5,22.1"/>
	<path id="XMLID_1136_" class="st0" d="M560.9,679.8c4.1,5.1,10.6,6.5,15.4,10.5c1.8,1.6,3.8,2.9,5.7,4.3"/>
	<path id="XMLID_1135_" class="st0" d="M730.8,326.5c-4.7,7.9-10.6,14.9-16.8,21.6"/>
	<path id="XMLID_1133_" class="st0" d="M587.3,405.2c-1.1,1-2.6,0.5-3.9,0.9c-5,1.6-6.3,3.3-5.7,8.2c0.6,5.1,2.7,7.1,7.7,7.2
		c3,0,6.1,0,9.1,0"/>
	<path id="XMLID_1132_" class="st0" d="M207.2,548.3c-2.5,8.7-8.5,12.7-17.3,13"/>
	<path id="XMLID_1131_" class="st0" d="M560.9,140.3c-6.7-3.1-13-7-20.2-9.1"/>
	<path id="XMLID_1130_" class="st0" d="M379,368.3c-4.5,5.9-7.9,12.2-8.6,19.7"/>
	<path id="XMLID_1128_" class="st0" d="M610.8,653.4c-14.7-0.5-26.5,5.6-36.5,15.8c-7.4,7.5-16.3,11.9-26.9,12.5
		c-1.3,0.1-1.9,1.1-2.9,1.5"/>
	<path id="XMLID_1127_" class="st0" d="M551.8,793.6c0.2,2.1,1.8,3.1,3.4,3.8c2.5,1.1,3.9,3.9,3.1,5.5c-1.5,3-3.2,6.7-7.5,7
		c-2.4,0.2-4.9,0.4-5.8-2.8c-0.2-0.6-0.8-1.5-1.8-1.5"/>
	<path id="XMLID_1125_" class="st0" d="M360.3,825.7c-6.2,2.9-12.7,4.7-19.2,6.7"/>
	<path id="XMLID_1121_" class="st0" d="M807.6,768.1c5.7,4.3,12.1,7.7,17.8,11.9c3.1,2.3,4.8-1.8,7.1-2.8"/>
	<path id="XMLID_1120_" class="st0" d="M288.3,809.4c-6.1,0.2-12,1.6-17.8,3.4"/>
	<path id="XMLID_1118_" class="st0" d="M734.2,968.3c5,5.1,8.5,11.1,11,17.8"/>
	<path id="XMLID_1117_" class="st0" d="M378,814.7c-1.4,3.8,0.4,7.4,1,11c0.7,4.2,1.6,8.3,2.4,12.5"/>
	<path id="XMLID_1116_" class="st0" d="M318,838.2c-5.8,0-11.5,0.2-17.3,1"/>
	<path id="XMLID_1115_" class="st0" d="M586.8,555.5c0.1,0.7-0.2,1.3,0.5,1.9c3.4,3,2.4,6.4,0.4,9.5c-0.6,1-0.5,2.2-2.5,3.2
		c5.1,0.8,8.2-1.2,11.3-3.1"/>
	<path id="XMLID_1114_" class="st0" d="M608,673.6c-4.5-1.5-8.4-2.1-12.1,2.3c-3.4,4-6.4,8.4-9.4,12.6c-0.4,0.5-1.2,1.6-0.1,2.4"/>
	<path id="XMLID_1113_" class="st0" d="M598.8,568c-0.8,2.9-0.6,5.8-0.1,8.6c2.5,0.2,3.8-1.6,5.4-2.8c4-3.1,10.1-3.4,15.3-0.1
		c2.5,1.6,4.5,4,7.9,4.5c0.1-2.6-2-4.8-1.2-7.3"/>
	<path id="XMLID_1103_" class="st0" d="M621.4,394.2c-5.1,0-9.4,2.9-14.3,3.7c-2.1,0.3-5-0.7-6.8,1.6"/>
	<path id="XMLID_1101_" class="st0" d="M382.4,388.9c-5.6,0.4-11.2-1.2-16.8-0.5c-4.2,0.5-8.5,0.4-12,3.4"/>
	<path id="XMLID_1100_" class="st0" d="M311.3,807c-4.6,2.8-9.6,0.9-14.4,1.4"/>
	<path id="XMLID_1098_" class="st0" d="M488,679.3c-1.8,3.6,3.3,4.6,1.9,7.8c3.6-0.4,5.7-1.4,6.7-4"/>
	<path id="XMLID_1096_" class="st0" d="M346.8,550.2c-4.6,2-9.7,0.9-14.4,2.4"/>
	<path id="XMLID_1092_" class="st0" d="M409.7,436.4c-4.2-2.9-8.3-6-13.9-4.3"/>
	<path id="XMLID_1090_" class="st0" d="M358.4,368.8c-1.3,4.6-2.6,9.3-3.8,13.9"/>
	<path id="XMLID_1088_" class="st0" d="M374.2,201.2c2.4,4.6,4.8,9.3,7.2,13.9"/>
	<path id="XMLID_1087_" class="st0" d="M480.8,798.4c-3.6-1-7,0.9-10.6,0.5c-1.3-0.2-2.3,1-2.3,1.5c0.2,2.8-3,3.1-3.6,5.7
		c1.2,3.7,3.5,7.1,6.5,10.3c3.7-0.9,7.6-1.2,11.4-2.6"/>
	<path id="XMLID_1083_" class="st0" d="M523.5,398.5c-5.4,1.9-8.4,7.2-13.4,9.6"/>
	<path id="XMLID_1082_" class="st0" d="M380.4,550.7c-4.1,2.7-9.5,2.6-13.4,5.8"/>
	<path id="XMLID_1074_" class="st0" d="M565.7,639c4.2-3.2,8.2-6.4,11.7-10.8c4.5,3.3,8.3,7.5,13.5,9.8"/>
	<path id="XMLID_1073_" class="st0" d="M356,498.4c1.5,5,5.6,8.2,8.2,12.5"/>
	<path id="XMLID_1070_" class="st0" d="M170.7,519c4.3-0.1,8.4,1,12.5,2.4"/>
	<path id="XMLID_1065_" class="st0" d="M592.1,670.7c-2.8,4.3-7.3,6.8-10.7,10.9c-3.1-2.5-5.9-5.3-9.4-7"/>
	<path id="XMLID_1063_" class="st0" d="M560,767.6c1,0.7,1.5,1.6,1.4,2.9c-0.3,6.9,3,12.7,5.8,18.7"/>
	<path id="XMLID_1061_" class="st0" d="M453.4,592.4c-3,3.1-2.1,7.9-4.8,11"/>
	<path id="XMLID_1060_" class="st0" d="M507.2,388c-3.3,2.5-5.5,5.7-6.7,9.6"/>
	<path id="XMLID_1058_" class="st0" d="M570,658.2c-1.2,0.3-1.9,1.8-3.4,1.4c-6-1.7-11.6,0.3-17.3,1.5"/>
	<path id="XMLID_1057_" class="st0" d="M368.4,541.6c-3.4,1.6-6.7,3.2-10.1,4.8"/>
	<path id="XMLID_1056_" class="st0" d="M344,458c3.1,4.4,7.3,7.7,11,11.5"/>
	<path id="XMLID_1055_" class="st0" d="M582,664c5,3.6,10.5,6.1,15.8,9.1"/>
	<path id="XMLID_1054_" class="st0" d="M549.4,785.4c-3.3,0.6-6.5,1.5-9.6,2.9"/>
	<path id="XMLID_1052_" class="st0" d="M491.3,573.7c-3,2.3-6.3,1.6-9.6,1"/>
	<path id="XMLID_1051_" class="st0" d="M606,570.8c-4.6-2.6-10-3.8-13.4-8.2c-1.7-2.3-3.5,0-5.4-0.7c-2.1-0.8-4.7-0.2-7.1-0.2"/>
	<path id="XMLID_1049_" class="st0" d="M560,763.3c-2.9-2.7-5.8-0.4-8.6,0.1c-1.5,0.3-1.3,2.3-0.9,3.2c0.9,2.2,1.4,4.6,3.3,6.3"/>
	<path id="XMLID_1048_" class="st0" d="M608,572.8c1.5,3,3.3,5.8,5.7,8.4c1.6-2.8,2.1-5.6,3-8.4"/>
	<path id="XMLID_1047_" class="st0" d="M324.8,415.8c-3.8,0.7-4.3,4.7-6.7,6.7"/>
	<path id="XMLID_1046_" class="st0" d="M480.8,577.1c2,2.5,3.5,5.3,5,8.1c-1.6,1-3.1,0.3-4.6,0.5"/>
	<path id="XMLID_1044_" class="st0" d="M402.5,313.1c0,2.6,0,5.1,0,7.7"/>
	<path id="XMLID_1043_" class="st0" d="M704,293.9c0.7,2.7-1.3,5-1,7.7"/>
	<path id="XMLID_1042_" class="st0" d="M583,554.5c-1.2,3.2-5.6,3-6.7,6.2"/>
	<path id="XMLID_1039_" class="st0" d="M370.8,518.5c2.3,1.9,4.7,3.7,6.2,6.2"/>
	<path id="XMLID_1038_" class="st0" d="M461.1,590.5c-2.4-0.2-4.6,0.3-6.7,1.4"/>
	<path id="XMLID_1037_" class="st0" d="M648.3,435c-3.1-0.4-6,2.2-9.1,0.5"/>
	<path id="XMLID_1035_" class="st0" d="M353.6,383.2c1.6,1.4,1.6,1.4,1.4,2.4c-0.3,1.4-0.9,2.9,0,4.3"/>
	<path id="XMLID_1033_" class="st0" d="M353.1,384.1c-2,1.8-2,4.3-1.9,6.7"/>
	<path id="XMLID_1031_" class="st0" d="M443.3,598.7c1.8,1.9,3.6,3.8,4.8,6.2"/>
	<path id="XMLID_1030_" class="st0" d="M398.2,875.2c1.1,2.1,2.2,4.2,3.4,6.2"/>
	<path id="XMLID_1029_" class="st0" d="M561.4,777.7c-2.7,0.8-3.8,3.6-6.2,4.8"/>
	<path id="XMLID_1028_" class="st0" d="M543.6,726.8c-1.5,1.8-3.4,3.3-3.8,5.8"/>
	<path id="XMLID_1025_" class="st0" d="M551.8,329.9c2.5,2,3.2,5.8,6.7,6.7"/>
	<path id="XMLID_1023_" class="st0" d="M538.8,735.5c0,1.6,0,3.2,0,4.8"/>
	<path id="XMLID_1022_" class="st0" d="M386.2,222.8c1.7,2.2,4,4.1,4.3,7.2"/>
	<path id="XMLID_1021_" class="st0" d="M701.1,307.3c-0.3,1.6-0.6,3.2-1,4.8"/>
	<path id="XMLID_1019_" class="st0" d="M574.4,604.9c0.2,1.7-1.6,3-1,4.8"/>
	<path id="XMLID_1016_" class="st0" d="M486.5,569.4c1.3,1.1,2.6,2.2,3.8,3.4"/>
	<path id="XMLID_1015_" class="st0" d="M623.3,569.9c-1.2,0.9-2.9,0.6-3.8,1.9"/>
	<path id="XMLID_1013_" class="st0" d="M403.5,307.3c0,1.3,0,2.6,0,3.8"/>
	<path id="XMLID_1011_" class="st0" d="M581.1,277.6c-1.3,0.8-2.9,1-3.8,2.4"/>
	<path id="XMLID_1010_" class="st0" d="M572.4,611.6c1.9,0.4,0.6,1.9,1,2.9"/>
	<path id="XMLID_1009_" class="st0" d="M697.2,900.6c0.6,1.2,2.3,0.7,2.9,1.9"/>
</g>
</svg>
