<svg xmlns="http://www.w3.org/2000/svg" xmlns:xlink="http://www.w3.org/1999/xlink" version="1.1" id="Layer_1" x="0px" y="0px" viewBox="0 0 1007.5 1162.5" xml:space="preserve" enable-background="new 0 0 1007.5 1162.5">
  <style type="text/css">
    
	.st0{fill:none;stroke:#000000;stroke-width:2;stroke-linecap:round;stroke-linejoin:round;stroke-miterlimit:10;}

  </style>
  <g id="XMLID_1_">
    <path id="XMLID_1286_" class="st0" d="M386.5 7c4.5 6.2 8.9 12.4 13.5 18.5 9.6 12.6 21.2 23.1 36.5 27.3 17.2 4.6 34.4 9.4 52.4 10.9 14.2 1.2 28.4 3.1 42 7.8 17 5.9 32.5 14.7 47.5 24.5 15.6 10.3 30.1 21.9 43.6 34.9 16.2 15.6 28.5 34 39.9 53.1 10.4 17.5 19.5 35.6 27 54.5 6.4 16.1 9.2 32.9 11 50 0.5 4.7 1.5 9.3 1 14"/>
    <path id="XMLID_1285_" class="st0" d="M496 831c1 14.7 1.9 29.4 3.3 44 1 10.7 2.8 21.3 4.3 32 2.2 15.9 5.7 31.6 7.7 47.5 1.5 11.7 3.6 23.3 5.2 35 1.6 11.9 4.1 23.6 5.9 35.5 3 20 5.8 40 8.5 60 1.8 12.7 3.8 25.3 4.9 38 0.7 7.8 1.8 15.6 0.8 23.5 -0.6 4.8-2.9 7.6-6.7 9.4 -9.9 4.8-18.5 4.5-26.5-3.4 -16.9-16.7-29.6-35.9-37.7-58.4 -6.1-17-12-33.9-15-51.6 -2-11.8-3.1-23.9-4.2-35.9 -1.7-19.7-2.3-39.4-4.1-59 -0.5-5-2.8-9.6-5.1-13.9 -1-2-2.2-4.1-3.4-6.1"/>
    <path id="XMLID_1284_" class="st0" d="M627.5 88.5c5 4.9 7.1 11.7 10.3 17.6 9.5 18 23.9 30.7 40.2 41.9 13 9 26.5 17.5 38.1 28.4 14.6 13.8 23.2 31 28.4 50 3.7 13.4 5.7 27.2 7.7 41 1.9 12.8 3.6 25.6 3.8 38.5 0.3 17.8-6.2 33.1-17.9 46.5 -8.8 10.2-19.9 17.3-31 24.5 -2.1 1.3-5.1 2-5 5.5"/>
    <path id="XMLID_1283_" class="st0" d="M666 936c-1.2 4.7 2 8.2 3.6 11.9 9.9 21.9 19.9 43.8 27.1 66.6 5 15.8 7.5 32.3 7.7 48.9 0.1 4.5-1.4 9-4.1 12.4 -5.8 7.3-13.6 8.8-23.9 2.1 -17.3-11.2-29.6-26.9-39.4-44.5 -9.2-16.5-17.6-33.5-23.5-51.5 -3.6-10.9-7-21.7-13.1-31.5 -8.2-12.9-17.7-24.9-27-37 -13.5-17.6-27.8-34.7-40.5-53 -5.1-7.2-7.4-15.6-9.5-24 -0.3-1.2-0.7-2.3-1-3.5"/>
    <path id="XMLID_1282_" class="st0" d="M239 15.5c-2.8 8.5-3.8 17.3-5.4 26 -2.3 12.4-1.2 24.8 1.9 37 4 16.2 16.3 22.6 31 21.5 5.8-0.4 11.7-1.1 17.5-1.5 10.9-0.8 21.7-2 32.5-2.8 10.5-0.9 21-1.9 31.5-2.6 26.6-1.8 53.3-3.1 80-2.6 26.8 0.6 52.1 6.3 75 21"/>
    <path id="XMLID_1281_" class="st0" d="M823 903c-6.1-7.8-13.1-14.8-20.5-21.5 -7-6.3-15.8-7.6-24.5-8.9 -15.1-2.2-30.3-3.8-45.5-5.6 -7.4-0.9-13.2-4.1-17-10.5 -6.3-10.9-15.8-14.9-28-14.6 -13.1 0.4-25.8-3.2-38.5-6 -15.7-3.4-31.4-7.2-47-10.9 -7.6-1.8-15.2-3.6-22.5-6.6 -1.3-0.5-2 0-3 0.1"/>
    <path id="XMLID_1280_" class="st0" d="M224 40.5c-6.2 12.7-14 24.7-19 38 -4 10.4-7.9 21-9.2 32 -1.5 12.6-1.6 25.2 0.1 38 1.6 12 4.6 23.4 9.3 34.4 5.1 12.1 12.4 23 19.5 34 7.5 11.6 15.4 23 22.9 34.5 3.5 5.3 6.2 11.2 10.5 16"/>
    <path id="XMLID_1279_" class="st0" d="M344.5 268c0.2 8.5 0.1 17 0.5 25.5 0.9 17 4.1 33.4 15.5 47 10.1 12.1 21.2 23.1 35.5 30.6 16.8 8.8 33.7 7.1 50.5 0.9 13.5-5 19.1-16.7 23-29.5 1.8-6 3.4-12.1 3.7-19.4 -6.3 7.3-12.5 13.5-19.1 19.4 -9.5 8.4-20.2 10.2-32.6 8.2 -8.9-1.5-16.7-4.1-23-10.7 -5.5-5.9-7-13.7-9.5-21 -0.6-1.7-0.7-3.7-1-5.5"/>
    <path id="XMLID_1278_" class="st0" d="M735.5 768.5c20.7 10.2 41.4 20.3 62 30.5 24.9 12.3 49.5 25.1 74.6 36.8 15.4 7.2 31.8 12.2 47.9 17.8 22 7.7 43.7 16.2 65.5 24.4 4 1.5 8 3 12 4.5 2 0.7 5 0.8 5.3 3 0.4 2.9 0.8 6.1-0.8 9 -2.8 4.9-6.5 9.1-10.7 13.1 -6-3-12.2-6.1-18.3-9.2 -20.6-10.2-41.9-19-63-28.1 -20.9-9-41.3-19-62.1-28.4 -22.7-10.2-44.7-22-66.9-33.2 -15.8-7.9-31.7-15.3-48.1-21.9"/>
    <path id="XMLID_1277_" class="st0" d="M626 83.5c1.5 9.9 2.9 19.7 4.8 29.5 3.2 16.5 11.9 29.9 21.6 43 14.1 19 28.9 37.4 41.6 57.5 5.1 8.1 10.3 16 12.6 25.5 0.8 3.5 1.7 7 1.8 10.5 0.6 13.6-0.4 27.1-2.5 40.5 -0.5 3.5-2 6.9-2 10.5"/>
    <path id="XMLID_1276_" class="st0" d="M549 229.5c3.2-6.5 6.5-12.9 9.5-19.5 3.3-7.4 6.4-15 9.5-22.5 0.9-2.3 1.3-4.3-2.5-4.5 -15.5-1.1-30.9-2.8-46.4-1.6 -2.9-11.5-4.7-23.6-10.6-34.3 -3-5.6-3.1-5.7-9-4 -16.4 4.8-33.1 8.7-49 15 -3.9 1.6-7.6 3.8-11.5 5.4 -5.9 2.5-6.4 8.2-8.5 13 -5.4 12.7-8.5 26.2-12 39.5 -0.2 0.9 0 2 0 3"/>
    <path id="XMLID_1275_" class="st0" d="M567.5 807.5c2.2 5.7 7 9.3 10.5 14 9.4 12.5 22.7 19.6 36.5 26.1 8.4 4 16.7 8.2 25 12.5 8.6 4.5 17.9 7.2 26.6 11.3 23.9 11.2 46.8 24.1 68.4 39.2 28.1 19.6 54.7 40.9 78.5 65.5 6.7 6.9 13.6 13.6 17.1 23 1.2 3.3 2.3 6.5 2.5 10.5 -8.5-0.1-16.9-0.2-25.1-3.4 -6.8-2.7-13.8-5.4-21-6.9 -8.3-1.7-16.2 0.1-22.4 6.3 -4.2 4.2-8.2 8.5-11.6 13.4 -1.2 1.7-2 4-4.4 4.5"/>
    <path id="XMLID_1274_" class="st0" d="M409.5 842.5c-8.7 10.5-18.6 19.8-29.5 28 -9 6.8-19.1 11.1-30.5 10.9 -8.8-0.2-17.6-1.7-26-4.5 -14.4-4.8-29.1-8-44-8.1 -21.1-0.2-39.5 6.9-52 25.2 -1.3 1.9-2.6 3.7-4 5.5 -1.1 1.4-1.1 3.6-3.5 5.1 -5.7-13.1-13-25.4-12.5-40.1 0.2-4.6 2.3-8.6 5.1-11.9 3.7-4.4 7.9-8.5 12.9-11.6 12-7.5 23.1-16.4 35.9-22.6 6.7-3.3 8.7-10 6.5-18.4 -0.6-2.4-1.4-4.7-1.9-7 -0.1-0.6 0.2-1.3 0.4-2 13.3 2.2 26.7 4.2 39.5 8.1 9.3 2.8 18.1 7.1 27.1 10.8 9.5 4 19.6 6.7 29 11.1 0.7 0.3 1.9 0.8 2.5 0.5 5.1-3 11.4-2.9 16-6.9"/>
    <path id="XMLID_1273_" class="st0" d="M402 638c-1.5 4.6 0.8 8.7 1.6 13 2.5 13.2 3.1 26.6 4 40 0.2 3.7-1.9 4.3-4.6 4.5 -2.5 0.2-5.2-0.5-7.4 1.2 -3.2-2.2-5.1-5.3-7.1-8.2 -12.2-17.5-23.7-35.4-34.9-53.6 -1.8-3-3.4-3.9-7.1-3.6 -13.9 1.3-25.6-2.7-33.5-15.3 -7.4-11.8-3.6-21.4 2.2-28.9 7.6-9.7 18.2-14.2 30.8-12.6 4.9 0.6 9.6 1.5 14 4 6.9 4 11 12.7 8.9 20.5 -0.9 3.3 0.6 5 3.1 5.4 8.1 1.3 15.1 5.6 22.4 8.7 20.3 8.5 40.4 17.5 60.5 26.4 20.4 9.1 40.7 18.3 61 27.5 9.3 4.2 18.8 8.3 27.8 12.9 11.3 5.8 22.9 10.9 34.2 16.6 13.3 6.7 26.7 13.3 40 20 16.2 8.3 32.3 16.6 48.5 25 1.6 0.8 3.2 1.5 5 1"/>
    <path id="XMLID_1272_" class="st0" d="M388 227.5c14.3-4.2 28.8-8.3 43.5-10.2 13.3-1.8 26.8-2.6 40.5-2.1 10.7 0.4 21.4 1.3 32 2.5 8.8 1 17.4 3.8 26 6.3 18.2 5.3 36.1 11.6 53 20.5 2.9 1.5 6.1 1.3 9 1.3 5.9 0.1 10.6 2.3 14.4 6.2 16.4 16.8 32 34.2 45.6 53.4 11.8 16.7 18.7 35.4 24.9 54.5 2 6.3 3.7 12.6 5.5 19 0.3 0.9 0 2 0 3"/>
    <path id="XMLID_1271_" class="st0" d="M679.5 760.5c-3.1 0.5-5.8-0.6-8.5-2 -14.6-7.2-29.6-13.5-44.4-20.1 -21.4-9.6-42.7-19.5-64-29.5 -19.9-9.3-39.7-19-59.5-28.5 -26.3-12.5-52.6-25.1-79-37.4 -5.7-2.6-11.1-6.6-17-7.8 -13.6-2.8-19.7-14-28.4-22.4 -2.4-2.4-5.9-4-6.6-7.9"/>
    <path id="XMLID_1270_" class="st0" d="M405.5 222c-1-7.4 1.2-14.7 1.6-22 0.4-7 1.5-14 2.4-21 0.5-4.1-1.2-6.6-4.5-9.1 -11.8-8.9-24-17-37.1-23.9 -2.4-1.3-4.5-2.9-7.2-4.6 -3.3 8.3-5.4 16.4-7.3 24.6 -2.1 9.3-3.9 18.6-5.4 28 -0.4 2.3-1.9 5.8 1.8 7.5"/>
    <path id="XMLID_1269_" class="st0" d="M138 488.5c0.6-9.6-0.6-19-4-28 -2.4-6.3-5.2-7.9-12-8.1 -11.1-0.3-21.7 2.5-32.5 4.5 -9.8 1.8-19.5 4.3-29.5 5.6 -11.6 1.6-23 3.9-34.5 5.9 -5.5 1-11.3 0.9-16.5 3.5"/>
    <path id="XMLID_1268_" class="st0" d="M480.5 811.5c1.7 4.2-0.4 8.1-1.2 12C476.8 837 473 850.2 468 863c-5.5 14.1-15.3 25.2-25.5 36 -12.5 13.1-25.5 25.8-37.9 39.1 -7.2 7.7-14.5 15.5-19.5 25 -9 17-10.1 34.6-1.5 51.9 9 18.2 20.2 35.3 31 52.5 0.9 1.5 2.2 2.6 1.8 5.1 -5.9-0.8-11.9-0.5-17.9-0.2 -10.2 0.6-20.4-0.4-30.5-1.5 -13.5-1.4-26-4.7-36.1-14.9 -9.6-9.7-17.7-20.6-25-32.2 -2.7 0.5-3.4 3.8-5.9 4.6"/>
    <path id="XMLID_1267_" class="st0" d="M457.5 820c-1.9 6.2-6.9 10.4-10.5 15.5 -10.4 14.2-25.4 22.5-40.5 30.5 -19.7 10.5-39.6 20.5-58.9 31.7 -18.8 10.9-35.5 24.6-49.2 41.8 -11.4 14.2-16.7 30.8-20.9 48.1 -4.4 18-7 36.3-10.5 54.5 -0.3 1.6 0 3.4 0 5.3 9.8-4.6 19.7-7.6 28-13.9"/>
    <path id="XMLID_1266_" class="st0" d="M475.5 214.5c6.1-11.4 14.9-20.6 24.1-29.4 1-1 2.3-1.5 1.9-3.1 -1.9-7.7-3.9-15.4-5.9-23.3 -16.4 5.2-32.5 10.9-49.5 14.9 -1.2 13.9-2.4 27.9-3.6 41.9"/>
    <path id="XMLID_1265_" class="st0" d="M182 283c22.4 0.2 36.5 2.8 47.2 23.9 8.1 15.9 13.5 32.3 16.7 49.6 1.7 9.2 6.9 16.6 12.7 23.4 5.7 6.8 12.5 12.8 18.9 19.1 0.3 0.2 1 0 1.5 0"/>
    <path id="XMLID_1264_" class="st0" d="M354 244.5c-7.8-6.3-15.8-12.5-23.5-19.1 -3.9-3.3-7.1-7.3-11.7-10.4 -8.2 7.1-17.4 12.1-27.5 15.8 3.2 11.5 7 22.6 9.2 34.2 0.4 2.2 1.9 2.2 3.5 2 6.3-0.8 12.7-1.6 19-2.5 0.5-0.1 1-0.5 1.5-0.5 6.8-0.2 13.7-0.4 20.5-0.5"/>
    <path id="XMLID_1263_" class="st0" d="M664.5 384c1.4-0.5 2.3-1.6 4-1.5 15.9 0.2 31.7 0 47.5 2.8 11.6 2.1 23.6 2.9 35.5 2.7 2.2 0 4.4-0.3 6.8 0.7 -6.1 12.9-13.4 24.4-27.8 30 -15.8 6.1-31.4 12.7-47.5 18 -0.9 0.3-1.7 0.2-2.5 0.4"/>
    <path id="XMLID_1262_" class="st0" d="M817.5 801c6.7 0.1 13-2 19.5-3.2 5.8-1.1 11.1-0.7 16.6 1.6 1.5-3.5-1.5-5-2.7-6.8 -8-13.2-16.7-26-31.4-32.4 -10.7-4.7-21.7-8.6-32.9-11.7 -10.5-2.9-21.1-5.5-32-5.9 -2.7-0.1-5.3 0.3-8 0.5 -6 0.3-12 0.7-18 1 -1.7 0.1-3 0.2-3.5 2"/>
    <path id="XMLID_1261_" class="st0" d="M550.5 807c2 22.4 7.2 43.2 24.4 59.6 14.7 13.9 28.2 29.1 45.6 39.9 14.3 8.9 28.6 17.8 43 26.5 16.4 9.8 32.8 19.5 48.5 30.5 10.2 7.2 19.8 14.7 24.6 27 3.6 9.2 6.8 18.3 8.4 28 0.2 1.1 0.4 2.3 1.5 3"/>
    <path id="XMLID_1260_" class="st0" d="M373 234c-8.5 3.1-16.2 7.2-22.1 14.5 -2.2 2.7-4.1 6-4.2 9 -0.3 8.8-7 14.8-9 22.9 -2 8.3-5.6 16.3-10.3 23.5 -7.1 10.9-14.5 21.6-21.4 32.5 -12.3 19.6-22.2 40.3-26.8 63 -3.7 18.4-0.7 36.7 6.9 53.9 4.8 11 10.1 21.7 17.8 31.1 6.5 7.9 14.9 11.8 24.6 13.4 8.4 1.5 16.8 3.4 25.5 2"/>
    <path id="XMLID_1259_" class="st0" d="M606 166.5c-7.6-12.4-16-24.2-24.3-36.1 -13.1-18.5-30.8-29.4-52.2-34.8 -10-2.5-20.1-5.2-30.5-6.1"/>
    <path id="XMLID_1258_" class="st0" d="M352 112c-5.9 8.7-9.6 18.4-13.4 28 -7.7 19.2-14.8 38.6-22 58 -0.7 1.8-1.4 2.3-3 3.1 -11.9 5.7-23.9 11.1-35.1 18.3 -2.5 1.6-3.3 3.4-3 6.1 1.3 9.2 2.3 18.4 3.8 27.5 1.4 8.5 3.2 16.9 4.1 25.5 0.4 3.4 1.7 4.5 5.1 4.6 3.8 0.1 7.8-1.2 11.5 0.9"/>
    <path id="XMLID_1257_" class="st0" d="M113 499c-10.9-4.8-21.8-9.5-33-13.5 -14.1-5-28.8-6.9-43.5-9 -8.5-1.2-17-2.1-25.5-3 -2.7-0.3-5.1-2.8-8-1"/>
    <path id="XMLID_1256_" class="st0" d="M468 608.5c8.1 2.7 16 6.3 24.5 7.3 4.9 0.6 10-0.4 15-0.9 13-1.3 26-2.9 39-3.9 12.7-1 22.6 5.1 31.5 13.4"/>
    <path id="XMLID_1255_" class="st0" d="M280 545.8c12.4-12.9 23.6-26.7 29.6-44.9 -8.3 4.3-15.9 8.5-24.1 11.1 -10.2 3.2-14 2.3-18.4-7 -3.8-8.1-9.1-14.8-15.5-21 -10.7-10.4-37.1-12.3-47.7 4 -7 10.8-10.3 22-8.2 34.6 0.7 4.5 2.9 9 6 12.4 4.3 4.9 9.2 9 15.4 11.6 5.8 2.4 11.4 1.4 17-0.1 2-0.5 3.7-1.6 5.5 0.1"/>
    <path id="XMLID_1254_" class="st0" d="M673.5 762c-12.3 6-24.7 12-37 18 -4.4 2.1-8.4 4.9-12.5 7.5 -9.8 6.1-20.2 10.7-32 11.7 -3.2 0.3-6.4 0.1-8.4-1.4 -8.4-6.1-16.5-12.7-19.6-23.3 -1-3.3 0.1-7.1-2.5-10"/>
    <path id="XMLID_1253_" class="st0" d="M578.5 310c-11.6-1.8-23.2-4.4-35-2.4 -21.3 3.6-41.3 10.2-56 27.4 -1.8 2.2-3.7 4.3-5.5 6.5"/>
    <path id="XMLID_1252_" class="st0" d="M598 563c-2.9 2.3-6.4 3.2-10.8 4.1 1.7-3.8 3.1-6.9 4.3-9.6 -2-8.1-9.5-8.7-15-11.4 -8.1-3.9-10.4-10.7-11.5-18.6 -0.4-2.8 0.2-5.9-1.4-8.3 -24.1 13.8-49.3 25-76.6 30.9 -17 3.7-33.9 3.6-51 1.1 -7.9-1.2-15.6-2.7-23-6 -9.9-4.4-16.7-11.9-19.7-21.7 -5.6-18.3-16.7-32.8-28.8-46.9 -2.2-2.6-3.4-6.4-7.5-7"/>
    <path id="XMLID_1251_" class="st0" d="M204.5 224c4.5 6.6 5.6 14.5 8.8 21.6 8.2 18.6 17.8 36.1 30.6 52 8.4 10.4 17.9 19.9 25.6 30.9"/>
    <path id="XMLID_1250_" class="st0" d="M357 868.5c-17 1.3-32.4-5.3-48-10.6 -8.4-2.9-16.7-4.7-25.5-5 -7.3-0.3-14.4 0.4-21.5 1.6"/>
    <path id="XMLID_1249_" class="st0" d="M589 551.5c3.4-1.7 6.1 0.9 9 1.6 6.4 1.6 13 3.3 19 6 13.9 6.2 23.3 17.1 29.6 30.9 7.8 17.2 15.7 34.3 23.5 51.5 7.3 16.3 14.5 32.6 21.5 49 7.3 16.9 16.4 32.8 25 49 1 1.9 2.6 3 4.1 3.9 11.3 6.8 14.8 17.3 13.8 29.6 -0.2 3-0.8 6.1-1.1 9 -1.1 10-9.8 12.6-17.8 11.1 -16.3-3.1-25.8-14.1-32.9-27.7 -4.1-7.8-6.7-16.5-10.7-24.4 -3.1-6.1-7-11.9-10.9-17.5 -4.2-6-8.9-11.8-13.5-17.5 -2.4-3-3.1-5.7-2.8-10 0.7-10.4 5-19.3 8.9-28.5 0.4-1 1.2-1.7 1.4-1.9 9.5-0.6 17.5 4.7 26.6 3.9"/>
    <path id="XMLID_1248_" class="st0" d="M591 290.5c27.2 29.7 50.8 62.2 74 95 10.6 14.9 14.8 31.6 14.9 49.5 0 6.6-1.3 13.1-6.4 18"/>
    <path id="XMLID_1247_" class="st0" d="M616.5 417.5c-0.8 9.2-1.1 18.4-2.6 27.5 -2.3 14.1-7.4 27.4-16 38.9 -7.1 9.6-14.4 19.1-23.9 26.6"/>
    <path id="XMLID_1246_" class="st0" d="M590 401.5c-1.3 0.2-2.7 0.4-4 0.5 -4.3 0.3-7.6 3.5-7.5 7.5 0.1 4.1 3.8 7.9 8 8 3.8 0.1 7.7 0 11.5 0 5.7 17-7.8 38.2-29 38.9 -6.9 0.3-13.8 1.3-20.6-2.3 -9-4.8-11.6-13-13.8-21.7 -0.7-2.5 1.5-3.1 3.9-3.6 8.7-1.9 8.3-5.3 6.5-11.9 -1.7-6.2-7-8-12-4 -1.4 1.1-2.4 2.6-3.5 4"/>
    <path id="XMLID_1245_" class="st0" d="M398.5 722.5c10.6 16.6 28.4 23.9 44.1 33.8 12.4 7.8 25.7 14.2 38.7 21 5.8 3 11.7 5.6 17.7 8.2"/>
    <path id="XMLID_1244_" class="st0" d="M191 557.5c-0.5 7-1.3 14-1.3 21 0 2.1-0.2 4.4 0.4 6.5 1.9 6.8 6.6 10.4 13.4 12.1 5.3 1.3 10.4 3.1 16 1.9 10.4-2.3 16.9-10.2 16.5-21.5 0-1.3 0.6-2.8-0.5-4"/>
    <path id="XMLID_1243_" class="st0" d="M587 306.5c7.1 12.1 14 24.2 18.5 37.5 2.1 6.2 2.5 12.6 3.1 19 1 10.2-0.7 20.3-0.6 30.5"/>
    <path id="XMLID_1242_" class="st0" d="M211.5 479.5c-2.3-9.2-4-18.5-6.9-27.5 -3-9.2-9.8-13.4-18.6-15.5 -12.1-2.9-23.6 0.7-35.5 3.8 2 3 5.1 3.6 7.5 4.6 7.9 3.4 14.4 8.1 17.5 16.6 0.5 1.4 0.3 2.4-0.1 3.5"/>
    <path id="XMLID_1241_" class="st0" d="M383 801.5c5.3 3.2 10.7 6.2 16 9.5 6.4 4 9.9 10.5 12.9 17 1.3 2.9 2.4 3.3 5.6 3.1 14.8-0.9 26.8-8.2 38.4-16.3 3.9-2.7 8.3-4.1 12.1-6.9"/>
    <path id="XMLID_1240_" class="st0" d="M377 987.5c-1.4-0.5-1.8 0.9-1.9 1.5 -2 8.8-5.1 17.3-5.1 26.5 -0.1 10.6 3.8 19.9 8.5 29 4.6 8.8 10.2 16.8 17 24 0.8 0.9 1.5 1.7 1.5 3"/>
    <path id="XMLID_1239_" class="st0" d="M568 285.5c-9 6.3-18.2 12.4-28.5 16.4 -12.3 4.8-24.9 4-37.5 1.1 -6.3-1.5-12.7-3-19-4.5"/>
    <path id="XMLID_1238_" class="st0" d="M384.5 2.5c1.7 7.3 3 14.8 5.1 22 3.8 12.9 6.3 26.4 14.9 37.6 5.7 7.4 11.7 14.2 19 20.1 2.5 2 6.2 3.7 6.1 7.9"/>
    <path id="XMLID_1237_" class="st0" d="M357 466c1.8-2.3 4-4.5 5.4-7 6.9-12 17.9-16.9 31.1-17.9 4.3-0.3 8.7-0.6 13-0.5 7.1 0.1 12.2 4.7 17.5 8.5 6.6 4.8 13.5 9.4 18 16.5 5.7 9.1 6.3 19.3 4.4 29.4 -1.5 7.9-8 10.9-15.3 12.6 -18.6 4.4-28.7-3.8-37.5-18.6 -1.2-1.9-2.2-3.9-3.2-5.8 1.2-1.6 2.6-2.1 4.2-2.2 4.8-0.5 5.6-4.2 6-8 0.4-4-2-5.5-5.4-7.2 -3-1.5-4.7-0.2-6.6 1.2 -2.1 1.6-3.4 4.3-7 4.5 -5-6.3-4-15.1-8-22"/>
    <path id="XMLID_1236_" class="st0" d="M717 841.5c-8.2-8.1-19-9.5-29.5-11.4 -14.8-2.6-29.7-4.3-44.5-6.7 -2.7-0.4-5.3-0.9-8-0.9"/>
    <path id="XMLID_1235_" class="st0" d="M645.5 391.5c-0.7 24.7-5.7 48.3-20 69 -6.5 9.3-11.1 19.6-13.2 30.6 -1.3 6.9-2.3 14.3 0.2 21.4"/>
    <path id="XMLID_1234_" class="st0" d="M433 167.5c-9.3-7.3-18.6-14.8-28-22 -15.9-12.2-33.2-22.3-49.9-33.1 -1-0.6-3.3 0.6-3-1.9"/>
    <path id="XMLID_1233_" class="st0" d="M470 795.5c-5.1-1.4-10.3-0.4-15.5-1.2 -6.3-1-11.8-3.3-17.5-5.8 -11.2-4.8-21.2-12.2-33-16 -6.4-2.1-12.3-5.3-19-6.5 -1.3-0.2-2.4-1.5-3.8-2.4 4.6-12.7 9.2-25.4 13.7-38 1.6-4.4 6.3-5.3 12-4.3 3.9 0.7 8 1.7 11.5 3.8"/>
    <path id="XMLID_1232_" class="st0" d="M553.5 358.5c-12.6 6.3-25.6 12-39.5 14.3 -10.3 1.7-20.3-1-30-4.8 -3-1.2-5.9-3.4-9.5-2.6"/>
    <path id="XMLID_1231_" class="st0" d="M810.5 825c-1.8 6.4-1.5 13-1.5 19.5 -0.1 16.3 5.8 31.1 12.6 45.4 2.2 4.6 1.7 9.4 2.9 14.1"/>
    <path id="XMLID_1230_" class="st0" d="M344.5 501c-0.3 4.3 0 7.7 4.3 10.7 4.3 3.1 7.4 7.9 10.6 12.3 8.9 12 20.8 19.9 34 26.6 8.5 4.4 17.3 9.1 22.6 17.8 3.7 6.1 5.8 12.7 7.5 19.5 0.9 3.8 4 7.2 2.5 11.5"/>
    <path id="XMLID_1229_" class="st0" d="M407 742.5c7.2 8.1 16.1 13.7 25.5 19.1 16 9.1 33.7 13.9 51 19.4"/>
    <path id="XMLID_1228_" class="st0" d="M583 273.5c-7.5 3.7-14.9 7.5-22.5 10.9 -7.4 3.3-15.4 3.9-23.5 3.5 -11.4-0.5-22.7-1.9-34-3.5"/>
    <path id="XMLID_1227_" class="st0" d="M194 513.5c-4.4 0.1-7.2 3.6-11 4.9 -1.2 0.4-2.3 1-4 0.2 -11.3-5-21.1-11.7-28-22.1 -3.5-5.3-13.7-8.8-20-7.6 -11.2 2.3-18.5 8.7-22.6 19.5 -2.6 6.9-1.1 13.2 1.8 19 6.8 13.4 19.4 18.9 33.4 21.5 3.1 0.6 6.4-0.6 9.5-1.4 6.6-1.8 13.7-1.4 20-4.5"/>
    <path id="XMLID_1226_" class="st0" d="M296 963.5c-6.4 12.1-10.8 24.6-11.7 38.5 -0.6 10.7-1.9 21.3-1.8 32 0 0.8 0.3 1.7 0.5 2.5"/>
    <path id="XMLID_1225_" class="st0" d="M516 988c-8.5-1.3-15-6.3-21.5-11.5 -2.4-1.9-4-4.8-7.1-6.3 -8.7 9.5-16.9 19.4-27 27.2 -4.2 3.2-7 8.4-12.9 9.1"/>
    <path id="XMLID_1224_" class="st0" d="M332.5 290c-6.2-0.6-12.3-1.4-18.5-1.6 -3.9-0.1-6.8 1-9 4.1 -4 5.7-7.5 11.7-11.1 18.5 8.5 1.5 16.5 3 24.5 4.5"/>
    <path id="XMLID_1223_" class="st0" d="M620.5 604.5c0.9 8.1 7.6 12.3 12.1 17.9 2.4 3 3.4 6 3.4 9.6 0.1 8.5-2.4 16.2-8.1 22.4 -4 4.3-8.1 8.5-12.9 12.2 -5.5 4.3-11.1 2.9-16.5 1.3 -5.5-1.6-10.5-4.7-15-8.4"/>
    <path id="XMLID_1222_" class="st0" d="M466 664c-6 13.5-16.2 23.4-27.5 32.5 -4.9 4-9.7 8-15.1 11.4 -7.7 4.9-14.1 3.5-19.4-2.5 -2.6-2.9-6.8-4.3-8.1-8.4"/>
    <path id="XMLID_1221_" class="st0" d="M410.5 645.5c-1.1 1-0.9 2.1-0.6 3.5 4 16.1 5.3 32.5 5.7 49 0.1 4.1-1.1 5.3-5.1 5.1 -2.3-0.1-4.9-1-7 0.9"/>
    <path id="XMLID_1220_" class="st0" d="M337.5 279.5c-3.5-1.6-6.3 1-9.5 1.6 -7 1.3-13.9 2.2-21 1.9 -3.5-0.2-6.1 0.7-8.6 3.9 -7.3 9.1-15.2 17.7-19.9 28.6 -2.1 4.7-2.3 4.8 2.6 7 6.8 3.2 14.2 4.4 21.5 5.3 2.6 0.3 4.8 1 7 2.1"/>
    <path id="XMLID_1219_" class="st0" d="M189 561c-5.2 4.2-10.3 8.4-15.5 12.5 -10.2 7.9-21.7 8.9-34 6.1 -7.3-1.6-14.5-3.3-21.5-6.1"/>
    <path id="XMLID_1218_" class="st0" d="M644 385.5c11.7 14.7 19.1 31.4 24.1 49.5 2.8 10.1 5.6 19.9 4.9 30.5 -1.2 19.3-9.9 30.1-30.6 32.4 -1.8 0.2-3.7 1.4-5.5 0"/>
    <path id="XMLID_1217_" class="st0" d="M628 487.5c-5.5 5.7-8 13.2-11.5 20 -1.1 2.1-0.5 4.8-3.5 6.1 -1.3 0.6-0.4 2.5-0.1 3.9 2.8 11.3 6 22.5 10 33.5 0.3 0.7 0 1.7 0 2.8 -19.6-10.2-35.4-23.7-42.5-45.3"/>
    <path id="XMLID_1216_" class="st0" d="M345 510c-2.8 7.6-0.6 15.2 1.8 21.9 4.5 12.7 13 23 24.3 30.5 6.3 4.1 13.7 3.4 20.9 1.6"/>
    <path id="XMLID_1215_" class="st0" d="M188 488.5c-1.9-5.8-5.8-8.6-12-8.5 -5 0.1-10 3.4-11.5 8 -1.2 3.9 1.1 9.9 5 12.5 0.8 0.5 1.6 1.1 2.5 1.5 9.5 4.8 14.8 2.9 17-8.5"/>
    <path id="XMLID_1214_" class="st0" d="M553 324.5c4 6.1 9.6 10.8 14.6 15.9 13.9 14.2 24.5 30.3 31 49.1 0.5 1.5 1 2.9 0.9 4.5"/>
    <path id="XMLID_1213_" class="st0" d="M218.5 53.5c0.2 6.3-1.2 12.5-2.7 18.4 -2.3 8.8 0.5 16.6 2.8 24.6 2 7 4.3 14 6.5 21"/>
    <path id="XMLID_1212_" class="st0" d="M499.5 786c2.4 4-0.5 8-0.2 12 0.2 3 0.8 5.3 3.2 7 2.1 1.6 4.8 2.6 6.4 4.6 3.6 4.4 6.8 3.1 11.2 1.1 6.2-2.9 9.4-6.4 8.7-13.7 -0.3-3.1-1.1-6.7 0.2-10 0.2-0.6 0.2-1.3-0.4-2 -3.8-4.2-7.5-8.5-11.3-12.9 -5.5 3.4-10.6 6.7-15.7 9.9 -1.3 0.8-1.6 2.2-2 3.5"/>
    <path id="XMLID_1211_" class="st0" d="M385.5 113c5.5 1 11 2.1 16.5 3 13.7 2.3 26.6 7 39.5 12.1 2.4 0.9 5 1.1 7 2.9"/>
    <path id="XMLID_1210_" class="st0" d="M475 676.5c-5.1 7.9-9.4 16.5-17.5 22 -6.3 4.3-12.7 8.6-19 13 -9.6 6.7-19.2 13.5-27 22.5"/>
    <path id="XMLID_1209_" class="st0" d="M308 402c-3 2.6-2 6.6-2.2 9.5 -0.5 11.2-1.5 22.5 1.7 33.5 2 6.8 4.6 13.1 8.7 19.2 3.4 5 7 9.7 10.7 14.4 6.7 8.4 15.4 14 24.7 18.8 0.9 0.5 1.7 1 2.4 1.6"/>
    <path id="XMLID_1208_" class="st0" d="M622 899.5c11.4 6.5 22.3 13.9 34 20.1 8.7 4.6 17.7 8.1 27 10.9"/>
    <path id="XMLID_1207_" class="st0" d="M327 361.5c-5.7 8.5-11.6 16.9-15.5 26.5 -2.2 5.3-3.3 10.5-2.3 16.5 1.1 6.5-0.1 13.3-0.2 20 -0.1 10.6 1.9 20.7 5.9 30.5 0.9 2.3 2 4.8 1.6 7.5"/>
    <path id="XMLID_1206_" class="st0" d="M551 657c2.3-0.5 4.7-1.1 7-1.5 3.5-0.7 5.2-3.4 4-7 -4.2-12.5-12-16.5-22.5-18 -2.6-0.4-5.3-0.6-8-0.5 -6.3 0.2-10.2 6.5-7.4 11.9 1.4 2.7 1.7 6.1 4.4 8"/>
    <path id="XMLID_1205_" class="st0" d="M677 659.5c-4.3 0.3-7.8-2.9-12-3 -1.5-0.1-3-0.8-4.5-0.9 -12.3-0.9-13.1-0.3-19 14.5 -2.2 5.4-4 11-6 16.5"/>
    <path id="XMLID_1204_" class="st0" d="M655 433.5c3.6 7.2 7.9 14.3 8.4 22.5 1 16.3-5.6 28.9-19.5 37.4 -3.7 2.2-7.4 4.7-11.9 5.1"/>
    <path id="XMLID_1203_" class="st0" d="M336 126c-15-3.1-30.2-5.3-45.5-5.8 -4.1-0.1-8.3 0.1-12.5 0.3"/>
    <path id="XMLID_1202_" class="st0" d="M349 390.5c-0.2 1.3 0.6 2.4 0.1 4 -5 15.9-4.4 31.6 2.3 47 0.6 1.4 1.7 3.2 0.6 5"/>
    <path id="XMLID_1200_" class="st0" d="M469.5 610c4.4 9.6 14.5 9.9 22.5 13.4 10.6 4.5 21.2 1.9 32-0.3 9.8-2 19.8-2.8 30-1.4 7.2 0.9 14.6 2.1 22 1.8"/>
    <path id="XMLID_1199_" class="st0" d="M228 95.5c4.9 9.6 9.5 19.2 15 28.5 5.3 9 12 16.8 20 23.5"/>
    <path id="XMLID_1198_" class="st0" d="M578 384c-0.8-3-3.8-3.8-6-4.4 -15.2-3.8-30.2-3.8-45 2.3 -7.6 3.1-12.7 8.3-15.6 16 -0.9 2.2-0.8 4-0.3 6.1"/>
    <path id="XMLID_1197_" class="st0" d="M525 646c-4.7-1-6.1-5.3-8.4-8.6 -0.9-1.3 0.1-3.3 1-4.4 5-6.1 11.6-9.5 19.4-8.4 8.7 1.2 17.2 3.9 25.1 8.2 4.3 2.4 5.5 5.4 5.4 9.7 -0.1 9.1 0.9 9.1 8.8 13.8 5.3 3.2 8 1.1 12.3-1.1 7.5-3.9 15.6-6.6 24.4-6.2"/>
    <path id="XMLID_1196_" class="st0" d="M371.5 384c-5.8-0.5-11.2 2.2-18.2 1.3 4.2 4 2.4 8 2.5 11.7 0.2 5.1 1.9 9.5 4.7 13.5 6 8.5 12.8 16.4 22.5 21 1.3 0.6 2.2 1 2 2.6"/>
    <path id="XMLID_1195_" class="st0" d="M588 181.5c8.4 16.1 17.5 31.9 22.6 49.5 0.1 0.3 0.9 0.3 1.4 0.5"/>
    <path id="XMLID_1194_" class="st0" d="M232 133.5c5.4 14.5 12.3 28 23.5 39 3.8 3.7 7.7 7.3 11.5 11"/>
    <path id="XMLID_1193_" class="st0" d="M504.5 323c5 4 10.9 6.4 16.5 9.5 13.5 7.6 25 17.8 36 28.5 4.8 4.7 9.5 9.5 14.6 14.6 2-5.5 0.4-10.5-0.8-15.1 -2.3-8.9-7.2-16.7-11.9-24.5 -1-1.7-2.6-3.2-2-5.5"/>
    <path id="XMLID_1192_" class="st0" d="M220 548c-0.4 4.2-4.3 6.1-6 9.5 -4 7.6-4.1 12.6-0.4 17 5.1 6.1 9.4 6.3 16.6 1.6 2.1-1.4 3.6-3.1 5.4-4.6"/>
    <path id="XMLID_1191_" class="st0" d="M359 554c-7.5 3.4-15.4 5.4-23.5 6.9 -3.7 0.7-18.7-2.2-25.8-6.1 2.6-3.1 6.2-4.9 9.3-7.3 8.5-6.5 14-15.5 19.9-24.1 1.2-1.8 2.1-3.5 4.1-4.4"/>
    <path id="XMLID_1190_" class="st0" d="M385 766.5c-2.9 8.3-7.7 15.6-11.4 23.5 -0.4 0.8-0.8 1.7-1.2 2.4 -4.2 8.3-4.3 8.3 2.6 13.6 11.8 9.1 23.9 18.1 32 31 2.7 4.4 6 4.2 10.6 3.1 15.3-3.5 28.6-10.5 39.9-21.2 1.9-1.8 4.4-3.4 4.5-6.5"/>
    <path id="XMLID_1189_" class="st0" d="M560.5 799.5c5.6 8.4 15 10.2 23.5 12.9 10.4 3.2 21.1 4.9 32 6.1"/>
    <path id="XMLID_1188_" class="st0" d="M405 302.5c0.5 2.9-0.7 5.7-1 8.5 -0.6 7.2 2.1 13.5 5.6 19.4 3.5 5.8 6.9 11.8 12 16.5 1.6 1.5 0.2 2.4 0.4 3.6"/>
    <path id="XMLID_1187_" class="st0" d="M316.5 201c12.7 14.2 27.8 25.2 44.5 34 1.2 0.6 2.3 1.3 3 2.5"/>
    <path id="XMLID_1186_" class="st0" d="M214.5 87.5c-1 1.4-1 2.9-1 4.5 -0.2 14.1-0.2 28.2 3.5 42 0.1 0.5 0 1 0 1.5"/>
    <path id="XMLID_1185_" class="st0" d="M621.5 592.5c1.1 2.7-0.2 5.3-0.1 8 0.1 2.4-1.8 4.4-4.4 4.4 -11.4-0.1-19.3 7.7-28.6 12.4 -7.1 3.6-11.8 9.5-17.5 14.6 -1.2 1.1-2.7 2-4 3"/>
    <path id="XMLID_1184_" class="st0" d="M765 943.5c15.2 12.2 29.8 25.1 43.5 39 0.9 0.9 1.7 2 2.5 3"/>
    <path id="XMLID_1183_" class="st0" d="M263.5 573.5c8.8 4.5 17.7 8.9 26.5 13.5 4.9 2.6 9.7 5.6 14.5 8.5 1.6 1 3.1 2 5 2"/>
    <path id="XMLID_1182_" class="st0" d="M269 546.5c0.7 1.5 1.3 3 2 4.5 4.6 10.6 0.5 14.2-6 20.5 -3.2 3.1-10.6 2.3-16.5-0.4 -12.8-5.7-12.2-21.7-4.5-29.1 2.3-2.3 4.8-4.3 7.5-6 5.8-3.6 11.9-3.5 17.4 0.1 5 3.3 10.2 6.8 12.6 12.9 6.4 16.5 20.5 24 35.5 30.5 0.5 0.2 1 0.7 1.5 1"/>
    <path id="XMLID_1181_" class="st0" d="M567.5 713c-7.4 7.3-13.4 15.6-16.4 25.5 -1.9 6.5-2 13.3 0.4 20"/>
    <path id="XMLID_1180_" class="st0" d="M521.5 541c0 1.5-0.1 3 0 4.5 0.4 4-1.5 6.6-5 8 -8.8 3.3-17.6 6.6-26.5 9.5 -12.1 3.8-24.6 6.5-34 16.1 -10.9 11.1-19 24-24.5 38.5 -1.2 3.2-2.3 6.3-3.5 9.5"/>
    <path id="XMLID_1179_" class="st0" d="M743 745c14.8 4.4 30 7.8 45 11.5"/>
    <path id="XMLID_1178_" class="st0" d="M208.5 231c3 3.5 6.3 6.8 8.9 10.5 5.3 7.4 12.7 11.3 21.1 13.3 4.2 1 7.6 3.9 12 4.2"/>
    <path id="XMLID_1177_" class="st0" d="M622 356.5c1.1 12.1 4.3 24.2 1 36.5 -2.6 9.6-6.3 18.8-10.1 28 -1.9 4.4-3.2 9.2-6.4 13"/>
    <path id="XMLID_1176_" class="st0" d="M250.5 339c8.4 4.8 14.6 11.9 18.4 20.6 3.6 8.4 9.4 12.5 18.4 12.4"/>
    <path id="XMLID_1175_" class="st0" d="M227.5 278c-3.7 0.7-6.8-1.4-10-2.6 -9.6-3.4-18.3-0.2-27 3.2 -1.9 0.7-4.3 1.2-5.6 3.3"/>
    <path id="XMLID_1174_" class="st0" d="M403.5 439.8c-1.2-2.6-4-2.1-6-2.7 -8.4-2.1-17-3.5-25.5-0.1 -11 4.5-16.7 12.6-17 24.5 0 0.5-0.3 1-0.5 1.5"/>
    <path id="XMLID_1173_" class="st0" d="M453.5 371c14.5 7.2 28.8 14.7 44 20.4 2.4 0.9 3.8 3.3 6.5 3.6"/>
    <path id="XMLID_1172_" class="st0" d="M423 550c0.2 6.8 2.7 13.2 3.7 20 1.1 7.6 1.2 15-0.2 22.5"/>
    <path id="XMLID_1171_" class="st0" d="M610.5 635.5c3.1-8.5 2.9-9.6-2.5-14.5 -8.7 2.3-11.5 15.1-9.5 22.5 0.7 2.7 3.7 2.9 5.5 4.5"/>
    <path id="XMLID_1170_" class="st0" d="M513 973c-5.8 0.1-9.4-4.1-13.4-7.1 -5.1-3.8-9.6-8.3-14.7-12.8 -5.8 6.7-10.7 13.8-16.8 19.9 -6.6 6.5-13.8 12.2-22 16.5"/>
    <path id="XMLID_1169_" class="st0" d="M154 548.5c-2.4 11.1-3.6 15.9-19.5 21.1 -4.5 1.5-9.6 1.3-13.5 4.4"/>
    <path id="XMLID_1168_" class="st0" d="M380.5 364c-12.6 16.7-11.1 34-2 51.5 2 3.8 4.3 7.3 6.5 11"/>
    <path id="XMLID_1167_" class="st0" d="M231 172.5c6.3 13.8 17.3 23 30 30.5 2.1 1.3 4.5 2.4 6 4.5"/>
    <path id="XMLID_1166_" class="st0" d="M536 434.5c7.7 1.4 15.1 4.2 23 4.5 6.4 0.2 12.3-1.7 18-4.5"/>
    <path id="XMLID_1165_" class="st0" d="M622 590.5c-3.3 5.2-8.1 8.5-14 9.4 -11.5 1.7-18 9.8-24.5 18.1 -0.2 0.3 0 1 0 1.5"/>
    <path id="XMLID_1164_" class="st0" d="M399.5 480c13.8 10.3 25 10.2 40-0.5"/>
    <path id="XMLID_1161_" class="st0" d="M199.5 493c-2-2.3-1.7-5.5-3-8 -4.8-9.4-13-15.3-22.1-19.9 -3.2-1.6-7.3-1.2-10.9 0.8 -10.4 5.7-15.3 14.5-16 26.1"/>
    <path id="XMLID_1160_" class="st0" d="M705 941.5c13.6 6.3 24.9 15.6 34.5 27 1.1 1.3 1.7 2.7 2.5 4"/>
    <path id="XMLID_1159_" class="st0" d="M124 518.5c-1.8 6.6 0.6 11.3 6.5 14.5 6.3 3.5 12.6 5.9 19.5 1.9 1.3-0.8 2.7-1.6 4.1-2.4"/>
    <path id="XMLID_1158_" class="st0" d="M335.5 367.5c-3.1 9.5-5.5 19.2-7.5 29 -3 14.4 1.3 26.8 11 37.5 3.9 4.4 7.7 9 12.5 12.5 1 0.7 1.8 1.7 2 3"/>
    <path id="XMLID_1157_" class="st0" d="M477.5 669c-1 1.8-2.1 3.6-3.4 5.9 5.9 4.7 10.7 10.6 15.4 16.6 0.7 0.8 1.3 1.9 2.5 1.5 6.3-2.1 13.7-2.1 18-8.5"/>
    <path id="XMLID_1155_" class="st0" d="M322 148.5c-9.7-12.1-22.5-19.4-37-24"/>
    <path id="XMLID_1154_" class="st0" d="M616.5 905.5c-6.3 11.2-12.7 22.3-19 33.5 -0.6 1-0.6 2.7-2.5 2.5"/>
    <path id="XMLID_1153_" class="st0" d="M660.5 449c-3.7 5.7-7.1 11.5-11.1 17 -5.3 7.3-12.4 13-18.9 19"/>
    <path id="XMLID_1152_" class="st0" d="M625.5 170.5c4.7 9 9.4 18 14 27 1.6 3.3 3.7 6.3 4.5 10"/>
    <path id="XMLID_1150_" class="st0" d="M348 512c-0.7 5 2.3 9 3.6 13.5 2.1 7.8 6 14.8 10.5 21.5 5.7 8.5 14.1 12.8 24 14.5 2.8 0.5 5.6 1 8 2.6"/>
    <path id="XMLID_1149_" class="st0" d="M499 321c-12-5.8-23.6-12.4-36-17.5"/>
    <path id="XMLID_1148_" class="st0" d="M518.5 182.5c-7.9 11.2-16.6 21.6-27 30.5 -1 0.9-1 1.9-1 3"/>
    <path id="XMLID_1147_" class="st0" d="M605.5 897.5c-4.1 10.1-7.5 20.5-13 30 -1 1.7-2 3.3-3 5"/>
    <path id="XMLID_1145_" class="st0" d="M617.5 666.5c6.1 6.8 10.7 14.7 17.1 21.3 3.1 3.3 5.4 8.1 8.9 11.7"/>
    <path id="XMLID_1144_" class="st0" d="M243 513.5c1.8 6.9-1.5 12-6.1 16.4 -3.3 3.2-13 2.4-17.4-0.9"/>
    <path id="XMLID_1143_" class="st0" d="M535 194.5c-5.8-2.2-10.6-2.2-15.2 3.4 -5.2 6.4-11.4 12.1-15.8 19.1"/>
    <path id="XMLID_1141_" class="st0" d="M606.5 400.5c2.3 3.4 0.5 7 0.4 10.5 -0.3 8.8-0.9 17.7-1.4 26.5"/>
    <path id="XMLID_1140_" class="st0" d="M476.5 618.5c-0.3 2.8 1.9 4.8 3.2 6.3 3.7 4.3 4.3 8.9 2.6 13.6 -1.4 4.1 0.8 8.2-0.8 12.1"/>
    <path id="XMLID_1139_" class="st0" d="M156 530.5c0.2-2 0.5-4 0.5-6 0-4.8-2.5-8.3-7-10 -4.7-1.7-9.5-3-14.5-3.5"/>
    <path id="XMLID_1138_" class="st0" d="M390.5 768.5c-3.8 9.2-7.4 18.4-11.7 27.4 -1.1 2.3-0.6 2.8 1.2 3.6"/>
    <path id="XMLID_1137_" class="st0" d="M238 507.5c-3.7-2-7.7-3.1-12-3 -8.6 0.1-12.7 4.1-13 13"/>
    <path id="XMLID_1136_" class="st0" d="M398.5 734.5c-2.6 2.2-1.4 5.4-1.9 8 -1.6 8.1-4.4 15.7-7.1 23.5"/>
    <path id="XMLID_1133_" class="st0" d="M749 992.5c0.3 11.7-0.8 23.4-2 35"/>
    <path id="XMLID_1132_" class="st0" d="M834.5 773c-3.1 2.7-7 4-10.1 6.9 -5.9 5.8-8.5 12.3-7.5 20.6 0.3 2.2-0.9 4.7-1.4 7"/>
    <path id="XMLID_1131_" class="st0" d="M605.5 396c-0.2 0.2-0.4 0.3-0.5 0.5 -0.1 0.1 0 0.3 0 0.5 -3.5-1.3-7.6-1.9-10.4-4.2 -4.3-3.5-9.6-4.9-14.1-7.8 -0.4-0.3-1-0.5-1.5-0.5 -11.8 0.9-23.6-3-35.5-0.1 -3.7 0.9-7.2 2.3-10.5 4.1 -8.1 4.7-15 11-22.5 16.5 -0.1 0.1 0.3 0.9 0.5 1.4"/>
    <path id="XMLID_1130_" class="st0" d="M553 806.5c2.4 10.3 6.5 20.1 10 30"/>
    <path id="XMLID_1127_" class="st0" d="M352 203.5c9.2 8.4 18.3 17 26 27"/>
    <path id="XMLID_1123_" class="st0" d="M529.5 786.5c2.7 0.1 4.7-1.5 7-2.5 3.1-1.4 4.9-0.5 5.5 3 1.5 8.7 2.5 17.2 0.6 26 -1 4.8-3.9 8.3-7.2 11.4 -1.4 1.3-2.8 2.5-3.9 4.1"/>
    <path id="XMLID_1120_" class="st0" d="M472 363.5c3.2 1.3 3.6 4.7 5.4 7 5.1 6.3 10.2 12.5 17 17 0.9 0.6 2.3 1.3 2 2.9"/>
    <path id="XMLID_1119_" class="st0" d="M544 196.5c2.1-0.5 3.7 1 5.4 1.6 -3.1 9.6-9.4 17.6-14.4 26.4"/>
    <path id="XMLID_1118_" class="st0" d="M709 411.5c-7.3 3.6-14.8 6.3-23 6.5 -1 0-2 0.6-3 1"/>
    <path id="XMLID_1117_" class="st0" d="M742.5 280.5c-0.1 7.1-0.6 14.1-2.5 21 -0.3 1.2 0 2.7 0 4"/>
    <path id="XMLID_1116_" class="st0" d="M783 862.5c-7.9-4.1-16.2-5.6-25-5"/>
    <path id="XMLID_1114_" class="st0" d="M654 242.5c-0.3 8-0.7 16-1 24"/>
    <path id="XMLID_1113_" class="st0" d="M567 157.5c-6.9-4.2-14.2-7.6-21.5-11.1 -0.9-0.4-1.7-0.3-2.5-0.4"/>
    <path id="XMLID_1112_" class="st0" d="M437 463c-0.5 0.2-1 0.3-1.5 0.5 -2.8 0.8-6.4 0.9-6.5 5 -0.1 3.6 4.1 7.8 7.4 8.6 3.1 0.7 5.8 0.1 8.5-1.1"/>
    <path id="XMLID_1111_" class="st0" d="M560.5 764.5c-4.9 8.1-11.6 14.1-20.5 17.5"/>
    <path id="XMLID_1110_" class="st0" d="M180 520c-0.1 2.4-1.4 4.3-3 6 -6.1 6.8-6 14.4-0.1 21.5 3.8 4.6 9 7.2 14.1 9.2 6.1 2.4 14.8-4 16.9-11.3 0.1-0.4 0.3-0.7 0.5-1"/>
    <path id="XMLID_1108_" class="st0" d="M485 781c-2.5 15.5-3.5 34.8 11.9 45.2 9.5 6.4 19.7 9 30.1 4.2 4.4-2 8.7-0.4 13-0.9 4.3-0.5 8.8 1 13-1"/>
    <path id="XMLID_1106_" class="st0" d="M562.5 675.5c1.2 3.2 4.5 3.5 7 5.1 5 3.1 9.7 6.6 14.5 9.9"/>
    <path id="XMLID_1103_" class="st0" d="M609.5 670c-7.3 6.1-13.9 13-22.4 17.7 -2.9 1.6-5.1 5.1-7.6 7.8"/>
    <path id="XMLID_1102_" class="st0" d="M591.5 653c2-5 2.4-10.2 1.5-15.5 -1.3-7.7 7.6-19.2 12.5-21.4 3.7-1.7 10.1 2.6 12.5 7.9 1.3 2.9-1.2 6.7-6 9"/>
    <path id="XMLID_1101_" class="st0" d="M360 364.5c-1.9 7-4.5 13.7-5 21"/>
    <path id="XMLID_1100_" class="st0" d="M292 804.5c-7 1.3-14 2.7-21 4"/>
    <path id="XMLID_1099_" class="st0" d="M354 386.5c-9.6 4.8-17.8 11.6-25.5 19"/>
    <path id="XMLID_1098_" class="st0" d="M526 395c0.7 4.8 1.5 9.7 1.9 14.5 0.2 2.2 0.7 4.2 2.1 6"/>
    <path id="XMLID_1097_" class="st0" d="M581.5 659.5c-8.6 9.7-18.4 17.1-32 18.1 -1.2 0.1-2.3 0.9-3.5 1.4"/>
    <path id="XMLID_1096_" class="st0" d="M235 871.5c-6.8 6.2-13.7 12.3-20.5 18.5"/>
    <path id="XMLID_1095_" class="st0" d="M323 833.5c-6.7 0.5-13.3 1-20 1.5"/>
    <path id="XMLID_1094_" class="st0" d="M405.5 836c-7.1 4.7-12.2 11.9-19.5 16.5"/>
    <path id="XMLID_1092_" class="st0" d="M561 763c-0.4-1.6 1.4-4.4-1-4.8 -2.5-0.4-5.3 0.8-8 1.3 0.5 0.8-0.8 1.4-0.1 2.6 1.3 2.2 1.3 4.9 3.1 6.9"/>
    <path id="XMLID_1091_" class="st0" d="M561 135.5c-6.3-2.9-12.2-6.7-19-8.5"/>
    <path id="XMLID_1088_" class="st0" d="M440 244.5c6 5.7 12 11.3 18 17"/>
    <path id="XMLID_1087_" class="st0" d="M352.5 545c-5.9 2.7-12.2 2.7-18.5 3"/>
    <path id="XMLID_1084_" class="st0" d="M379 816.5c1.9 5.9 2.9 11.9 4 18"/>
    <path id="XMLID_1083_" class="st0" d="M647 864.5c-0.2 2.8 2.3 3.4 4 4.4 3.9 2.3 8 4.4 12 6.6"/>
    <path id="XMLID_1082_" class="st0" d="M600 669.5c-4.4 4.2-8.2 8.9-11.6 13.9 -0.8 1.3-0.8 2.3-0.9 3.6"/>
    <path id="XMLID_1080_" class="st0" d="M617 568c-6.8-2.6-11.4 2.2-16.5 5.3 -0.6-3.3-0.9-6.3 0-9.3"/>
    <path id="XMLID_1079_" class="st0" d="M498.5 829.5c-4.3 2.3-9.2-0.1-13.5 1.9 -2 0.9-4.3 1.1-6.5 1.6"/>
    <path id="XMLID_1078_" class="st0" d="M345 453.5c3.3 3.5 6 7.6 10 10.6 2.3 1.7 2.1 8.9 0.1 11.5 -2.8 3.7-7.2 4.9-11 7"/>
    <path id="XMLID_1077_" class="st0" d="M368.5 602.5c-5.1 3.9-10.2 7.7-16 10.5"/>
    <path id="XMLID_1072_" class="st0" d="M397 427.5c5.5 0.8 11.5 0.3 15 6"/>
    <path id="XMLID_1071_" class="st0" d="M339.5 904c-2.2 6.4-8.2 10-11.5 15.5"/>
    <path id="XMLID_1070_" class="st0" d="M568.5 786c-8.5 0.7-16.7 2.9-25 4.5"/>
    <path id="XMLID_1068_" class="st0" d="M583 387.5c0 2.2 0.1 4.1 1.9 6.1 4.9 5.4 8.3 11.9 11.6 18.4 0.8 1.5 1.6 3.1 1.1 5"/>
    <path id="XMLID_1066_" class="st0" d="M489 675c-0.1 3.4 2.7 5.5 3.4 9 2.1-2 5-2.4 6.1-5"/>
    <path id="XMLID_1064_" class="st0" d="M545 722.5c-4.4 4.1-4.8 9.5-4.5 15"/>
    <path id="XMLID_1061_" class="st0" d="M382.5 546.5c-4.5 2.8-9.9 3-14.5 5.5"/>
    <path id="XMLID_1060_" class="st0" d="M623 390c-5.6 1.4-11.2 2.6-16.5 5"/>
    <path id="XMLID_1054_" class="st0" d="M484.5 566c-2.5 6.8-6.4 12.4-12.5 16.5"/>
    <path id="XMLID_1039_" class="st0" d="M376 196.5c2 4.3 4 8.7 6 13"/>
    <path id="XMLID_1037_" class="st0" d="M372.5 383.5c4.2 0.7 8.3 1.3 12.5 2"/>
    <path id="XMLID_1036_" class="st0" d="M579.5 624.5c4.2 3.2 8 7 12.8 9.5"/>
    <path id="XMLID_1035_" class="st0" d="M726 331.5c-3 4.6-6.6 8.7-10.5 12.5"/>
    <path id="XMLID_1032_" class="st0" d="M716.5 740.5c-4.2-1.3-8.3-2.7-12.5-4"/>
    <path id="XMLID_1031_" class="st0" d="M482.5 794c-6.5 0-13-0.1-16.6 7.3 1.6 4 3.3 8 6.7 11.4 3.6-1.6 7.9-1.2 11.4-3.7"/>
    <path id="XMLID_1029_" class="st0" d="M593.5 666.5c-2.2 4.6-7.8 5.9-9.8 10.8 -4.2-1.7-6.9-4.9-10.2-7.3"/>
    <path id="XMLID_1027_" class="st0" d="M516.5 782c1.4 0.6 0.8 2.1 1.5 3 4.9 6.7 3.2 12.6-2.5 17.9 -3.2-1.8-4.8-5.1-7.4-7.5 -1.9-1.6-1-3.5 0-4.9 2.3-3 4.9-5.7 7.4-8.5"/>
    <path id="XMLID_1023_" class="st0" d="M640.5 431c3.7 2.4 7.7-1.3 11.5 0.5"/>
    <path id="XMLID_1022_" class="st0" d="M553 780.5c-3.7 1.2-7.3 2.3-11 3.5"/>
    <path id="XMLID_1021_" class="st0" d="M553 789.5c1.1 2.9 4.4 3.6 6 6 1.2 1.6 1.4 2.8 0 4.6 -6 7.8-8.2 8-14.6 1.5"/>
    <path id="XMLID_1020_" class="st0" d="M466.5 586.5c3.4 2.5 7.1 4.1 11 5.6 1-2.9 0.3-5.7 0.5-8.6"/>
    <path id="XMLID_1019_" class="st0" d="M509 383.5c-3.4 2.6-5.7 5.9-7 10"/>
    <path id="XMLID_1018_" class="st0" d="M371 537.5c-3.7 1.7-7.3 3.3-11 5"/>
    <path id="XMLID_1017_" class="st0" d="M454.5 589.5c-2.6 3-2.4 7.3-4.6 10.9 -1.9-2.1-3.6-4-5.4-5.9"/>
    <path id="XMLID_1016_" class="st0" d="M362 821.5c-3.5 1.9-7.2 3-11 4"/>
    <path id="XMLID_1015_" class="st0" d="M572 654.5c-3.4 1.6-7 0.2-10.5 0.5"/>
    <path id="XMLID_1013_" class="st0" d="M608 567c-4.7-2.3-9.8-4.1-13.5-8 -2.2-2.4-5-1.2-7.5-1.4 -2-0.2-4 0-6 0"/>
    <path id="XMLID_1011_" class="st0" d="M596 418c-2.1 4-5.6 6.7-9 9.5"/>
    <path id="XMLID_1010_" class="st0" d="M619 568.5c-2.7 2.2-1.8 5.9-3.8 8.6 -2.8-1.7-3.2-5.5-5.7-7.6"/>
    <path id="XMLID_1008_" class="st0" d="M605 397.5c-0.3 3-0.7 6-1 9"/>
    <path id="XMLID_1007_" class="st0" d="M401 634.5c0.2 0.8-0.5 2.2 0.5 2.4 3.6 0.9 5.4 4 7.9 6.2 5.3 4.5 6.2 4.7 10.6-0.1"/>
    <path id="XMLID_1006_" class="st0" d="M466.5 588.5c-0.5 3-1 6-1.5 9"/>
    <path id="XMLID_1005_" class="st0" d="M488 565c1.7 1.5 3.4 3 5.4 4.9 -3.9 0.6-6.9 1.8-9.9 0.6"/>
    <path id="XMLID_1004_" class="st0" d="M313 803c-5.2 2.2-10.6 1.3-16 1.5"/>
    <path id="XMLID_1002_" class="st0" d="M792 869.5c2.3 2.1 5.8 3.4 5.5 7.5"/>
    <path id="XMLID_1001_" class="st0" d="M463 586.5c-2.8-0.2-5.4 0.6-8 1.5"/>
    <path id="XMLID_1000_" class="st0" d="M482.5 573.5c1.8 2.5 4 4.8 4.6 8 -1.4 0-2.8 0-4.1 0"/>
    <path id="XMLID_999_" class="st0" d="M326 411.5c-3 1.5-4.6 4.1-6 7"/>
    <path id="XMLID_997_" class="st0" d="M819 770.5c3 1.2 5.2 3.3 7.5 5.5"/>
    <path id="XMLID_996_" class="st0" d="M584.5 551c-2.5 1.8-5 3.7-7.5 5.5"/>
    <path id="XMLID_994_" class="st0" d="M449.5 587.5c6-0.2 8.3 5.4 12.5 8"/>
    <path id="XMLID_988_" class="st0" d="M357.5 495c2.2 3.2 4.3 6.3 6.5 9.5"/>
    <path id="XMLID_983_" class="st0" d="M625 566c-1.5 1-3.8 0.3-5 2"/>
    <path id="XMLID_978_" class="st0" d="M398 732.5c1.7 2 3.3 4 5 6"/>
    <path id="XMLID_976_" class="st0" d="M390 221.5c0.5 1.6 2.7 2.4 2 4.5"/>
    <path id="XMLID_973_" class="st0" d="M627.5 566.5c0.2 1.3 0.3 2.7 0.5 4"/>
    <path id="XMLID_972_" class="st0" d="M620 569c1.3 0.8 2.7 1.7 4 2.5"/>
    <path id="XMLID_970_" class="st0" d="M563 773.5c-1.3 1-2.7 2-4 3"/>
    <path id="XMLID_969_" class="st0" d="M578.5 277c0.8 1.2 1.7 2.3 2.5 3.5"/>
  </g>
</svg>
