<?xml version="1.0" encoding="utf-8"?>
<!-- Generator: Adobe Illustrator 19.0.0, SVG Export Plug-In . SVG Version: 6.00 Build 0)  -->
<svg version="1.1" id="Layer_1" xmlns="http://www.w3.org/2000/svg" xmlns:xlink="http://www.w3.org/1999/xlink" x="0px" y="0px"
	 viewBox="0 0 834.9 1119.1" style="enable-background:new 0 0 834.9 1119.1;" xml:space="preserve">
<style type="text/css">
	.st0{fill:none;stroke:#000000;stroke-width:2;stroke-linecap:round;stroke-linejoin:round;stroke-miterlimit:10;}
</style>
<g id="XMLID_27_">
	<path id="XMLID_1639_" class="st0" d="M228.3,154.4c18.1-19,37.4-36.7,58.6-52.3c8-5.9,16.7-10.6,25.4-15.4
		c16.2-8.9,32.7-17.1,49.5-24.8C395,46.6,428.3,31.5,463,20c12.1-4,24.3-7.7,37-8.9c6.1-0.6,12.4-0.7,18.7,0.1
		c3.9,0.5,7.9-0.1,12,0.1c15.2,0.9,30.3,3.5,45.1,6.9c6,1.4,12,3.4,17.9,4.8c11.3,2.7,22.3,6.1,32.5,11.4
		c12,6.3,22.3,15.1,32.2,24.4c22.5,21.2,40.8,45.7,54,73.5c8.8,18.6,17.4,37.4,22.9,57.5c3.9,14.1,5.6,28.1,3.5,42.8
		c-1.9,13.5-4.8,26.6-10.8,38.8c-7.8,15.7-19.8,27.2-36.9,32c-5.4,1.5-11.5,0.5-15.7-3.8c-5.9-5.9-13.3-10-19.3-15.8"/>
	<path id="XMLID_1638_" class="st0" d="M585.9,502.8c-2.3,8.8-2.6,17.9-3.9,26.9c-1.9,13.4-3.2,27-5.9,40.3
		c-3.7,18.2-9,36.1-12.7,54.3c-3.5,17.3,1.9,32.4,14.7,44.6c4.9,4.7,10.3,9,16.8,11c7.6,2.3,15.1,1.2,22.5-1.3c9-3,18.1-6,27.3-8.4
		c5.5-1.4,11-1,16.4-1c6.5,0,13.3,0.4,19.7,2.6c10.3,3.4,17.2,10.8,22.5,19.7c5.6,9.4,6.7,19.9,6.3,30.7c0,0.5-0.6,1-1.1,1.8
		c-5.7-5.5-10.3-11.9-16.1-17.1c-2.3-2.1-4.1-5-7.7-5.3"/>
	<path id="XMLID_1637_" class="st0" d="M374.2,209.6c-3.6,1.8-7.1-0.3-10.5-0.7c-8.3-0.9-16.6-2.2-25-2.2c-8.9,0-17.4,2.4-26,4.5
		c-4.7,1.2-9.3,3.1-14.3,3.3c-4.1,0.2-7.3,3.2-11,4.8c-14.4,6.4-27.9,14.6-41.3,22.9c-13,8.1-25.7,16.6-36.8,27
		c-11.2,10.5-20.7,22.5-28.1,36.3c-11.9,22.3-17.2,46.4-21.1,71.1c-3.6,22.9-5.1,46-6.8,69.1c-0.4,5-0.6,10.4-3.7,14.9"/>
	<path id="XMLID_1636_" class="st0" d="M273.9,257.1c-13.7,7.3-25.5,17.1-36.9,27.4c-13.6,12.4-26.1,26-36.5,41.2
		c-9,13.1-14.4,28-18.7,43.2c-4.3,15.2-7.9,30.6-11,46.1c-2.1,10.4-3.5,21-4.6,31.6c-0.9,8.7-2.5,17.4-4.3,25.9
		c-1.2,5.6-4.6,10.7-8.3,14.7c-5,5.5-10.4,10.9-17.4,14.3c-3.2,1.5-5.9,1.7-8.7,0.3c-6.5-3.5-12.1-8.1-15.3-14.8
		c-2.2-4.6-1.1-9.5-0.6-14.4c0.8-7.7,5.3-13.7,9.6-19.7"/>
	<path id="XMLID_1635_" class="st0" d="M173.1,226.4c-10.7,20.4-21.3,40.9-28.8,62.9c-4.2,12.4-7.2,25.1-9.7,37.9
		c-3.3,16.5-4.5,33.2-4.2,49.9c0.2,15.3,3.1,30.3,6.7,45.1c2.8,11.3,5.9,22.5,9.5,33.6c0.3,1,0.6,2.2,1.1,2.8
		c3.4,3.5,1.5,6.8,0,10.1c-1.7,3.6-4.5,6-7.7,8.2c-5.5,3.6-10,2.4-13.5-3.4c-3.7-6.2-5.1-12.7-2.3-19.7c0.5-1.2,0.1-2.3,0.4-3.4"/>
	<path id="XMLID_1634_" class="st0" d="M606.6,272.4c4.1,13.4,8.1,26.9,10.1,40.8c0.8,5.3,1,10.6,1.1,15.9
		c0.2,10.2,1.2,20.5,1.4,30.7c0.3,16.8,1,33.6,1.9,50.4c1,18.6,3.2,37.1,7.7,55.3c2.2,8.6,4.5,17.4,5.5,26.3"/>
	<path id="XMLID_1633_" class="st0" d="M498.6,331c-12.6-15.5-24.2-31.8-38.9-45.6c-9.6-9-20.8-15.4-32.7-20.6
		c-15.3-6.7-30.9-12.6-47-17.4c-14.5-4.4-28.9-9-44.2-9c-13.7,0-26.7,3.8-39.4,8.6c-2.8,1-5.4,2.2-8.2,3.3"/>
	<path id="XMLID_1632_" class="st0" d="M570.6,722.7c10.6,8.4,20.7,17.1,27.5,29.2c5,9,7.9,18.4,9.5,28.4c2,12.7-0.4,25-1.9,37.5
		c-1.3,11-3.5,21.8-5.9,32.6c-4,18.6-14.2,33-28.6,45.3c-9.3,7.9-19.9,11.3-31.4,13.3c-0.3,0.1-0.6,0-1-0.5"/>
	<path id="XMLID_1631_" class="st0" d="M708.3,349.2c0.7,3.9-2.7,5.1-4.8,7.2c-5.3,5.5-9.7,11.9-13.8,18.3
		c-7.5,11.4-12.8,24.1-15.8,37.4c-2.9,12.8-2.4,25.9,0.7,38.9c3.4,14.5,7.7,28.8,11.6,43.2c1.4,5.1,2.6,5.4,7.7,3.9
		c9.4-2.9,18.8-5.7,28.8-6.6c5.3-0.4,10.7,0.2,15.9-1.1c1.2-0.3,2.1,0.6,2.9,1.4"/>
	<path id="XMLID_1630_" class="st0" d="M411.7,994.4c1.2,6.2,5.2,11,8.3,16.3c2.5,4.3,4.8,8.6,7.1,13c6.7,12.7,5.2,25.6,0.9,38.4
		c-3.3,9.7-8.3,18.7-13.9,27.4c-5.1,7.8-13,9.2-21.6,8.7c-4.2-0.3-7.1-2.1-9.7-5.7c-15.8-21.4-31-43.3-46.4-64.9"/>
	<path id="XMLID_1629_" class="st0" d="M392.5,169.7c-1.2,6.5-5.2,11.8-7.8,17.7c-2.7,6.2-6,12.2-9,18.3c-1.9,3.9-1.5,4.5,2.9,5.3
		c13.6,2.5,26.3,7.3,39,12.7c12.1,5.1,21.9,13.1,32,20.9c11.7,9,22.2,19.3,32.2,30.2c9.2,10,17.3,20.9,24.9,32.2
		c16.7,24.6,27.9,51.7,36,80.2c1,3.4,1.9,6.7,2.9,10.1"/>
	<path id="XMLID_1628_" class="st0" d="M671.4,116.9c-4.8-0.7-9,1.7-13.4,2.9c-21.9,5.8-43.9,11.3-65.3,19.1
		c-21.8,7.9-43.7,15.6-65.3,23.9c-10.1,3.9-20.4,7.6-30.7,11.2c-1.4,0.5-2.7,1.1-3.8,1.9"/>
	<path id="XMLID_1627_" class="st0" d="M251.8,169.7c-9.5-6.5-19.8-11.6-29.8-17.2c-13.3-7.4-26.4-15.1-40.3-21.2
		c-8.9-3.9-18.2-6.8-27.9-8.9c-1.6,11.2-1.4,22.4-0.7,33.3c1.1,16.6,5.8,32.5,10.3,48.5c0.3,0.9,1.1,1.4,1.1,2.4"/>
	<path id="XMLID_1626_" class="st0" d="M357.9,692.2c-3.2,0.2-2.6,2.8-2.3,4.6c1.7,12.8,0.8,25.6,1.2,38.4
		c0.4,13.9,0.3,27.8-0.2,41.8c-0.6,17.3-0.8,34.6-0.5,51.8c0.2,9.8-0.3,19.6,1.8,29.3"/>
	<path id="XMLID_1625_" class="st0" d="M337.3,693.4c1.1,4.4,0.7,9,0.8,13.4c0.5,18.8,1.5,37.5,3,56.2c1.3,16.3,2,32.6,2.9,49
		c0.7,12.6,1,25.3,1,37.9c0,2.1,0.1,4.1-1.5,5.8"/>
	<path id="XMLID_1624_" class="st0" d="M67,749.6c-6.9,14.9-9.5,30.8-8.5,47c0.8,12.9,6.4,24.1,14.3,34.1
		c8.3,10.5,18.1,19.4,30.8,23.8c11.9,4.2,24.3,6.4,36.5-0.7c4.2-2.5,6.5-6.7,10-9.7"/>
	<path id="XMLID_1623_" class="st0" d="M291.2,828.3c2.1-5.1,3.1-10.4,3.9-15.8c0.7-4.7-1.3-7.4-5.3-9.7c-14.3-8-32.3-2.9-41.2,8.8
		c-8.8,11.6-12.9,25.3-11.4,39.7c1.9,18.5,10.2,33.4,28.1,41.3c3.3,1.5,6.7,2.5,9.3,5.6c1.4,1.6,5.2,1.6,7.9,1.6
		c16.3,0,32.6-0.8,49-1.1c12-0.3,24.1-0.5,36-1.8c14.2-1.5,28.5-2.1,42.8-4.1c13.7-1.9,27.5-3.1,41.3-5c20-2.8,39.2-8.6,58.1-15.8
		c2.9-1.1,5.8-2.5,8.6-3.8"/>
	<path id="XMLID_1622_" class="st0" d="M143.4,502.8c-0.8,5.6-0.9,11.2-1.3,16.8c-1.2,14.1-2.1,28.2,0.4,42.2
		c3.4,18.4-2.2,35.6-7.3,52.8c-3.8,12.8-8,25.5-12.8,38c-0.9,2.3-2.1,4.7-0.5,7.2"/>
	<path id="XMLID_1621_" class="st0" d="M264.8,927.2c6,18.9,12.9,37.4,17.9,56.6c3,11.6,6.3,23.2,8.1,35.1
		c2.7,17.7,1.1,35.5,1.4,53.3c0.1,11.6,3.8,22.1,10.4,31c8.1,11,16.3,12.6,30,6.3c8.7-4,14.6-11,18.8-19.6
		c3.6-7.5,7.6-14.7,11.5-22.1"/>
	<path id="XMLID_1620_" class="st0" d="M423.7,890.2c2.5-4.3,7-6.1,10.6-9c10.4-8.4,16.4-18.9,16.1-32.2
		c-0.4-17.3-7.3-32.4-18.2-45.5c-5.2-6.2-12.4-8.9-20.5-9.8c-4.6-0.5-8.9-0.3-13.5,0c-10.8,0.7-16.6,6.9-19.6,16.5
		c-0.7,2.2-1.1,4.6-2.9,6.2"/>
	<path id="XMLID_1619_" class="st0" d="M222.1,392.9c-1.2,6.8-4.4,12.8-6.7,19.2c-5.9,16.8-10.1,33.9-10.1,51.8
		c0,17.2,4.8,33.3,11.5,49c3.1,7.2,6.1,14.4,9.1,21.6"/>
	<path id="XMLID_1618_" class="st0" d="M221.1,924.3c5.6,9.2,12.1,17.6,21.6,23c3.9,2.2,3.3,6,3.7,9.2c3.4,30.8,8,61.3,21.2,89.8
		c2.1,4.6,3.9,9.3,5.8,13.9"/>
	<path id="XMLID_1617_" class="st0" d="M458.2,885.4c1.3-5.8,4.5-10.9,6.8-16.3c5.7-13.1,6.3-26.5,3.7-40.4
		c-2.3-12.8-6-25-13.9-35.8c0.3-1,1.3-1.6,2.6-2.3c5.5,4.6,9.4,10.7,14.1,16c12.6,14.4,24.8,29.1,36.6,44.1
		c10,12.7,16.6,27.3,22.5,42.4c-1.3,3.5-4.9,3.1-7.7,3.6c-13,2.3-25.9,4.8-38.9,7.2c-18.5,3.4-37.1,6.2-55.7,9.2
		c-2.2,0.3-3.9,0.9-4.8,2.9c-6.8,15-14.1,29.8-19.4,45.5c-3.9,11.5-1.7,20.7,6,29.4c0.6,0.7,1,1.6,1.5,2.4"/>
	<path id="XMLID_1616_" class="st0" d="M707.4,355c1.5,2.5,0.6,5.1,0.6,7.7c-0.3,18.3,0,36.5,5.2,54.3c3.3,11.4,9.2,21.5,15,31.6
		c7.3,13,16.2,25.1,24.4,37.5"/>
	<path id="XMLID_1615_" class="st0" d="M536,413.6c-0.7-1.9-0.6-3.8-0.5-5.8c0.5-11.3-1.2-22.4-2-33.6c-0.9-12.7-7.2-22-17.7-28.8
		c-3.2-2.1-6.4-4-10.1-4.8c-9.7-2.1-15.8,2.9-21.7,12.4c-4.1,6.7-3.9,13.9-3.8,21.2"/>
	<path id="XMLID_1614_" class="st0" d="M483.7,392.4c-3.3-0.8-5.9-3.2-9.1-4.4c-3-1.2-4.3-1.1-5.5,2.4c-1.5,4.3-1,8.8-1.5,13
		c-1,8.7-0.3,17.6-0.3,26.7c6.4,0.7,12.2-0.8,17.7-2c15.9-3.2,31.6-7.7,47.1-12.7c11.3-3.6,22.7-6.8,34.1-10.2
		c1.8-0.5,3.5-1.1,5.3,0"/>
	<path id="XMLID_1613_" class="st0" d="M507.2,910.8c-6.8,11.5-18.3,18-28.4,25.8c-8.8,6.8-18.1,13.2-26.1,20.9
		c-5.8,5.6-11.6,12.1-11.3,21.4c0.1,4.5,2.3,8,4.5,11.5c7.6,12.1,17.7,21.5,30.6,27.9"/>
	<path id="XMLID_1612_" class="st0" d="M827.4,378c0.2,2.2-0.4,4.2-1,6.2c-1.6,5.1,0.5,10.2,0.2,15.4c-1,16.6-2.3,33.1-5.5,49.4
		c-1.2,6.3-2.6,12.6-4.3,18.7c-3.9,13.7-13.9,21.8-26.4,27.3c-4.1,1.8-8.3,3.2-12.5,4.8"/>
	<path id="XMLID_1611_" class="st0" d="M542.2,797.1c4,3.3,4.5,8.7,7.6,12.5c1.7,2.2,2.5,5.1,4.4,7.1c7.8,7.9,10.8,17.6,12.1,28.4
		c1.2,9.3,0.9,18.1-2.1,26.9c-2.4,6.8-6.6,12.7-11.1,18.1c-5.2,6.3-10,12.9-16.2,18.3"/>
	<path id="XMLID_1610_" class="st0" d="M394.9,434.7c-3.9,7.6-5.6,16-8.6,24c-0.3,0.7-0.3,1.7,0,2.4c1.3,3.3,1.3,6-0.9,9.2
		c-2,2.9-0.4,6.7,0,10c0.9,7.4,2.9,14.7,5.7,21.6c3.4,8.6,10.8,12.5,19.2,14.3c10,2.2,17.9-2.1,24.5-9.5c8-9,10.3-19.3,8.4-31.2
		c-0.7-4.7-0.8-10.2,2.1-14.8"/>
	<path id="XMLID_1609_" class="st0" d="M630.1,696.8c4.5-1.3,8.9-2.7,13.4-3.8c7.2-1.8,13.8-0.1,19.1,4.8
		c5.7,5.4,10.2,11.9,13.5,19.1c4.2,9,3,18.3,0.8,27.3c-1.7,7.1-4.4,14.1-5.8,21.2c-1.6,7.9-6,11.6-12.6,15
		c-10.7,5.6-21.7,8.1-33.7,6.6c-0.5-0.1-1-0.1-1.5-0.4c-0.5-0.3-1.1-0.4-1.7-1.3c6-3.5,12.1-6.9,17.5-11.2c1-0.8,1.9-1.6,2.9-2.4
		c8.3-6.5,9.4-15.4,4.3-25.4c-7.1-14.1-18.4-23.2-33.6-27.3c-10-2.7-15.1-0.6-22.1,8.6c-1.5,2-2.9,4.2-4.3,6.2"/>
	<path id="XMLID_1608_" class="st0" d="M197.1,915.6c-1.7,4.9,0.4,9.7,1.2,14.4c1.4,8.4,4.4,16.6,5.9,25c1.8,10,8.2,17.3,13.2,25.4
		c15.4,25.1,30.7,50.4,44.7,76.3c0.9,1.6,0.6,2.9,0.9,4.4"/>
	<path id="XMLID_1607_" class="st0" d="M294.1,822.5c6.4-1.5,9.8-6.6,11.4-12c5.4-18.5-5.4-33.9-24.3-35.2
		c-15.6-1-30.3,3.6-40.7,16.5c-4.2,5.1-10.2,8.7-12.9,14.9c-5,11.4-8,22.9-6.7,36c1.8,18.6,9.8,35,15.3,52.3c0.3,1,0.2,2,0.4,2.9"/>
	<path id="XMLID_1606_" class="st0" d="M546.6,468.3c8,6.2,15.1,13.4,22.5,20.2c12.4,11.4,26.3,20.2,42.8,23.8
		c10.2,2.2,20.8,4.4,31.1,1.4c13.4-3.9,25.2-10.9,28.2-25.8c2.6-13.3,0-23.2-13.2-29.2c-5.6-2.5-11.3-5.1-18.8-4.8
		c5.5,5.1,9.9,9.9,13.5,15.3c3,4.5,2.4,9.2-0.5,13.4c-4.4,6.2-9.8,9.8-18.2,9.9c-15.7,0.1-28.7-5.1-40.4-15.5
		c-8.2-7.3-16.1-15-23.9-22.7c-5.9-5.8-10.3-12.6-12.5-20.6"/>
	<path id="XMLID_1605_" class="st0" d="M189.4,914.7c-1,2.5-0.9,5.2-0.8,7.7c0.2,7.1-1.7,14-1.6,21.1c0.1,3.8-0.9,7.5-2.1,11
		c-1.5,4.3-0.6,6.9,2.5,10.2c14.7,15.9,29.3,31.8,41.4,49.8c8.6,12.8,15.6,26.6,22.6,40.3c3.8,7.6,3.9,7.6,12.5,6.7
		c2.4-0.3,5,0,7.2-1.4"/>
	<path id="XMLID_1604_" class="st0" d="M246.6,429.9c-0.2,3.4-3,5.4-4.5,8.1c-9.6,18.4-8.9,36.9-0.7,55.2c4.2,9.3,12.4,15.2,21,20.1
		c4,2.3,15.4-1.2,17.5-5.8c3.3-7,5.7-14.5,5-22.5"/>
	<path id="XMLID_1603_" class="st0" d="M454.9,792.3c-8.9-7.8-18.8-13.6-30.2-16.8c-9.9-2.8-19.6-5.1-29.8-0.6
		c-5.3,2.3-8.8,6-12,10.6c-5.3,7.7-9.6,15.7-9.1,25.5c0.1,1.5,0,2.9,0.9,4.4c1.3,2,1.5,4.4,0.5,6.7"/>
	<path id="XMLID_1602_" class="st0" d="M521.6,602.7c-5.3,14.5-11.1,28.8-14,44.1c-1.6,8.7-1.3,17.3-0.3,25.9
		c1.1,8.9,3.5,17.5,6.6,25.9"/>
	<path id="XMLID_1601_" class="st0" d="M256.6,429.9c-4.1-5.4-10.3-6.9-16.3-7.6c-13.4-1.4-19.7,3.6-25,17.6
		c-3.9,10.3-3.6,20.4-0.9,30.7c0.8,3.2,1.4,6.5,2.5,9.6c0.6,1.8,0.3,4.5,3.3,4.8"/>
	<path id="XMLID_1600_" class="st0" d="M662.2,149.1c10.3,8.3,20.4,16.7,27.4,28.3c5,8.3,9.1,17,10.9,26.4
		c2.2,11.6,1.1,23.4-2.5,34.5c-3,9-3.7,18.4-6.4,27.5c-2.2,7.2-4,14.5-6.4,21.5c-2,5.7-5.5,9.9-12.4,9.1"/>
	<path id="XMLID_1599_" class="st0" d="M73.3,671.8c5.6-0.2,11.2-0.4,16.8-0.5c2.1,0,3.8-0.2,3.9-2.9c0.3-12.8,2.1-25.8-1.1-38.4
		c-4.8-18.9-12.7-36.2-29.2-48c-6-4.3-13.1-6.4-20.1-8.2c-10.4-2.6-20.8-5-31.7-4.8"/>
	<path id="XMLID_1598_" class="st0" d="M214.4,563.8c6.9,6.4,15.3,10.6,23.1,15.8c14.2,9.6,29.3,17.5,45.6,23c6,2,12.1,3.7,18.2,5.3
		c1.4,0.4,2.5,0.9,3.3,2"/>
	<path id="XMLID_1597_" class="st0" d="M154.4,488c3,5,2.9,10.9,4.2,16.3c3.8,15.9,10.3,30.3,23.2,40.7c6.9,5.5,15.3,9,23.4,12.6
		c2.6,1.2,5.1,2.5,7.7,3.8"/>
	<path id="XMLID_1596_" class="st0" d="M423.7,915.2c-3.2-2.7-6.6-0.3-9.6,0.2c-12.8,2.3-25.6,4.1-38.5,5.8
		c-15.7,2.1-31.6,3.8-47.5,4.8c-15.7,0.9-31.4,1.4-47.1,1.1c-13.8-0.3-27.6-2-41.3-4c-16.7-2.4-33.2-6.3-49.8-9.1
		c-6.9-1.2-13.9-2.7-20.7-5"/>
	<path id="XMLID_1595_" class="st0" d="M464.5,486c-2.9,6.9-4.3,14.3-7.3,21.1c-5,11.4-12.4,21.5-20.1,31.2
		c-9,11.4-18.9,22-28.8,32.7"/>
	<path id="XMLID_1594_" class="st0" d="M338.2,926.2c0.4,4-2.1,7.1-3.4,10.5c-3.5,8.9-5.5,18.1-7,27.4c-1.3,8.1-3,16.2-3.5,24.5
		c-0.3,6.1,1.5,11.7,3.4,17.3c2.2,6.6,4.8,13.1,8.2,19.2"/>
	<path id="XMLID_1593_" class="st0" d="M136.6,867.6c0.1,15.9,2.7,31.1,12,44.7c3.5,5.1,7.8,9.1,12.9,12.5c7.1,4.7,15,8.4,21.7,13.8
		c0.9,0.7,2,1.5,3.3,1"/>
	<path id="XMLID_1592_" class="st0" d="M129.9,781.7c4.4,1.5,6.3,5.6,9,8.7c10.4,12,20.7,24.1,30.7,36.5c8.1,10,17,19.2,25,29.2
		c2.6,3.2,6.9,4.8,8.1,9.1"/>
	<path id="XMLID_1591_" class="st0" d="M487,657.4c-0.1,5.2,1.3,10.3,2.1,15.3c1.3,7.8,1.8,15.7,2.6,23.6
		c1.7,14.7-2.7,28.6-5.7,42.7"/>
	<path id="XMLID_1590_" class="st0" d="M477.4,1021.2c-18.6,0-35.8-4.7-50.8-15.9c-3.4-2.6-6.7-5.5-9.6-8.7c-2.6-2.9-5.2-3-8.7-1.9
		c-14.2,4.5-28.4,9.1-42.7,12.9c-6.4,1.7-13.4,1.7-20.1,2c-5.1,0.3-10.3,0.4-15.4,1"/>
	<path id="XMLID_1589_" class="st0" d="M416.7,1006.4c-4.7,3-9.4,6.1-14.2,9.1c-9.1,5.7-19.3,7.1-29.8,7.7
		c-10.6,0.6-21.1,1.2-31.7,0.9c-1.4,0-2.8,0.3-3.3,1.1c-3.6,5.4-9.4,3.3-14,3.6c-10.1,0.5-20-1.5-29.2-6.1c-0.9-0.4-1.6-0.3-2.4-0.4
		"/>
	<path id="XMLID_1588_" class="st0" d="M765,482.7c0.5-0.2,1-0.5,1.4-0.5c7.4,0.5,8.8,0,11.5-5.8c2.2-4.8,2.2-10.5-1.3-15
		c-4.8-6.2-11.1-6.8-17.9-6.1c-3.8,0.4-6.9,5.5-7.2,11c-0.5,8.4,3.1,12.9,13,16.3"/>
	<path id="XMLID_1587_" class="st0" d="M574.9,403c-5.8,7.4-11.8,14.5-17.2,22.1c-4.6,6.5-9.6,13-12.6,20.6
		c-1.1,2.9-3.9,3.2-6.2,4.3c-8.2,4.1-16.7,7.7-25.4,10.5c-8.4,2.8-17.2,3.3-25.9,3.8c-7.2,0.4-14.4,0.1-21.6,0.1"/>
	<path id="XMLID_1586_" class="st0" d="M392,873.4c-0.5-3.4,1.1-6.6,1-10.1c-0.1-10.9-2.6-17.4-15-20.6c-2.5-0.6-5.2,0-7.2,1.9
		c-6.4,5.9-11.8,12.6-12.9,21.6c-0.6,4.4,0.5,9,2.8,12.9c3.1,5.3,6.4,10.6,9.6,15.9"/>
	<path id="XMLID_1585_" class="st0" d="M453.9,632.9c-1.7-2.2-4.5-2.3-6.8-3.3c-13.3-5.7-20.7-17.7-29.8-28.1
		c-3.8,1.3-3.1,4.5-3.3,7.3c-0.8,10.5-2.1,21-6.6,30.8c-1.3,2.9-3.4,5-5.4,7.1c-7.1,7.7-15.3,14.2-23.5,20.7
		c-5.1,4-5.3,5.5-2.9,11.5c3.9,9.9,6.8,20.2,11.5,29.8c4.5,9.3,11.6,16.7,18.3,24.5c5.5,6.4,10.8,12.9,16.2,19.3
		c9.6,11.3,19.8,22.1,30.3,32.6c1,1,2.4,1.8,2.9,3.3"/>
	<path id="XMLID_1584_" class="st0" d="M338.2,657.9c-1,5.6-0.9,11.3-0.3,16.8c1.2,11.3-3.1,20.8-7.2,30.8
		c-8.7,21.3-24.2,37-41,51.7c-2.8,2.5-5.3,5.2-8.1,7.7"/>
	<path id="XMLID_1583_" class="st0" d="M357.9,692.9c2.9,4.7,3.5,10.4,5.6,15.4c2.6,6.2,6,11.7,10.3,16.7
		c12.2,14.5,26.5,26.9,40.3,39.9"/>
	<path id="XMLID_1582_" class="st0" d="M466.9,430.4c-5.4,2.2-11.3,1.6-17.1,2.9c2.8,6.1,5.8,12.1,8.4,18.2
		c3.6,8.5,7.1,17.1,7.6,26.4c0.7,11.9,1.6,23.8-1.8,35.5c-0.3,1,0.1,1.9,0.5,2.9"/>
	<path id="XMLID_1581_" class="st0" d="M823.5,391c-3.9,5.9-5.2,12.9-8.1,19.2c-5.2,11.3-8.6,23.3-15.8,33.6
		c-3.5,5.1-7.2,10-11.5,14.4c-1.6,1.6-3.7,2.8-4.3,5.3"/>
	<path id="XMLID_1580_" class="st0" d="M738.6,502.4c-5.6,8.9-9.1,18.7-11.9,28.8c-0.3,1.1-0.8,2.2-1,3.3c-1.5,7.4-1.5,7.6-8.7,6.6
		c-6-0.8-11.8-2.3-17.8-3.3c-3.9-0.7-5.8-4.6-9.6-5.3"/>
	<path id="XMLID_1579_" class="st0" d="M122.7,663.6c1.3,2.7,0.2,5.1-0.5,7.7c-2.5,9.5-4.5,19.1-0.5,28.8c0.5,1.3,0.6,3.1,1.5,3.7
		c4.2,3,3.3,7,2.8,11.1c-1.3,11-1.3,22.1,1.7,32.5c2.6,8.8,7.5,17,12.2,25c2.5,4.1,5.1,8.1,7.1,12.5"/>
	<path id="XMLID_1578_" class="st0" d="M663.7,689.1c6.2,2,11.6,5.6,17.3,8.7c2.2,1.2,3.1,3,3.5,5.7c0.9,5.8,2.9,11.5,4.4,17.2
		c3.8,14.3,1,26.9-7.5,38.4c-3.3,4.4-5.8,9.7-10.9,12.6"/>
	<path id="XMLID_1577_" class="st0" d="M196.2,647.8c1.2,14-3.3,26.1-11.4,37.5c-8.1,11.3-16.4,22.7-26.3,32.3
		c-8.6,8.3-18,15.9-26.6,24.3"/>
	<path id="XMLID_1576_" class="st0" d="M462.6,363.6c-1.6,16.4-3.3,32.7-5.8,49c-0.6,4.1-3,7.7-5.3,11c-2.5,3.6-5.5,7-9.6,10.3
		c0.8-13,3.2-25.3,2.4-38.4c-9.1-4.4-19.4-7.4-30.1-8.9"/>
	<path id="XMLID_1575_" class="st0" d="M316.2,209.1c-0.3-4.2,2.9-6.7,4.9-9.5c4.6-6.2,5.1-13.4,4.4-20.2c-1-9.8-12.9-16.8-23.3-15
		c-11.7,2.1-17.2,9.6-17.1,22.2c0,3.8-1.5,7.3-1.6,11"/>
	<path id="XMLID_1574_" class="st0" d="M536,490.4c-3.5-0.7-6.7,0.9-10.1,1.4c-7.8,1.3-15.5,2.2-23.5,1.5c-11.7-0.9-23.4-2-35-3"/>
	<path id="XMLID_1573_" class="st0" d="M447.7,211.5c-2.3-3-1.7-6.8-3-10c-1.8-4.6-3.1-10.1-9.5-10.6c-6.7-0.4-12.5,1.2-16.4,7.6
		c-5.5,9.1-5.1,14.4,1.9,22.1c1.4,1.6,4.1,2.4,3.9,5.2"/>
	<path id="XMLID_1572_" class="st0" d="M447.7,214.8c0.2-1,0.1-1.9,0.8-3c4.1-6.2,4.6-13.3,4.5-20.6c-0.1-6-4.2-9.2-8.7-9.8
		c-7.6-1.1-15.4-2-23,0.7c-4.1,1.4-7.3,4.5-11.5,5.8"/>
	<path id="XMLID_1571_" class="st0" d="M531.2,764.9c4,9.9,7.5,19.9,9.9,30.3c0.9,4.1,0.7,8.7,0.1,12.9c-2,13.9-5.8,27.4-9.9,40.8
		c-1.7,5.6-4,11-4.8,16.8"/>
	<path id="XMLID_1570_" class="st0" d="M237.9,451.5c3.7,0.9,6.3,3.7,9.6,5.3c1.7,0.8,0.9,2.2,0.9,3.4c0.3,6.2-0.2,12.5,0.4,18.7
		c1,9,6.7,14.4,14.1,17.5c5.5,2.3,10.6-1.9,14.7-5.6c2.3-2.1,3.3-5.1,6.8-6.3c1.5-0.5,1.4-3.2,1.5-5.1c0.5-11.7-4.7-21.5-9.4-31.8
		c-4-8.8-11.5-12.8-18.9-17.2c-6.8,1.5-12.9-3.8-19.7-2.4c-3.9,0.8-6.6,3.1-8.7,6.7c-5.5,9.2-8,18.9-8.5,29.8
		c-0.3,7.2,0.9,14.4-0.3,21.7c-0.4,2.7,0.7,6,0.7,9.1"/>
	<path id="XMLID_1569_" class="st0" d="M455.8,540.3c10.1,4.4,20.8,6.8,31.2,10.1c11.1,3.4,22.3,3.8,33.6,1.5
		c0.6-0.1,1.3,0.3,1.9,0.4"/>
	<path id="XMLID_1568_" class="st0" d="M286.4,394.4c4.9,10.4,10.1,20.6,17.8,29.3c7.5,8.4,16.1,15.4,26.4,20.1
		c2.9,1.3,6.2,2.2,9.1-0.4"/>
	<path id="XMLID_1567_" class="st0" d="M542.2,449.6c-0.6,8.2-2.7,16.2-3.5,24.5c-0.8,8.3-1.9,16.6-2.8,25
		c-0.7,6.3-1.8,12.5-2.9,18.7c-0.2,1-0.5,2.3-1.9,2.4c-5.5,0.2-10.4,3.1-15.8,3.9c-8.9,1.3-17.4-1-25.9-2.5
		c-7.4-1.3-14.8-2.7-22.1-4.8c-2.5-0.7-3.8-0.1-4.3,2.4c-3.1,15-11.4,27.2-20.7,38.9c-2.7,3.4-3.7,8.2-8.6,9.6"/>
	<path id="XMLID_1566_" class="st0" d="M163,687.6c2.8-3.2,4.8-6.8,6.8-10.5c5.4-10.4-3.2-25.8-11.1-29.3c-4.7-2.1-9.4-1.3-13.9,0.4
		c-2.5,0.9-5.1,1.7-7.2,3.5"/>
	<path id="XMLID_1565_" class="st0" d="M117.9,665.6c-6.6,5.8-13.1,11.5-19.7,17.3c-2,1.8-4.2,3.3-6.7,4.3"/>
	<path id="XMLID_1564_" class="st0" d="M105.4,748.6c-0.9,5.5-0.2,11.2-2.4,16.6c-0.4,1.1,0.2,2.3,1,3.1
		c10.7,10.6,17.8,23.8,25.3,36.6c6.1,10.4,12.2,20.7,17.4,31.6c0.6,1.3,1.9,2.3,2.8,3.4"/>
	<path id="XMLID_1563_" class="st0" d="M441.4,561.4c15.9,7.5,31.5,15.4,49.4,17.5c5.1,0.6,10.6-0.7,15.4,2.2"/>
	<path id="XMLID_1562_" class="st0" d="M761.1,510.5c-0.2,13-0.2,25.9,4.4,38.5c10,2.1,19.5,0.1,28.7-4"/>
	<path id="XMLID_1561_" class="st0" d="M373.8,602.7c-4.6-0.8-8.6,1.7-12.9,2.6c-7.2,1.5-14.3,3.1-21.6,4.2
		c-9.8,1.5-19.6-0.1-29.3,0.5c-21.1,1.2-40.5,7-57.2,20.9c-13.6,11.3-24.3,25-32.4,40.5c-5.6,10.6-11.2,21.3-16.7,32
		c-5.5,10.5-10.3,21.3-14.7,32.3c-3.9,9.7-7.3,19.6-12.4,28.8c-4.3,7.8-11.1,11.1-19.3,13c-4,0.9-8.2,0-12,1.8"/>
	<path id="XMLID_1560_" class="st0" d="M151.5,779.3c1.9,5.5,5.7,10,8.7,14.8c6.6,10.4,12.9,21,20.6,30.7
		c4.3,5.4,8.9,10.6,14.3,14.9c0.9,0.7,1.8,1.1,2.9,1"/>
	<path id="XMLID_1559_" class="st0" d="M351.2,373.2c0.5,6,1.7,11.8,2.6,17.7c1.6,11.1,2.2,22,1.2,33.2c-0.3,3.2-1.3,6.3-1,9.6"/>
	<path id="XMLID_1558_" class="st0" d="M273,619c6.4,11.4,13.5,22.4,21.6,32.6c6.1,7.7,15.3,10.2,24,13.4c0.8,0.3,1.4,1.1,2.4,1.1"
		/>
	<path id="XMLID_1557_" class="st0" d="M297.4,213.9c0-3.8,3.4-5.3,5.4-7.6c2.8-3.2,5.5-6.7,8.5-9.7c3.4-3.4,4-9.8-2-16.3
		c-4.3-4.6-5.9-4.6-12.4-1c-3.3,1.8-6.1,4.4-8.2,7.6c-0.7,1-1.4,2.1-2.9,1.9"/>
	<path id="XMLID_1556_" class="st0" d="M531.7,520.6c1.5,5.6-1.3,10.8-2.7,15.8c-3.8,13.8-9.1,27.1-17.4,39
		c-9.1,12.9-19.4,24.6-30.8,35.4c-6.8,6.5-13.8,12.8-21,18.8c-9.5,7.9-18.9,15.8-28.9,22.9c-3,2.1-3.2,4.3-2.4,7.3
		c3.4,12.1,5.5,24.5,7,37c0.8,6.1-0.1,12.5-0.1,18.7c-0.1,14.9-2,29.7-2.5,44.6c-0.1,1.4-0.7,2.1-1.5,2.9"/>
	<path id="XMLID_1555_" class="st0" d="M581.1,258c3,11.3,6.7,22.3,9.8,33.6c4.2,15.3,6.2,30.9,7.5,46.6c0.5,5.3,0.7,10.6,1,15.8"/>
	<path id="XMLID_1554_" class="st0" d="M9,568.6c3.5,0.4,5,3.6,7.6,5.4c10.4,7.1,20.7,14.5,26.8,25.9c3.6,6.6,8.9,12.7,8.3,21.1
		c-0.2,2.8-0.7,5.5-1.2,8.1c-0.7,3.8-3.6,5.8-7.5,6.8c-7,1.8-14.1,2.7-21.1,4.3c-14.1,3.3-17.2,9.1-14.1,23.5
		c1.4,6.3,4.7,11.5,7.9,16.7c4.2,6.9,6.8,14.3,8.7,22.1c1.4,5.8,1.7,11.9,4.7,17.3"/>
	<path id="XMLID_1553_" class="st0" d="M44,737.6c0.5,0,1.1-0.1,1.4,0.5"/>
	<path id="XMLID_1552_" class="st0" d="M52.6,740.4c16.1,5.7,31.5,12.8,45.6,22.6c1.4,1,2.5,2.2,4.4,1.9"/>
	<path id="XMLID_1551_" class="st0" d="M478.4,610.8c-2.9-2.5-6.7-1.9-10.1-2.8c-11.3-3-20.7-9.6-30.6-15.1c-4.5-2.4-9-4.8-13-8.1"
		/>
	<path id="XMLID_1550_" class="st0" d="M350.2,377.6c-1.9,9.4-4.6,18.8-5.5,28.3c-0.8,8.2-0.7,16.6,0.2,25c-1.2,0.8-2.2,0.5-3.4-0.5
		c-5.8-4.9-9.5-11.2-12.9-17.8c-1.5-2.9-2.8-5.9-5.3-8.2"/>
	<path id="XMLID_1549_" class="st0" d="M429,665.6c-9.9,3.8-20.3,4.7-30.7,5.1c-7.5,0.3-15,1.6-22.6,1.1"/>
	<path id="XMLID_1548_" class="st0" d="M528.3,724.6c4.5,4,9,7.9,13.4,12c7.8,7.2,10.1,17.1,12.4,26.9c1,3.9,2,7.9,2,12"/>
	<path id="XMLID_1547_" class="st0" d="M433.3,689.1c-8.4,1.4-16.4,4.2-24.9,5c-6.9,0.6-13.5-0.1-20.2-1.2c-2.3-0.4-4.5-0.6-6.7,0"
		/>
	<path id="XMLID_1546_" class="st0" d="M320.5,674.7c-1.8-0.6-3.5-0.3-5.3-0.1c-9.4,0.8-18.8,2-28.3,2.1c-4.8,0-9.6,0.3-14.4,0.4
		c-1.2,0-2.6,0.5-3.4-0.9"/>
	<path id="XMLID_1545_" class="st0" d="M158.7,718.4c1.3,5.1-1.4,9.6-2.5,14.4c-2.4,11.1-5.4,22.1-8,33.1c-0.2,0.9,0,1.9,0,2.9"/>
	<path id="XMLID_1544_" class="st0" d="M345.4,897.4c0-11.8,0.3-23.7-1-35.5c-1-9.5-9.7-20.1-21.7-16c-7.8,2.7-15.3,5.1-18.7,13.6
		c-0.9,2.3-1.7,4.7-0.5,7.2"/>
	<path id="XMLID_1543_" class="st0" d="M273,656.4c-1.8,9.7-4.7,19.1-6.8,28.8c-2.8,12.4-4.3,24.9-5.1,37.5c-0.1,1.3,0,2.4-1,3.4
		c-6.7,6.5-9.7,15.5-14.8,23.1c-6.1,9.1-12.8,17.8-19.7,26.4c-8.4,10.4-16.6,21.1-23.5,32.6c-5.3,8.8-5.6,18.8-3.9,28.7
		c1,5.8,1.3,11.6,2.8,17.3c0.5,1.9,0.5,4.2-0.4,6.2"/>
	<path id="XMLID_1542_" class="st0" d="M762.6,552.8c-6.9-2.7-8.4-5.1-8.7-13c-0.3-8.8-0.6-17.6-0.4-25.7
		c-8.9-1.9-11.6,3.7-13.5,10.3c-0.7,2.5-1.8,4.8-2.9,7.2c-2.7,6.2-3.3,12.4-0.2,18.7"/>
	<path id="XMLID_1541_" class="st0" d="M421.8,585.4c-6.5,9.7-11.2,21.2-23.1,25.8c-6.8,2.6-14.1,2.8-21.1-0.3"/>
	<path id="XMLID_1540_" class="st0" d="M391.5,869.6c-3.4-1-5-4.3-7.6-6.3c-7.1-5.6-10.1-5-14.5,2.9c-3.9,6.9-2.6,12.8,2.5,18.3
		c2.5,2.7,5.4,5.1,8.1,7.7"/>
	<path id="XMLID_1539_" class="st0" d="M205.8,703c5.5,6.7,10,14,14.8,21.2c6.6,10,16,16.3,26,22"/>
	<path id="XMLID_1538_" class="st0" d="M219.7,675.2c5.4,4.4,8.6,10.6,12.9,15.9c7.4,9.2,13.9,19.2,23.6,26.4c1.3,1,2.5,2.2,4.3,1.9
		"/>
	<path id="XMLID_1537_" class="st0" d="M310.9,701.6c-1.1-1.4-2.5-1-3.8-0.5c-14,5.8-28.6,4.6-43.2,3.8"/>
	<path id="XMLID_1536_" class="st0" d="M110.2,779.3c-2.3,7.3-0.6,14.2,1.9,21.1c1.9,5.2,3.5,10.6,5.3,15.8c1.1,3.4,2.4,6.6,5.2,9.2
		c6.3,5.6,9.9,6.2,17.8,2.4"/>
	<path id="XMLID_1535_" class="st0" d="M463,89.6c0.8,0.5,1.6,1.4,2.4,1.4c7.6-0.2,15,0.9,22.6,0.9c2.4,0,4.5-0.2,6.3,1.6
		c-1.6,6.5-7.1,9.6-12.2,12.8c-2.4,1.5-5.7,0.9-8.6,0.2c-1.8-0.4-3.6,0.1-4.8,1.4c-12.3,13.4-24.3,27-35,41.8
		c-0.7,1-1.8,1.9-1.5,3.3"/>
	<path id="XMLID_1534_" class="st0" d="M349.3,635.8c7.5-11.7,17.8-21.2,25.5-33.1c3.5,2.2,1.4,6,1.8,9.1c0.1,0.9-0.4,1.9-0.4,2.9
		c0.2,10.2-1.9,20.5,0.4,30.7c0.8,3.6,2.8,7.2,0.6,11"/>
	<path id="XMLID_1533_" class="st0" d="M736.6,502.4c-4.8,1.2-7.5,5.3-11,8.2c-7.1,5.7-13.7,12.1-21.6,16.8
		c-2.7,1.6-5.8,2.2-8.7,3.2c-1.5,0.5-2.8,0.9-3.3,2.5"/>
	<path id="XMLID_1532_" class="st0" d="M403.5,343.5c-5.8,13-10.4,26.5-15.1,39.9c-6.7,19.1-17.5,35.1-31.4,49.4
		c-1,1-2.6,1.2-2.9,2.8"/>
	<path id="XMLID_1530_" class="st0" d="M479.8,53.6c-10.6-3.8-21.8-5.3-32.6-8.1c-1-0.3-2,0-2.9,0.9c-2.1,2.1-4.6,3.7-6.5,6.5
		c3.2,2.8,7.3,3.3,10.9,4.4c5.6,1.8,11.1,3.7,16.8,5.3c11.4,3.2,22.6,7,34,10.2c6.6,1.8,13.2,3.5,20.2,3.9c4,0.2,3.7-2.7,4.8-4.9
		c1.3-2.5,0-3.5-2-4.3c-6.1-2.7-12.6-4.2-18.6-6.9c-6.9-3.1-14.4-4-21.2-7c-0.7-0.3-1.6,0-2.4,0"/>
	<path id="XMLID_1529_" class="st0" d="M221.6,854.2c-5.8,6.7-8,15.2-11.4,23.1c-2.6,6.1-5.3,12.2-6.9,18.7"/>
	<path id="XMLID_1528_" class="st0" d="M246.6,334.4c-1.7,4.2-2.5,9.2-4.7,12.7c-4.4,7.3-6.7,15.2-10.1,22.8
		c-2.9,6.5-5.9,13-7.3,20.1"/>
	<path id="XMLID_1527_" class="st0" d="M143.4,827.8c3.7-1.8,7.3-3.9,11.5-4.5c0.7,5.7-0.3,10.9-3.4,15.5c-1.5,2.3-1.8,4-0.4,6.3
		c8.2,13.3,14.3,27.6,21.6,41.3c1.2,2.2,2.5,3.9,4.9,4.8"/>
	<path id="XMLID_1526_" class="st0" d="M441.4,106.8c-4,7.3-10.3,12.7-15.4,19.2c-5,6.4-10.2,12.5-15.4,18.7c-1,1.2-1,2.6-1.4,3.9"
		/>
	<path id="XMLID_1525_" class="st0" d="M477.4,833.1c6.7,11.8,12.4,24,18.7,36c1,2,2.2,3.8,3.3,5.8"/>
	<path id="XMLID_1524_" class="st0" d="M482.2,71.8c-6.5,5.9-14.6,10-19.7,17.5c-0.9,1.4-2.9,1.2-3.8,1c-5.8-0.7-11.5-0.2-17.3-0.7
		c-11.3-1-22.7-1.9-34.1-0.5c-1.5,0.2-2.9,0.3-4.3,0.3c-11,0.1-17.3,5.7-18.7,16.6c2.7,1.8,5.9-0.7,8.6,1.2"/>
	<path id="XMLID_1523_" class="st0" d="M66.6,627.6c-0.7,6.4-5.9,8.7-10.6,11.5c-3.3,2-6.8,3.7-10,5.8c-8.9,5.9-11.9,15.3-14.4,24.9
		c-0.8,3.2-1.6,6.5-2.8,9.6c-1.5,3.9-0.6,8,0.8,12c4.8,13,10.8,25.4,16.8,37.9c1.2,2.4,2,4.9,1.9,7.7"/>
	<path id="XMLID_1522_" class="st0" d="M189.4,737.6c6,4,9.2,10.5,13.2,16c6.2,8.6,13.2,16.2,20.9,23.3"/>
	<path id="XMLID_1521_" class="st0" d="M439,554.7c-5,9.7-8.8,20.2-15.8,28.8c-1.7,2.1-5,3.4-6.6,3.1c-4.7-1-8,2-11.5,3.4
		c-8.3,3.3-16.8,6.4-25.1,9.7c-1.9,0.7-3.4,1.6-4.8,3"/>
	<path id="XMLID_1520_" class="st0" d="M404,345.4c4.1,6.8,5.7,14.6,7.6,22.1c3.7,15.2,2.2,30.7,1.6,46.1c-0.1,3.8,0,7.7,0,12.1
		c9.7-10,16.1-21.4,20.2-34.2"/>
	<path id="XMLID_1519_" class="st0" d="M184.2,752.9c2.7,3.5,4,7.7,5.6,11.6c4.8,11.8,13.8,19.1,24.2,25.4"/>
	<path id="XMLID_1518_" class="st0" d="M692,424.6c2.6,1.7,3.1,4.7,4.3,7.2c5.1,10.7,10.6,21.2,20.1,28.8c1.2,1,2.6,2,2.9,3.8"/>
	<path id="XMLID_1516_" class="st0" d="M301.8,869.6c3.6-4.5,9.1-5.7,14-8c0.6-0.3,2.5,0.2,3.8,0.8c10.6,4.9,14.7,16.8,9.1,26.9
		c-1.6,3-4.3,5.4-4.3,9.1"/>
	<path id="XMLID_1515_" class="st0" d="M485.6,171.2c16.6,12.4,32.8,25.2,47.5,39.8"/>
	<path id="XMLID_1514_" class="st0" d="M290.2,1009.7c10,2,20,3.9,30.2,4.9c3.2,0.3,6.4,0.6,9.6-0.1"/>
	<path id="XMLID_1513_" class="st0" d="M434.7,715c-9.3,0.5-18.6,1.1-27.8,1.4c-4,0.1-8-0.3-12-0.4"/>
	<path id="XMLID_1512_" class="st0" d="M387.7,468.3c3.2,2.4,3.2,6.3,4.3,9.6c3.8,11.3,20.9,22.6,33.2,14.4
		c5.5-3.6,10.1-8.2,13.8-13.5c1-1.4,2-2.5,3.4-3.3"/>
	<path id="XMLID_1511_" class="st0" d="M593.1,23.8c-3.4,3.8-8.3,4.8-12.6,7.1c-4.2,2.2-8.8,3.8-12.8,6.5c-1.4,0.9-3,1.3-3.8,0.8
		c-8.1-4.9-17.4-6.4-26-10c-0.5-0.2-1-0.6-1.4-0.9"/>
	<path id="XMLID_1510_" class="st0" d="M763.5,508.6c3.2,5.9,6.4,11.9,9.7,17.7c3.7,6.5,8.3,12.4,15.3,15.9c1.5,0.7,2.7,1.7,3.8,2.9
		"/>
	<path id="XMLID_1509_" class="st0" d="M260,433.2c2,8.2,1.9,16.6,1.9,25c0,0.2,0.3,0.3,0.5,0.5"/>
	<path id="XMLID_1508_" class="st0" d="M266.7,485.1c0,3.2,0.5,6.4,1,9.6"/>
	<path id="XMLID_1507_" class="st0" d="M417,106.4c-0.7,2.8-2.9,4.4-4.8,6.2c-10.6,9.7-20.2,20.2-28.8,31.7"/>
	<path id="XMLID_1506_" class="st0" d="M321,398.2c2.7,8.6,3.8,17.5,7.1,25.9c2,4.9,4.3,9.7,6.8,14.3c2.5,4.7,6.9,6.1,12.4,4.2
		c1.1-0.4,2.4-0.6,3.4-1.3"/>
	<path id="XMLID_1505_" class="st0" d="M242.2,348.8c0,6.1-1.2,12.2,0,18.2c1.6,8,3.6,15.6,7.3,23.2c6.8,13.8,16.9,25.3,24.8,38.2"
		/>
	<path id="XMLID_1504_" class="st0" d="M417,438c-1.6,5.4-2.6,11-6.7,15.4c-1.9,2,1,4,0.9,6.2"/>
	<path id="XMLID_1503_" class="st0" d="M416.5,485.1c0.6,3,1.3,6.1,1.9,9.1"/>
	<path id="XMLID_1502_" class="st0" d="M568.2,38.7c1.2,1.6,3.6,1.2,4.8,2.9c-1.6,6.1-10,11.6-15.8,9.5
		c-13.9-5.2-28.5-8.1-42.4-13.4c-9.1-3.4-18-7.8-27.7-9.5c-2.2-0.4-2.6-2.7-5.3-3.4c6-2.8,10.4-7.7,16.8-6.2
		c10.9,2.5,22.1,4.2,32.7,8.1c2.2,0.8,3.9,0.7,5.9-1.3c2.8-3,6.8-4.5,10.5-6.3c2-1,3.9-1.9,4.3-4.3"/>
	<path id="XMLID_1501_" class="st0" d="M198.1,218.7c-1.1,4.3-3.9,7.7-5.8,11.5c-3.5,7.1-6.6,14.3-9.6,21.6
		c-0.6,1.4-0.4,3.3-2.4,3.8"/>
	<path id="XMLID_1500_" class="st0" d="M346.4,638.7c-5.4,3.6-11.3,6.4-16.4,10.5c-1.7,1.3-3,2.7-3.3,4.8
		c-2.7,15.4-7.6,30.2-13.5,44.6c-6.1,15-15.1,28.2-26,40c-2.1-0.8-3.6-1.1-5.7-0.8c-6.7,0.9-13.4,1.1-20.1,0.2"/>
	<path id="XMLID_1499_" class="st0" d="M180.3,887.3c5.8,2.2,10.8,5.9,16.8,7.7c7.4,2.2,15,3,22.6,3.2c16.3,0.5,32.6,2.2,49,1.6
		c1.8-0.1,3.6,0.1,5.3-1"/>
	<path id="XMLID_1498_" class="st0" d="M260,727.5c0.9,4.5,0.4,9,0.5,13.4c0.1,7.5-0.3,15.1,0.2,22.5c0.2,2.9-0.8,4.4-2.6,5.7
		c-9.8,7.2-17.6,16.4-25,25.9c-1.3,1.6-1.5,3.4-1.4,5.3"/>
	<path id="XMLID_1497_" class="st0" d="M365.6,169.2c-6.4,10.4-12.8,20.8-19.2,31.2c-1,1.7-2.5,3.1-2.4,5.3"/>
	<path id="XMLID_1496_" class="st0" d="M72.3,671.8c-9.1,3.4-9.3,4.7-2.9,12.5c4.6,5.5,9.9,10.3,15.4,14.9c1.3,1,2.8,2,4.3,1.3
		c1.5-0.7,1.5-2.6,1.5-4.2c0-2.9-0.6-5.9,1.1-8.5c-2.3-2.1-4.7-3-7.8-3.1c-5.2-0.2-8.7-3.1-10-8.1c-0.9-3.4-1.8-6.9-1.5-10.5"/>
	<path id="XMLID_1495_" class="st0" d="M325.8,596.9c4.9,0.7,9.7,1.5,14.4-0.9c5-2.5,8.8-6.2,12-10.6c1.9-2.5,1.7-5.4,1.4-8.2
		c-0.7-6.3-1.5-12.7-3.7-19c-4.9,1.4-9.7,2.8-14.5,4.1"/>
	<path id="XMLID_1494_" class="st0" d="M468.3,107.8c-1.3-2.1-3.4-1.4-5.3-1.4c-13.8,0.2-27.5-1.4-41.3-1.3
		c-8.1,0.1-16.4-0.3-24.5,0.9c-1.9,0.3-4.1,0.5-4.9,3.2c-0.7,2.3-3,3.7-4.7,5.3c-9,8.3-17.8,16.8-25.4,26.4
		c-0.6,0.8-1.1,1.4-0.9,2.4"/>
	<path id="XMLID_1492_" class="st0" d="M609,161.1c-11.7,9.1-23,18.8-34.1,29.4c3.6,2.3,7.4,2.6,11,3.2"/>
	<path id="XMLID_1491_" class="st0" d="M570.6,263.8c-1.3,0.2-2-1.1-3.4-1.1c-0.8,0-1.5-1.7-2.9-0.8c-1.8,1.1-0.8,2.5-0.5,3.9
		c2.7,10.8,4.1,21.8,6.3,32.6"/>
	<path id="XMLID_1490_" class="st0" d="M241.8,645.9c2.6,11.9,7.3,22.6,16.8,30.7c1.5,1.3,2.9,2.9,4.3,4.3"/>
	<path id="XMLID_1489_" class="st0" d="M196.2,502.8c3.7,7.7,8.5,14.8,13.1,22c1.7,2.7,2.1,5.1,2.6,8.2c1.3,8.3,3.1,16.9,8,24
		c3.3,4.8,7.6,9,12.4,12.6"/>
	<path id="XMLID_1488_" class="st0" d="M453.9,469.7c2.3-4.6-0.5-8.7-2.1-12.4c-3.1-7-7.6-13.1-14.7-16.9"/>
	<path id="XMLID_1487_" class="st0" d="M422.2,437.6c-2.5-0.2-4.8-0.5-7.3-1.2c-4.1-1.1-8.4-2.3-12.9-1.8c-1.7,0.2-4.1,0.8-4.1-2.3"
		/>
	<path id="XMLID_1486_" class="st0" d="M223,1031.8c-11.7,2.9-22.7,1.8-32.7-5.7c-0.3-0.2-1.2,0.3-1.9,0.4"/>
	<path id="XMLID_1485_" class="st0" d="M353.6,657.4c2.1,10.8,1.1,21.8,2.9,32.6c0.1,0.6,0.3,1.3,0.5,1.9"/>
	<path id="XMLID_1483_" class="st0" d="M614.2,519.6c-7.9,10-17.4,18.1-28.3,24.5c-1.5,0.9-3,1.8-4.8,1.9"/>
	<path id="XMLID_1480_" class="st0" d="M161.6,194.2c4.9,0.6,8.7,3.4,12.9,6c-3.5,6.4-11.1,6.8-15.6,11.6
		c3.2,5.3,6.5,10.1,13.3,11.2c5.5,0.9,7.5,5.6,9.6,10"/>
	<path id="XMLID_1479_" class="st0" d="M296,722.2c-11.3,2.1-22.7,1.5-34.1,1"/>
	<path id="XMLID_1478_" class="st0" d="M720.8,497.6c4.2,3.5,8.2,3.1,12.5,0c6.2-4.4,13.4-7.2,19.7-11.5c3-2.1,6.4-0.6,10.6,2.3
		c8.7,6,13.2,14.8,17.2,24.1c1.1,2.6,2.4,4.8,4.4,6.7c2-0.8,4.2-1.3,4.8-3.8"/>
	<path id="XMLID_1477_" class="st0" d="M668.5,122.2c-3.8-0.7-6.1,2.2-8.6,4c-8.2,5.8-16.8,11-25,16.7"/>
	<path id="XMLID_1476_" class="st0" d="M691,422.2c0,5.8,1.9,11.2,2.7,16.8c1.1,7.9,5.5,13.5,10.4,19c-6.7,10.1-12,11.8-19.3,6.4"/>
	<path id="XMLID_1475_" class="st0" d="M381,145.7c-1.1-0.4-2-1-3.4-1c-11.5,0-23-0.3-34.6-0.4c-1.6,0-3.6-0.5-4.3,1.4
		c-1.9,4.9-4.6,9.5-5.5,14.9c3.7,1.7,7.8,1.8,11.2,3.8"/>
	<path id="XMLID_1473_" class="st0" d="M159.7,692c4.3-7.3,2-21.1-4.3-26.4c-1.7-1.4-3-1.2-4.9,0c-4.7,2.9-6.7,8.6-11.7,11.1
		c-0.8,9.7-8.8,16.3-10.7,25.5c-0.4,1.7-0.7,3.2-2.5,3.8"/>
	<path id="XMLID_1471_" class="st0" d="M310.4,562.4c-2.9-0.4-6.6-3.4-8.3-1.6c-1.9,2,0.4,6,1.4,8.8c1.7,4.7,2.4,10.1,6,14"/>
	<path id="XMLID_1470_" class="st0" d="M172.6,776.9c2.4,3.8,4.8,7.7,7.2,11.5c4.5,7.2,10.4,12.8,18.2,16.3"/>
	<path id="XMLID_1469_" class="st0" d="M585.9,198.5c-5.6,6.8-13.7,8.1-21.6,10.1c-3,0.8-5.9,2.4-9.1,1.4"/>
	<path id="XMLID_1468_" class="st0" d="M220.6,1005.9c-4.8,10.9-15,14.1-25,17.7c-1.4,0.5-2.7,1-3.8,1.9"/>
	<path id="XMLID_1467_" class="st0" d="M184.6,614.2c-4.7,6.8-7,14.8-10.5,22.1c-1.4,2.8-2.6,5.8-3.9,8.6"/>
	<path id="XMLID_1465_" class="st0" d="M271.5,399.2c-1.5,7.8-0.1,15.4,2.6,22.5c1.7,4.3,0.5,9.4,4.1,13"/>
	<path id="XMLID_1463_" class="st0" d="M503.4,668c0.1,10.6-3.1,20.4-7.7,29.8"/>
	<path id="XMLID_1462_" class="st0" d="M596,224.4c-0.6,3.9-2.1,7.6-3,11.5c-1.7,7.2,1,13.6,2.5,20.2"/>
	<path id="XMLID_1460_" class="st0" d="M191.4,155.3c-5,5.9-11.3,6.4-18.6,3.7c1.3,5.2,3.3,8.7,6.1,11.7"/>
	<path id="XMLID_1458_" class="st0" d="M655,687.2c-10.3-0.4-19,4.5-27.8,8.6c-0.3,0.1-0.6,0-1,0"/>
	<path id="XMLID_1457_" class="st0" d="M105.9,755.3c6.8,3.3,11.5,8.8,15.9,14.9c6.3,8.7,10.6,18.2,13.9,28.3"/>
	<path id="XMLID_1456_" class="st0" d="M405,609.4c2,1.3,0.1,1.9-0.5,2.9c-5.5,10-12.8,17.6-25,18.7"/>
	<path id="XMLID_1454_" class="st0" d="M283.5,395.3c-0.8,9.8,0.7,19.3,4.8,28.3"/>
	<path id="XMLID_1453_" class="st0" d="M465.4,63.6c-7.4,7.2-15.9,13.2-23.1,20.5c-1.4,1.4-2.5,2.5-2.8,4.4"/>
	<path id="XMLID_1452_" class="st0" d="M286.4,739c-1.7,4.5-5.6,7.2-8.8,10.4c-5.2,5.3-9.3,11.9-16.2,15.5"/>
	<path id="XMLID_1451_" class="st0" d="M511,37.7c-4.9,4.5-11.3,6.2-16.8,9.6c-3.4,2.1-7.3,3.2-10.1,6.3"/>
	<path id="XMLID_1450_" class="st0" d="M61.3,671.3c-1.1,4.6-1.9,9.3-2.7,14c-0.8,4.4-0.7,9.2,1.7,13.4"/>
	<path id="XMLID_1449_" class="st0" d="M89.6,621.9c-1.6,0.6-3.2,0.7-5-0.2c-5.6,8.7-11.3,17.3-16.5,26.2c-1.4,2.4-2.3,3.2-5.4,3.6
		c-7.2,0.8-14.3,3.1-21.1,5.6c-1.6,0.6-2.9,0.8-4.4-0.1"/>
	<path id="XMLID_1448_" class="st0" d="M443.4,367.5c0.8,9.1,0.5,18.2,0.5,27.4"/>
	<path id="XMLID_1447_" class="st0" d="M349.8,157.2c-6.3,11-14.6,20.8-21.2,31.6c-0.5,0.9-1.3,2.2-2.8,2"/>
	<path id="XMLID_1446_" class="st0" d="M440.5,63.6c-7.9,6-14.8,13-22.1,19.7c-1.4,1.3-1.7,2.9-1.9,4.6"/>
	<path id="XMLID_1445_" class="st0" d="M580.6,21.4c-6.4,3.7-13.4,5.9-20.1,8.7c-1.9,0.8-4.6,0.6-5.3,3.3"/>
	<path id="XMLID_1444_" class="st0" d="M254.2,634.4c1.6,5.6,1.8,11.7,6.1,16.4c2.8,3.1,5.8,5.7,9.7,7.1"/>
	<path id="XMLID_1442_" class="st0" d="M155.8,850.8c2.5-1,5.1-2,7.9-3.2c6.9,9.1,13.3,18.5,21.8,26.2"/>
	<path id="XMLID_1441_" class="st0" d="M272.5,399.2c0.8,1.7,1.1,3.4,1.5,5.3c2,9.5,7.8,16.1,15.8,21.1"/>
	<path id="XMLID_1440_" class="st0" d="M397.3,433.5c-12,0.6-20.3,7.8-28.3,15.6"/>
	<path id="XMLID_1438_" class="st0" d="M542.2,47.8c-0.6,2.5-3,2.9-4.8,3.8c-7,3.5-13.7,7.3-18.7,13.5"/>
	<path id="XMLID_1437_" class="st0" d="M43,575.3c-1.2,2.9,1.2,4.3,2.4,6.2c7.5,11.3,14.6,22.8,19.7,35.5c1,2.4,1.2,4.8,1.9,7.2"/>
	<path id="XMLID_1436_" class="st0" d="M300.3,616.6c2.2,2.9,3.1,6.5,4.1,9.7c2.1,6.6,6.4,8.7,12.7,8.6"/>
	<path id="XMLID_1435_" class="st0" d="M413.1,386.2c-8.4-0.2-16.6,1.3-25,1.4"/>
	<path id="XMLID_1434_" class="st0" d="M346.9,164.4c20.4,5.6,41.2,4.1,61.9,4.3c3.1,0,6.3-0.2,9.1,1.4"/>
	<path id="XMLID_1433_" class="st0" d="M434.2,561.4c-3.7-0.2-5.1,3.3-7.6,5c-5.4,3.8-11.1,6.7-17.4,8.5"/>
	<path id="XMLID_1431_" class="st0" d="M324.8,611.3c1,3.3,4.1,4.9,6.3,7.2c5.5,5.7,11.3,11.1,16.3,17.3"/>
	<path id="XMLID_1430_" class="st0" d="M433.3,735.6c-8.2,0-16.3,0-24.5,0"/>
	<path id="XMLID_1429_" class="st0" d="M525,43.5c-8,5-16.6,8.9-24,14.9"/>
	<path id="XMLID_1428_" class="st0" d="M225,810c-2.6,0.3-3.6,2.4-4.8,4.3c-4.1,6.3-8.3,12.5-12.5,18.7"/>
	<path id="XMLID_1427_" class="st0" d="M284,993.4c-8.6,6.2-14.6,15.2-23.5,21.1"/>
	<path id="XMLID_1425_" class="st0" d="M721.3,464.4c-4.4,1.7-9.1,2.4-13.4,4.3c-4.9,2.2-8.4,6.4-13.1,9.6
		c-2.5-3.3-2.8-7.5-5.1-10.5"/>
	<path id="XMLID_1424_" class="st0" d="M750.1,488.9c0.5,5.2-3.5,8.9-4.8,13.4c-0.7,2.3-1.9,4.5-2.8,6.7c-0.9,2.2-1.3,4.5,0.9,6.2"
		/>
	<path id="XMLID_1423_" class="st0" d="M165.9,142.4c5.6,5,11.5,9.5,19.7,9.1c1.4-0.1,2.3,1.6,3.8,1"/>
	<path id="XMLID_1422_" class="st0" d="M226.4,948.8c-7,0.6-13.2-2.1-19.3-5.4c-2,0.4-2.7,2.4-4.2,3.4"/>
	<path id="XMLID_1420_" class="st0" d="M377.6,151.5c2.6-6.1,6.8-6.5,13-5.5c12.2,2,24.4,4.2,36.5,6.9c1,0.2,1.4,1.1,2.4,1"/>
	<path id="XMLID_1418_" class="st0" d="M442.4,367.5c-3.3,5.4-4.2,11.6-6.6,17.3c-0.7,1.7-1.2,3.6-2,5.2"/>
	<path id="XMLID_1417_" class="st0" d="M176.5,841.2c5,7.2,7.5,15.8,13.8,22.2c1.2,1.2-0.6,3.5-1.4,5.1c-3.4,7.2-7.1,14.4-10.5,21.6
		c-2.8,6.1-6.1,11.8-8.2,18.2"/>
	<path id="XMLID_1416_" class="st0" d="M217.3,195.6c-7.2,6.7-12.7,14.6-18.2,22.6"/>
	<path id="XMLID_1415_" class="st0" d="M182.2,450.5c1.1,7.5,2.2,15,3.4,22.6"/>
	<path id="XMLID_1414_" class="st0" d="M483.2,30.5c-7.6,5.1-15.5,9.8-21.6,16.8"/>
	<path id="XMLID_1413_" class="st0" d="M648.3,168.3c4.6,2.2,9.7,2.4,14.5,4.2c6.6,2.4,9.5,8,12.8,13.2
		c6.6,10.2,11.4,21.4,15.6,32.7c2.1,5.7,3.4,12.2,3.7,18.6c0.1,1.1,0.3,2.1,1,2.9"/>
	<path id="XMLID_1412_" class="st0" d="M316.6,615.2c0.7,7.4,0.9,14.7,1.8,22.1c0.6,5.3,0.1,10.9-0.5,16.3c-0.2,1.6,0.1,2.6,0.6,3.9
		"/>
	<path id="XMLID_1411_" class="st0" d="M422.7,164.9c-2.8,4.4-6.4,8.2-8.7,12.9c-5.8,12-14.2,22.3-22.5,32.7"/>
	<path id="XMLID_1410_" class="st0" d="M21,641.1c1.4,11.7,1.5,23.5,4.2,35.1c0.4,1.9,1.2,3.1,2.5,4.3"/>
	<path id="XMLID_1409_" class="st0" d="M426.6,159.2c0.5-0.6,1-1.3,1.4-1.9c3.8-5.4,3.9-4.9,8.7-0.9c-1.2,2.2-2,4.5-3.3,6.7
		c-4,6.6-4.8,7.2-12.6,5.7"/>
	<path id="XMLID_1408_" class="st0" d="M246.6,387.4c-12.7-0.3-24.2,3.8-35.5,8.8c-0.6,0.3-1.5-0.1-1.4,1"/>
	<path id="XMLID_1407_" class="st0" d="M135.7,654c1.3,3.2,0.4,6.4,0,9.6c-0.5,4.2-0.4,8.4,2.4,12"/>
	<path id="XMLID_1405_" class="st0" d="M92,688.6c7.6,6.5,12.6,15,18.2,23.1c3,4.3,3.1,9,1,13.9c-3,7.1-4.5,14.5-5.8,22.1"/>
	<path id="XMLID_1404_" class="st0" d="M49.3,675.6c-4.6,2.2-9.4,4.3-13.9,6.8c-2.4,1.3-4.4,1.3-6.8,0.4"/>
	<path id="XMLID_1403_" class="st0" d="M348.3,636.8c1.4,3.9,5.3,4.7,8.2,6.7c3.7,2.7,8.5,4,10.6,8.6"/>
	<path id="XMLID_1402_" class="st0" d="M254.7,421.2c6.4,0.9,12.4,2.7,17.2,7.2c1,1,2,0.9,3.2,0.9"/>
	<path id="XMLID_1401_" class="st0" d="M70.9,688.6c-3.8,3.6-6.5,8.2-11.4,11.3c2.9,5,3.4,11.1,7.6,15.6c4.1,4.5,7.5,4.6,13.1,1.5
		c5.5-3,8.3-8.7,13.7-11.9c2.7-1.6,5.6-2.2,8.3-3.6"/>
	<path id="XMLID_1400_" class="st0" d="M699.2,378c0,6.7,0,13.4,0,20.2"/>
	<path id="XMLID_1399_" class="st0" d="M767.8,494.2c-1.4,3-2.7,6.2-4.4,9.1c-2.2,4.1-5.5,7.3-9.6,9.6"/>
	<path id="XMLID_1398_" class="st0" d="M93.4,655c-6.8,2.4-12.7,6.7-19.7,8.6"/>
	<path id="XMLID_1396_" class="st0" d="M84.3,739.5c6.6,4.3,13.1,8.6,19.7,13"/>
	<path id="XMLID_1395_" class="st0" d="M232.6,956.9c2.6,6.4,5.7,12.6,7.7,19.2"/>
	<path id="XMLID_1394_" class="st0" d="M367,653.1c2.2,6.5,3.4,13.3,7.2,19.2"/>
	<path id="XMLID_1393_" class="st0" d="M433.3,441.4c0.1,2.7,1.4,5,3.4,6.7c6,5.1,9.2,12.2,13.8,18.3c2.2,2.9,5.7,5.3,5.8,9.5"/>
	<path id="XMLID_1392_" class="st0" d="M59.4,701.6c-6,4.7-11,10.9-18.2,13.9"/>
	<path id="XMLID_1391_" class="st0" d="M76.2,597.4c-4.9,1.3-10-0.3-14.9,0.9c-1.1,0.3-2.3,0.4-3.3,1"/>
	<path id="XMLID_1390_" class="st0" d="M389.1,422.2c-6.8,0.8-13.2,2.7-18.2,7.7"/>
	<path id="XMLID_1389_" class="st0" d="M138.1,678c-2.7,0.5-4.9,1.7-6.8,3.8c-3.2,3.5-6.6,6.7-11,8.7"/>
	<path id="XMLID_1387_" class="st0" d="M187.5,165.9c-0.1,7.4,1.3,14.7,1,22.1"/>
	<path id="XMLID_1386_" class="st0" d="M69,720.3c-5.4,5.1-10.9,10.2-16.3,15.4"/>
	<path id="XMLID_1385_" class="st0" d="M504.8,75.2c-2.7,5.3-8.4,7.6-12.1,11.9c-1.1,1.3-2.7,2.2-3.3,3.9"/>
	<path id="XMLID_1384_" class="st0" d="M65.1,652.1c-1.2,4.9-3.4,9.6-3,14.9c0.1,1.5,0.3,4.1-3.2,4.1c-1.8,0-3.7,2.1-5.8,2.7"/>
	<path id="XMLID_1383_" class="st0" d="M213,531.2c4.4,2,6.6,6.6,11,8.8c1.9,1,3.9,2.1,5.8,3.2"/>
	<path id="XMLID_1381_" class="st0" d="M398.7,432.3c8.1-3.3,16.1-2.1,24,1c1.6,0.6,2.1,2.1,2.9,3.4"/>
	<path id="XMLID_1380_" class="st0" d="M88.6,708.3c-5-0.8-7.7,3.5-11.4,5.5c-1.5,0.8-4.1,1.8-3.9,4.6"/>
	<path id="XMLID_1379_" class="st0" d="M604.2,185.6c-5.3-2.1-10.5-4.5-16.3-4.8"/>
	<path id="XMLID_1378_" class="st0" d="M83.4,622.8c-3.5-2.4-7.2-0.4-10.5,0.2c-6.2,1.2-12.3,3.5-18.2,5.7c-1.4,0.5-2.3-0.4-3.4-0.1
		"/>
	<path id="XMLID_1377_" class="st0" d="M481.3,376.1c0.2,6.3,2.8,12.1,3.8,18.2"/>
	<path id="XMLID_1375_" class="st0" d="M485.1,764c0.7,4.7,3.1,8.7,4.8,13c0.4,1.1,1,2.1,0.9,3.4"/>
	<path id="XMLID_1373_" class="st0" d="M180.8,239.8c-2.7,4.4-3.2,9-1.5,13.9c0.6,1.9,1.8,4,0.5,6.2"/>
	<path id="XMLID_1371_" class="st0" d="M180.8,187c-9.7-2.6-12-2.8-17.3,6.7"/>
	<path id="XMLID_1370_" class="st0" d="M156.8,671.3c-4.5,5-8.2,10.6-13,15.4"/>
	<path id="XMLID_1369_" class="st0" d="M88.2,631c-6.2,8.1-12,16.4-14.9,26.4c-0.1,0.4-0.5,0.6-0.4,1c1.7,8.7-5.5,8.5-10.5,10.6"/>
	<path id="XMLID_1365_" class="st0" d="M690.1,183.2c-2.2,2.8-2.6,6.4-3.8,9.6c-0.7,1.9-1.1,4-2.9,5.3"/>
	<path id="XMLID_1364_" class="st0" d="M93.9,644.4c-4,0.8-8,1.5-12,2.5c-1.2,0.3-2,0.3-2.9-0.5"/>
	<path id="XMLID_1362_" class="st0" d="M379.5,657.4c-2.2-0.1-4.1-1.2-5.7-2.5c-3.6-3-6.9-2.6-11.2-1.1c-5.5,2-11.1,4.1-17.2,4.2
		c-5,0.1-9.5-1.4-13.9-3.1c-2.1-0.8-4.2-1.3-6.3-1.8c-2.4,1.5-4.3,3.9-7.2,4.8c-1.6,0.5-1.5,2-1.4,3.3"/>
	<path id="XMLID_1360_" class="st0" d="M359.8,879.2c-2.2,4.7-0.4,9.6-0.5,14.4"/>
	<path id="XMLID_1359_" class="st0" d="M119.4,693.4c-2.1-0.7-3.8,0.7-5.2,1.5c-2.9,1.7-6.1,2.9-9.2,4.2"/>
	<path id="XMLID_1358_" class="st0" d="M130.4,811c-3.2,4.3-6.1,8.8-7.7,13.9"/>
	<path id="XMLID_1356_" class="st0" d="M90.6,716.4c0,4.6,0,9.3,0,13.9"/>
	<path id="XMLID_1354_" class="st0" d="M723.7,523.5c-4.5,2.6-8.6,6.1-13.9,7.2"/>
	<path id="XMLID_1353_" class="st0" d="M674.2,164.9c-0.2,3.2-0.5,6.4-0.4,9.6c0,2.2-1.4,2.7-2.9,3.4"/>
	<path id="XMLID_1349_" class="st0" d="M264.3,393.4c-3.2-1.1-6.4-2.4-9.6-3.3c-1.3-0.4-3-1.3-4.3,0.4"/>
	<path id="XMLID_1347_" class="st0" d="M218.2,934.8c4.5,5.9,8.4,12.1,12.5,18.2"/>
	<path id="XMLID_1346_" class="st0" d="M228.3,567.2c-1.3-0.2-2.5-0.1-3.9-0.8c-3.5-1.7-7.1-3.2-11-4"/>
	<path id="XMLID_1344_" class="st0" d="M560.5,211.5c4.5,1.6,9,3.2,13.4,4.8"/>
	<path id="XMLID_1343_" class="st0" d="M344,884.4c-3.1,4.1-7.5,7.3-8.2,13"/>
	<path id="XMLID_1340_" class="st0" d="M261.9,165.4c-8,4-16.2,7.7-23.5,13"/>
	<path id="XMLID_1339_" class="st0" d="M518.7,11.8c0.1,3.4-3,2.8-4.8,3.8c-2,1.3-4.8,1.5-5.8,4.3"/>
	<path id="XMLID_1338_" class="st0" d="M201.9,948.8c-4.1,4.1-8.3,8.1-11.5,13"/>
	<path id="XMLID_1337_" class="st0" d="M142.9,778.4c-4.3,1.6-8.7-1.3-13,0.5"/>
	<path id="XMLID_1335_" class="st0" d="M802.4,462c-2.7,3.3-7.1,4.1-10.2,7.1c-1.5,1.5-3.6,2.5-4.7,4.4c2.2,5.1,8.2,7,10.5,12"/>
	<path id="XMLID_1334_" class="st0" d="M587.8,250.8c-0.2,4.7,2.9,8.3,4.4,12.6c-2.6,1.8-5.8,1.7-8.7,2.7"/>
	<path id="XMLID_1332_" class="st0" d="M457.8,416c2.1,3.7,2.7,7.9,3.4,12"/>
	<path id="XMLID_1331_" class="st0" d="M409.3,455.8c-2.1-0.5-3.8,0.8-5.8,0.9c-2.2,0.1-4.5,0.5-6.2-1.4"/>
	<path id="XMLID_1319_" class="st0" d="M800,464.9c0.5,0.8,0.6,1.8,0,2.4c-3.8,3.7-5.4,8.2-4.8,13.5"/>
	<path id="XMLID_1318_" class="st0" d="M700.2,411.6c1,3.5,1.9,7,2.9,10.6"/>
	<path id="XMLID_1316_" class="st0" d="M384.3,391c-4.3-0.5-7.2,2.5-10.6,4.3"/>
	<path id="XMLID_1312_" class="st0" d="M561,227.3c3.2,3.5,6.4,7,9.6,10.6"/>
	<path id="XMLID_1311_" class="st0" d="M699.7,208.6c-4.3,1.6-4,7-7.7,9.1"/>
	<path id="XMLID_1308_" class="st0" d="M55.5,598.8c-3.3,1.2-7,1-10.1,2.9"/>
	<path id="XMLID_1306_" class="st0" d="M110.7,714c-5.4,1.3-10.7,2.7-16.3,2.9"/>
	<path id="XMLID_1305_" class="st0" d="M772.2,466.4c0.5,3.2,1,6.4,0,9.6"/>
	<path id="XMLID_1304_" class="st0" d="M33.4,661.2c-3.6-1.2-6.3,1.5-9.6,1.9"/>
	<path id="XMLID_1303_" class="st0" d="M238.4,947.8c-2.9,2.2-6.6,0-9.6,1.4"/>
	<path id="XMLID_1300_" class="st0" d="M771.2,535.5c3.5,1.6,5.9,4.8,9.1,6.7"/>
	<path id="XMLID_1299_" class="st0" d="M23.8,674.2c-3.2-0.1-6.2,0.8-9.1,1.9"/>
	<path id="XMLID_1296_" class="st0" d="M100.2,716.9c1.5,2.5,1.3,5.4,1.9,8.2"/>
	<path id="XMLID_1295_" class="st0" d="M819.2,425.1c-2,2.3-0.4,5.1-1,7.7"/>
	<path id="XMLID_1294_" class="st0" d="M260.5,454.8c-2.9-0.5-4.8,2.5-7.7,1.9"/>
	<path id="XMLID_1293_" class="st0" d="M110.2,726c-2.1-1.3-4.6-1.4-6.7-0.8c-3.1,0.9-6.1,0.8-9.2,0.8"/>
	<path id="XMLID_1292_" class="st0" d="M186.6,170.2c-6.5-0.4-11.3,2.5-15.4,7.2"/>
	<path id="XMLID_1291_" class="st0" d="M102.1,726c0.9,2.3,1.1,4.7,1,7.2"/>
	<path id="XMLID_1289_" class="st0" d="M68,649.2c2.3,1.5,4.9-1,7.2,0.5"/>
	<path id="XMLID_1288_" class="st0" d="M816.3,438.5c-0.6,2.9-3.1,4.6-4.3,7.2"/>
	<path id="XMLID_1287_" class="st0" d="M33.4,703.5c-2.2,1.3-4.6,2.1-7.2,2.4"/>
	<path id="XMLID_1284_" class="st0" d="M557.1,248.4c-0.1,2.5,1.6,4.4,1.9,6.7"/>
	<path id="XMLID_1282_" class="st0" d="M74.2,737.1c-1.6,2.1-3.2,4.3-4.3,6.7"/>
	<path id="XMLID_1281_" class="st0" d="M99.7,709.2c-0.5,2.4,1.2,4.4,1,6.7"/>
	<path id="XMLID_1279_" class="st0" d="M416,587.3c-0.4,3-4.2,3-4.8,5.8"/>
	<path id="XMLID_1277_" class="st0" d="M449.6,99.6c-1.6,1.7-3.7,3.1-3.8,5.8"/>
	<path id="XMLID_1276_" class="st0" d="M193.3,212c1.4,1.9,2.9,3.8,4.3,5.8"/>
	<path id="XMLID_1274_" class="st0" d="M586.4,247.5c1.2,3.8,5.1,4.5,7.7,6.7"/>
	<path id="XMLID_1273_" class="st0" d="M560,257.1c-0.1,2.2,0.6,4,2.4,5.3"/>
	<path id="XMLID_1272_" class="st0" d="M477.4,100.6c-1.8,1.6-4.1,2.7-4.8,5.3"/>
	<path id="XMLID_1271_" class="st0" d="M271.5,392.4c0.2,1.9,0.3,3.8,0.5,5.8"/>
	<path id="XMLID_1266_" class="st0" d="M161.6,663.2c-1.5,1.1-1.1,3.7-3.4,4.3"/>
	<path id="XMLID_1265_" class="st0" d="M434.2,90c0.3,2.3-2.4,2.9-2.9,4.8"/>
	<path id="XMLID_1264_" class="st0" d="M546.6,399.2c-0.6,1.8,1.6,3,1,4.8"/>
	<path id="XMLID_1262_" class="st0" d="M121.3,752.4c-1.7-0.5-2.9-2.1-4.8-1.9"/>
	<path id="XMLID_1261_" class="st0" d="M189.4,189.9c0,1.6,0,3.2,0,4.8"/>
	<path id="XMLID_1260_" class="st0" d="M618.1,514.4c0,2.1-2.4,2.5-2.9,4.3"/>
	<path id="XMLID_1258_" class="st0" d="M108.8,748.6c-2.7-0.6-5.4-1.6-8.2-0.5"/>
	<path id="XMLID_1256_" class="st0" d="M289.8,534.5c1.2,0.7,2.8,0.4,3.8,1.4"/>
	<path id="XMLID_1255_" class="st0" d="M485.1,92.4c-0.5,1.5-1.3,2.8-2.9,3.4"/>
	<path id="XMLID_1254_" class="st0" d="M720.3,531.6c-1.5-0.5-2.4,1.4-3.8,1"/>
	<path id="XMLID_1253_" class="st0" d="M519.7,34.4c-1.8,0-2.7,1.3-3.8,2.4"/>
	<path id="XMLID_1252_" class="st0" d="M771.2,540.3c0.4,1.7,2.5,2.2,2.9,3.8"/>
	<path id="XMLID_1251_" class="st0" d="M400.6,101.6c-1.2,1-1.6,2.3-1.4,3.8"/>
	<path id="XMLID_1249_" class="st0" d="M501.9,20.4c-0.5,1.7-1.9,2-3.4,2.4"/>
	<path id="XMLID_1248_" class="st0" d="M357.9,145.2c0.6,1.6-1.3,2.1-1.4,3.4"/>
	<path id="XMLID_1247_" class="st0" d="M409.8,92.4c-1.1,1.1-2.2,2.2-3.4,3.4"/>
	<path id="XMLID_1246_" class="st0" d="M188,942c1.4-0.2,2.5,0.4,3.4,1.4"/>
	<path id="XMLID_1245_" class="st0" d="M444.8,60.3c-1.1,0.8-2.2,1.6-3.4,2.4"/>
	<path id="XMLID_1244_" class="st0" d="M173.1,180.3c1.1,1.1,2.2,2.2,3.4,3.4"/>
	<path id="XMLID_1243_" class="st0" d="M562.4,39.2c-1,0.8-1.8,2-3.4,1.9"/>
	<path id="XMLID_1242_" class="st0" d="M478.4,1019.3c1,0.6,1.9,1.3,2.9,1.9"/>
	<path id="XMLID_1241_" class="st0" d="M523.5,597.9c0.5,1.2-1.5,1.6-1,2.9"/>
	<path id="XMLID_1240_" class="st0" d="M206.7,835c-1.2,0.6-0.7,2.3-1.9,2.9"/>
	<path id="XMLID_1239_" class="st0" d="M405.9,151c-0.5,0.8-1,1.6-1.4,2.4"/>
	<path id="XMLID_1238_" class="st0" d="M453.9,789.4c2.2-2,2.5-0.1,2.9,1.4"/>
	<path id="XMLID_1235_" class="st0" d="M551.4,44.9c-0.5,0-1.1-0.1-1.4,0.5"/>
	<path id="XMLID_1234_" class="st0" d="M424.6,100.6c-0.5,0.5-1,1-1.4,1.4"/>
	<path id="XMLID_1233_" class="st0" d="M134.7,804.3c-0.5,0.5-1,1-1.4,1.4"/>
</g>
</svg>
