<?xml version="1.0" encoding="utf-8"?>
<!-- Generator: Adobe Illustrator 19.0.0, SVG Export Plug-In . SVG Version: 6.00 Build 0)  -->
<svg version="1.1" id="Layer_1" xmlns="http://www.w3.org/2000/svg" xmlns:xlink="http://www.w3.org/1999/xlink" x="0px" y="0px"
	 viewBox="0 0 684.1 1131.8" style="enable-background:new 0 0 684.1 1131.8;" xml:space="preserve">
<style type="text/css">
	.st0{fill:none;stroke:#000000;stroke-width:2;stroke-linecap:round;stroke-linejoin:round;stroke-miterlimit:10;}
</style>
<g id="XMLID_40_">
	<path id="XMLID_1355_" class="st0" d="M601.2,526.3c5.4,7.2,11.5,13.8,17.4,20.5c19.3,22.2,32.3,47.5,40.7,75.5
		c5.1,17,8.6,34.2,11.2,51.8c3.1,21.9,4.7,43.7,4.8,65.8c0.1,34.7-10.8,65-33.6,91.2c-16.9,19.5-36.4,35.5-59,48.1
		c-14.2,7.9-26.9,18.2-40.3,27.3c-1.7,1.2-3.7,1.7-5.3,2.8"/>
	<path id="XMLID_1354_" class="st0" d="M523.9,207.6c1.5-20.5-3.4-40.2-7.6-60c-3.7-17.3-8.8-34.1-16.9-49.9
		C493,85.1,486.2,72.7,478,61.4c-7.2-9.9-17.7-16.9-28-23.7c-17.7-11.7-37.6-17.7-58-22.7c-14.6-3.5-29.4-6.4-44.2-7.7
		c-12-1.1-24.2-1.9-36.5-1c-9.3,0.6-18.6,1-27.8,2.3c-11.5,1.7-22.6,5.1-33.7,8.8c-29.5,9.7-54.8,26.6-78.5,45.9
		c-8.4,6.8-13.8,16.6-18.9,26.2"/>
	<path id="XMLID_1353_" class="st0" d="M125.5,568.6c4.2,0.2,7.8-2,11.5-3.4c5.9-2.3,11.6-5,17.3-7.7c1.7-0.8,2.7-0.5,3.9,1
		c3.8,4.9,6,10.5,7.7,16.3c0.8,2.6,0.7,5.5,2.8,7.7c1.7,1.7,0.2,3.9-0.1,5.7c-2.3,12.5-4.9,25-7.7,37.4c-0.3,1.5,0.2,2.6,0.1,3.8
		c16.6,0.3,33.2-0.2,49.5-4.7c22.3-6.2,44.2-13.3,65.7-21.8c12.2-4.8,23.9-10.7,35.5-17.6c-4.3-6.6-6.3-13.8-7.7-21.2
		c-3.7-20.9-2.2-41,6.7-60.5c6.7-14.6,14.6-28.4,22.7-42.9c-13-4.7-26.4-8.3-39.9-11.8"/>
	<path id="XMLID_1352_" class="st0" d="M391.9,413c1.9-0.1,2.8,1.3,3.8,2.4c18.2,19.9,36.6,39.7,51.3,62.4
		c5.6,8.7,10.6,17.8,15,27.3c9.8,21.4,18,43.4,23.4,66.3c6.1,25.4,12.1,50.7,17.4,76.3c3.6,17.5,7.7,34.9,11.4,52.4
		c0.4,2.1,1,3.1,3,3.4c-0.6,3.5-2.7,6.5-3.5,10c-1.3,5.2-4.2,8.6-10.4,9.9c-10.4,2.2-20.5,5.9-30.8,8.8c-1.4,0.4-3.2,1.3-4.8,0.1"/>
	<path id="XMLID_1351_" class="st0" d="M509.5,323.8c3,3.2,7.2,4.1,11,5.8c22.2,10,36.4,27.8,47.4,48.5c12.3,23.1,19.8,48,22.4,73.9
		c1.4,14.4,0.3,29.1,0.2,43.7c0,1.8-0.9,3.5-1.4,5.3"/>
	<path id="XMLID_1350_" class="st0" d="M16,43c6.8,3,14.2,4.5,21.2,7c12.4,4.5,25,8.5,37.4,13.1c14.7,5.5,29.8,10.2,44.6,15.5
		c31.7,11.1,63.4,22.4,95,33.6c2.2,0.8,4.4,2,6.7,2.3c8.4,1.1,12.2,6.6,15,14c4.4,11.9,4.6,24.2,5,36.5c0.1,1.5-0.9,4-3.7,3.3
		c-2.2-0.5-3.4,1.5-5.3,2c-13.6,3.6-26.3,9.3-38.8,15.5c-2.6,1.3-4.5,1.3-6.3-0.2c-11.2-9.4-23.1-17.9-34.8-26.6
		c-9.4-7-19.4-13.3-29.1-19.9c-1.2-0.8-2.7-1.1-2.9-2.9"/>
	<path id="XMLID_1349_" class="st0" d="M487.4,940.6c-5.3,4.6-7.8,11.1-11.5,16.8c-8.3,12.9-12.6,27.4-15.3,42.2
		c-4.1,22.7,1.8,43.2,15.7,61.4c13.7,17.9,31.2,31.3,51.4,41.3c0.9,0.4,1.7,1.3,2.9,0.5"/>
	<path id="XMLID_1348_" class="st0" d="M509.5,722.2c-0.1,6-3.1,11.3-4.9,16.8c-4.4,13.4-8.7,27-11.2,40.9
		c-2.9,16.1-5.1,32.5-3.9,48.9c1.3,17.4,2.7,34.7,5.9,51.9c0.9,5.1,3,10.3,1.7,15.8c-0.3,1.3,0.4,2.1,1.9,2.4
		c9.6,2.2,18.5,6.7,28.3,8.2c2.9,0.4,5.8,1,8.4,0.9c2,3.4-0.4,5.8-1.3,8.1c-2.7,6.8-4.5,13.4-2.3,20.7c0.4,1.3,0.3,2.9-0.4,4.3"/>
	<path id="XMLID_1347_" class="st0" d="M367.9,595c-2.9-8.6-4.9-17.5-5-26.4c-0.1-4.6,2.8-9.3,4.5-13.9c2.3-5.9,3.7-12.3,8.1-17.3
		c3.6-4.2,7.3-8,13.5-8.3c1.9-0.1,4.2-0.2,4.6,1.2c0.5,1.8,0.7,4.1-0.6,6.2c-1.4,2.3-3.3,1.1-4.9,1.3c-1.2,0.1-1.9-1.6-3.4-1.4
		c-0.5,4.4,1.3,7.5,4.8,8.2c4.6,0.9,6.2-0.4,8.3-4.7c1.6-3.2,1.4-6.4,1.3-9.7c-0.1-3.1-3.7-5.6-8.1-6.3c-13.6-2-20,1.7-27,14.8
		c-1.6,3-1.8,6.8-4.7,9.2"/>
	<path id="XMLID_1346_" class="st0" d="M174.4,702.5c0.8,3.5,1.2,7.1,2.4,10.6c0.7,2.1-0.3,4.3-1,6.2c-7.3,20.6-14,41.4-21.5,62
		c-7.6,21-14.4,42.3-22.2,63.3c-8.5,23.1-20.5,44.1-37.8,62c-8.9,9.3-19.8,16-29.4,24.3c-0.7,0.6-1.9,0.7-2.8,1"/>
	<path id="XMLID_1345_" class="st0" d="M404.4,248.4c1.4-8.2-0.1-16.3-0.6-24.5c-1.2-19.9-6.6-38.9-13.4-57.6
		c-4.5-12.4-9-24.9-17.8-35c-10.3-11.9-23.8-19.4-37.9-25.9c-1.9-0.9-3.5-2.4-5.7-2.4"/>
	<path id="XMLID_1344_" class="st0" d="M316.5,861.4c-2.9-2.7-1.8-6.5-2.2-9.6c-1.7-13.8-6-26.8-11.8-39.3
		c-6.7-14.4-14.6-16.1-28.2-15.4c-4.4,0.2-8.8,1.3-12.9,2.9c-9.4,3.6-12.8,11.9-15.3,20.6c-0.6,2.1-1.2,4.3-1.2,6.7
		c0,10.5,5.4,15.9,15.9,15.3c2.6-0.1,5.4-0.1,8-2.1c-2.7-3.8-4.7-7.9-5.1-12.7c-0.4-5.2,1.7-7.1,6.8-5.8c14.8,4.1,22.5,13.3,24,28.3
		c1,9.6,2.8,19.1,2.3,28.8c-0.4,6.7-0.1,13.5-1.8,20.2"/>
	<path id="XMLID_1343_" class="st0" d="M118.8,898.3c-7.7,13.8-15.2,27.6-23.1,41.2c-2.2,3.8-3.9,8-6.6,11.6c-2.2,3-1,4.5,2.8,5.3
		c10.7,2.2,21.5,4.3,31.7,8.6c5.9,2.5,11,6.2,16.3,9.7c5.9,3.9,11.8,7.6,18.3,10.5c7.9,3.5,16.5,4,24.9,3.3
		c10.3-0.9,20.6-2.4,30.3-6.6c3.9-1.7,7.6-3.7,11.5-5.3c5.9-2.3,7.9-6.9,7.6-12.5c-0.6-10.9,1-21.7,1.1-32.6
		c0.2-19.2,1.3-38.4,0.9-57.6c-0.3-14.9-0.8-29.8-0.9-44.6c0-5.7,0.4-11.5,0.4-17.3"/>
	<path id="XMLID_1342_" class="st0" d="M536.8,979.4c-0.4,1.1-0.4,2.1-0.1,3.4c6.7,23.8,16.8,46.2,28.9,67.7
		c5.4,9.6,7.6,20,6.1,30.7c-2.1,14.2-6.2,27.9-13.8,40.3c-0.5,0.8-1.1,1.4-0.9,2.4"/>
	<path id="XMLID_1341_" class="st0" d="M10.8,298.3c3.2,2.1,7.2,1.6,10.6,2c9.7,1.3,19.4,2.6,29.2,3.4c17.9,1.5,35.9,0.1,53.8,0.8
		c15.2,0.6,30.4,1,45.6,2.4"/>
	<path id="XMLID_1340_" class="st0" d="M457.6,224.4c14.9-7.1,30.5-11.6,47-13.6c9-1.1,18-2.2,26.9-3.5c5.7-0.8,11.5-1.2,17.3-1.4
		c5.6-0.2,11.1-2,17.6-0.6c-6,6.3-11.9,11.9-18.1,17.3c-15.3,13.6-30.4,27.4-47.1,39.3c-12.6,8.9-26.8,14.1-41.3,18.7
		c-8.6,2.7-17.3,4.8-25.9,7.3c-1.2,0.4-2.3,0.1-3.4,0.4"/>
	<path id="XMLID_1339_" class="st0" d="M130.8,191.8c-1.9,2.5-1.1,5.5-0.9,8.2c1.2,13.1,2.2,26.2,6,38.9c2.8,9.4,7.3,17.8,13.2,25.3
		c5.9,7.5,11.6,15.4,19.4,21.4c3.6,2.8,3.5,8,4.4,12.3c2,9.4,0,18.6-1.3,27.9c-1,7.7-2.4,15.6-0.2,23.5
		c3.4,12.3,11.6,20.4,22.2,26.3c12.9,7.3,26.8,11.8,41.7,13.6c13.3,1.6,26.5,2.1,39.9,2.3c27.6,0.3,52.4-8.3,75.4-23
		c0.5-0.3,0.6-0.6,0.5-1"/>
	<path id="XMLID_1338_" class="st0" d="M239.2,238.8c1.8-9.4,5.6-18.2,8.4-27.3c4.5-14.8,7.2-29.8,5.9-45.2
		c-1.4-16.2-5.2-32.1-10.5-47.5c-2.3-6.7-3.6-7.2-11-7.2c-1,0-1.9,0-2.9,0"/>
	<path id="XMLID_1337_" class="st0" d="M119.7,141.8c-9,7.2-18.7,13.5-27.3,21.1c-7.6,6.7-15.5,13-20.7,22
		c-6.6,11.5-6.7,23.9-4.8,36.5c2.4,16,8.1,30.2,19.5,42.4c10,10.7,21,20,32.4,29c0.7,0.5,1.9,1.6,3.3,1.1"/>
	<path id="XMLID_1336_" class="st0" d="M470.1,114c0.4,5.9,2.3,11.5,3.4,17.3c3.1,15.8,4,31.6,1.9,47.5c-2.2,16.4-10,30.2-19.6,43.2
		c-6.5,8.8-12.9,17.7-18.3,27.3"/>
	<path id="XMLID_1335_" class="st0" d="M374.1,1019.3c3.8,18.4,2,36.5-3.8,54.2c-2.7,8.1-9.4,10.9-16.8,12.3
		c-1.9,0.4-3.9,0.7-5.7,1.2c-11.2,2.8-15.3-6-20.6-12.6c-6.6-8.2-10.2-17.9-14.4-27.3c-0.8-1.8-0.8-3.8-0.1-5.8
		c1.6-4.1,3.6-8.1,5.7-12.3c7.8,5,9.2,13.4,12,21"/>
	<path id="XMLID_1334_" class="st0" d="M162,290.6c-3.2,6.3-6.9,12.5-11.7,17.6c-4.4,4.8-9.9,6.6-17.2,5.2
		c-11.9-2.4-24.2-3-36.4-2.1c-8,0.6-16.1,1-24.1,3.1c-9.3,2.4-16.3,7.2-22,14.6c-4.9,6.4-8.6,13.6-12.4,20.7
		c-0.4,0.7-0.8,1.9-0.1,2.8"/>
	<path id="XMLID_1333_" class="st0" d="M548.8,543.6c-2.4,8.7,2.3,16.2,4.5,23.9c1.4,5,3.3,10.1,5.2,15.1c1.4,3.9,0.6,8.9,1.3,13.3
		c2.4,14.5-3.8,27-9.7,39.3c-10.8,22.5-22.3,44.5-32.6,67.2"/>
	<path id="XMLID_1332_" class="st0" d="M306.4,182.6c2.8,5.7,8.1,8.8,13,11.9c16.4,10.5,33.3,20.2,52.7,24.1
		c15.1,3.1,24.7,12.6,29.7,26.9c0.9,2.6,2.9,4.7,2.9,7.7"/>
	<path id="XMLID_1331_" class="st0" d="M210,691.4c-1.4,1.1-3.1,1.4-4.8,2c-11.1,3.9-14.4,13.7-17.8,23.5c-2,6-2.6,11.9-1.1,18.3
		c2.5,10.5,6.9,12.4,17.8,9.5c9.8-2.6,19.1-16.2,19.4-29.7c0.1-5.7-1.3-11.2-1.1-16.8"/>
	<path id="XMLID_1330_" class="st0" d="M233.5,416.9c1.7,2.1-0.3,3.8-1.1,5.2c-7,13.2-14.6,25.9-26.8,35c-2,1.5-3.1,3.4-4.2,5.4
		c-8.9,16.3-15.5,33.3-18.5,51.8c-1.4,8.3-3.8,16.7-5.3,25c-2.1,12-4.8,23.9-6.5,35.9c-0.3,2.1-0.4,4.4-1.9,6.2"/>
	<path id="XMLID_1329_" class="st0" d="M181.6,1060.6c-0.1,4.7-0.8,9.3-1.4,13.9c-1.2,10.9-2.6,21.7,0.2,32.7
		c2.1,7.8,8,11,14.1,14.3c1.6,0.8,3.8,0.1,5.2-0.9c6.8-5.1,13.8-9.8,20.2-15.3c5.7-4.9,8.9-11.5,12.5-17.8c0.6-1,1.3-1.9,1.9-2.9"/>
	<path id="XMLID_1328_" class="st0" d="M130.3,111.6c19,11.5,38.2,22.7,57.6,33.6c13.3,7.4,27.1,13.6,41.2,19.3
		c1.9,0.8,4.3,1,5.8,2.8"/>
	<path id="XMLID_1327_" class="st0" d="M408.7,287.3c-7.4,0.1-14.6-1.2-22.1-0.7c-12.5,0.8-22,5.5-28.3,16.5
		c-7.3,12.7-13.3,25.7-12.9,40.8c0.2,6.7,1.8,13,4.3,19.2"/>
	<path id="XMLID_1326_" class="st0" d="M416.4,475c-2.7-4.3-5.5-8.5-7.3-13.4c-1-2.8-3-5.2-4.6-7.8c-2.5-3.9-2.8-8.6-3.2-12.9
		c-0.7-7.8-4.1-14.2-7.1-21.2c-6.3-14.5-19.1-18-32-21.9c-1.1-0.3-2.5-1.5-3.8-0.1c-3.4,3.7-8.9,5.4-11.7,8.9
		c-4.3,5.5-10.2,7.7-15.8,10.6c-7,3.7-15.1,4.2-22.9,5.5c-8.4,1.4-16.7,0.7-25,0.2c-3.8-0.2-7.2-2.7-10.6-4.6c-2.9-1.6-6-3-8-5.4
		c-2.3-2.8-4.7-2.9-7.8-2.4c-8.9,1.6-17.8,3.4-26.4,6.3c-6,2-10.1,6.1-14,11c-18.7,23.6-36.4,48-53.1,73.1
		c-2.8,4.3-5.9,8.5-8.1,13.5c3.1,2.8,4.5,6.7,6.9,10c1.3,1.8,2.4,3.5,4.9,3.3"/>
	<path id="XMLID_1325_" class="st0" d="M273.8,420.2c-0.4,0.9-1,1.6-1.9,1.9c-11.8,3.8-13.5,13.9-14.8,24c-0.4,3.3-0.5,6.8,0,10.1
		c0.7,4.7,4.1,7.8,9,8.1c10.6,0.8,15.3-1.1,19.6-10.5c3.6-7.9,5-16.1,0.7-24.5c-1.1-2.2-3.9-3-4-5.7"/>
	<path id="XMLID_1324_" class="st0" d="M169.6,335.8c-7.7,2.1-15.1,5.2-23,6.7c-7.4,1.5-14.6,1.3-22.1,0.2
		c-12-1.7-24.1-4.1-36.5-1.5c-5.2,1.1-10.7,2.1-16.3,1.7"/>
	<path id="XMLID_1323_" class="st0" d="M340.5,899.3c9.8,29.2,19.4,58.4,26.8,88.3c1,3.8,3.1,7.4,3,11.5"/>
	<path id="XMLID_1322_" class="st0" d="M328,610.8c-23.5,24.1-47.6,47.4-76.8,64.8c-5.6,3.3-10.9,7-16.3,10.5"/>
	<path id="XMLID_1321_" class="st0" d="M162.9,314.6c-12.7,5.3-25.3,11.1-39.4,10.9c-5.1-0.1-10.2-0.9-15.4-0.7
		c-15.6,0.3-29,6.2-38.7,18.3c-9.7,12.1-16.8,26-22.3,40.7c-2.9,8-2,15.7,0.5,23.5c0.6,2,1.4,4,1,6.2"/>
	<path id="XMLID_1320_" class="st0" d="M363.1,757.2c-2.2,8.2-6.3,15.7-9.6,23.5c-9.3,21.9-18.8,43.7-28.9,65.2
		c-0.9,1.8-0.6,2.8,0.1,4.4c2.3,4.9,4.1,10,5.3,15.3"/>
	<path id="XMLID_1319_" class="st0" d="M444.2,558.5c9.7,24.3,20.2,48.2,28.8,73c0.3,0.9-0.4,1.4-1.1,2.1c-4.2-1.9-8-4.4-8.5-9.7"/>
	<path id="XMLID_1318_" class="st0" d="M155.2,515.3c-5.3,5.1-7.8,12.1-11.5,18.3c-11.6,19.8-22.1,40.2-34.4,59.6
		c-8.8,13.9-17.8,27.9-26.1,42.1c-5.7,9.7-8.6,20.2-10.6,31.2c-1.2,6.9-1.3,13.7-1.3,20.7c0,14.7,13.5,24.6,27.9,21.9
		c7.1-1.3,12.4-4.9,17.7-9c8.8-7,16.9-14.7,24.3-23.4c-4.2-7.3-11-12-16.7-17.7c-2.7-2.6-5.1-5.6-8.1-7.7c-3.3-2.4-2-6.2-3.2-9.2
		c-1.6-3.8-2-7.9-0.2-12c0.5-1.1,0.1-2.5,0.1-3.8"/>
	<path id="XMLID_1317_" class="st0" d="M368.4,995.3c-11.6,4.2-22.5,10-34,14.5c-8.3,3.2-16.3,7.4-24.5,10.9c-3,1.3-4.5,2.7-5.6,6.2
		c-1.5,4.7-3.8,9.6-7.8,13.1c-1.7,1.4-3.3,3-3.9,5.3"/>
	<path id="XMLID_1316_" class="st0" d="M400.5,440.9c-4.6,2.4-8.3,6.6-13.9,7.2c-4.9,0.6-7-0.4-9.6-4.8c-1.7-2.8-2.6-6-3.3-9.1
		c-0.9-4.1,0.5-5,4.7-4.4c2.7,0.4,5.2,2.5,8.1,1c-0.1-1.2-0.3-2.2-0.8-3.4c-1.4-3.7-2.7-7.4-7.4-7.6c-5.5-0.1-11.1,3.3-12.4,8.1
		c-3.9,14.5,1.7,27.5,18.2,31.2c4.9,1.1,8.8-1.2,12.4-3.9c1.9-1.4,3.3-3.6,5.8-4.3"/>
	<path id="XMLID_1315_" class="st0" d="M344.8,406.8c-4-0.3-7.4,2-10.4,3.6c-12.3,6.3-24.4,4.1-36.6,0.7c-5-1.4-10.1-2.4-14.5-5.5
		c-1.6-1.1-4.4,0.7-6.6,1.3c-4.6,1.2-9.6,1-13.9,3.3"/>
	<path id="XMLID_1314_" class="st0" d="M99.1,278.6c-0.6,0.9-1.4,1-2.4,1c-17-1-33,3.6-49,8.6c-10.1,3.2-20.4,5.7-30.2,9.6"/>
	<path id="XMLID_1313_" class="st0" d="M284.8,722.2c-4,4.8-10.2,5.5-15.4,7.5c-8.9,3.4-17.9,6.5-26.9,9.6c-3.8,1.3-7.9,2.3-12,3
		c-1.7,0.3-2.7,1.1-3.8,2c1,11.9,2.6,23.7,3.4,35.6c0.6,9.3,1.9,18.5,1.9,27.8c0,1.4,0.9,2.3,1.5,3.4"/>
	<path id="XMLID_1312_" class="st0" d="M464.4,447.1c10.1,14.5,19.4,29.5,30.7,43.3c8.8,10.8,17.6,21.4,29.2,29.4
		c3.5,2.4,6.5,5.6,10.7,7"/>
	<path id="XMLID_1311_" class="st0" d="M498,899.3c-3,6.2-7,11.8-8.8,18.7c-1.5,5.6-0.2,10.9-0.1,16.4c0,2.1,1.7,3.4,4.7,2.5
		c12.8-3.6,25.1-1.8,37,4.2c1.4,0.7,1.8,1.8,2.4,2.9c7.2,15.6,14.7,31.1,21.2,47c3.6,8.8,5,18.2,7.1,27.4c0.3,1.4,0.4,3.1-0.9,4.3"
		/>
	<path id="XMLID_1310_" class="st0" d="M312.2,585.8c2.2,6.4,7,11.1,11,16.4c9.6,12.9,18.7,26.3,27.5,39.7
		c9.6,14.6,16.5,30.3,21.2,47c0.7,2.4,1,4.9,1.6,7.3c1.6,6.9,1.2,6.9-5.6,10c-3,1.4-5.8,3.2-9.1,3.8"/>
	<path id="XMLID_1309_" class="st0" d="M370.8,264.2c-2.4,0.6-3.9,2.6-5.2,4.4c-8.2,11.1-20.2,15-32.7,18.2
		c-12.4,3.1-25,1.4-37.4,1.9c-1.8,0.1-3.7-0.5-5.7,1.3c10.2,9.6,20.7,17,36,14.7c16.7-2.6,31.3-8.4,40.7-23.2
		c3.1-5,5.1-10.7,4.9-16.7c-0.1-2.1,1.8-3.6,1.5-5.8"/>
	<path id="XMLID_1308_" class="st0" d="M266.6,1072.1c-6.8-2.3-10.1-8.3-12.7-14c-2.5-5.4-6.1-7.8-11.3-9.5
		c-17.6-5.9-35.2-12.1-52.9-18.1c-1-0.3-1.6-1.6-2.8-1.1"/>
	<path id="XMLID_1307_" class="st0" d="M614.1,671.8c-3.5,3.8-5.1,8.7-7.6,13c-7,12.6-14,25.3-22.7,36.9c-5.4,7.2-12,13.3-18.8,19.1
		c-3.3,2.8-6.5,5.7-9.5,8.7"/>
	<path id="XMLID_1306_" class="st0" d="M88.5,268.6c-4.1,2.1-8.7,0.8-13,1.3c-12.5,1.4-23.4,7.3-34.5,12.3c-9.1,4.1-18,8.5-27,12.6
		c-2.2,1-3.3,4.7-6.6,3.1"/>
	<path id="XMLID_1305_" class="st0" d="M288.2,742.8c-7.2,9.8-14.3,19.6-21.6,29.3c-10.1,13.3-18.9,27.4-27.3,41.8
		c-1.1,1.9-2,4-4.8,3.3"/>
	<path id="XMLID_1304_" class="st0" d="M491.2,1050c8.4,12.7,20.3,20.9,34,27c8.6,3.8,17.3,7.9,22.5,16.3c4.5,7.1,6.2,15.3,7.7,23.5
		c0.3,1.6,0.1,3.2,1.5,4.3"/>
	<path id="XMLID_1303_" class="st0" d="M496,404.4c4.9,3.7,8,9,11.9,13.5c8.2,9.5,16.7,18.5,26.9,25.9c6.1,4.5,7.5,12.1,10,18.7
		c3.4,8.9,4.3,18.3,4.4,27.8c0.1,8,0.5,16-0.4,24c-0.2,1.8-0.6,3.7,0.9,5.3"/>
	<path id="XMLID_1302_" class="st0" d="M348.2,508.6c-15.4,11-26.5,25.1-31.2,43.7c-2.3,9.2-5.1,18.2-4.8,27.8c0,1-0.4,1.7-1,2.4"/>
	<path id="XMLID_1301_" class="st0" d="M531.1,531.1c2.6,1.1,4.6,0.1,6.7-1.4c9.4-6.7,18.1-14.3,27.3-21.1c2.8-2.1,5.5-4.6,8.7-6.2
		c6.8-3.4,13.8-2.8,20.1,1.4c5.6,3.8,7.2,9.3,6.5,16.3c-0.5,5.2-3.4,7.3-6.9,10.2c-13,10.6-27.4,18.9-41.9,27.2
		c-0.2,0.1-0.6,0-0.9,0"/>
	<path id="XMLID_1300_" class="st0" d="M107.7,232.1c0.2,3.2-0.4,6.6,0.6,9.6c4.7,14.8,9.8,29.2,26.7,35.3
		c7.8,2.8,15.7,5.5,23.1,9.4"/>
	<path id="XMLID_1299_" class="st0" d="M481.2,285.8c-6.1,3.7-10.3,9.6-15.2,14.5c-15.3,15.5-33.6,25.7-53.4,33.9
		c-0.5,0.2-0.7,1.1-1.4,0.9"/>
	<path id="XMLID_1298_" class="st0" d="M261.8,73.7c-4.2,0-8.3-0.1-12.5,0c-5.4,0.1-10.2,2.3-14.9,4.8c-4.9,2.7-9,1.4-13-1.9
		c-1.4-1.2-2.2-2.8-3.7-4c-4.1-3.1-8-1.4-12.1-0.4c-4.9,1.2-9.1,3.9-13.9,5.3"/>
	<path id="XMLID_1297_" class="st0" d="M203.2,865.7c0,7.8-2.1,15.3-2.9,23c-1,9.3-2.2,18.5-2.9,27.8c-0.5,6.4-1.9,12.7-1.8,19.2"/>
	<path id="XMLID_1296_" class="st0" d="M496,305c-18,17-37.3,31.6-61.9,38.1c-5,1.3-10.3,2.5-14.9,5.1"/>
	<path id="XMLID_1295_" class="st0" d="M271.9,948.2c2-9.3,2.6-19,6.7-28.8c4.4,4.2,7.2,8.8,10,13.4c0.1,0.1-0.2,0.7-0.3,1
		c-4.1,9.2-6.3,19.1-9.3,28.7c-5.7,18.3-11.8,36.5-17.7,54.7c-1.5,4.8-2.9,9.6-4.3,14.4"/>
	<path id="XMLID_1294_" class="st0" d="M381.8,406.3c-9.2,4-18.7,7.1-27.4,12.4c-13.4,8.2-17.7,21-18.7,35.6c-0.1,1.4,0.6,3-0.5,4.3
		"/>
	<path id="XMLID_1293_" class="st0" d="M404.4,305.5c-0.5,5.9-3.2,10.8-7.2,14.8c-3.7,3.7-7.6,7.1-11.5,10.5c-1,0.9-1.9,1.3-1.9,2.9
		c-0.6,13-0.4,25.8,3.4,38.4c2.6,8.6,6,16.8,9.7,24.9c0.4,0.9,0.2,1.6,0.5,2.6c-5-1.5-8.6-5-12.5-7.9c-7.9-6.1-15.6-12.8-21-21.2
		c-7.4-11.4-7.3-24.1-3.1-36.8"/>
	<path id="XMLID_1292_" class="st0" d="M48.2,345.8c-0.9,5.5-4.6,9.9-5.9,15.3c-1.3,5-1.9,9.9-2.9,14.9c-1.2,6,0,11.6,0.3,17.3
		c0.3,6.7,3.3,12.7,6.8,18.1c2.1,3.2,4.2,6.4,6.1,9.7"/>
	<path id="XMLID_1291_" class="st0" d="M209.5,794.6c-0.5,13.2-1.7,26.3-3.3,39.4c-0.5,4-0.6,8-0.8,12c-0.3,5.6-1.8,11.1-1.2,16.8"
		/>
	<path id="XMLID_1290_" class="st0" d="M501.8,377c6.1,10.4,11.6,21.1,17.3,31.7c5.6,10.4,10.9,20.9,15.8,31.7
		c0.5,1.1,0.7,1.9,0,2.9"/>
	<path id="XMLID_1289_" class="st0" d="M337.6,784.6c0.3,2.7,0.7,5.4,1.1,8.1c1.7,13.9-6.7,23.4-20.7,23.6
		c-7.9,0.1-15.3-8-15.8-18.3"/>
	<path id="XMLID_1288_" class="st0" d="M425.5,567.6c-3.5-0.6-6-3.4-9.1-4.8c-2.5-1.1-4.7-2.8-7.2-3.8c-8.3-3.2-8.5-2.9-14.4,3.8
		c-8.9,10.1-16.3,21.4-25.3,31.3c-0.6,0.7-1.8,0.8-2.1,2.3c3.8,19.2,7.2,39,11.7,58.5c4.4,19.2,8.8,38.5,18.1,56.2
		c4.8,9,11.5,16.5,19.7,22.5c5.4,4,11.7,2.2,16.8-4.3c9.1-11.7,13.7-25.1,15.5-39.8c1.6-12.8-0.5-25-3.1-37.5
		c-2.4-11.8-4.5-23.7-7.3-35.4c-2.9-11.9-5-23.9-8.7-35.6c-1.3-4.2-1.2-8.9-3.5-12.9"/>
	<path id="XMLID_1287_" class="st0" d="M377,79c-10.5-5.6-20.7-11.5-32.6-14.1c-8.4-1.8-16.6-2.1-25-1.2c-2.3,0.3-4.5,0.1-6.7,0.4"
		/>
	<path id="XMLID_1286_" class="st0" d="M327.6,699.6c6.1,2,12.5,0.7,18.7,1.3c6.7,0.6,6.8,0.1,7.6,6.4c0.4,2.8,0.8,5.8,0.4,8.6
		c-0.8,6.5,1.2,12.8,1.8,19.2c1.3,13.1-2.2,24.6-8.6,35.5c-2.8,4.8-4.9,10.3-9.7,13.4c-5.5-1.2-10.5,1.1-15.7,0.7
		c-8.9-0.7-17.2-3.2-25.4-6.3c-1.7-0.6-1.8-1.8-2-3.4c-0.6-8,1.2-16,1-24c0-1.4,0.5-2.6,1.9-2.8c5.5-0.8,8.9-5.6,13.9-7.2
		c1.6-0.5,1.7-1.8,1.4-2.9c-0.6-2.3-0.7-4.5,0.1-6.7"/>
	<path id="XMLID_1285_" class="st0" d="M125,694.3c0.2,0.8,2.1,0.8,1,2.4c-8.4,12.7-10.9,27.6-15.4,41.7c-0.4,1.3-1.1,2.7,0,3.8
		c5.2,5.3,10.5,10.6,16,16.1c2.3-2.1,3-4.1,3.8-6.4c0.9-2.5,2.4-4.9,6.1-4.5c3.4,0.4,6.5,2.7,6.4,4.9c-0.2,10.3,7.2,10.7,14.2,12
		c0.8,0.2,1.6,0.6,2.4,0.9"/>
	<path id="XMLID_1284_" class="st0" d="M125.5,81.4c-1.2,6.1,1.5,11.8,2.2,17.7c0.3,2.8,0.9,5.9,2.1,8.7c1.5,3.7-1.6,4.6-4.2,5.2
		c-7.3,1.6-14.7,3.1-22.1,4.2c-2.3,0.3-4.2,1.2-6.2,2.1"/>
	<path id="XMLID_1283_" class="st0" d="M446.1,664.1c-6.7,3.7-14.2,5.1-21.6,6.7c-12.3,2.7-24.9,3-37.4,3.4c-0.6,0-1.3,0.3-1.9,0.5"
		/>
	<path id="XMLID_1282_" class="st0" d="M235.4,883.4c12.8,0.4,25.5,1.1,37.9,4.8c9.3,2.7,16,9.5,23.5,14.9"/>
	<path id="XMLID_1281_" class="st0" d="M495.1,269.5c-4.5,5.1-9.1,10.2-13.5,15.2c1.3,4.2,3.9,7.6,4.9,11.7c1.4,5.4,6.6,6.3,10.6,8
		c6.6,2.8,12.3,9.4,12.4,16.5c0,1.1,0,1.9-1.3,3c-13.1,10.4-26.1,21-39.4,31.1c-6,4.6-13.1,5-20.2,5.7"/>
	<path id="XMLID_1280_" class="st0" d="M152.4,225.4c2.8,3.4,2.1,7.7,2.7,11.5c2,12.8,5.9,25,10.7,37c1.4,3.5,3.6,6.9,2.9,11"/>
	<path id="XMLID_1279_" class="st0" d="M162.9,630c1.2,6.1,5.3,10.6,8.2,15.8c8,14.2,16.3,28.2,24.4,42.3"/>
	<path id="XMLID_1278_" class="st0" d="M406.8,228.2c2.8,7.3,5.4,14.7,6.2,22.6c1.1,9.7-2.9,18.1-7.2,26.4c-1.6,3-3.7,5.8-4.8,9.1"
		/>
	<path id="XMLID_1277_" class="st0" d="M121.6,694.8c-4-7.5-7.9-15.2-13-22.1c-5.1-7-12.3-10-20.6-11.6c-4.5-0.9-9-0.9-13.5-1.8"/>
	<path id="XMLID_1276_" class="st0" d="M276.2,141.8c-0.5,0.3-0.5,0.6-0.5,1c0.8,21.1-4.2,41.1-12,60.5
		c-5.3,13.2-14.3,24.1-23.2,34.9c-1.2,1.5-2.2,3.2-3.7,4.4"/>
	<path id="XMLID_1275_" class="st0" d="M560.8,585.8c8.1,17.9,14.8,36.2,19.7,55.2"/>
	<path id="XMLID_1274_" class="st0" d="M416.4,745.2c-3,2.8-6.3,3.7-10.6,3c-6.3-1-12.3,0.9-18.2,3.2c-6.7,2.6-13.5,5-20.1,7.8
		c-1.6,0.7-2.6,1.3-3.9-0.1"/>
	<path id="XMLID_1273_" class="st0" d="M363.1,667c-10.9,8-19.7,18.4-30.2,27c-5.6,4.6-11,9.8-17.1,13.5
		c-8.4,5.2-16.6,11.3-26.7,13.6c-3.5,0.8-6.1-0.6-9.2-0.9c-8.2-0.9-16.4-1.7-24.5-2.9c-7.6-1.1-15.2-2.1-22.6-4.3"/>
	<path id="XMLID_1272_" class="st0" d="M515.2,839.8c-1.6,16.9-1.5,33.9-1.4,50.9"/>
	<path id="XMLID_1270_" class="st0" d="M362.1,1027c-3.2-6.8-7.2-13-14.4-17.3c-2.2,9.6-6.6,18.6-1.9,28.3c0.5,1.1,0.4,2.2,0.5,3.4"
		/>
	<path id="XMLID_1269_" class="st0" d="M526.8,225.4c-8.8,2.7-17.5,6-26.4,7.9c-4.9,1-10.1,1.5-15.3,1.2c-3.7-0.2-6.2,0.3-8.9,4.1
		c-7.4,10.5-17,19.1-28.5,25.1c-0.7,0.4-1.3,0.9-1.9,1.4"/>
	<path id="XMLID_1268_" class="st0" d="M73.2,78c-16-9-31.4-18.8-47-28.4c-0.6-0.4-1-0.6-1.5,0"/>
	<path id="XMLID_1267_" class="st0" d="M371.2,499.4c2.1,2.4,2.2,5.7,4.2,8.3c0.8,1,1.5,2.4,2.6,3.2c2.5,1.9,5.8,4.2,8.5,2.7
		c3.4-1.8,5-5.9,5.4-9.9c0.3-2.6-0.5-5.1-1.3-7.7c-1.5-4.6-3.1-9.1-4-13.9c-0.7-3.5-7.1-7.2-10.5-6.7c-2.5,0.3-5.8,5.9-6.3,10.1
		c-0.5,4.6,1.7,8.9,1.5,13.4"/>
	<path id="XMLID_1266_" class="st0" d="M585.3,670.8c0.4,16.1-1,32.1-3.8,48"/>
	<path id="XMLID_1265_" class="st0" d="M289.2,741.4c-15.6,3.6-29.4,10.7-42.3,20.1c-1.7,1.2-2.9,2.9-5.2,3.6
		c-1.9,0.5-2.7,2.9-2.9,5.1c-1.1,12.6-2.2,25.3-3.3,37.9c-0.1,1.1-0.3,2.1-1,2.9"/>
	<path id="XMLID_1264_" class="st0" d="M358.3,445.2c5,4.9,3.7,11.4,4.3,17.3c1,10.4-1.9,20.1-6.7,29.3"/>
	<path id="XMLID_1263_" class="st0" d="M280,962.6c4.4,6.5,6.2,14.1,9,21.2c3.2,8.2,6.3,16.6,9.3,24.9"/>
	<path id="XMLID_1262_" class="st0" d="M150,162c-1.2,6.8-4.2,13-6,19.6c-2,7.4-1.8,14.3,0.8,21.2c1.1,2.9,1.1,6.2,3.3,8.7"/>
	<path id="XMLID_1261_" class="st0" d="M432.7,259.9c-2.4,8.2-4.7,16.5-6.2,25c-1,5.7-2,11.5-2.8,17.3c-0.2,1.3-0.3,2.7-1,3.8"/>
	<path id="XMLID_1260_" class="st0" d="M157.2,642c0.9,2.5-0.1,4.8-0.3,7.2c-1.5,15.7-4.6,31.2-4.5,47c0,17,5.7,32.7,11.2,48.4
		c0.2,0.7,0.6,2.4,2.3,2"/>
	<path id="XMLID_1259_" class="st0" d="M108.7,247.9c-2.3,5.4,0.4,10.3,1.5,15.3c2.1,9.9,6.3,19,12,27.4c0.9,1.4,1.9,2.6,0,3.8
		c1.7,2.1,5.1,2,6.2,4.8"/>
	<path id="XMLID_1258_" class="st0" d="M474.9,333.8c-8.4,7.2-16.1,15.3-24.3,22.8c-3.2,2.9-6.4,6.6-8.6,10.5
		c-2.1,3.6-0.7,8.2-0.3,12.4c1.2,11.2,3.7,22.2,6.3,33.1"/>
	<path id="XMLID_1257_" class="st0" d="M385.6,1004.4c-3.8,2-8,1.3-12,1.8c-4.5,0.5-7.1,2.6-7.6,6.9c-0.9,7.2-4.2,14.1-2.5,21.6"/>
	<path id="XMLID_1256_" class="st0" d="M531.6,964.6c1.3,1.5,1.2,3.6,1.9,5.3c7.1,16.2,14.5,32.3,22.6,48c1.7,3.3,5.6,5.1,6.2,9.1"
		/>
	<path id="XMLID_1254_" class="st0" d="M159.1,658.3c2.9,7.8,7.3,14.9,9.7,23c2,6.5,4.3,12.9,4.7,19.7"/>
	<path id="XMLID_1251_" class="st0" d="M259.9,1068.2c-1.8,1.2-2.9-0.3-4.3-0.9c-6-2.6-12.1-5-18.3-7.5c-5.2,13.3,1.4,23.4,8.2,33.4
		"/>
	<path id="XMLID_1250_" class="st0" d="M335.2,463.4c1,6.7,0.9,13.5,2.7,20.2c2.1,7.7,5.2,14.8,8.3,22"/>
	<path id="XMLID_1249_" class="st0" d="M196,203.8c-9.8,2.2-19.5,4.6-28.3,9.6c-7.1,4-13.7,8.8-19.2,14.8"/>
	<path id="XMLID_1248_" class="st0" d="M498.9,1060.6c1,6.2,4.6,11,8.7,15.3c7.5,7.7,14.9,15.5,21.6,24c1.3,1.6,1.2,4.7,4.2,4.9"/>
	<path id="XMLID_1247_" class="st0" d="M196,987.6c-0.2,7.9-3.9,14.9-5.4,22.5c-1.3,6.4-4.5,12.4-4.3,19.2c0.1,2-1.8,2.8-3.3,3.9
		c-6.2,4.7-13.1,8-20.2,11c-0.7,0.3-1.9,0.2-1.9,1.4"/>
	<path id="XMLID_1246_" class="st0" d="M450,730.3c-9.4,2.2-18.2,5.5-25.9,11.5c-1.8,1.4-3.6,4-6.1,2.8c-2.1-1,0.2-3.7-0.9-5.7
		c-0.6-1.1-0.4-2.9,0.4-4.3"/>
	<path id="XMLID_1245_" class="st0" d="M319.9,785.5c-0.4,4.3,2.2,7.9,2.9,12c0.5,3.1,2.8,6.5-1,9.1c-2.9,1.9-7.5,1.5-10.5-1.5
		c-4.2-4.1-9.9-6.8-12.5-12.4"/>
	<path id="XMLID_1244_" class="st0" d="M410.1,584.9c-4.2,3.4-8.1,7.3-12.4,10.6c-7.6,5.8-16.4,7.6-25.5,8.6
		c-0.8,0.1-1.6,0.3-2.4,0.5"/>
	<path id="XMLID_1243_" class="st0" d="M272.8,132.7c7.2,14.8,14.9,29.2,24.9,42.3c1.3,1.7,3.7,3,3.4,5.7"/>
	<path id="XMLID_1242_" class="st0" d="M19.9,45.4c16.7,21,37.1,38.4,56.3,57c12.2,11.8,26,21.7,39.8,31.8c1.8,1.3,3.6,1.4,6.3,0.8
		c8.4-1.9,16.9-2.9,25.4-4.4c2.2-0.4,4.3-1.7,6.7-1.1"/>
	<path id="XMLID_1241_" class="st0" d="M313.2,741.8c5.3,7.8,14.5,14,26.5,11c7.6-1.9,8.1-7.1,9.8-12c1.5-4.4,1.9-9.2,2.5-13.9
		c0.2-1.2,1-1.6,1.5-2.4"/>
	<path id="XMLID_1240_" class="st0" d="M447.6,692.4c-11.6-2.7-22.4,0.5-33.1,4.4c-6.7,2.4-13.1,5.4-19.7,8.1"/>
	<path id="XMLID_1239_" class="st0" d="M115.9,653c-2.3,2-5.3,0.1-7.8,1.7c4,9.2,10.7,16.4,18.4,22.8c2.2,1.8,4.1,3.9,6.2,5.8"/>
	<path id="XMLID_1238_" class="st0" d="M152.4,185c-0.4,9.1-0.6,18.2-0.5,27.4c0,3.5,0.6,6.8,1.9,10.1"/>
	<path id="XMLID_1237_" class="st0" d="M220,306.7c-5,0.2-9.3,2.6-13.9,4.1c-7.7,2.5-15.5,3-23.5,1.4c-0.5,15.4,8.6,20.6,21.5,15.8
		c9-3.4,13.2-11.4,15.4-20.5"/>
	<path id="XMLID_1236_" class="st0" d="M163.4,797.5c-1.7,9.2-4.8,18-7.7,26.9c-1.1,3.2-2.2,6.4-3.4,9.6"/>
	<path id="XMLID_1234_" class="st0" d="M288.7,398.2c11.8,1.9,23.7,1.7,35.5,1"/>
	<path id="XMLID_1233_" class="st0" d="M357.3,442.3c1.5,2.4-0.2,4.5-0.5,6.7c-0.9,6.6-1.7,13.2-2.7,19.7c-0.8,5.1-2.3,7.9-8.2,8.6"
		/>
	<path id="XMLID_1232_" class="st0" d="M583.4,518.2c-8.9,7.6-19,13.6-28.3,20.6c-3.1,2.3-6.3,4.7-10.1,5.8c-2.3,0.7-4.6,1-6.7-0.9
		c-5.5-4.9-9.1-10.6-8.6-18.3"/>
	<path id="XMLID_1231_" class="st0" d="M187.9,106.3c1.9,11.4,3.3,22.9,2.9,34.6"/>
	<path id="XMLID_1229_" class="st0" d="M404.4,455.8c-1.7,4.2,0.1,8.5,0.7,12.4c2,13.2,4.6,26.4,7.9,39.4c2.4,9.4,4.7,18.8,6.7,28.3
		c2.1,10,4.7,19.9,7.2,29.8c0.1,0.5-0.6,1.3-0.9,1.9"/>
	<path id="XMLID_1228_" class="st0" d="M404.8,536.9c-2.8,2.6-2.9,6.3-3.7,9.6c-0.8,3.2,2.1,5.5,6.1,6.8c5.4,1.7,10.3,0.2,15.4-1.1"
		/>
	<path id="XMLID_1224_" class="st0" d="M373.6,705.4c2.1,5.3,1.4,11,0.8,16.3c-1.2,10.4-4.7,20.4-8.5,30.2c-1.8,4.6-3.5,5.3-8.6,3.8
		c-0.7-0.2-1.3-0.3-1.9-0.4"/>
	<path id="XMLID_1223_" class="st0" d="M312.2,715.9c-7.9,7.6-12.3,17.1-15.3,27.4c-0.4,1.4-0.4,3.1,0.9,4.3"/>
	<path id="XMLID_1221_" class="st0" d="M343.9,473c2.9,16.2,6.7,32.2,9.2,48.5c0.2,1,0.9,1.9,1.4,2.9"/>
	<path id="XMLID_1220_" class="st0" d="M300.7,907c6.6,7.5,8.8,17.2,12.9,26c0.5,1.1,0.1,2.5,0.1,3.8"/>
	<path id="XMLID_1219_" class="st0" d="M333.8,187c-1.5-2.7-4.7-1.8-6.8-2.2c-10.1-1.8-20.3-3.9-30.7-3.5
		c-6.4,0.3-12.8,1.4-19.2,2.4c-2.1,0.3-4.2,0.4-6.2,0.4"/>
	<path id="XMLID_1218_" class="st0" d="M183.1,148.6c-9.6,4-19.9,5.8-29.8,9.1"/>
	<path id="XMLID_1217_" class="st0" d="M248.8,911.8c-1.8,2.3,0.8,3.8,1.1,5.7c1.2,8.2,2.1,16.3,0.4,24.5c-0.2,0.7-0.5,1.7,0.4,2.4"
		/>
	<path id="XMLID_1216_" class="st0" d="M158.1,287.3c-9.5,4-19.3,6.9-29.8,6.2"/>
	<path id="XMLID_1214_" class="st0" d="M370.8,995.3c5.3,2.8,10.9,4.9,16,8.4c4,2.8,9.4,3.7,13.7,6.5"/>
	<path id="XMLID_1213_" class="st0" d="M405.3,303.1c-0.6,0.6-0.2,1.4-1.4,2c-9.6,4.5-16.5,11.4-19.2,22c-0.3,1.2-0.2,2.6,0.4,3.8"
		/>
	<path id="XMLID_1212_" class="st0" d="M415.4,317.5c-5.8,6.5-12.1,11.9-21.1,13.6c-2.7,0.5-5.1,0.9-7.7,0.3"/>
	<path id="XMLID_1210_" class="st0" d="M315.6,891.1c5.5,9.7,12.1,18.4,22.1,24c0.9,0.5,1.7,0.9,1.9,2"/>
	<path id="XMLID_1209_" class="st0" d="M97.2,71.8c-1.4,1.9,0.1,3.6,0.6,5.3c1.2,4.5,3.4,8.6,3.9,13.5c0.5,4.5,0.4,5.2-4,5.3
		c-7.4,0.2-14.6,2.1-21.6,4.3"/>
	<path id="XMLID_1208_" class="st0" d="M315.6,903.6c0,5.1,0.2,10.2,0,15.4c-0.2,4.3,0.3,8.8-1.4,13"/>
	<path id="XMLID_1207_" class="st0" d="M354.4,387.6c-8.3,4.3-17.2,7.3-25.9,10.5c-0.7,0.3-1.6,0-2.4,0"/>
	<path id="XMLID_1206_" class="st0" d="M476.8,236.4c-6.5-0.8-11.9,2.8-17.7,4.4c-3.4,0.9-6.7,2.2-10.1,3.3"/>
	<path id="XMLID_1205_" class="st0" d="M357.8,887.8c-9.4,1.1-16.3-3.1-21.6-10.5c-1.9-2.6-3.3-5.5-5.7-7.6c-5.5,0.8-11,1-16,4.1
		c-3.1,1.9-5.2,4.4-6.5,7.4c-3.3,7.2-7.1,14.3-9.9,21.7c-1.6,4.1-3.4,8.7-1.9,13.9c1,3.7,0.7,7.9-0.6,12c-0.7,2.2-0.5,4.8,0,7.1
		c0.4,1.9,0.5,3.5-0.1,5.3"/>
	<path id="XMLID_1203_" class="st0" d="M172.5,940.6c-0.5,9.7-1.6,19.3-6.7,27.8"/>
	<path id="XMLID_1202_" class="st0" d="M196,1070.2c6.2-3.1,8.2-9.5,11.4-15c0.6-1.1,1.5-1.8,2.4-3.5c4.4,5.8,6.4,12.1,6.8,18.9
		c0.2,3-0.5,6.1,0.5,9.1"/>
	<path id="XMLID_1200_" class="st0" d="M313.6,896.4c0.8,6.9,5.9,11.6,9.8,16.7c3.3,4.2,8.9,5.2,14.2,4.8c2-0.1,3.9,0.1,5.8,0.2"/>
	<path id="XMLID_1199_" class="st0" d="M437,612.2c-8.3,0.3-16.6-0.4-25,0.4c-1.9,0.2-3.6,0.4-4.8,2"/>
	<path id="XMLID_1198_" class="st0" d="M374.6,629.5c4.7-1.9,8.4-5.5,12.9-7.8c3.4-1.8,6.9-3.6,10.3-5.4c7.8-4.1,15.2,0.6,19.5,7.5
		c1.7,2.7,2.3,5.9,4.9,8.1c2.3,2-0.4,5.2,1.9,7.2"/>
	<path id="XMLID_1197_" class="st0" d="M66,931c0.5,0.8,1.3,0.6,1.9,0.5c10.7-2.3,18.2,2.8,24.5,10.6"/>
	<path id="XMLID_1195_" class="st0" d="M445.2,651.6c-0.3,0-0.7,0.1-1,0c-11.2-3.8-21.9,0.3-32.6,2.6c-1.8,0.4-3.6,0.4-5.3,0.8"/>
	<path id="XMLID_1193_" class="st0" d="M492.2,713c-8.5,6.9-17.7,12.6-26.4,19.2c-4.7,3.5-10,2.8-14.8-1.4"/>
	<path id="XMLID_1192_" class="st0" d="M127.9,110.6c-8.5-5.1-17-10.2-25.4-15.4"/>
	<path id="XMLID_1189_" class="st0" d="M242.1,740.4c0.1,7.3-1.3,14.4-2.4,21.6c-0.2,1.2-0.2,2.5,0.9,3.4"/>
	<path id="XMLID_1187_" class="st0" d="M398.1,343c3.9,1.4,8,0.2,12.1,1.2c5,1.3,8.8,3.6,11.5,7.9c4.4,7.1,10.7,12,18.2,15.3
		c0.4,0.2,0.9,0,1.4,0"/>
	<path id="XMLID_1186_" class="st0" d="M289.2,8.9c1.8,3.4-1.9,3.2-3,3.7c-6.7,3.1-13.2,6.7-19.6,10.2"/>
	<path id="XMLID_1185_" class="st0" d="M58.8,84.2c4.7-3,10.5-2.7,15.4-5.2c0.8-0.4,1.6,0.4,2.4,0.9c7.8,4.9,15.6,9.7,23.5,14.5"/>
	<path id="XMLID_1184_" class="st0" d="M336.7,541.2c0,8-1.8,16-0.5,24"/>
	<path id="XMLID_1183_" class="st0" d="M150.9,94.8c1.4,8,2.9,16,4.3,24"/>
	<path id="XMLID_1182_" class="st0" d="M247.9,915.1c-3.1,4.9-3.9,10.8-6.8,15.8c-1.6,2.7-2.7,6-6.7,6.3"/>
	<path id="XMLID_1181_" class="st0" d="M264.7,915.6c-0.3,11.4,1,22.6,5.8,33.1"/>
	<path id="XMLID_1180_" class="st0" d="M411.1,680.9c4.9,2.1,10.6,1.7,15.4,4.3c2.7,1.5,5.9,2,7.2,5.3"/>
	<path id="XMLID_1179_" class="st0" d="M83.7,645.8c7.4,3.9,15.2,6.8,23.5,8.2"/>
	<path id="XMLID_1178_" class="st0" d="M405.3,475c-6.7,3.1-10.6,9.5-8.7,16.3c1,3.6,2,7.3,2.6,11c0.8,4.8,6.5,7.5,12.9,6.7"/>
	<path id="XMLID_1177_" class="st0" d="M357.8,343.4c-4.9,3.2-4.5,8.8-5.5,13.5c-0.6,2.9-1.2,5.8-2.2,8.6"/>
	<path id="XMLID_1176_" class="st0" d="M348.2,1044.2c-4-4.4-8.8-7.9-14.4-11.3c0.4,7.9-2.5,15.2-2.4,22.8"/>
	<path id="XMLID_1175_" class="st0" d="M468.7,580.6c-0.9,6.8-2.8,13.3-3.4,20.2c-0.1,1-0.3,2.2-1.4,2.9"/>
	<path id="XMLID_1174_" class="st0" d="M426,599.8c-2.7-0.1-5.1,1-7.7,1.4c-7.2,1.3-14.4,1.3-21.6-0.5"/>
	<path id="XMLID_1172_" class="st0" d="M348.7,492.7c2.3,0.2,4.3-1.4,6.7-1c8.8,1.7,13.6,13.6,8.6,22c-2.6,4.4-5.5,8.8-10,11.4
		c2.2,11.9,4.5,23.5,6.6,35.2c0.3,1.7,0.7,3.3,1.5,4.8"/>
	<path id="XMLID_1171_" class="st0" d="M134.6,168.7c-2,6.4-3.3,13-3.8,19.7c-0.1,1,0.1,2,1,2.6"/>
	<path id="XMLID_1169_" class="st0" d="M190.8,964.6c-0.6,5.9-2.3,11.5-3.4,17.3c-0.3,1.8-1,3.5-0.9,5.3"/>
	<path id="XMLID_1168_" class="st0" d="M263.7,924.7c-3.7,8-7.1,16.1-13.9,22.1"/>
	<path id="XMLID_1167_" class="st0" d="M92.8,631c0,0.5-0.2,1.2,0,1.4c6.6,5.7,12.9,12,20.6,16.4"/>
	<path id="XMLID_1166_" class="st0" d="M352.5,888.2c-5,3.1-10.8,3.2-16.3,3.7c-5.6,0.6-11.4,0.5-16.7-1.5c-2.1-0.8-4,1.1-5.8-0.4"
		/>
	<path id="XMLID_1165_" class="st0" d="M246.4,39.1c-6.5,6.7-12.8,13.5-18.2,21.1"/>
	<path id="XMLID_1164_" class="st0" d="M418.3,674.6c-8.5,7.4-19,10.7-29.3,14.4"/>
	<path id="XMLID_1163_" class="st0" d="M114.9,603.6c1.1-0.1,1.9,0.2,2.9,0.9c7,4.8,13.9,9.5,21.1,13.9c5.3,3.3,3.1,8.7,4.1,13.1
		c0.7,3,0.7,6.5-1.2,9.6c-0.5,0.9-0.3,2.4,0.9,3.3"/>
	<path id="XMLID_1162_" class="st0" d="M160.5,630.5c-0.9,2.7-2.4,5.1-2,8.2c0.3,2.1-1,3.1-3.3,2.9c-2.1-0.2-4.3-0.5-6.2,0
		c-8.2,2.3-10.8,6.5-11.1,15.3c-0.2,4.6,1.3,9.2-0.4,13.7"/>
	<path id="XMLID_1161_" class="st0" d="M392.4,620.4c-0.8,6.9-0.1,13.8,1,20.6"/>
	<path id="XMLID_1160_" class="st0" d="M155.2,655.4c-3.6,1.7-4.1,5.8-6.1,8.7c-2.5,3.6-4.7,7.4-7.3,11"/>
	<path id="XMLID_1159_" class="st0" d="M180.2,1045.7c-7.3,4.8-12.1,11.2-13,20.9c11.6-5.5,21.2-14.1,33.6-16.8
		c1,4.2,0.9,5.3-2.4,12.7c-1.4,3.2-2.7,6.3-3.8,9.6"/>
	<path id="XMLID_1158_" class="st0" d="M132.7,615.6c-9,2.7-16.6,8.4-25,12.3c-6,2.8-12.6,3.8-19.1,0.6"/>
	<path id="XMLID_1157_" class="st0" d="M159.1,581c-6.8,1.9-13.3,4.4-19.7,7.2"/>
	<path id="XMLID_1156_" class="st0" d="M220,689.5c0-7.6,0-7.6-2.4-10.6c-3.4,2.9-5.6,6.6-6.3,11.1c4.2,1.4,8.2,1,12-1.1
		c1.2-0.7,2.1-1.3,3.4-0.4"/>
	<path id="XMLID_1155_" class="st0" d="M183.1,701.5c-9.8,0-19.5,0-29.3,0"/>
	<path id="XMLID_1154_" class="st0" d="M357.8,368.4c-1,6.2-2.2,12.5-2.8,18.7c-0.3,3.6,1,7.2,2.8,10.5"/>
	<path id="XMLID_1152_" class="st0" d="M203.7,681.4c-2.2,1.9-2.2,4.8-2.7,7.2c-0.6,3.4-1.7,4.3-5,3.4c-2.3-0.6-4.8,0.3-7.2-0.6"/>
	<path id="XMLID_1151_" class="st0" d="M406.3,530.6c-1.3,4.2-0.7,8.2,1.4,12c3.1,5.7,4.9,6.1,10.1,2.4c0.8-0.5,1.6-1,2.4-1.4"/>
	<path id="XMLID_1148_" class="st0" d="M385.2,583.4c6.2,0,12.5,0,18.7,0"/>
	<path id="XMLID_1147_" class="st0" d="M138,649.2c-3-1.5-4.8,1.4-7.1,2.1c-3.9,1.1-7.8,0.1-11.6,1.3"/>
	<path id="XMLID_1146_" class="st0" d="M405.6,654c0.8,2.7-1.6,2-2.7,2.3c-5.1,1.4-9.9,3.6-15.3,3.5c-2,0-3.5,2.3-5.8,2.3"/>
	<path id="XMLID_1145_" class="st0" d="M150,524.9c4.2,3.3,7.3,8,13.9,7.9c5.2-0.1,8.7-2.1,12-5.5c0.7-0.8,0.6-1.9,0-2.9
		c-1.6-2.7-3.4-5.3-7.2-4.8"/>
	<path id="XMLID_1144_" class="st0" d="M108.2,598.3c6.7,3.1,7.8,10,9.9,15.9c0.8,2.3-1.8,5.2-1.7,8.1"/>
	<path id="XMLID_1143_" class="st0" d="M314.6,709.7c-1.8,4.5-0.8,9.3-1.6,13.9c-0.8,4.4,1,6.9,4,9.1"/>
	<path id="XMLID_1142_" class="st0" d="M224.8,1065.4c-2.5,1.2-1.8,3.8-2.3,5.8c-1.1,4.2-4.1,7.4-5.4,11.5"/>
	<path id="XMLID_1141_" class="st0" d="M489.8,312.7c-0.2,0.9,0.4,1.9-0.5,2.9c-4,4.7-7.1,10-11.5,14.4"/>
	<path id="XMLID_1140_" class="st0" d="M117.8,588.2c5.8,1.4,11.5-0.2,17.3,0"/>
	<path id="XMLID_1139_" class="st0" d="M392.8,642c0.2,6.4-3.2,11.6-5.3,17.3"/>
	<path id="XMLID_1138_" class="st0" d="M434.1,613.2c0,0.5,0.2,1.2,0,1.4c-5.1,4.4-9.1,9.5-11.5,15.9"/>
	<path id="XMLID_1137_" class="st0" d="M294.9,914.2c-3.7,2.8-3,7.5-4.7,11.1c-0.8,1.6-1,3.5-2.5,4.8"/>
	<path id="XMLID_1136_" class="st0" d="M177.8,1046.6c-2.1-1.7-4.5-0.4-6.7-0.4c-5.6-0.1-11.2-0.2-16.8,0.9"/>
	<path id="XMLID_1134_" class="st0" d="M132.7,192.2c4,5.7,7.5,11.8,13,16.3"/>
	<path id="XMLID_1133_" class="st0" d="M99.1,286.8c2.2,8.8,3.4,9.2,13,6.7"/>
	<path id="XMLID_1132_" class="st0" d="M225.8,1065.4c2.6,5.6,3.2,12.3,8.6,16.3"/>
	<path id="XMLID_1131_" class="st0" d="M121.6,600.7c5.4,2.9,10.2,7.1,16.3,8.6"/>
	<path id="XMLID_1130_" class="st0" d="M237.8,442.3c-5.5-1.1-10.8,2.1-16.3,0.5"/>
	<path id="XMLID_1128_" class="st0" d="M143.2,622.8c2.3,0.2,3.4,1.8,4.9,3.3c3.4,3.3,5.9,7.5,10,10.2"/>
	<path id="XMLID_1127_" class="st0" d="M288.2,1048.6c5.6-4,12.3-5.7,19.1-10.1c0.3,6.4-1.5,11.9-0.9,17.3"/>
	<path id="XMLID_1126_" class="st0" d="M378,632.4c4.6,0.9,7.9,4.1,11.8,6.3c6.4,3.7,8.8,10.7,14.6,14.3"/>
	<path id="XMLID_1120_" class="st0" d="M74.6,63.6c-1.1,3.2,0.8,6.1,0.9,9.1c0.1,1.9,0.6,3.9-0.4,5.8"/>
	<path id="XMLID_1119_" class="st0" d="M527.7,923.3c-4.8-0.2-9.7,0.7-14.4-1"/>
	<path id="XMLID_1115_" class="st0" d="M224.4,697.2c3.5,2.1,7-1.8,10.8,0.1c-1.4,6-4.8,10-10.8,11.9"/>
	<path id="XMLID_1112_" class="st0" d="M162.9,609.8c-4.5,0-9,0.3-13.4,1"/>
	<path id="XMLID_1109_" class="st0" d="M295.4,283c-4.9-0.3-9.2-2.7-13.4-4.8"/>
	<path id="XMLID_1108_" class="st0" d="M402.9,602.2c-0.6,3.2-2.7,5.7-4,8.6c-0.8,1.7-0.7,3.2-0.8,4.9"/>
	<path id="XMLID_1106_" class="st0" d="M323.2,849.8c-4.7,7.4-7.5,15.8-11.5,23.5c-0.2,0.4-0.1,1.1,0.5,1.4"/>
	<path id="XMLID_1103_" class="st0" d="M369.8,738c-3.2-1.6-6.1,0.5-9.1,1.2c-1.1,0.2-2.2,0.7-3.4,0.8"/>
	<path id="XMLID_1102_" class="st0" d="M341.5,559.4c-3.5,3.6-4.7,8.6-7.7,12.5"/>
	<path id="XMLID_1100_" class="st0" d="M494.6,910.3c3.7,3.7,7.3,7.5,12,10.1"/>
	<path id="XMLID_1098_" class="st0" d="M300.7,909.8c-0.6,2.7-1.6,5.3-1.4,8.2c0.1,1.7-0.6,2.6-2.4,2.4"/>
	<path id="XMLID_1091_" class="st0" d="M422.6,640.1c-0.3,4.3-3.5,7.4-4.3,11.5"/>
	<path id="XMLID_1087_" class="st0" d="M164.4,594.5c-3.6,1.1-7.1,2.8-11,2.4"/>
	<path id="XMLID_1084_" class="st0" d="M319.4,520.1c-3.3,1.6-6.9,2-10.6,2.4"/>
	<path id="XMLID_1083_" class="st0" d="M169.6,288.7c-3.7,0.6-6.9-2.2-10.6-1.9"/>
	<path id="XMLID_1082_" class="st0" d="M152.4,617c-2.3-3-3.3-7.7-8.6-6.7"/>
	<path id="XMLID_1075_" class="st0" d="M311.7,1045.7c-2.5,2.9-1.6,7.2-4.3,10.1"/>
	<path id="XMLID_1074_" class="st0" d="M453.8,502.8c1.9,2.1,3.9,4.2,5.8,6.2c1,1.1,2,2.4,3.8,1.9"/>
	<path id="XMLID_1072_" class="st0" d="M424.5,640.1c1.6,4.1,5.1,6.1,8.6,8.2"/>
	<path id="XMLID_1071_" class="st0" d="M328,741.8c-3.9-2-6.6-5.6-10.1-8.2"/>
	<path id="XMLID_1070_" class="st0" d="M225.3,1054.8c1.4,3.2-0.6,6.4,0,9.6"/>
	<path id="XMLID_1069_" class="st0" d="M506.1,692.9c-0.2,3.5-2.7,6.3-3.4,9.6"/>
	<path id="XMLID_1066_" class="st0" d="M51.1,341.5c-2.8,4.9-8.7,6.5-12.2,10.9c-1.2,1.4-2.7,2.7-3.6,4.5"/>
	<path id="XMLID_1065_" class="st0" d="M443.7,80.9c2.9,2.1,6.4,2.9,9.1,5.3"/>
	<path id="XMLID_1064_" class="st0" d="M440.4,721.2c2.6,2.9,5.1,5.8,7.7,8.6"/>
	<path id="XMLID_1063_" class="st0" d="M204.2,680.4c3.3,1.8,3.4,6,6.2,8.2"/>
	<path id="XMLID_1062_" class="st0" d="M517.2,829.2c0.5,3-1.7,5.6-1,8.6"/>
	<path id="XMLID_1061_" class="st0" d="M212.8,297.4c-1.7,2.9-4.3,4.5-7.7,4.8"/>
	<path id="XMLID_1060_" class="st0" d="M397.6,340.1c-2.7,1.8-5.4,3.5-8.2,5.3"/>
	<path id="XMLID_1057_" class="st0" d="M229.2,687.1c-3,3-3,7.7-6.2,10.6c-2.8-0.9-2.6-4.1-4.3-5.8"/>
	<path id="XMLID_1056_" class="st0" d="M306.9,1056.7c-1.2,2.4-1.2,5.1-1.9,7.7"/>
	<path id="XMLID_1054_" class="st0" d="M241.6,1069.2c-1.1,2.4-2.2,4.8-3.4,7.2"/>
	<path id="XMLID_1053_" class="st0" d="M289.6,934.3c1.6,3.3,4.8,5.6,6.2,9.1"/>
	<path id="XMLID_1052_" class="st0" d="M306,721.2c-2.1-1.3-4.6,0.3-6.7-1"/>
	<path id="XMLID_1050_" class="st0" d="M149.5,840.7c-1,2.2-1.9,4.5-2.9,6.7"/>
	<path id="XMLID_1048_" class="st0" d="M137,587.3c3.5,1.9,5.3,5.7,8.6,7.7"/>
	<path id="XMLID_1047_" class="st0" d="M287.7,391.4c0.2,4.8,0.6,9.7-3.4,13.4"/>
	<path id="XMLID_1046_" class="st0" d="M337.6,578.6c0.6,2.5,3.3,3.9,3.4,6.7"/>
	<path id="XMLID_1042_" class="st0" d="M190.8,692.4c0.1,3,2.7,4.3,4.3,6.2"/>
	<path id="XMLID_1041_" class="st0" d="M519.1,821.5c0.3,2-1.7,3.7-1,5.8"/>
	<path id="XMLID_1040_" class="st0" d="M307.4,304.1c-1.2,1.9-2.9,3.4-3.4,5.8"/>
	<path id="XMLID_1039_" class="st0" d="M331.9,305c0,2,0.5,3.9,1,5.8"/>
	<path id="XMLID_1037_" class="st0" d="M347.2,745.7c-1.9,0-3.8,0-5.8,0"/>
	<path id="XMLID_1036_" class="st0" d="M235.9,1084.1c1.9,1.3,2.7,3.9,5.3,4.3"/>
	<path id="XMLID_1035_" class="st0" d="M429.3,581.5c-1.7,0.6-3.4,1.1-5.3,1"/>
	<path id="XMLID_1034_" class="st0" d="M396.7,493.2c-1.8,0.3-3.5,0.6-5.3,1"/>
	<path id="XMLID_1033_" class="st0" d="M345.8,752.4c1.8,1.8,3.5,3.5,5.3,5.3"/>
	<path id="XMLID_1032_" class="st0" d="M166.3,517.2c2.6,3.1,3.8,6.7,1.3,10c-1.6,2.1,0.3,3,0.2,4.4"/>
	<path id="XMLID_1030_" class="st0" d="M269.5,356.9c-1.7-0.2-3.2,0.5-4.8,1"/>
	<path id="XMLID_1027_" class="st0" d="M490.3,302.2c-1.3,1.9,0.5,2.7,1.4,3.8"/>
	<path id="XMLID_1026_" class="st0" d="M459.6,91c1.7,0.4,2.2,2.5,3.8,2.9"/>
	<path id="XMLID_1024_" class="st0" d="M151.4,835.9c0.5,1.2-1.5,1.6-1,2.9"/>
	<path id="XMLID_1021_" class="st0" d="M120.7,894.5c0.2,0.9-0.4,1.4-1,1.9"/>
	<path id="XMLID_1020_" class="st0" d="M189.8,142.8c0,0.5,0.1,1.1-0.5,1.4"/>
</g>
</svg>
