<?xml version="1.0" encoding="utf-8"?>
<!-- Generator: Adobe Illustrator 19.0.0, SVG Export Plug-In . SVG Version: 6.00 Build 0)  -->
<svg version="1.1" id="Layer_1" xmlns="http://www.w3.org/2000/svg" xmlns:xlink="http://www.w3.org/1999/xlink" x="0px" y="0px"
	 viewBox="-153 365.5 691.5 271.5" style="enable-background:new -153 365.5 691.5 271.5;" xml:space="preserve">
<style type="text/css">
	.st0{fill:#FFFFFF;stroke:#FFFFFF;stroke-miterlimit:10;}
	.st1{fill:none;stroke:#F384CA;stroke-width:3;stroke-miterlimit:10;}
	.st2{fill:none;stroke:#00D8CB;stroke-width:3;stroke-miterlimit:10;}
	.st3{fill:none;stroke:#FF5656;stroke-width:3;stroke-miterlimit:10;}
	.st4{fill:none;stroke:#89BDEF;stroke-width:3;stroke-miterlimit:10;}
	.st5{font-family:'OratorStd';}
	.st6{font-size:60px;}
</style>
<g id="XMLID_3_">
	<g id="XMLID_17_">
		<path id="XMLID_638_" class="st0" d="M-73.3,520.3c10,0.3,18.6,7.4,18.6,16c0,18.4,0,36.8,0,55.1c0,9-9.9,17.3-18.4,18.3
			c-14.9,2.4-29.6,5-44.5,7.8c-10.2,1.9-18.1-5-18.1-15c0-12,0-24,0-36c9-3.1,19-6,29-8.7c0,9.7,0,19.5,0,29.2c9-1,13-1.5,22-2.5
			c0-12.6,0-25.3,0-37.9c-11,0.3-21.8,0.6-32.8,1c-10.2,0.3-18.2-7.8-18.2-17.9c0-21.7,0-43.5,0-65.2c0-10.2,8-16.9,18.2-15
			c14.9,2.7,29.6,5.3,44.6,7.8c8.5,1.1,18.3,9.3,18.3,18.3c0,9.9,0,19.8,0,29.8c-10,1.4-20,2.8-30,4.4c0-11.1,0-16.6,0-27.7
			c-9-0.9-13-1.4-22-2.5c0,13.2,0,26.4,0,39.5C-95.7,519.6-84.5,520-73.3,520.3z M-133.7,529.9c0,4,1.3,7.7,3.8,10.4
			c3-3,4.2-4.5,7.2-7.4c0-23,0-46.1,0-69.1c-3-3.4-4.3-5.1-7.2-8.6c-2.5,2.3-3.8,5.8-3.8,9.7C-133.7,486.6-133.7,508.2-133.7,529.9z
			 M-133.7,569.4c0,10.9,0,21.9,0,32.8c0,4,1.3,7.2,3.8,9.7c3-3.6,4.2-5.3,7.2-8.8c0-9.6,0-19.2,0-28.8
			C-126.7,572.4-129.7,571.5-133.7,569.4z M-121.6,572c4.1-4.3,6.1-6.4,10.2-10.6c-8.1,2.3-12.2,3.5-20.3,6
			C-127.6,569.4-125.6,570.3-121.6,572z M-117.7,451.8c-4-0.7-7.7,0-10.4,2c3,3.5,4.5,5.2,7.4,8.6c16.7,2.7,33.4,5.1,50.2,7.3
			c3.1-2.3,4.6-3.4,7.7-5.6c-2.7-2.3-6.5-4.2-10.2-4.8C-88,457-102.9,454.5-117.7,451.8z M-126.5,540.1c-0.7,0.7-1,1-1.7,1.7
			c2,1.7,4.2,2.8,6.7,3.3C-123.5,543.1-124.5,542.1-126.5,540.1z M-126.5,611.3c-0.7,0.7-1,1.1-1.7,1.8c2,1.4,4.2,2.2,6.7,2.2
			C-123.5,613.8-124.5,613-126.5,611.3z M-124.9,538.5c3,2.9,4.5,4.3,7.4,7.1c2.7-0.1,4-0.1,6.7-0.2c-4.3-4-6.4-6.1-10.7-10.4
			C-122.8,536.4-123.6,537-124.9,538.5z M-124.9,609.4c3,2.3,4.5,3.5,7.4,5.7c2.7-0.5,4-0.7,6.7-1.2c-4.3-3.3-6.4-5-10.7-8.5
			C-122.8,607-123.6,607.8-124.9,609.4z M-108.7,478.8c-5-4.9-7-7.4-11-12.5c0,2.7,0,4.1,0,6.8c4,5,6,7.5,11,12.3
			C-108.7,482.8-108.7,481.5-108.7,478.8z M-119.7,483.2c4,4.8,6,7.2,11,11.8c0-2.5,0-3.8,0-6.3c-5-4.8-7-7.2-11-12.2
			C-119.7,479.2-119.7,480.5-119.7,483.2z M-119.7,493c4,4.8,6,7.2,11,11.8c0-2.6,0-4,0-6.6c-5-4.7-7-7.1-11-12
			C-119.7,489-119.7,490.4-119.7,493z M-108.7,508.2c-5-4.6-7-6.9-11-11.7c0,2.7,0,4.1,0,6.8c4,4.6,6,6.9,11,11.3
			C-108.7,512-108.7,510.8-108.7,508.2z M-110.9,522c0.9-0.8,1.2-1.2,2.2-2.1c0-0.8,0-1.3,0-2.1c-5-4.5-7-6.8-11-11.5
			c0,2.7,0,4.1,0,6.8C-116.7,516.8-114.5,518.5-110.9,522z M-116.1,526.9c1.4-1.3,2.1-2,3.5-3.3c-2.9-2.8-4.1-4.2-7.1-7.2
			c0,2.7,0,4.1,0,6.8C-118.7,524.6-117.6,525.5-116.1,526.9z M-119.7,526.4c0,1.6,0,2.5,0,4.1c1-0.8,1.2-1.1,2-1.9
			C-118.6,527.6-118.7,527.3-119.7,526.4z M-110.9,590.8c0.9-1.1,1.2-1.6,2.2-2.6c0-0.8,0-1.1,0-1.9c-5-3.8-7-5.8-11-9.8
			c0,2.7,0,4.1,0,6.8C-116.7,586.4-114.5,587.9-110.9,590.8z M-116.1,596.5c1.4-1.5,2.1-2.3,3.5-3.8c-2.9-2.5-4.1-3.7-7.1-6.3
			c0,2.7,0,4.1,0,6.8C-118.7,594.5-117.6,595.1-116.1,596.5z M-119.7,596.5c0,1.6,0,2.5,0,4.1c1-1,1.2-1.5,2-2.5
			C-118.6,597.5-118.7,597.1-119.7,596.5z M-116.2,570c-1.4,1.5-2.1,2.2-3.4,3.7c4.4,3.9,6.9,5.7,10.9,9.4c0-2.6,0-4,0-6.6
			C-111.7,573.9-113.2,572.6-116.2,570z M-118.7,534.6c4.6,4.4,6.8,6.6,11.4,10.8c2.8-0.1,4.2-0.1,7-0.2c-4.6-4.1-6.9-6.2-11.4-10.6
			C-114.6,534.6-116.1,534.6-118.7,534.6z M-118.7,604.3c4.6,3.7,6.8,5.5,11.4,9c2.8-0.5,4.2-0.7,7-1.2c-4.6-3.5-6.9-5.2-11.4-8.9
			C-114.6,603.6-116.1,603.9-118.7,604.3z M-107.1,477.4c2.8,0.3,4.2,0.5,7,0.9c-4.6-4.7-6.9-7.1-11.4-12.1c-2.7-0.4-4-0.6-6.7-1
			C-113.8,470.2-111.5,472.6-107.1,477.4z M-107.1,521.6c-4.5,4.1-6.7,6.2-11.2,10.5c16,0.1,32,0.1,47.9,0.1
			c3.1-2.6,4.6-3.9,7.7-6.4c-3-2.2-6.5-3.3-10.5-3.4C-84.5,522.1-95.7,522-107.1,521.6z M-84.2,586.9c-9.1,1-13.7,1.6-22.9,2.7
			c-4.5,4.9-6.7,7.4-11.2,12.5c15.1-2.3,30.3-4.4,45.5-6.4C-77.5,592.1-79.6,590.5-84.2,586.9z M-111,564.6
			c-1.4,1.4-2.1,2.1-3.4,3.6c2.3,2,3.7,3,5.7,5c0-2.5,0-3.8,0-6.3C-109.7,565.9-110.1,565.5-111,564.6z M-108.8,563.5
			c0-0.6,0-0.8,0-1.4c-0.2,0.3-0.3,0.4-0.5,0.7C-109.1,563-109,563.1-108.8,563.5z M-108.3,534.6c4.6,4.3,6.9,6.4,11.4,10.5
			c2.7-0.1,4-0.1,6.7-0.2c-4.5-4-6.7-6.1-11.2-10.4C-104.1,534.5-105.5,534.5-108.3,534.6z M-108.3,602.6c4.6,3.6,6.9,5.4,11.4,8.8
			c2.7-0.5,4-0.7,6.7-1.1c-4.5-3.4-6.7-5.2-11.2-8.8C-104.1,602-105.5,602.3-108.3,602.6z M-101.1,467.7c-2.8-0.4-4.2-0.6-7-1
			c4.6,4.9,6.9,7.3,11.4,12c2.8,0.3,4.2,0.5,7,0.8C-94.3,474.9-96.5,472.5-101.1,467.7z M-86.7,544.8c1.1,0,1.6,0,2.7-0.1
			c0.8-0.8,1.2-1.2,2-2c-3.7-3.2-5.5-4.8-9.2-8.2c-2.8,0-4.2,0-7,0C-93.6,538.8-91.3,540.8-86.7,544.8z M-98.1,601.1
			c4.6,3.6,6.9,5.3,11.4,8.7c2.8-0.5,4.2-0.7,7-1.1c-4.6-3.3-6.9-5-11.4-8.6C-94,600.5-95.5,600.6-98.1,601.1z M-86.5,479.9
			c0.9,0.1,1.3,0.2,2.2,0.3c0.9-0.7,1.3-1,2.2-1.7c-3.6-3.6-5.4-5.5-8.9-9.2c-2.7-0.4-4-0.6-6.7-0.9
			C-93.2,473-90.9,475.3-86.5,479.9z M-80.7,534.5c-2.8,0-4.2,0-7,0c3,2.7,4.5,4,7.5,6.6c1.4-1.3,2.1-1.9,3.5-3.1
			C-78.5,536.6-79.1,535.9-80.7,534.5z M-76.3,608c1.3-0.2,1.9-0.3,3.2-0.5c1-0.2,2.2-0.6,3.2-0.7c-4.4-3.2-6.6-4.9-10.9-8.3
			c-2.8,0.4-4.2,0.6-7,1C-83.1,603-80.8,604.8-76.3,608z M-80.5,470.6c-2.8-0.4-4.2-0.6-7-0.9c2.9,3,4.3,4.5,7.2,7.4
			c1.4-1.1,2.1-1.6,3.5-2.7C-78.3,472.9-79,472-80.5,470.6z M-82.7,481.7c0,9.9,0,14.8,0,24.6c5-3.8,7-5.7,12-9.3
			c0-9.6,0-14.4,0-24.1C-75.7,476.3-77.7,478-82.7,481.7z M-82.7,585.3c5,3.6,7,5.3,12,8.7c0-19.4,0-38.7,0-58.1c-5,3.9-7,5.9-12,10
			C-82.7,559-82.7,572.1-82.7,585.3z M-78.5,506c0.3,0.3,0.4,0.4,0.7,0.7c2.3-0.3,3.4-0.5,5.7-0.8c-1.2-1.1-1.8-1.7-3-2.8
			C-76.5,504.4-77.1,504.9-78.5,506z M-75,536.6c1-0.9,1.5-1.3,2.5-2.2c-2,0-3,0-5,0C-76.5,535.4-76,535.8-75,536.6z M-70.5,597.3
			c-2.8,0.4-4.2,0.6-7,0.9c4.1,3,6.1,4.5,10.2,7.5c1.7-0.7,3.2-1.8,4.5-2.8C-65.9,600.6-67.5,599.6-70.5,597.3z M-75,473
			c0.9-0.6,1.3-0.9,2.2-1.5c-1.7-0.2-2.5-0.3-4.2-0.6C-76.2,471.9-75.8,472.3-75,473z M-73.3,501.8c1.6,1.5,2.4,2.2,4,3.7
			c2.2-0.3,3.3-0.5,5.5-0.8c-2.4-2.2-3.6-3.3-6-5.5C-71.2,500.3-71.9,500.8-73.3,501.8z M-68.7,479.5c5,4.5,7,6.7,12,11
			c0-2.4,0-3.5,0-5.9c-5-4.3-7-6.5-12-11.1C-68.7,475.9-68.7,477-68.7,479.5z M-68.7,488.5c5,4.3,7,6.4,12,10.5c0-2.3,0-3.4,0-5.7
			c-5-4.3-7-6.4-12-10.9C-68.7,484.9-68.7,486-68.7,488.5z M-68.7,496.9c5,2.4,7,3.6,12,5.9c0-0.3,0-0.5,0-0.8c-5-4.2-7-6.3-12-10.7
			C-68.7,493.6-68.7,494.7-68.7,496.9z M-68.7,542.1c5,3.8,7,5.7,12,9.3c0-2.3,0-3.4,0-5.7c-5-3.8-7-5.7-12-9.6
			C-68.7,538.6-68.7,539.8-68.7,542.1z M-68.7,551c5,3.8,7,5.7,12,9.3c0-2.4,0-3.5,0-5.9c-5-3.7-7-5.6-12-9.4
			C-68.7,547.5-68.7,548.6-68.7,551z M-68.7,560c5,3.6,7,5.4,12,8.9c0-2.3,0-3.4,0-5.7c-5-3.6-7-5.4-12-9.2
			C-68.7,556.5-68.7,557.6-68.7,560z M-68.7,569c5,3.6,7,5.4,12,8.9c0-2.4,0-3.5,0-5.9c-5-3.5-7-5.3-12-9
			C-68.7,565.4-68.7,566.6-68.7,569z M-68.7,578c5,3.5,7,5.1,12,8.4c0-2.3,0-3.4,0-5.7c-5-3.4-7-5.2-12-8.8
			C-68.7,574.4-68.7,575.6-68.7,578z M-68.7,580.9c0,2.4,0,3.6,0,6c5,3.3,6.8,4.9,11.2,8.1c0.2-1.1,0.8-2.2,0.8-3.2
			c0-0.9,0-1.4,0-2.3C-61.7,586-63.7,584.4-68.7,580.9z M-61.2,601.1c1-1.2,2-2.6,2.7-4c-4.1-2.9-6.2-4.3-10.2-7.3c0,2.4,0,3.6,0,6
			C-65.7,598-64.1,599-61.2,601.1z M-64.5,468.4c-1.4,1-2,1.5-3.4,2.5c4.4,4.4,6.1,6.5,11.1,10.7c0-0.2,0-0.3,0-0.4
			c0-2.1,0-3.2,0-5.3C-59.7,472.9-61.5,471.4-64.5,468.4z M-67.9,533.6c4.4,3.8,6.1,5.6,11.1,9.3c0-2.4,0-3.5,0-5.9
			c-3-2.5-4.6-3.8-7.6-6.4C-65.7,531.8-66.5,532.4-67.9,533.6z M-63.8,501.8c1.1,1,1.6,1.5,2.7,2.5c0.7,0,1-0.1,1.7-0.1
			C-61.1,503.2-62,502.8-63.8,501.8z M-57.3,472.7c-0.7-2.6-2-4.9-3.7-6.8c-0.8,0.5-1.2,0.7-2,1.2
			C-60.8,469.4-59.6,470.5-57.3,472.7z M-63.1,529c2.3,1.9,3.4,2.8,5.7,4.7c-0.5-2.3-1.7-4.6-3.7-6.4C-61.9,528-62.3,528.5-63.1,529
			z"/>
		<path id="XMLID_604_" class="st0" d="M16.3,491.3c0,35.5,0,71.1,0,106.6c-10,1-20,2.2-30,3.5c0-37.5,0-74.9,0-112.4
			c-10-0.8-21-1.7-31-2.7c0-9.9,0-14.8,0-24.7c31,4.2,61,7.7,92,10.5c0,8.4,0,12.6,0,21C37.3,492.7,27.3,492,16.3,491.3z
			 M-31.7,475.3c-4.4-3.9-6-5.9-11-10.1c0,7,0,10.6,0,17.6C-37.7,479.8-36.1,478.3-31.7,475.3z M-40.1,484.3
			c-0.3,0.1-0.4,0.2-0.7,0.3c0.6,0.1,0.9,0.1,1.5,0.1C-39.7,484.6-39.8,484.5-40.1,484.3z M31.8,480.7c4.5-2.9,6.8-4.4,11.3-7.2
			c-28-2.5-55.9-5.6-83.7-9.3c4.6,4.4,6.9,6.5,11.5,10.7C-8.9,477,11.5,479,31.8,480.7z M-38.5,483c0.9,0.8,1.3,1.2,2.2,2
			c2.8,0.3,4.2,0.4,7,0.6c-2.3-2-3.4-3.1-5.7-5.2C-36.3,481.6-37,482-38.5,483z M-33.5,479.3c3.1,2.7,4.6,4.1,7.7,6.7
			c2.8,0.3,4.2,0.4,7,0.6c-4.5-3.8-6.7-5.8-11.2-9.8C-31.3,477.9-32,478.4-33.5,479.3z M-15.5,487c0.9,0.1,1.3,0.1,2.2,0.2
			c0.9-0.6,1.3-0.9,2.2-1.5c-3.6-3.1-5.4-4.7-9-7.9c-2.7-0.3-4-0.4-6.7-0.7C-22.2,481-19.9,483-15.5,487z M-5.7,482
			c-1.5-1.3-2.2-1.9-3.7-3.2c-2.8-0.3-4.2-0.4-7-0.7c2.9,2.6,4.3,3.8,7.2,6.3C-7.8,483.5-7.1,483-5.7,482z M-10.7,488.5
			c0,36.5,0,72.9,0,109.4c4-4.1,6-6.1,11-10c0-35.7,0-71.4,0-107.1C-4.7,483.8-6.7,485.3-10.7,488.5z M-9.2,598.6
			c-0.1,0.2-0.1,0.2-0.2,0.4c0.3,0,0.4-0.1,0.7-0.1C-8.9,598.8-9,598.6-9.2,598.6z M-7.5,597.1c0.9,0.5,1.3,0.8,2.2,1.3
			c2.7-0.3,4-0.5,6.7-0.8c-2.2-1.4-3.3-2.1-5.5-3.6C-5.3,595.4-6,596-7.5,597.1z M-3.9,480.9c0.9-0.5,1.3-0.8,2.2-1.3
			c-1.7-0.2-2.5-0.2-4.2-0.4C-5.1,479.9-4.7,480.2-3.9,480.9z M-2.2,592.6c2.9,1.9,4.3,2.8,7.2,4.7c2.8-0.3,4.2-0.5,7-0.7
			c-4.3-2.7-6.5-4.1-10.8-7C-0.1,590.8-0.8,591.4-2.2,592.6z M14.3,495.8c0-2.1,0-3.1,0-5.2c-5-3.7-7-5.6-12-9.5c0,2.1,0,3.2,0,5.3
			C7.3,490.2,9.3,492,14.3,495.8z M14.3,503.3c0-2,0-3,0-5c-5-3.7-7-5.5-12-9.3c0,2.1,0,3.2,0,5.3C7.3,498,9.3,499.8,14.3,503.3z
			 M2.3,502c5,3.7,7,5.5,12,9.1c0-2.1,0-3.1,0-5.2c-5-3.6-7-5.4-12-9.2C2.3,498.8,2.3,499.9,2.3,502z M2.3,504.6c0,2.1,0,3.2,0,5.3
			c5,3.6,7,5.3,12,8.8c0-2,0-3,0-5C9.3,510,7.3,508.3,2.3,504.6z M2.3,512.3c0,2.1,0,3.2,0,5.3c5,3.6,7,5.3,12,8.8
			c0-2.1,0-3.1,0-5.2C9.3,517.8,7.3,516,2.3,512.3z M2.3,525.5c5,3.5,7,5.1,12,8.5c0-2,0-3,0-5c-5-3.4-7-5.2-12-8.7
			C2.3,522.4,2.3,523.4,2.3,525.5z M2.3,533.1c5,3.5,7,5.2,12,8.5c0-2.1,0-3.1,0-5.2c-5-3.4-7-5.1-12-8.6C2.3,530,2.3,531,2.3,533.1
			z M2.3,541c5,3.3,7,5,12,8.2c0-2,0-3,0-5c-5-3.3-7-5-12-8.4C2.3,538,2.3,539,2.3,541z M2.3,548.9c5,3.3,7,5,12,8.2
			c0-2.1,0-3.1,0-5.2c-5-3.3-7-4.9-12-8.3C2.3,545.6,2.3,546.8,2.3,548.9z M2.3,556.8c5,3.2,7,4.8,12,7.9c0-2,0-3,0-5
			c-5-3.2-7-4.8-12-8.1C2.3,553.6,2.3,554.6,2.3,556.8z M2.3,564.5c5,3.2,7,4.8,12,7.9c0-2.1,0-3.1,0-5.2c-5-3.1-7-4.7-12-8
			C2.3,561.3,2.3,562.4,2.3,564.5z M2.3,572.4c5,3.1,7,4.6,12,7.6c0-2,0-3,0-5c-5-3.1-7-4.7-12-7.8C2.3,569.1,2.3,570.3,2.3,572.4z
			 M2.3,580c5,3.1,7,4.6,12,7.6c0-2.1,0-3.1,0-5.2c-5-3-7-4.6-12-7.7C2.3,576.9,2.3,578,2.3,580z M2.3,588c5,3,7,4.4,12,7.3
			c0-2.1,0-3.1,0-5.2c-5-2.9-7-4.4-12-7.4C2.3,584.9,2.3,585.9,2.3,588z M15.8,489.4c2.8,0.2,4.2,0.3,7,0.5
			c-4.6-3.6-6.9-5.4-11.5-9.2c-2.8-0.2-4.2-0.4-7-0.6C8.9,483.9,11.2,485.8,15.8,489.4z M21.6,481.6c-2.7-0.2-4.1-0.3-6.8-0.6
			c4.5,3.7,6.8,5.5,11.3,9.1c2.8,0.2,4.2,0.3,7,0.5C28.5,487,26.2,485.3,21.6,481.6z M32.1,482.5c-2.8-0.2-4.2-0.3-7-0.6
			c4.6,3.6,6.9,5.4,11.5,8.9c2.8,0.2,4.2,0.3,7,0.4C39,487.8,36.7,486,32.1,482.5z M34.2,481.6c4.4,3.5,6.1,5.2,11.1,8.6
			c0-1.9,0-2.9,0-4.8c-3-2.4-4.6-3.6-7.6-6C36.3,480.2,35.6,480.7,34.2,481.6z M39.4,478.2c2.3,1.9,3.9,2.8,5.9,4.7c0-2,0-3,0-4.9
			c-1-0.7-1.4-1.1-2.3-1.8C41.6,477,40.8,477.4,39.4,478.2z M44.6,475c0.2,0.2,0.3,0.3,0.5,0.6c0-0.4,0-0.6,0-1.1
			C44.9,474.8,44.8,474.9,44.6,475z"/>
		<path id="XMLID_550_" class="st0" d="M140.3,589.6c-10,0.3-20,0.7-30,1.2c0-11.3,0-22.7,0-34c-9,0.2-14,0.3-22,0.5
			c0,11.6,0,23.1,0,34.7c-10,0.6-20,1.3-30,2.1c0-36.1,0-72.2,0-108.3c0-7.1,8.1-12.1,18.3-11.4c15.1,1,30.1,1.8,45.1,2.5
			c10,0.4,18.5,6,18.5,12.5C140.3,522.8,140.3,556.1,140.3,589.6z M64,479c-2.5,1.7-3.7,4.2-3.7,7c0,35,0,70,0,105
			c4-3.5,7-5.2,11-8.6c0-32.6,0-65.1,0-97.7C68.3,482.5,67,481.3,64,479z M62.4,591.6c-0.2,0.2-0.3,0.2-0.5,0.4c0.3,0,0.5,0,0.8-0.1
			C62.5,591.9,62.5,591.9,62.4,591.6z M64.1,590.6c0.8,0.5,1.2,0.7,2,1.2c2.8-0.2,4.2-0.3,7-0.5c-2.2-1.3-3.3-2-5.5-3.4
			C66.3,589,65.6,589.5,64.1,590.6z M76.4,476c-4-0.3-7.8,0.5-10.5,2c3,2.3,4.5,3.4,7.5,5.6c16.9,1,33.8,1.8,50.7,2.4
			c3.1-1.9,4.7-2.8,7.8-4.7c-2.8-1.5-6.5-2.6-10.3-2.8C106.5,477.8,91.5,476.9,76.4,476z M69.2,586.6c3,1.8,4.5,2.7,7.5,4.4
			c2.7-0.2,4.1-0.3,6.8-0.4c-4.3-2.6-6.5-3.9-10.8-6.6C71.3,585,70.6,585.6,69.2,586.6z M85.3,494.6c-4-3.3-7-4.9-11-8.3
			c0,1.9,0,2.8,0,4.7c4,3.3,7,5,11,8.2C85.3,497.4,85.3,496.5,85.3,494.6z M74.3,498.2c4,3.2,7,4.8,11,8c0-1.8,0-2.7,0-4.5
			c-4-3.2-7-4.9-11-8.2C74.3,495.4,74.3,496.3,74.3,498.2z M74.3,505c4,3.3,7,4.9,11,8.1c0-1.9,0-2.8,0-4.7c-4-3.2-7-4.8-11-8.1
			C74.3,502.3,74.3,503.3,74.3,505z M74.3,512.3c4,3.2,7,4.7,11,7.8c0-1.8,0-2.7,0-4.5c-4-3.2-7-4.8-11-8
			C74.3,509.4,74.3,510.4,74.3,512.3z M74.3,519.1c4,3.2,7,4.8,11,7.9c0-1.9,0-2.8,0-4.7c-4-3.1-7-4.7-11-7.9
			C74.3,516.4,74.3,517.3,74.3,519.1z M85.3,529.4c-4-3.1-7-4.7-11-7.8c0,1.9,0,2.8,0,4.7c4,3.1,7,4.6,11,7.6
			C85.3,532,85.3,531.1,85.3,529.4z M83.2,539.3c0.9-0.6,1.1-0.9,2.1-1.5c0-0.6,0-0.9,0-1.5c-4-3.1-7-4.6-11-7.8c0,1.9,0,2.8,0,4.7
			C77.3,535.6,79.6,536.9,83.2,539.3z M78,542.9c1.4-1,2.1-1.4,3.5-2.4c-2.9-1.9-4.2-2.9-7.2-4.9c0,1.9,0,2.8,0,4.7
			C75.3,541.4,76.5,541.9,78,542.9z M74.3,542.6c0,1.2,0,1.7,0,2.9c1-0.6,1.2-0.8,2-1.4C75.5,543.5,75.3,543.1,74.3,542.6z
			 M85.3,561.6c0-1.8,0-2.7,0-4.5c-4-3-7-4.5-11-7.5c0,1.9,0,2.8,0,4.7C78.3,557.4,81.3,558.8,85.3,561.6z M74.3,561.4
			c4,3,7,4.4,11,7.3c0-1.9,0-2.8,0-4.7c-4-2.9-7-4.4-11-7.4C74.3,558.6,74.3,559.5,74.3,561.4z M74.3,568.5c4,2.9,7,4.3,11,7.1
			c0-1.8,0-2.7,0-4.5c-4-2.9-7-4.4-11-7.3C74.3,565.6,74.3,566.6,74.3,568.5z M74.3,570.6c0,1.9,0,2.8,0,4.7c4,2.9,7,4.3,11,7.2
			c0-1.9,0-2.8,0-4.7C81.3,575,78.3,573.6,74.3,570.6z M74.3,582.6c4,2.8,7,4.2,11,6.9c0-1.8,0-2.7,0-4.5c-4-2.8-7-4.2-11-7.1
			C74.3,579.6,74.3,580.6,74.3,582.6z M87,555.8c2.8-0.1,4.2-0.1,7-0.2c-4.6-2.9-6.9-4.4-11.5-7.4c-2.8,0-4.2,0.1-7,0.1
			C80,551.4,82.4,552.9,87,555.8z M82.7,485.8c-2.7-0.1-4.1-0.2-6.8-0.4c4.5,3.3,6.8,4.9,11.3,8.1c2.8,0.1,4.2,0.2,7,0.3
			C89.6,490.7,87.3,489,82.7,485.8z M75.9,546.6c15.3-0.2,30.6-0.4,45.9-0.6c-4.6-2.9-6.9-4.3-11.5-7.2c-9.2,0-13.9,0.1-23.1,0.1
			C82.7,542,80.4,543.5,75.9,546.6z M93,548c-2.8,0-4.2,0.1-7,0.1c4.6,3,6.9,4.5,11.5,7.4c2.7-0.1,4.1-0.1,6.8-0.1
			C99.8,552.5,97.5,551,93,548z M93.2,486.3c-2.8-0.1-4.2-0.2-7-0.3c4.6,3.2,6.9,4.8,11.5,8c2.8,0.1,4.2,0.2,7,0.3
			C100.2,491,97.9,489.5,93.2,486.3z M110.3,496c-9-0.3-14-0.4-22-0.8c0,14,0,28,0,42c8,0,13,0,22-0.1
			C110.3,523.5,110.3,509.8,110.3,496z M107.8,555.4c0.9,0,1.4,0,2.3,0c1-0.6,1.5-0.9,2.5-1.5c-3.7-2.3-5.6-3.5-9.3-5.9
			c-2.8,0-4.2,0.1-7,0.1C100.9,551,103.2,552.5,107.8,555.4z M103.5,486.8c-2.7-0.1-4.1-0.2-6.8-0.3c4.5,3.2,6.8,4.8,11.3,7.9
			c0.9,0,1.4,0,2.3,0.1c0.9-0.6,1.4-0.8,2.3-1.4C108.9,490.6,107.1,489.3,103.5,486.8z M113.8,547.8c-2.8,0-4.2,0-7,0.1
			c3,1.9,4.5,2.9,7.5,4.8c1.4-0.9,2.1-1.4,3.5-2.3C116.2,549.3,115.4,548.8,113.8,547.8z M114.1,487.2c-2.8-0.1-4.2-0.2-7-0.3
			c2.9,2,4.4,3,7.3,5c1.4-0.9,2.1-1.3,3.5-2.2C116.3,488.8,115.6,488.3,114.1,487.2z M112.3,495.5c0,14.1,0,28.3,0,42.4
			c5,3,7,4.5,12,7.4c0-19,0-37.9,0-56.9C119.3,491.2,117.3,492.6,112.3,495.5z M112.3,556.3c0,10.5,0,21.1,0,31.6
			c5-3.2,7-4.8,12-7.9c0-10.4,0-20.8,0-31.2C119.3,551.8,117.3,553.3,112.3,556.3z M114.3,588.6c-0.1,0.1-0.2,0.2-0.3,0.3
			c0.3,0,0.5,0,0.8,0C114.6,588.8,114.5,588.6,114.3,588.6z M116.1,587.6c0.9,0.5,1.4,0.7,2.3,1.2c2.7-0.1,4.1-0.2,6.8-0.3
			c-2.2-1.3-3.3-2-5.5-3.3C118.2,586,117.5,586.6,116.1,587.6z M119.6,549.3c1-0.7,1.5-1,2.5-1.6c-2,0-3,0-5,0.1
			C118.1,548.4,118.6,548.6,119.6,549.3z M119.6,488.7c0.9-0.5,1.4-0.7,2.3-1.2c-1.7-0.1-2.6-0.1-4.3-0.2
			C118.4,487.9,118.8,488.2,119.6,488.7z M121.3,583.9c2.9,1.8,4.4,2.6,7.3,4.4c2.8-0.1,4.2-0.2,7-0.2c-4.3-2.6-6.5-3.9-10.8-6.6
			C123.5,582.5,122.8,583,121.3,583.9z M126.3,493c4,3.1,7,4.6,11,7.7c0-1.8,0-2.7,0-4.5c-4-3-7-4.6-11-7.7
			C126.3,490.4,126.3,491.3,126.3,493z M126.3,499.9c4,3,7,4.5,11,7.5c0-1.7,0-2.6,0-4.3c-4-3-7-4.6-11-7.6
			C126.3,497.2,126.3,498,126.3,499.9z M126.3,506.5c4,3.1,7,4.6,11,7.6c0-1.8,0-2.7,0-4.5c-4-3-7-4.5-11-7.6
			C126.3,503.8,126.3,504.7,126.3,506.5z M126.3,513.3c4,3,7,4.4,11,7.4c0-1.7,0-2.6,0-4.3c-4-3-7-4.5-11-7.5
			C126.3,510.6,126.3,511.5,126.3,513.3z M126.3,519.9c4,3,7,4.5,11,7.5c0-1.8,0-2.7,0-4.5c-4-3-7-4.5-11-7.5
			C126.3,517.1,126.3,518,126.3,519.9z M126.3,526.6c4,2.9,7,4.4,11,7.3c0-1.7,0-2.6,0-4.3c-4-3-7-4.4-11-7.4
			C126.3,524,126.3,524.9,126.3,526.6z M126.3,533.3c4,3,7,4.4,11,7.4c0-1.8,0-2.7,0-4.5c-4-2.9-7-4.4-11-7.4
			C126.3,530.6,126.3,531.5,126.3,533.3z M126.3,540c4,2.9,7,4.3,11,7.2c0-1.7,0-2.6,0-4.3c-4-2.9-7-4.4-11-7.4
			C126.3,537.4,126.3,538.3,126.3,540z M126.3,546.6c4,2.9,7,4.4,11,7.3c0-1.8,0-2.7,0-4.5c-4-2.9-7-4.4-11-7.3
			C126.3,544,126.3,544.9,126.3,546.6z M126.3,553.5c4,2.8,7,4.2,11,7.1c0-1.7,0-2.6,0-4.3c-4-2.9-7-4.3-11-7.3
			C126.3,550.6,126.3,551.6,126.3,553.5z M126.3,560c4,2.9,7,4.3,11,7.2c0-1.8,0-2.7,0-4.5c-4-2.9-7-4.3-11-7.2
			C126.3,557.4,126.3,558.3,126.3,560z M126.3,566.8c4,2.8,7,4.2,11,7c0-1.7,0-2.6,0-4.3c-4-2.8-7-4.3-11-7.2
			C126.3,564,126.3,565,126.3,566.8z M126.3,573.5c4,2.8,7,4.3,11,7.1c0-1.8,0-2.7,0-4.5c-4-2.8-7-4.3-11-7.1
			C126.3,570.6,126.3,571.6,126.3,573.5z M126.3,580.1c4,2.8,7,4.1,11,6.9c0-1.7,0-2.6,0-4.3c-4-2.8-7-4.2-11-7.1
			C126.3,577.5,126.3,578.4,126.3,580.1z M126.4,486.7c4.4,3,6.9,4.5,10.9,7.4c0-1.7,0-2.6,0-4.3c-3-2.1-4.4-3.1-7.4-5.2
			C128.4,485.4,127.8,485.8,126.4,486.7z M131.5,483.5c2.3,1.6,3.5,2.3,5.8,3.9c-0.8-1.9-2-3.6-3.8-4.9
			C132.8,482.8,132.4,483,131.5,483.5z"/>
		<path id="XMLID_500_" class="st0" d="M221.9,478.2c10-0.2,18.4,4.8,18.4,11.4c0,29.4,0,58.7,0,88.1c0,6.4-8.3,11.6-18.4,11.4
			c-21.3-0.3-42.6-0.3-63.6,0.1c0-37,0-74,0-111C179.3,478.5,200.5,478.5,221.9,478.2z M172.3,488c-5-3-7-4.4-12-7.4
			c0,35.2,0,70.4,0,105.7c5-3,7-4.5,12-7.4C172.3,548.6,172.3,518.4,172.3,488z M232.4,481.8c-2.8-1.4-6.5-2.2-10.3-2.2
			c-19.9,0.3-39.9,0.4-59.8,0c4.6,3,6.9,4.5,11.6,7.4c16.9,0.1,33.8,0.1,50.7-0.2C227.7,484.9,229.2,483.8,232.4,481.8z M162.8,587
			c-0.2,0.1-0.3,0.2-0.5,0.3c0.3,0,0.5,0,0.8,0C162.9,587.3,162.9,587.1,162.8,587z M164.5,586c0.8,0.5,1.2,0.7,2,1.2
			c2.8,0,4.2-0.1,7-0.1c-2.2-1.4-3.3-2-5.5-3.4C166.5,584.8,165.9,585.1,164.5,586z M169.5,582.8c3,1.8,4.5,2.7,7.5,4.5
			c2.7,0,4.1,0,6.8,0c-4.3-2.7-6.5-4-10.8-6.7C171.7,581.4,171,581.9,169.5,582.8z M186.3,496.9c-5-2.9-7-4.4-12-7.3
			c0,1.8,0,2.7,0,4.4c5,2.9,7,4.4,12,7.3C186.3,499.5,186.3,498.7,186.3,496.9z M174.3,500.6c5,2.9,7,4.3,12,7.1c0-1.7,0-2.6,0-4.3
			c-5-2.9-7-4.4-12-7.3C174.3,498,174.3,498.9,174.3,500.6z M174.3,507c5,2.9,7,4.4,12,7.3c0-1.8,0-2.6,0-4.4c-5-2.9-7-4.4-12-7.3
			C174.3,504.4,174.3,505.3,174.3,507z M174.3,513.6c5,2.9,7,4.3,12,7.1c0-1.7,0-2.6,0-4.3c-5-2.9-7-4.4-12-7.3
			C174.3,511,174.3,512,174.3,513.6z M174.3,520.1c5,2.9,7,4.4,12,7.3c0-1.8,0-2.6,0-4.4c-5-2.9-7-4.4-12-7.3
			C174.3,517.5,174.3,518.4,174.3,520.1z M174.3,526.8c5,2.8,7,4.3,12,7.1c0-1.7,0-2.6,0-4.3c-5-2.9-7-4.4-12-7.3
			C174.3,524.1,174.3,525,174.3,526.8z M174.3,533.3c5,2.9,7,4.4,12,7.2c0-1.8,0-2.6,0-4.4c-5-2.9-7-4.3-12-7.3
			C174.3,530.6,174.3,531.5,174.3,533.3z M174.3,539.9c5,2.8,7,4.3,12,7.1c0-1.7,0-2.6,0-4.3c-5-2.9-7-4.3-12-7.2
			C174.3,537.3,174.3,538.1,174.3,539.9z M174.3,546.4c5,2.9,7,4.3,12,7.2c0-1.8,0-2.6,0-4.4c-5-2.9-7-4.3-12-7.2
			C174.3,543.6,174.3,544.6,174.3,546.4z M174.3,553c5,2.8,7,4.2,12,7.1c0-1.7,0-2.6,0-4.3c-5-2.9-7-4.3-12-7.2
			C174.3,550.4,174.3,551.3,174.3,553z M186.3,562.3c-5-2.9-7-4.3-12-7.2c0,1.8,0,2.7,0,4.4c5,2.9,7,4.3,12,7.2
			C186.3,564.9,186.3,564,186.3,562.3z M183.7,571.8c0.9-0.6,1.6-1,2.6-1.6c0-0.5,0-0.8,0-1.3c-5-2.9-7-4.3-12-7.2
			c0,1.8,0,2.7,0,4.4C178.3,568.4,180.1,569.5,183.7,571.8z M178.2,575c1.4-0.9,2-1.3,3.4-2.2c-2.9-1.9-4.4-2.8-7.4-4.7
			c0,1.8,0,2.7,0,4.4C176.3,573.6,176.7,574,178.2,575z M174.3,574.8c0,1.1,0,1.6,0,2.7c1-0.6,1.2-0.9,2-1.4
			C175.5,575.6,175.3,575.3,174.3,574.8z M175.8,580c4.6,2.9,6.9,4.3,11.6,7.2c2.8,0,4.2,0,7,0c-4.6-2.9-6.9-4.3-11.6-7.2
			C180.1,580,178.7,580,175.8,580z M183.1,488.7c-2.7,0-4.1,0-6.8,0c4.5,2.9,6.8,4.3,11.3,7.1c2.8,0,4.2,0,7,0
			C190.1,493,187.7,491.5,183.1,488.7z M176.3,578.6c15.3-0.1,30.6,0,46,0.2c-4.6-3-6.9-4.5-11.6-7.4c-9.2-0.1-13.9-0.1-23.1-0.1
			C183.1,574.1,180.9,575.6,176.3,578.6z M186.4,579.9c4.6,2.9,6.9,4.3,11.6,7.2c2.7,0,4.1,0,6.8,0c-4.5-2.9-6.8-4.4-11.3-7.3
			C190.5,579.9,189.2,579.9,186.4,579.9z M193.7,488.7c-2.8,0-4.2,0-7,0c4.6,2.8,6.9,4.3,11.6,7.1c2.8,0,4.2,0,7,0
			C200.5,493,198.3,491.5,193.7,488.7z M210.3,497.3c-9,0.1-13,0.1-22,0.1c0,24.1,0,48.2,0,72.3c9,0,13,0,22,0.1
			C210.3,545.6,210.3,521.5,210.3,497.3z M196.7,579.9c4.6,2.9,6.9,4.4,11.6,7.3c2.8,0,4.2,0,7,0.1c-4.6-3-6.9-4.4-11.6-7.4
			C200.9,580,199.5,579.9,196.7,579.9z M204,488.7c-2.7,0-4.1,0-6.8,0c4.5,2.8,6.8,4.2,11.3,7c0.9,0,1.4,0,2.3,0
			c0.9-0.6,1.4-0.9,2.3-1.4C209.4,492,207.5,490.9,204,488.7z M218.8,587.4c1.3,0,2,0,3.3,0.1c1,0,2.3-0.1,3.3-0.1
			c-4.4-2.9-6.6-4.4-11.1-7.3c-2.8,0-4.2,0-7-0.1C211.9,582.9,214.2,584.4,218.8,587.4z M214.5,488.6c-2.8,0-4.2,0-7,0.1
			c2.9,1.8,4.4,2.7,7.3,4.5c1.4-0.9,2.1-1.3,3.5-2.3C216.8,490,216,489.5,214.5,488.6z M212.3,570.4c5,2.9,7,4.4,12,7.4
			c0-29.5,0-59,0-88.6c-5,3-7,4.5-12,7.4C212.3,521.1,212.3,545.8,212.3,570.4z M224.5,580.1c-2.8,0-4.2-0.1-7-0.1
			c4.1,2.6,6.2,4,10.3,6.7c1.8-0.3,3.3-0.9,4.5-1.5C229.2,583.1,227.7,582.1,224.5,580.1z M220.1,489.8c0.9-0.5,1.4-0.8,2.3-1.3
			c-1.7,0-2.6,0-4.3,0.1C218.8,489,219.2,489.3,220.1,489.8z M226.3,493.8c5,2.9,7,4.3,12,7.1c0-1.8,0-2.7,0-4.5
			c-5-2.8-7-4.3-12-7.1C226.3,491.2,226.3,492,226.3,493.8z M226.3,500.5c5,2.8,7,4.2,12,7c0-1.7,0-2.6,0-4.3c-5-2.9-7-4.3-12-7.1
			C226.3,497.8,226.3,498.7,226.3,500.5z M226.3,507c5,2.9,7,4.3,12,7.2c0-1.8,0-2.7,0-4.5c-5-2.9-7-4.3-12-7.2
			C226.3,504.3,226.3,505.2,226.3,507z M226.3,513.6c5,2.8,7,4.2,12,7.1c0-1.7,0-2.6,0-4.3c-5-2.9-7-4.3-12-7.2
			C226.3,511,226.3,511.9,226.3,513.6z M226.3,520c5,2.9,7,4.3,12,7.3c0-1.8,0-2.7,0-4.5c-5-2.9-7-4.4-12-7.2
			C226.3,517.5,226.3,518.4,226.3,520z M226.3,526.8c5,2.8,7,4.3,12,7.1c0-1.7,0-2.6,0-4.3c-5-2.9-7-4.4-12-7.3
			C226.3,524,226.3,525,226.3,526.8z M226.3,533.3c5,2.9,7,4.4,12,7.3c0-1.8,0-2.7,0-4.5c-5-2.9-7-4.4-12-7.3
			C226.3,530.6,226.3,531.5,226.3,533.3z M226.3,540c5,2.9,7,4.3,12,7.2c0-1.7,0-2.6,0-4.3c-5-3-7-4.4-12-7.3
			C226.3,537.3,226.3,538.1,226.3,540z M226.3,546.5c5,2.9,7,4.4,12,7.4c0-1.8,0-2.7,0-4.5c-5-3-7-4.4-12-7.4
			C226.3,543.8,226.3,544.6,226.3,546.5z M226.3,553c5,2.9,7,4.3,12,7.3c0-1.7,0-2.6,0-4.3c-5-3-7-4.5-12-7.4
			C226.3,550.5,226.3,551.3,226.3,553z M226.3,559.6c5,3,7,4.5,12,7.5c0-1.8,0-2.7,0-4.5c-5-3-7-4.5-12-7.4
			C226.3,557,226.3,557.8,226.3,559.6z M226.3,566.3c5,2.9,7,4.4,12,7.3c0-1.7,0-2.6,0-4.3c-5-3-7-4.5-12-7.5
			C226.3,563.6,226.3,564.5,226.3,566.3z M226.3,568.3c0,1.8,0,2.7,0,4.4c5,2.9,6.9,4.3,11.3,7.2c0.3-0.8,0.7-1.6,0.7-2.4
			c0-0.7,0-1.1,0-1.8C233.3,572.8,231.3,571.3,226.3,568.3z M234,584.1c1-0.8,1.9-1.7,2.7-2.6c-4.1-2.6-6.4-3.9-10.4-6.5
			c0,1.8,0,2.7,0,4.4C229.3,581.3,231,582.3,234,584.1z M227.2,487.5c4.4,2.7,6.1,4.1,11.1,6.8c0-1.7,0-2.6,0-4.3
			c-3-1.9-4.6-2.9-7.6-4.8C229.3,486,228.5,486.6,227.2,487.5z M232.1,484c2.3,1.4,3.5,2.1,5.8,3.5c-0.8-1.9-2-3.5-3.8-4.7
			C233.3,483.3,232.9,483.6,232.1,484z"/>
		<path id="XMLID_476_" class="st0" d="M260.3,477c10-0.4,20-0.9,30-1.5c0,38.7,0,77.3,0,116c-10-0.6-20-1.1-30-1.5
			C260.3,552.5,260.3,514.8,260.3,477z M274.3,486.6c-5-2.8-7-4.2-12-7c0,36,0,71.9,0,107.9c5-2.8,7-4.2,12-7
			C274.3,549.1,274.3,517.9,274.3,486.6z M275.3,484.9c4.3-3,6.5-4.5,10.8-7.6c-8.6,0.5-12.9,0.7-21.6,1
			C268.8,481,271,482.3,275.3,484.9z M264.7,588.4c-0.1,0.1-0.2,0.2-0.3,0.3c0.3,0,0.5,0,0.8,0C265,588.6,264.8,588.5,264.7,588.4z
			 M266.5,587.5c0.8,0.6,1.2,0.8,2,1.4c2.8,0.1,4.2,0.2,7,0.3c-2.2-1.5-3.3-2.3-5.5-3.8C268.5,586.1,267.8,586.6,266.5,587.5z
			 M271.8,584.3c2.9,2,4.4,3,7.3,5.1c2.8,0.1,4.2,0.2,7,0.4c-4.3-3.1-6.5-4.6-10.8-7.6C273.8,583,273.2,583.4,271.8,584.3z
			 M276.3,492.6c5,2.8,7,4.3,12,7.2c0-1.9,0-2.8,0-4.6c-5-2.9-7-4.3-12-7.1C276.3,489.8,276.3,490.7,276.3,492.6z M276.3,499.4
			c5,2.8,7,4.2,12,7.1c0-1.8,0-2.7,0-4.5c-5-2.9-7-4.3-12-7.2C276.3,496.7,276.3,497.6,276.3,499.4z M276.3,506c5,2.9,7,4.4,12,7.3
			c0-1.9,0-2.8,0-4.6c-5-2.9-7-4.4-12-7.3C276.3,503.4,276.3,504.3,276.3,506z M276.3,513c5,2.9,7,4.3,12,7.2c0-1.8,0-2.7,0-4.5
			c-5-3-7-4.4-12-7.3C276.3,510.3,276.3,511.1,276.3,513z M276.3,519.6c5,3,7,4.4,12,7.5c0-1.9,0-2.8,0-4.6c-5-3-7-4.5-12-7.4
			C276.3,517,276.3,517.9,276.3,519.6z M276.3,526.6c5,2.9,7,4.4,12,7.4c0-1.8,0-2.7,0-4.5c-5-3-7-4.5-12-7.5
			C276.3,523.8,276.3,524.6,276.3,526.6z M276.3,533.3c5,3,7,4.5,12,7.6c0-1.9,0-2.8,0-4.6c-5-3.1-7-4.6-12-7.6
			C276.3,530.5,276.3,531.5,276.3,533.3z M276.3,535.6c0,1.8,0,2.7,0,4.6c5,3,7,4.5,12,7.5c0-1.8,0-2.7,0-4.5
			C283.3,540,281.3,538.6,276.3,535.6z M276.3,546.9c5,3.1,7,4.6,12,7.7c0-1.9,0-2.8,0-4.6c-5-3.1-7-4.7-12-7.7
			C276.3,544,276.3,545,276.3,546.9z M276.3,553.6c5,3,7,4.6,12,7.7c0-1.8,0-2.7,0-4.5c-5-3.1-7-4.7-12-7.8
			C276.3,551,276.3,551.9,276.3,553.6z M276.3,560.4c5,3.1,7,4.7,12,7.9c0-1.9,0-2.8,0-4.6c-5-3.2-7-4.7-12-7.8
			C276.3,557.6,276.3,558.6,276.3,560.4z M276.3,567.3c5,3.1,7,4.6,12,7.8c0-1.8,0-2.7,0-4.5c-5-3.2-7-4.8-12-7.9
			C276.3,564.6,276.3,565.5,276.3,567.3z M276.3,569.4c0,1.8,0,2.7,0,4.6c5,3.2,7,4.8,12,8c0-1.9,0-2.8,0-4.6
			C283.3,574.1,281.3,572.6,276.3,569.4z M276.3,580.9c5,3.1,7,4.7,12,7.9c0-1.8,0-2.7,0-4.5c-5-3.3-7-4.9-12-8.1
			C276.3,578,276.3,579,276.3,580.9z M276.8,486c4.5,2.7,6.4,4,11.4,6.8c0-1.8,0-2.7,0-4.5c-3-1.9-4.7-2.9-7.8-4.8
			C279.1,484.5,278.3,485,276.8,486z M282.2,482.5c2.4,1.4,3.1,2.1,6.1,3.5c0-1.9,0-2.8,0-4.6c-1-0.5-1.6-0.8-2.6-1.4
			C284.3,481,283.5,481.5,282.2,482.5z M287.3,478.8c0.3,0.2,0.5,0.3,0.8,0.5c0-0.4,0-0.6,0-1C287.8,478.4,287.5,478.6,287.3,478.8z
			"/>
		<path id="XMLID_428_" class="st0" d="M393.3,466.4c0,40.1,0,80.1,0,120.2c0,7.7-8.4,13.2-18.4,12.1c-15-1.6-30-3-45.1-4.3
			c-10.3-0.8-18.5-7.2-18.5-14c0-35.4,0-70.8,0-106.2c10-0.7,20-1.5,30-2.4c0,34.1,0,68.1,0,102.2c9,0.5,13,0.8,22,1.4
			c0-35.2,0-70.4,0-105.6C373.3,468.8,383.3,467.6,393.3,466.4z M313.3,476.8c0,34.6,0,69.2,0,103.7c0,2.7,1.7,5.2,4.2,7.4
			c3-1.9,4.8-2.9,7.8-4.8c0-33.1,0-66.1,0-99.2C320.3,481,318.3,479.6,313.3,476.8z M326.2,482c4.3-3.3,6.5-4.9,10.8-8.3
			c-8.6,0.7-12.9,1.1-21.6,1.7C319.7,478,321.8,479.5,326.2,482z M321.2,588.1c-0.7,0.4-1.1,0.5-1.8,0.9c2,1.3,4.3,2.4,6.8,2.9
			C324.2,590.5,323.2,589.6,321.2,588.1z M322.7,587c3,2.2,4.5,3.3,7.5,5.6c2.7,0.2,4.1,0.3,6.8,0.6c-4.3-3.4-6.5-5-10.8-8.3
			C324.8,585.8,324.1,586.1,322.7,587z M339.3,492.6c-5-2.9-7-4.3-12-7.2c0,1.9,0,2.8,0,4.7c5,2.9,7,4.4,12,7.4
			C339.3,495.6,339.3,494.6,339.3,492.6z M327.3,497.4c5,2.9,7,4.4,12,7.3c0-1.9,0-2.8,0-4.7c-5-3-7-4.5-12-7.4
			C327.3,494.5,327.3,495.5,327.3,497.4z M327.3,504.5c5,3,7,4.5,12,7.6c0-2,0-3,0-4.9c-5-3-7-4.5-12-7.4
			C327.3,501.7,327.3,502.7,327.3,504.5z M327.3,511.8c5,3,7,4.5,12,7.6c0-1.9,0-2.8,0-4.7c-5-3.1-7-4.6-12-7.7
			C327.3,508.9,327.3,509.9,327.3,511.8z M327.3,518.9c5,3.1,7,4.7,12,7.9c0-2,0-3,0-4.9c-5-3.2-7-4.7-12-7.8
			C327.3,516,327.3,517,327.3,518.9z M327.3,526.1c5,3.1,7,4.6,12,7.8c0-1.9,0-2.8,0-4.7c-5-3.2-7-4.8-12-7.9
			C327.3,523.3,327.3,524.1,327.3,526.1z M327.3,533.3c5,3.2,7,4.8,12,8.1c0-2,0-3,0-4.9c-5-3.3-7-4.9-12-8
			C327.3,530.4,327.3,531.3,327.3,533.3z M327.3,540.5c5,3.2,7,4.8,12,8c0-1.9,0-2.8,0-4.7c-5-3.3-7-4.9-12-8.1
			C327.3,537.6,327.3,538.6,327.3,540.5z M327.3,547.6c5,3.3,7,4.9,12,8.3c0-2,0-3,0-4.9c-5-3.3-7-5-12-8.2
			C327.3,544.6,327.3,545.6,327.3,547.6z M327.3,554.9c5,3.2,7,4.9,12,8.2c0-1.9,0-2.8,0-4.7c-5-3.4-7-5.1-12-8.3
			C327.3,552,327.3,553,327.3,554.9z M339.3,565.6c-5-3.4-7-5.1-12-8.5c0,1.9,0,2.9,0,4.8c5,3.4,7,5.1,12,8.5
			C339.3,568.6,339.3,567.6,339.3,565.6z M336.7,576c0.9-0.6,1.6-1,2.6-1.6c0-0.6,0-0.8,0-1.4c-5-3.5-7-5.2-12-8.6
			c0,1.9,0,2.9,0,4.8C331.3,571.9,333.1,573.3,336.7,576z M331.3,579.4c1.4-0.9,2-1.3,3.4-2.2c-2.9-2.3-4.4-3.4-7.4-5.6
			c0,1.9,0,2.9,0,4.8C329.3,577.6,329.8,578.1,331.3,579.4z M327.3,578.8c0,1.2,0,1.8,0,2.9c1-0.6,1.2-0.9,2-1.4
			C328.5,579.6,328.3,579.4,327.3,578.8z M331.5,480.5c-1.4,1.1-2,1.6-3.4,2.7c4.4,2.8,6.1,4.1,11.1,7c0-1.9,0-2.8,0-4.7
			C336.3,483.5,334.5,482.5,331.5,480.5z M329,584.6c4.6,3.5,6.9,5.3,11.5,8.9c2.8,0.2,4.2,0.4,7,0.6c-4.6-3.7-6.9-5.5-11.5-9.1
			C333.2,584.9,331.8,584.8,329,584.6z M363.8,577.1c-9.2-0.6-13.8-0.9-23-1.5c-4.5,3-6.8,4.4-11.3,7.3c15.3,1.1,30.5,2.2,45.8,3.6
			C370.7,582.8,368.3,580.9,363.8,577.1z M336.8,476.7c-1.4,1.1-2,1.6-3.4,2.7c2.3,1.4,2.8,2.2,5.8,3.6c0-2,0-3,0-4.9
			C338.3,477.5,337.8,477.2,336.8,476.7z M339,475.8c0-0.4,0-0.6,0-1.1c-0.2,0.2-0.3,0.3-0.5,0.6C338.7,475.5,338.8,475.6,339,475.8
			z M339.5,585.3c4.6,3.6,6.9,5.4,11.5,9.1c2.7,0.2,4.1,0.4,6.8,0.6c-4.5-3.8-6.8-5.6-11.3-9.2C343.7,585.6,342.3,585.5,339.5,585.3
			z M349.7,586c4.6,3.6,6.9,5.5,11.5,9.3c2.8,0.3,4.2,0.4,7,0.7c-4.6-3.9-6.9-5.7-11.5-9.4C353.8,586.5,352.5,586.3,349.7,586z
			 M371.8,596.5c1.3,0.1,2,0.2,3.3,0.3c1,0.1,2.3,0.1,3.3,0.2c-4.4-3.8-6.6-5.7-11-9.4c-2.8-0.2-4.2-0.4-7-0.6
			C364.8,590.6,367.2,592.6,371.8,596.5z M365.3,576.3c5,3.7,7,5.6,12,9.4c0-35.3,0-70.6,0-105.8c-5-3-7-4.5-12-7.4
			C365.3,507,365.3,541.6,365.3,576.3z M378.3,477.9c4.3-3.6,6.5-5.5,10.7-9.2c-8.6,1-12.9,1.5-21.5,2.3
			C371.8,473.7,374,475,378.3,477.9z M377.5,588.5c-2.8-0.3-4.2-0.4-7-0.6c4.1,3.4,6.2,5.1,10.3,8.6c1.8-0.2,3.3-0.8,4.5-1.4
			C382.2,592.4,380.5,591,377.5,588.5z M379.3,486.6c5,3.1,7,4.6,12,7.8c0-2.1,0-3.2,0-5.4c-5-3.1-7-4.6-12-7.5
			C379.3,483.6,379.3,484.6,379.3,486.6z M379.3,494.5c5,3.1,7,4.6,12,7.8c0-2.1,0-3.1,0-5.2c-5-3.2-7-4.8-12-7.9
			C379.3,491.3,379.3,492.4,379.3,494.5z M379.3,502c5,3.2,7,4.8,12,8.2c0-2.1,0-3.2,0-5.4c-5-3.2-7-4.8-12-7.9
			C379.3,499,379.3,500,379.3,502z M379.3,510c5,3.2,7,4.8,12,8.1c0-2.1,0-3.1,0-5.2c-5-3.3-7-5-12-8.2
			C379.3,506.9,379.3,507.9,379.3,510z M379.3,517.6c5,3.3,7,5,12,8.5c0-2.1,0-3.2,0-5.4c-5-3.4-7-5.1-12-8.4
			C379.3,514.5,379.3,515.6,379.3,517.6z M379.3,525.6c5,3.3,7,5,12,8.4c0-2.1,0-3.1,0-5.2c-5-3.5-7-5.2-12-8.5
			C379.3,522.4,379.3,523.5,379.3,525.6z M379.3,533.1c5,3.4,7,5.2,12,8.8c0-2.1,0-3.2,0-5.4c-5-3.5-7-5.3-12-8.7
			C379.3,530,379.3,531,379.3,533.1z M379.3,541c5,3.4,7,5.2,12,8.8c0-2.1,0-3.1,0-5.2c-5-3.6-7-5.4-12-8.8
			C379.3,538,379.3,539,379.3,541z M379.3,548.8c5,3.6,7,5.4,12,9.1c0-2.1,0-3.2,0-5.4c-5-3.7-7-5.5-12-9
			C379.3,545.6,379.3,546.6,379.3,548.8z M379.3,556.6c5,3.6,7,5.4,12,9.1c0-2.1,0-3.1,0-5.2c-5-3.7-7-5.6-12-9.2
			C379.3,553.5,379.3,554.6,379.3,556.6z M379.3,564.3c5,3.7,7,5.6,12,9.4c0-2.1,0-3.2,0-5.4c-5-3.8-7-5.7-12-9.3
			C379.3,561.1,379.3,562.1,379.3,564.3z M379.3,572.1c5,3.7,7,5.5,12,9.4c0-2.1,0-3.1,0-5.2c-5-3.9-7-5.8-12-9.5
			C379.3,569,379.3,570,379.3,572.1z M379.3,574.6c0,2.1,0,3.1,0,5.2c5,3.6,6.9,5.5,11.2,9.3c0.2-0.9,0.8-1.9,0.8-2.8
			c0-0.8,0-1.3,0-2.1C386.3,580.3,384.3,578.4,379.3,574.6z M386.8,594c1-0.8,1.9-1.9,2.7-2.9c-4.1-3.5-6.3-5.2-10.3-8.5
			c0,2.1,0,3.1,0,5.2C382.3,590.1,383.8,591.5,386.8,594z M380.2,479c4.4,3,6.1,4.5,11.1,7.5c0-2.1,0-3.2,0-5.4
			c-3-2.1-4.6-3.1-7.6-5.2C382.3,477.3,381.5,477.9,380.2,479z M388.7,471.8c-1.4,1.2-2,1.8-3.4,3c2.4,1.5,3.1,2.2,6.1,3.8
			c0-2.1,0-3.2,0-5.4C390.3,472.6,389.7,472.3,388.7,471.8z M391,470.7c0-0.5,0-0.7,0-1.1c-0.3,0.3-0.4,0.4-0.7,0.7
			C390.5,470.4,390.7,470.5,391,470.7z"/>
		<path id="XMLID_358_" class="st0" d="M491.5,451.7c9.8-1.8,19.7-3.6,29.7-5.6c0,58.3,0,116.7,0,175c-10-2-20-3.9-30-5.6
			c0-26.8,0-53.6,0-80.5c-4,13.5-7.9,27-12,40.5c-9.7-0.9-19.5-1.7-29.2-2.5c-3.7-12.7-7.7-25.5-11.7-38.2c0,24,0,48,0,72
			c-10-1.5-20-2.9-30-4.1c0-46,0-92.1,0-138.1c10-1.3,19.9-2.6,29.8-4.1c9.3,23.4,18.3,46.9,26.8,70.5
			C474.1,504.7,483.1,478.3,491.5,451.7z M422.3,475.3c-5-3.2-7-4.8-12-7.8c0,44.1,0,88.1,0,132.2c5-3.1,7-4.6,12-7.9
			C422.3,552.9,422.3,514,422.3,475.3z M423.2,473c4.4-4,6.6-6.1,11-10.2c-8.7,1.2-13,1.8-21.7,2.9C416.8,468.7,418.9,470,423.2,473
			z M412.9,600.9c-0.2,0.1-0.3,0.2-0.5,0.3c0.3,0,0.4,0.1,0.7,0.1C413.1,601,413.1,601,412.9,600.9z M414.7,599.9
			c0.8,0.7,1.2,1.1,2,1.9c2.8,0.4,4.2,0.6,7,0.9c-2.2-2.1-3.3-3.1-5.5-5.2C416.8,598.5,416.1,599,414.7,599.9z M419.7,596.3
			c3,2.7,4.5,4.1,7.5,6.9c2.7,0.4,4,0.6,6.7,0.9c-4.3-4.2-6.4-6.2-10.7-10.2C421.8,594.9,421.1,595.4,419.7,596.3z M424.3,479.9
			c0,1.1,0,1.6,0,2.6c1,0.3,0.4,0.4,0.7,0.7C424.7,481.9,425.3,481.2,424.3,479.9z M424.3,491c2,1,2.2,1.4,3.5,2.4
			c-0.7-2.7-1.2-4.1-1.9-6.8c-0.6-0.5-0.6-0.8-1.6-1.3C424.3,487.6,424.3,488.8,424.3,491z M424.3,499.4c3,1.8,3.7,2.7,5.9,4.6
			c-0.7-2.8-1.2-4.3-1.9-7.1c-1.6-1.3-2.1-1.9-4.1-3.2C424.3,496,424.3,497,424.3,499.4z M424.3,508c4,2.5,5.1,3.8,8.4,6.4
			c-0.6-2.8-1-4.2-1.6-7c-2.7-2.1-3.8-3.1-6.8-5.2C424.3,504.5,424.3,505.7,424.3,508z M424.3,516.3c5,3.4,6.6,5.2,10.9,8.8
			c-0.6-2.9-1-4.3-1.6-7.2c-3.7-3-5.3-4.4-9.3-7.2C424.3,512.9,424.3,514,424.3,516.3z M424.3,524.9c5,3.6,7,5.4,12,9.2
			c0-2.3,0-3.5,0-5.8c-5-3.7-7-5.5-12-9C424.3,521.4,424.3,522.6,424.3,524.9z M424.3,533.1c5,3.7,7,5.7,12,9.6c0-2.3,0-3.5,0-5.8
			c-5-3.9-7-5.7-12-9.4C424.3,529.8,424.3,530.9,424.3,533.1z M424.3,536c0,2.3,0,3.4,0,5.7c5,3.7,7,5.6,12,9.5c0-2.2,0-3.4,0-5.6
			C431.3,541.6,429.3,539.8,424.3,536z M424.3,550c5,3.9,7,5.9,12,9.9c0-2.3,0-3.5,0-5.8c-5-4-7-6-12-9.8
			C424.3,546.6,424.3,547.8,424.3,550z M424.3,558.6c5,3.9,7,5.9,12,9.9c0-2.2,0-3.4,0-5.6c-5-4.1-7-6.1-12-10
			C424.3,555.1,424.3,556.4,424.3,558.6z M424.3,567c5,4,7,6.1,12,10.3c0-2.3,0-3.5,0-5.8c-5-4.2-7-6.2-12-10.2
			C424.3,563.6,424.3,564.6,424.3,567z M424.3,575.5c5,4,7,6.1,12,10.3c0-2.2,0-3.4,0-5.6c-5-4.2-7-6.3-12-10.4
			C424.3,572,424.3,573.3,424.3,575.5z M424.3,578.1c0,2.3,0,3.4,0,5.7c5,4.2,7,6.3,12,10.7c0-2.3,0-3.5,0-5.8
			C431.3,584.4,429.3,582.3,424.3,578.1z M424.3,592.4c5,4.2,7,6.3,12,10.7c0-2.2,0-3.4,0-5.6c-5-4.4-7-6.6-12-10.8
			C424.3,589,424.3,590.1,424.3,592.4z M426.9,476c0.1,0,0.1,0,0.2,0c8.1,5.7,12.1,8.7,20.2,14.9c-1.3-3.4-1.9-5.1-3.2-8.4
			c-6.3-4.7-9.4-6.9-15.7-11.3c-1,1-1.5,1.5-2.5,2.6C426.4,474.6,426.5,475,426.9,476z M438.4,526.9c4.6,14.4,9,28.8,13.4,43.2
			c4.1-3.2,6.1-4.9,10.2-8.2c-10.7-26.2-22-52.1-33.9-77.7C431.7,498.4,435.1,512.6,438.4,526.9z M448.9,494.9
			c-8-6.2-12-9.2-19.9-14.9c1.6,3.4,2.4,5.2,4,8.7c7.7,5.7,11.5,8.6,19.2,14.8C450.8,500,450.2,498.3,448.9,494.9z M430.2,469.6
			c5,3.4,7.5,5.1,12.5,8.7c-1.3-3.2-1.9-4.8-3.2-8c-2.3-1.6-3.4-2.4-5.7-4C432.3,467.6,431.5,468.3,430.2,469.6z M453.5,507.7
			c-7.5-6.2-11.2-9.1-18.7-14.8c1.6,3.5,2.4,5.3,4,8.9c7.2,5.6,10.8,8.5,17.9,14.4C455.5,512.8,454.9,511,453.5,507.7z M435.4,464.6
			c0.9,0.7,1.3,1.1,2.2,1.8c-0.4-1.2-0.6-1.8-1-3C436.2,463.9,435.9,464,435.4,464.6z M458.5,520.5c-7.1-5.9-10.6-8.8-17.7-14.2
			c1.6,3.6,2.4,5.4,4,9.1c6.8,5.4,10.2,8.2,16.9,14.1C460.4,525.9,459.9,524,458.5,520.5z M463.2,533.8c-6.6-5.8-9.8-8.6-16.4-14.1
			c1.6,3.7,2.3,5.6,3.9,9.3c5.1,4.3,7.6,6.6,12.6,11.1c0-2.2,0-3.3,0-5.5C463.3,534.4,463.3,534.1,463.2,533.8z M463.3,543.3
			c-4-3.9-6.3-5.8-10.6-9.5c1.6,3.8,2.3,5.7,3.9,9.6c2.7,2.4,4.6,3.6,6.6,6.1C463.3,547,463.3,545.8,463.3,543.3z M455.4,570.1
			c-0.5,0.4-0.7,0.6-1.2,1c1,0.1,1.5,0.1,2.5,0.2C456.1,570.9,455.9,570.6,455.4,570.1z M460.5,566c-1.4,1.1-2.1,1.7-3.5,2.8
			c1.2,1.1,1.8,1.7,3,2.8c2.8,0.2,4.2,0.3,7,0.6C464.4,569.6,463.2,568.5,460.5,566z M463.3,552.3c-2-1.7-2.8-2.6-4.7-4.3
			c1.9,4.6,2.7,6.9,4.7,11.6C463.3,556.6,463.3,555.3,463.3,552.3z M462.3,564.6c3.2,3.1,4.8,4.7,8,7.9c2.1,0.2,3.1,0.3,5.2,0.4
			c-4.2-4.2-6.3-6.3-10.4-10.4c-0.1,0-0.1,0-0.2,0C463.8,563.4,463.3,563.8,462.3,564.6z M492.9,454.7c-8.6,26.8-17.7,53.5-26.7,80
			c0,10,0,15,0,25c13-32.1,25.3-64.5,36.9-97.2C499.2,459.3,497.1,457.8,492.9,454.7z M467.5,562c4.1,4,6.1,6,10.2,10.2
			c0.6-1.9,0.9-2.9,1.5-4.9c-3.9-3.9-5.8-5.9-9.7-9.6C468.7,559.5,468.3,560.3,467.5,562z M470.3,555.5c3.9,3.7,5.8,5.5,9.7,9.4
			c0.6-2,0.9-3,1.5-4.9c-3.7-3.7-5.5-5.5-9.2-9C471.4,552.8,471.1,553.6,470.3,555.5z M472.9,548.6c3.7,3.4,5.5,5.2,9.2,8.8
			c0.5-2,0.7-3,1.2-5c-3.4-3.4-5.1-5-8.4-8.2C474.2,546,473.8,546.9,472.9,548.6z M475.8,542c3.4,3.1,5.1,4.7,8.4,8
			c0.6-2,0.9-3,1.5-5c-3.2-3.1-4.8-4.7-7.9-7.7C476.9,539.1,476.5,540,475.8,542z M478.4,535c3.2,2.9,4.8,4.4,7.9,7.4
			c0.6-1.9,0.9-2.9,1.5-4.8c-3-2.9-4.5-4.3-7.5-7.1C479.7,532.1,479.3,533.1,478.4,535z M481.2,528c3,2.7,4.5,4.1,7.4,6.9
			c0.6-2,0.9-3.1,1.5-5.1c-2.8-2.7-4.2-4-7-6.6C482.4,525.1,481.9,526.1,481.2,528z M483.9,521c2.7,2.5,4,3.8,6.7,6.4
			c0.5-2.2,0.7-3.2,1.2-5.4c-2.4-2.3-3.6-3.4-6-5.6C485.1,518.1,484.7,519,483.9,521z M488.7,509c-0.8,2-1.2,3-2,5
			c2.3,2,3.4,3.1,5.7,5.1c0.5-2.2,0.7-3.3,1.2-5.4C491.7,511.6,490.7,510.8,488.7,509z M491.4,501.8c-0.8,1.9-1.2,2.9-2,4.8
			c1.9,1.8,2.8,2.6,4.7,4.4c0.5-2.2,0.7-3.3,1.2-5.5C493.8,504,492.9,503.3,491.4,501.8z M494.1,494.3c-0.8,2-1.2,3.1-2,5.1
			c1.5,1.3,2.2,1.9,3.7,3.3c0.5-2.2,0.7-3.3,1.2-5.5C495.9,496,495.3,495.4,494.1,494.3z M493.3,526.3c0,28.5,0,57,0,85.6
			c5-3.5,7-5.3,12-9.1c0-44.3,0-88.6,0-132.8C501.3,488.8,497.3,507.6,493.3,526.3z M496.9,487c-0.8,2-1.2,3-2,4.9
			c1.1,0.9,1.6,1.4,2.7,2.4c0.4-2.2,0.6-3.3,1-5.6C497.9,488,497.5,487.6,496.9,487z M505.8,461.6c4.3-4.8,6.4-7.3,10.7-12.4
			c-8.5,1.6-12.8,2.4-21.3,3.9C499.4,456.5,501.4,458,505.8,461.6z M495.5,613.5c-0.2,0.2-0.3,0.2-0.5,0.4c0.3,0.1,0.4,0.1,0.7,0.1
			C495.8,613.8,495.7,613.7,495.5,613.5z M497.4,612.3c0.8,0.9,1.2,1.3,2,2.3c2.8,0.5,4.2,0.8,6.9,1.3c-2.3-2.5-3.4-3.8-5.7-6.3
			C499.3,610.7,498.5,611.2,497.4,612.3z M499.3,479.3c-0.7,2.1-1,3.1-1.7,5.2c0.7,0.6,1,0.9,1.7,1.5c0.4-2.3,0.6-3.5,1-5.8
			C499.9,479.8,499.7,479.6,499.3,479.3z M500.8,477.5c0.4-2,0.6-2.9,1-4.9c-0.6,1.7-0.9,2.6-1.5,4.3
			C500.4,477,500.5,477.2,500.8,477.5z M502.3,608.1c2.9,3.3,4.3,4.9,7.2,8.3c2.8,0.5,4.2,0.8,6.9,1.3c-4.3-5.1-6.4-7.5-10.7-12.4
			C504.4,606.5,503.7,607,502.3,608.1z M507.3,472.8c4,3.9,7,5.8,11,9.9c0-2.8,0-4.2,0-7c-4-4-7-5.9-11-9.7
			C507.3,468.7,507.3,470,507.3,472.8z M507.3,482.9c4,3.9,7,5.8,11,9.9c0-2.7,0-4,0-6.7c-4-4.1-7-6.1-11-10
			C507.3,478.9,507.3,480.2,507.3,482.9z M507.3,492.9c4,4.1,7,6.1,11,10.4c0-2.8,0-4.2,0-7c-4-4.2-7-6.2-11-10.2
			C507.3,488.8,507.3,490.2,507.3,492.9z M507.3,503c4,4.1,7,6.1,11,10.4c0-2.7,0-4,0-6.7c-4-4.3-7-6.4-11-10.5
			C507.3,499,507.3,500.4,507.3,503z M507.3,513c4,4.3,7,6.4,11,10.9c0-2.8,0-4.2,0-7c-4-4.4-7-6.6-11-10.7
			C507.3,508.9,507.3,510.3,507.3,513z M507.3,523.1c4,4.3,7,6.4,11,10.9c0-2.7,0-4,0-6.7c-4-4.5-7-6.7-11-11
			C507.3,519,507.3,520.5,507.3,523.1z M507.3,533c4,4.5,7,6.7,11,11.4c0-2.8,0-4.2,0-7c-4-4.6-7-6.9-11-11.3
			C507.3,529,507.3,530.4,507.3,533z M507.3,543.3c4,4.5,7,6.7,11,11.4c0-2.7,0-4,0-6.7c-4-4.7-7-7-11-11.5
			C507.3,539.1,507.3,540.6,507.3,543.3z M507.3,553.3c4,4.7,7,7,11,11.9c0-2.8,0-4.2,0-7c-4-4.8-7-7.2-11-11.8
			C507.3,549.1,507.3,550.5,507.3,553.3z M507.3,563.4c4,4.7,7,7,11,11.9c0-2.7,0-4,0-6.7c-4-4.9-7-7.3-11-12
			C507.3,559.4,507.3,560.6,507.3,563.4z M507.3,573.4c4,4.9,7,7.3,11,12.4c0-2.8,0-4.2,0-7c-4-5-7-7.5-11-12.3
			C507.3,569.3,507.3,570.6,507.3,573.4z M507.3,583.6c4,4.9,7,7.4,11,12.5c0-2.7,0-4,0-6.7c-4-5.1-7-7.6-11-12.5
			C507.3,579.5,507.3,580.8,507.3,583.6z M507.3,593.5c4,5.1,7,7.7,11,13c0-2.8,0-4.2,0-7c-4-5.2-7-7.8-11-12.8
			C507.3,589.4,507.3,590.8,507.3,593.5z M507.3,603.6c4,5.1,7,7.7,11,13c0-2.7,0-4,0-6.7c-4-5.3-7-8-11-13
			C507.3,599.6,507.3,601,507.3,603.6z M507.4,463c4.4,3.6,6.8,5.4,10.8,9.2c0-2.7,0-4,0-6.7c-3-2.6-4.4-3.9-7.4-6.4
			C509.4,460.7,508.8,461.5,507.4,463z M512.6,457c2.3,2,3.6,3,5.6,5c0-2.8,0-4.2,0-7c-1-0.7-1.3-1.1-2.2-1.8
			C514.6,454.8,514.1,455.5,512.6,457z M517.9,451.2c0.2,0.3,0.3,0.4,0.5,0.7c0-0.6,0-0.9,0-1.5
			C518.1,450.7,518.1,450.8,517.9,451.2z"/>
	</g>
</g>
<g>
	<circle id="XMLID_6_" class="st1" cx="61.1" cy="412.7" r="35"/>
	<circle id="XMLID_2_" class="st2" cx="148.5" cy="413.8" r="35"/>
	<circle id="XMLID_7_" class="st3" cx="236.2" cy="415" r="35"/>
	<circle id="XMLID_8_" class="st4" cx="323.7" cy="412" r="35"/>
</g>
<g>
	<text transform="matrix(1 0 0 1 43.0417 429.4253)" class="st0 st5 st6">P</text>
	<text transform="matrix(1 0 0 1 131.8633 430.5753)" class="st0 st5 st6">L</text>
	<text transform="matrix(1 0 0 1 218.8632 431.7258)" class="st0 st5 st6">A</text>
	<text transform="matrix(1 0 0 1 305.524 432.3007)" class="st0 st5 st6">Y</text>
</g>
</svg>
