<?xml version="1.0" encoding="utf-8"?>
<!-- Generator: Adobe Illustrator 19.0.0, SVG Export Plug-In . SVG Version: 6.00 Build 0)  -->
<svg version="1.1" id="Layer_1" xmlns="http://www.w3.org/2000/svg" xmlns:xlink="http://www.w3.org/1999/xlink" x="0px" y="0px"
	 viewBox="-153 365.5 691.5 271.5" style="enable-background:new -153 365.5 691.5 271.5;" xml:space="preserve">
<style type="text/css">
	.st0{fill:none;stroke:#000000;stroke-miterlimit:10;}
	.st1{fill:none;stroke:#F384CA;stroke-width:3;stroke-miterlimit:10;}
	.st2{fill:none;stroke:#00D8CB;stroke-width:3;stroke-miterlimit:10;}
	.st3{fill:none;stroke:#FF5656;stroke-width:3;stroke-miterlimit:10;}
	.st4{fill:none;stroke:#89BDEF;stroke-width:3;stroke-miterlimit:10;}
	.st5{font-family:'OratorStd';}
	.st6{font-size:60px;}
</style>
<g id="XMLID_3_">
	<g id="XMLID_17_">
		<path id="XMLID_638_" class="st0" d="M-71.6,522.5c10,0.3,18.6,7.4,18.6,16c0,18.4,0,36.8,0,55.1c0,9-9.9,17.3-18.4,18.3
			c-14.9,2.4-29.6,5-44.5,7.8c-10.2,1.9-18.1-5-18.1-15c0-12,0-24,0-36c9-3.1,19-6,29-8.7c0,9.7,0,19.5,0,29.2c9-1,13-1.5,22-2.5
			c0-12.6,0-25.3,0-37.9c-11,0.3-21.8,0.6-32.8,1c-10.2,0.3-18.2-7.8-18.2-17.9c0-21.7,0-43.5,0-65.2c0-10.2,8-16.9,18.2-15
			c14.9,2.7,29.6,5.3,44.6,7.8c8.5,1.1,18.3,9.3,18.3,18.3c0,9.9,0,19.8,0,29.8c-10,1.4-20,2.8-30,4.4c0-11.1,0-16.6,0-27.7
			c-9-0.9-13-1.4-22-2.5c0,13.2,0,26.4,0,39.5C-94,521.8-82.8,522.2-71.6,522.5z M-132,532.1c0,4,1.3,7.7,3.8,10.4
			c3-3,4.2-4.5,7.2-7.4c0-23,0-46.1,0-69.1c-3-3.4-4.3-5.1-7.2-8.6c-2.5,2.3-3.8,5.8-3.8,9.7C-132,488.8-132,510.4-132,532.1z
			 M-132,571.6c0,10.9,0,21.9,0,32.8c0,4,1.3,7.2,3.8,9.7c3-3.6,4.2-5.3,7.2-8.8c0-9.6,0-19.2,0-28.8
			C-125,574.6-128,573.7-132,571.6z M-119.9,574.2c4.1-4.3,6.1-6.4,10.2-10.6c-8.1,2.3-12.2,3.5-20.3,6
			C-125.9,571.6-123.9,572.5-119.9,574.2z M-116,454c-4-0.7-7.7,0-10.4,2c3,3.5,4.5,5.2,7.4,8.6c16.7,2.7,33.4,5.1,50.2,7.3
			c3.1-2.3,4.6-3.4,7.7-5.6c-2.7-2.3-6.5-4.2-10.2-4.8C-86.3,459.2-101.2,456.7-116,454z M-124.8,542.3c-0.7,0.7-1,1-1.7,1.7
			c2,1.7,4.2,2.8,6.7,3.3C-121.8,545.3-122.8,544.3-124.8,542.3z M-124.8,613.5c-0.7,0.7-1,1.1-1.7,1.8c2,1.4,4.2,2.2,6.7,2.2
			C-121.8,616-122.8,615.2-124.8,613.5z M-123.2,540.7c3,2.9,4.5,4.3,7.4,7.1c2.7-0.1,4-0.1,6.7-0.2c-4.3-4-6.4-6.1-10.7-10.4
			C-121.1,538.6-121.9,539.2-123.2,540.7z M-123.2,611.6c3,2.3,4.5,3.5,7.4,5.7c2.7-0.5,4-0.7,6.7-1.2c-4.3-3.3-6.4-5-10.7-8.5
			C-121.1,609.2-121.9,610-123.2,611.6z M-107,481c-5-4.9-7-7.4-11-12.5c0,2.7,0,4.1,0,6.8c4,5,6,7.5,11,12.3
			C-107,485-107,483.7-107,481z M-118,485.4c4,4.8,6,7.2,11,11.8c0-2.5,0-3.8,0-6.3c-5-4.8-7-7.2-11-12.2
			C-118,481.4-118,482.7-118,485.4z M-118,495.2c4,4.8,6,7.2,11,11.8c0-2.6,0-4,0-6.6c-5-4.7-7-7.1-11-12
			C-118,491.2-118,492.6-118,495.2z M-107,510.4c-5-4.6-7-6.9-11-11.7c0,2.7,0,4.1,0,6.8c4,4.6,6,6.9,11,11.3
			C-107,514.2-107,513-107,510.4z M-109.2,524.2c0.9-0.8,1.2-1.2,2.2-2.1c0-0.8,0-1.3,0-2.1c-5-4.5-7-6.8-11-11.5c0,2.7,0,4.1,0,6.8
			C-115,519-112.8,520.7-109.2,524.2z M-114.4,529.1c1.4-1.3,2.1-2,3.5-3.3c-2.9-2.8-4.1-4.2-7.1-7.2c0,2.7,0,4.1,0,6.8
			C-117,526.8-115.9,527.7-114.4,529.1z M-118,528.6c0,1.6,0,2.5,0,4.1c1-0.8,1.2-1.1,2-1.9C-116.9,529.8-117,529.5-118,528.6z
			 M-109.2,593c0.9-1.1,1.2-1.6,2.2-2.6c0-0.8,0-1.1,0-1.9c-5-3.8-7-5.8-11-9.8c0,2.7,0,4.1,0,6.8C-115,588.6-112.8,590.1-109.2,593
			z M-114.4,598.7c1.4-1.5,2.1-2.3,3.5-3.8c-2.9-2.5-4.1-3.7-7.1-6.3c0,2.7,0,4.1,0,6.8C-117,596.7-115.9,597.3-114.4,598.7z
			 M-118,598.7c0,1.6,0,2.5,0,4.1c1-1,1.2-1.5,2-2.5C-116.9,599.7-117,599.3-118,598.7z M-114.5,572.2c-1.4,1.5-2.1,2.2-3.4,3.7
			c4.4,3.9,6.9,5.7,10.9,9.4c0-2.6,0-4,0-6.6C-110,576.1-111.5,574.8-114.5,572.2z M-117,536.8c4.6,4.4,6.8,6.6,11.4,10.8
			c2.8-0.1,4.2-0.1,7-0.2c-4.6-4.1-6.9-6.2-11.4-10.6C-112.9,536.8-114.4,536.8-117,536.8z M-117,606.5c4.6,3.7,6.8,5.5,11.4,9
			c2.8-0.5,4.2-0.7,7-1.2c-4.6-3.5-6.9-5.2-11.4-8.9C-112.9,605.8-114.4,606.1-117,606.5z M-105.4,479.6c2.8,0.3,4.2,0.5,7,0.9
			c-4.6-4.7-6.9-7.1-11.4-12.1c-2.7-0.4-4-0.6-6.7-1C-112.1,472.4-109.8,474.8-105.4,479.6z M-105.4,523.8
			c-4.5,4.1-6.7,6.2-11.2,10.5c16,0.1,32,0.1,47.9,0.1c3.1-2.6,4.6-3.9,7.7-6.4c-3-2.2-6.5-3.3-10.5-3.4
			C-82.8,524.3-94,524.2-105.4,523.8z M-82.5,589.1c-9.1,1-13.7,1.6-22.9,2.7c-4.5,4.9-6.7,7.4-11.2,12.5
			c15.1-2.3,30.3-4.4,45.5-6.4C-75.8,594.3-77.9,592.7-82.5,589.1z M-109.3,566.8c-1.4,1.4-2.1,2.1-3.4,3.6c2.3,2,3.7,3,5.7,5
			c0-2.5,0-3.8,0-6.3C-108,568.1-108.4,567.7-109.3,566.8z M-107.1,565.7c0-0.6,0-0.8,0-1.4c-0.2,0.3-0.3,0.4-0.5,0.7
			C-107.4,565.2-107.3,565.3-107.1,565.7z M-106.6,536.8c4.6,4.3,6.9,6.4,11.4,10.5c2.7-0.1,4-0.1,6.7-0.2c-4.5-4-6.7-6.1-11.2-10.4
			C-102.4,536.7-103.8,536.7-106.6,536.8z M-106.6,604.8c4.6,3.6,6.9,5.4,11.4,8.8c2.7-0.5,4-0.7,6.7-1.1c-4.5-3.4-6.7-5.2-11.2-8.8
			C-102.4,604.2-103.8,604.5-106.6,604.8z M-99.4,469.9c-2.8-0.4-4.2-0.6-7-1c4.6,4.9,6.9,7.3,11.4,12c2.8,0.3,4.2,0.5,7,0.8
			C-92.6,477.1-94.8,474.7-99.4,469.9z M-85,547c1.1,0,1.6,0,2.7-0.1c0.8-0.8,1.2-1.2,2-2c-3.7-3.2-5.5-4.8-9.2-8.2
			c-2.8,0-4.2,0-7,0C-91.9,541-89.6,543-85,547z M-96.4,603.3c4.6,3.6,6.9,5.3,11.4,8.7c2.8-0.5,4.2-0.7,7-1.1
			c-4.6-3.3-6.9-5-11.4-8.6C-92.3,602.7-93.8,602.8-96.4,603.3z M-84.8,482.1c0.9,0.1,1.3,0.2,2.2,0.3c0.9-0.7,1.3-1,2.2-1.7
			c-3.6-3.6-5.4-5.5-8.9-9.2c-2.7-0.4-4-0.6-6.7-0.9C-91.5,475.2-89.2,477.5-84.8,482.1z M-79,536.7c-2.8,0-4.2,0-7,0
			c3,2.7,4.5,4,7.5,6.6c1.4-1.3,2.1-1.9,3.5-3.1C-76.8,538.8-77.4,538.1-79,536.7z M-74.6,610.2c1.3-0.2,1.9-0.3,3.2-0.5
			c1-0.2,2.2-0.6,3.2-0.7c-4.4-3.2-6.6-4.9-10.9-8.3c-2.8,0.4-4.2,0.6-7,1C-81.4,605.2-79.1,607-74.6,610.2z M-78.8,472.8
			c-2.8-0.4-4.2-0.6-7-0.9c2.9,3,4.3,4.5,7.2,7.4c1.4-1.1,2.1-1.6,3.5-2.7C-76.6,475.1-77.3,474.2-78.8,472.8z M-81,483.9
			c0,9.9,0,14.8,0,24.6c5-3.8,7-5.7,12-9.3c0-9.6,0-14.4,0-24.1C-74,478.5-76,480.2-81,483.9z M-81,587.5c5,3.6,7,5.3,12,8.7
			c0-19.4,0-38.7,0-58.1c-5,3.9-7,5.9-12,10C-81,561.2-81,574.3-81,587.5z M-76.8,508.2c0.3,0.3,0.4,0.4,0.7,0.7
			c2.3-0.3,3.4-0.5,5.7-0.8c-1.2-1.1-1.8-1.7-3-2.8C-74.8,506.6-75.4,507.1-76.8,508.2z M-73.3,538.8c1-0.9,1.5-1.3,2.5-2.2
			c-2,0-3,0-5,0C-74.8,537.6-74.3,538-73.3,538.8z M-68.8,599.5c-2.8,0.4-4.2,0.6-7,0.9c4.1,3,6.1,4.5,10.2,7.5
			c1.7-0.7,3.2-1.8,4.5-2.8C-64.2,602.8-65.8,601.8-68.8,599.5z M-73.3,475.2c0.9-0.6,1.3-0.9,2.2-1.5c-1.7-0.2-2.5-0.3-4.2-0.6
			C-74.5,474.1-74.1,474.5-73.3,475.2z M-71.6,504c1.6,1.5,2.4,2.2,4,3.7c2.2-0.3,3.3-0.5,5.5-0.8c-2.4-2.2-3.6-3.3-6-5.5
			C-69.5,502.5-70.2,503-71.6,504z M-67,481.7c5,4.5,7,6.7,12,11c0-2.4,0-3.5,0-5.9c-5-4.3-7-6.5-12-11.1
			C-67,478.1-67,479.2-67,481.7z M-67,490.7c5,4.3,7,6.4,12,10.5c0-2.3,0-3.4,0-5.7c-5-4.3-7-6.4-12-10.9
			C-67,487.1-67,488.2-67,490.7z M-67,499.1c5,2.4,7,3.6,12,5.9c0-0.3,0-0.5,0-0.8c-5-4.2-7-6.3-12-10.7
			C-67,495.8-67,496.9-67,499.1z M-67,544.3c5,3.8,7,5.7,12,9.3c0-2.3,0-3.4,0-5.7c-5-3.8-7-5.7-12-9.6C-67,540.8-67,542-67,544.3z
			 M-67,553.2c5,3.8,7,5.7,12,9.3c0-2.4,0-3.5,0-5.9c-5-3.7-7-5.6-12-9.4C-67,549.7-67,550.8-67,553.2z M-67,562.2
			c5,3.6,7,5.4,12,8.9c0-2.3,0-3.4,0-5.7c-5-3.6-7-5.4-12-9.2C-67,558.7-67,559.8-67,562.2z M-67,571.2c5,3.6,7,5.4,12,8.9
			c0-2.4,0-3.5,0-5.9c-5-3.5-7-5.3-12-9C-67,567.6-67,568.8-67,571.2z M-67,580.2c5,3.5,7,5.1,12,8.4c0-2.3,0-3.4,0-5.7
			c-5-3.4-7-5.2-12-8.8C-67,576.6-67,577.8-67,580.2z M-67,583.1c0,2.4,0,3.6,0,6c5,3.3,6.8,4.9,11.2,8.1c0.2-1.1,0.8-2.2,0.8-3.2
			c0-0.9,0-1.4,0-2.3C-60,588.2-62,586.6-67,583.1z M-59.5,603.3c1-1.2,2-2.6,2.7-4c-4.1-2.9-6.2-4.3-10.2-7.3c0,2.4,0,3.6,0,6
			C-64,600.2-62.4,601.2-59.5,603.3z M-62.8,470.6c-1.4,1-2,1.5-3.4,2.5c4.4,4.4,6.1,6.5,11.1,10.7c0-0.2,0-0.3,0-0.4
			c0-2.1,0-3.2,0-5.3C-58,475.1-59.8,473.6-62.8,470.6z M-66.2,535.8c4.4,3.8,6.1,5.6,11.1,9.3c0-2.4,0-3.5,0-5.9
			c-3-2.5-4.6-3.8-7.6-6.4C-64,534-64.8,534.6-66.2,535.8z M-62.1,504c1.1,1,1.6,1.5,2.7,2.5c0.7,0,1-0.1,1.7-0.1
			C-59.4,505.4-60.3,505-62.1,504z M-55.6,474.9c-0.7-2.6-2-4.9-3.7-6.8c-0.8,0.5-1.2,0.7-2,1.2C-59.1,471.6-57.9,472.7-55.6,474.9z
			 M-61.4,531.2c2.3,1.9,3.4,2.8,5.7,4.7c-0.5-2.3-1.7-4.6-3.7-6.4C-60.2,530.2-60.6,530.7-61.4,531.2z"/>
		<path id="XMLID_604_" class="st0" d="M18,493.5c0,35.5,0,71.1,0,106.6c-10,1-20,2.2-30,3.5c0-37.5,0-74.9,0-112.4
			c-10-0.8-21-1.7-31-2.7c0-9.9,0-14.8,0-24.7c31,4.2,61,7.7,92,10.5c0,8.4,0,12.6,0,21C39,494.9,29,494.2,18,493.5z M-30,477.5
			c-4.4-3.9-6-5.9-11-10.1c0,7,0,10.6,0,17.6C-36,482-34.4,480.5-30,477.5z M-38.4,486.5c-0.3,0.1-0.4,0.2-0.7,0.3
			c0.6,0.1,0.9,0.1,1.5,0.1C-38,486.8-38.1,486.7-38.4,486.5z M33.5,482.9c4.5-2.9,6.8-4.4,11.3-7.2c-28-2.5-55.9-5.6-83.7-9.3
			c4.6,4.4,6.9,6.5,11.5,10.7C-7.2,479.2,13.2,481.2,33.5,482.9z M-36.8,485.2c0.9,0.8,1.3,1.2,2.2,2c2.8,0.3,4.2,0.4,7,0.6
			c-2.3-2-3.4-3.1-5.7-5.2C-34.6,483.8-35.3,484.2-36.8,485.2z M-31.8,481.5c3.1,2.7,4.6,4.1,7.7,6.7c2.8,0.3,4.2,0.4,7,0.6
			c-4.5-3.8-6.7-5.8-11.2-9.8C-29.6,480.1-30.3,480.6-31.8,481.5z M-13.8,489.2c0.9,0.1,1.3,0.1,2.2,0.2c0.9-0.6,1.3-0.9,2.2-1.5
			c-3.6-3.1-5.4-4.7-9-7.9c-2.7-0.3-4-0.4-6.7-0.7C-20.5,483.2-18.2,485.2-13.8,489.2z M-4,484.2c-1.5-1.3-2.2-1.9-3.7-3.2
			c-2.8-0.3-4.2-0.4-7-0.7c2.9,2.6,4.3,3.8,7.2,6.3C-6.1,485.7-5.4,485.2-4,484.2z M-9,490.7c0,36.5,0,72.9,0,109.4
			c4-4.1,6-6.1,11-10c0-35.7,0-71.4,0-107.1C-3,486-5,487.5-9,490.7z M-7.5,600.8c-0.1,0.2-0.1,0.2-0.2,0.4c0.3,0,0.4-0.1,0.7-0.1
			C-7.2,601-7.3,600.8-7.5,600.8z M-5.8,599.3c0.9,0.5,1.3,0.8,2.2,1.3c2.7-0.3,4-0.5,6.7-0.8c-2.2-1.4-3.3-2.1-5.5-3.6
			C-3.6,597.6-4.3,598.2-5.8,599.3z M-2.2,483.1c0.9-0.5,1.3-0.8,2.2-1.3c-1.7-0.2-2.5-0.2-4.2-0.4C-3.4,482.1-3,482.4-2.2,483.1z
			 M-0.5,594.8c2.9,1.9,4.3,2.8,7.2,4.7c2.8-0.3,4.2-0.5,7-0.7c-4.3-2.7-6.5-4.1-10.8-7C1.6,593,0.9,593.6-0.5,594.8z M16,498
			c0-2.1,0-3.1,0-5.2c-5-3.7-7-5.6-12-9.5c0,2.1,0,3.2,0,5.3C9,492.4,11,494.2,16,498z M16,505.5c0-2,0-3,0-5c-5-3.7-7-5.5-12-9.3
			c0,2.1,0,3.2,0,5.3C9,500.2,11,502,16,505.5z M4,504.2c5,3.7,7,5.5,12,9.1c0-2.1,0-3.1,0-5.2c-5-3.6-7-5.4-12-9.2
			C4,501,4,502.1,4,504.2z M4,506.8c0,2.1,0,3.2,0,5.3c5,3.6,7,5.3,12,8.8c0-2,0-3,0-5C11,512.2,9,510.5,4,506.8z M4,514.5
			c0,2.1,0,3.2,0,5.3c5,3.6,7,5.3,12,8.8c0-2.1,0-3.1,0-5.2C11,520,9,518.2,4,514.5z M4,527.7c5,3.5,7,5.1,12,8.5c0-2,0-3,0-5
			c-5-3.4-7-5.2-12-8.7C4,524.6,4,525.6,4,527.7z M4,535.3c5,3.5,7,5.2,12,8.5c0-2.1,0-3.1,0-5.2c-5-3.4-7-5.1-12-8.6
			C4,532.2,4,533.2,4,535.3z M4,543.2c5,3.3,7,5,12,8.2c0-2,0-3,0-5c-5-3.3-7-5-12-8.4C4,540.2,4,541.2,4,543.2z M4,551.1
			c5,3.3,7,5,12,8.2c0-2.1,0-3.1,0-5.2c-5-3.3-7-4.9-12-8.3C4,547.8,4,549,4,551.1z M4,559c5,3.2,7,4.8,12,7.9c0-2,0-3,0-5
			c-5-3.2-7-4.8-12-8.1C4,555.8,4,556.8,4,559z M4,566.7c5,3.2,7,4.8,12,7.9c0-2.1,0-3.1,0-5.2c-5-3.1-7-4.7-12-8
			C4,563.5,4,564.6,4,566.7z M4,574.6c5,3.1,7,4.6,12,7.6c0-2,0-3,0-5c-5-3.1-7-4.7-12-7.8C4,571.3,4,572.5,4,574.6z M4,582.2
			c5,3.1,7,4.6,12,7.6c0-2.1,0-3.1,0-5.2c-5-3-7-4.6-12-7.7C4,579.1,4,580.2,4,582.2z M4,590.2c5,3,7,4.4,12,7.3c0-2.1,0-3.1,0-5.2
			c-5-2.9-7-4.4-12-7.4C4,587.1,4,588.1,4,590.2z M17.5,491.6c2.8,0.2,4.2,0.3,7,0.5c-4.6-3.6-6.9-5.4-11.5-9.2
			c-2.8-0.2-4.2-0.4-7-0.6C10.6,486.1,12.9,488,17.5,491.6z M23.3,483.8c-2.7-0.2-4.1-0.3-6.8-0.6c4.5,3.7,6.8,5.5,11.3,9.1
			c2.8,0.2,4.2,0.3,7,0.5C30.2,489.2,27.9,487.5,23.3,483.8z M33.8,484.7c-2.8-0.2-4.2-0.3-7-0.6c4.6,3.6,6.9,5.4,11.5,8.9
			c2.8,0.2,4.2,0.3,7,0.4C40.7,490,38.4,488.2,33.8,484.7z M35.9,483.8c4.4,3.5,6.1,5.2,11.1,8.6c0-1.9,0-2.9,0-4.8
			c-3-2.4-4.6-3.6-7.6-6C38,482.4,37.3,482.9,35.9,483.8z M41.1,480.4c2.3,1.9,3.9,2.8,5.9,4.7c0-2,0-3,0-4.9
			c-1-0.7-1.4-1.1-2.3-1.8C43.3,479.2,42.5,479.6,41.1,480.4z M46.3,477.2c0.2,0.2,0.3,0.3,0.5,0.6c0-0.4,0-0.6,0-1.1
			C46.6,477,46.5,477.1,46.3,477.2z"/>
		<path id="XMLID_550_" class="st0" d="M142,591.8c-10,0.3-20,0.7-30,1.2c0-11.3,0-22.7,0-34c-9,0.2-14,0.3-22,0.5
			c0,11.6,0,23.1,0,34.7c-10,0.6-20,1.3-30,2.1c0-36.1,0-72.2,0-108.3c0-7.1,8.1-12.1,18.3-11.4c15.1,1,30.1,1.8,45.1,2.5
			c10,0.4,18.5,6,18.5,12.5C142,525,142,558.3,142,591.8z M65.7,481.2c-2.5,1.7-3.7,4.2-3.7,7c0,35,0,70,0,105c4-3.5,7-5.2,11-8.6
			c0-32.6,0-65.1,0-97.7C70,484.7,68.7,483.5,65.7,481.2z M64.1,593.8c-0.2,0.2-0.3,0.2-0.5,0.4c0.3,0,0.5,0,0.8-0.1
			C64.2,594.1,64.2,594.1,64.1,593.8z M65.8,592.8c0.8,0.5,1.2,0.7,2,1.2c2.8-0.2,4.2-0.3,7-0.5c-2.2-1.3-3.3-2-5.5-3.4
			C68,591.2,67.3,591.7,65.8,592.8z M78.1,478.2c-4-0.3-7.8,0.5-10.5,2c3,2.3,4.5,3.4,7.5,5.6c16.9,1,33.8,1.8,50.7,2.4
			c3.1-1.9,4.7-2.8,7.8-4.7c-2.8-1.5-6.5-2.6-10.3-2.8C108.2,480,93.2,479.1,78.1,478.2z M70.9,588.8c3,1.8,4.5,2.7,7.5,4.4
			c2.7-0.2,4.1-0.3,6.8-0.4c-4.3-2.6-6.5-3.9-10.8-6.6C73,587.2,72.3,587.8,70.9,588.8z M87,496.8c-4-3.3-7-4.9-11-8.3
			c0,1.9,0,2.8,0,4.7c4,3.3,7,5,11,8.2C87,499.6,87,498.7,87,496.8z M76,500.4c4,3.2,7,4.8,11,8c0-1.8,0-2.7,0-4.5
			c-4-3.2-7-4.9-11-8.2C76,497.6,76,498.5,76,500.4z M76,507.2c4,3.3,7,4.9,11,8.1c0-1.9,0-2.8,0-4.7c-4-3.2-7-4.8-11-8.1
			C76,504.5,76,505.5,76,507.2z M76,514.5c4,3.2,7,4.7,11,7.8c0-1.8,0-2.7,0-4.5c-4-3.2-7-4.8-11-8C76,511.6,76,512.6,76,514.5z
			 M76,521.3c4,3.2,7,4.8,11,7.9c0-1.9,0-2.8,0-4.7c-4-3.1-7-4.7-11-7.9C76,518.6,76,519.5,76,521.3z M87,531.6c-4-3.1-7-4.7-11-7.8
			c0,1.9,0,2.8,0,4.7c4,3.1,7,4.6,11,7.6C87,534.2,87,533.3,87,531.6z M84.9,541.5c0.9-0.6,1.1-0.9,2.1-1.5c0-0.6,0-0.9,0-1.5
			c-4-3.1-7-4.6-11-7.8c0,1.9,0,2.8,0,4.7C79,537.8,81.3,539.1,84.9,541.5z M79.7,545.1c1.4-1,2.1-1.4,3.5-2.4
			c-2.9-1.9-4.2-2.9-7.2-4.9c0,1.9,0,2.8,0,4.7C77,543.6,78.2,544.1,79.7,545.1z M76,544.8c0,1.2,0,1.7,0,2.9c1-0.6,1.2-0.8,2-1.4
			C77.2,545.7,77,545.3,76,544.8z M87,563.8c0-1.8,0-2.7,0-4.5c-4-3-7-4.5-11-7.5c0,1.9,0,2.8,0,4.7C80,559.6,83,561,87,563.8z
			 M76,563.6c4,3,7,4.4,11,7.3c0-1.9,0-2.8,0-4.7c-4-2.9-7-4.4-11-7.4C76,560.8,76,561.7,76,563.6z M76,570.7c4,2.9,7,4.3,11,7.1
			c0-1.8,0-2.7,0-4.5c-4-2.9-7-4.4-11-7.3C76,567.8,76,568.8,76,570.7z M76,572.8c0,1.9,0,2.8,0,4.7c4,2.9,7,4.3,11,7.2
			c0-1.9,0-2.8,0-4.7C83,577.2,80,575.8,76,572.8z M76,584.8c4,2.8,7,4.2,11,6.9c0-1.8,0-2.7,0-4.5c-4-2.8-7-4.2-11-7.1
			C76,581.8,76,582.8,76,584.8z M88.7,558c2.8-0.1,4.2-0.1,7-0.2c-4.6-2.9-6.9-4.4-11.5-7.4c-2.8,0-4.2,0.1-7,0.1
			C81.7,553.6,84.1,555.1,88.7,558z M84.4,488c-2.7-0.1-4.1-0.2-6.8-0.4c4.5,3.3,6.8,4.9,11.3,8.1c2.8,0.1,4.2,0.2,7,0.3
			C91.3,492.9,89,491.2,84.4,488z M77.6,548.8c15.3-0.2,30.6-0.4,45.9-0.6c-4.6-2.9-6.9-4.3-11.5-7.2c-9.2,0-13.9,0.1-23.1,0.1
			C84.4,544.2,82.1,545.7,77.6,548.8z M94.7,550.2c-2.8,0-4.2,0.1-7,0.1c4.6,3,6.9,4.5,11.5,7.4c2.7-0.1,4.1-0.1,6.8-0.1
			C101.5,554.7,99.2,553.2,94.7,550.2z M94.9,488.5c-2.8-0.1-4.2-0.2-7-0.3c4.6,3.2,6.9,4.8,11.5,8c2.8,0.1,4.2,0.2,7,0.3
			C101.9,493.2,99.6,491.7,94.9,488.5z M112,498.2c-9-0.3-14-0.4-22-0.8c0,14,0,28,0,42c8,0,13,0,22-0.1
			C112,525.7,112,512,112,498.2z M109.5,557.6c0.9,0,1.4,0,2.3,0c1-0.6,1.5-0.9,2.5-1.5c-3.7-2.3-5.6-3.5-9.3-5.9
			c-2.8,0-4.2,0.1-7,0.1C102.6,553.2,104.9,554.7,109.5,557.6z M105.2,489c-2.7-0.1-4.1-0.2-6.8-0.3c4.5,3.2,6.8,4.8,11.3,7.9
			c0.9,0,1.4,0,2.3,0.1c0.9-0.6,1.4-0.8,2.3-1.4C110.6,492.8,108.8,491.5,105.2,489z M115.5,550c-2.8,0-4.2,0-7,0.1
			c3,1.9,4.5,2.9,7.5,4.8c1.4-0.9,2.1-1.4,3.5-2.3C117.9,551.5,117.1,551,115.5,550z M115.8,489.4c-2.8-0.1-4.2-0.2-7-0.3
			c2.9,2,4.4,3,7.3,5c1.4-0.9,2.1-1.3,3.5-2.2C118,491,117.3,490.5,115.8,489.4z M114,497.7c0,14.1,0,28.3,0,42.4c5,3,7,4.5,12,7.4
			c0-19,0-37.9,0-56.9C121,493.4,119,494.8,114,497.7z M114,558.5c0,10.5,0,21.1,0,31.6c5-3.2,7-4.8,12-7.9c0-10.4,0-20.8,0-31.2
			C121,554,119,555.5,114,558.5z M116,590.8c-0.1,0.1-0.2,0.2-0.3,0.3c0.3,0,0.5,0,0.8,0C116.3,591,116.2,590.8,116,590.8z
			 M117.8,589.8c0.9,0.5,1.4,0.7,2.3,1.2c2.7-0.1,4.1-0.2,6.8-0.3c-2.2-1.3-3.3-2-5.5-3.3C119.9,588.2,119.2,588.8,117.8,589.8z
			 M121.3,551.5c1-0.7,1.5-1,2.5-1.6c-2,0-3,0-5,0.1C119.8,550.6,120.3,550.8,121.3,551.5z M121.3,490.9c0.9-0.5,1.4-0.7,2.3-1.2
			c-1.7-0.1-2.6-0.1-4.3-0.2C120.1,490.1,120.5,490.4,121.3,490.9z M123,586.1c2.9,1.8,4.4,2.6,7.3,4.4c2.8-0.1,4.2-0.2,7-0.2
			c-4.3-2.6-6.5-3.9-10.8-6.6C125.2,584.7,124.5,585.2,123,586.1z M128,495.2c4,3.1,7,4.6,11,7.7c0-1.8,0-2.7,0-4.5
			c-4-3-7-4.6-11-7.7C128,492.6,128,493.5,128,495.2z M128,502.1c4,3,7,4.5,11,7.5c0-1.7,0-2.6,0-4.3c-4-3-7-4.6-11-7.6
			C128,499.4,128,500.2,128,502.1z M128,508.7c4,3.1,7,4.6,11,7.6c0-1.8,0-2.7,0-4.5c-4-3-7-4.5-11-7.6C128,506,128,506.9,128,508.7
			z M128,515.5c4,3,7,4.4,11,7.4c0-1.7,0-2.6,0-4.3c-4-3-7-4.5-11-7.5C128,512.8,128,513.7,128,515.5z M128,522.1c4,3,7,4.5,11,7.5
			c0-1.8,0-2.7,0-4.5c-4-3-7-4.5-11-7.5C128,519.3,128,520.2,128,522.1z M128,528.8c4,2.9,7,4.4,11,7.3c0-1.7,0-2.6,0-4.3
			c-4-3-7-4.4-11-7.4C128,526.2,128,527.1,128,528.8z M128,535.5c4,3,7,4.4,11,7.4c0-1.8,0-2.7,0-4.5c-4-2.9-7-4.4-11-7.4
			C128,532.8,128,533.7,128,535.5z M128,542.2c4,2.9,7,4.3,11,7.2c0-1.7,0-2.6,0-4.3c-4-2.9-7-4.4-11-7.4
			C128,539.6,128,540.5,128,542.2z M128,548.8c4,2.9,7,4.4,11,7.3c0-1.8,0-2.7,0-4.5c-4-2.9-7-4.4-11-7.3
			C128,546.2,128,547.1,128,548.8z M128,555.7c4,2.8,7,4.2,11,7.1c0-1.7,0-2.6,0-4.3c-4-2.9-7-4.3-11-7.3
			C128,552.8,128,553.8,128,555.7z M128,562.2c4,2.9,7,4.3,11,7.2c0-1.8,0-2.7,0-4.5c-4-2.9-7-4.3-11-7.2
			C128,559.6,128,560.5,128,562.2z M128,569c4,2.8,7,4.2,11,7c0-1.7,0-2.6,0-4.3c-4-2.8-7-4.3-11-7.2C128,566.2,128,567.2,128,569z
			 M128,575.7c4,2.8,7,4.3,11,7.1c0-1.8,0-2.7,0-4.5c-4-2.8-7-4.3-11-7.1C128,572.8,128,573.8,128,575.7z M128,582.3
			c4,2.8,7,4.1,11,6.9c0-1.7,0-2.6,0-4.3c-4-2.8-7-4.2-11-7.1C128,579.7,128,580.6,128,582.3z M128.1,488.9c4.4,3,6.9,4.5,10.9,7.4
			c0-1.7,0-2.6,0-4.3c-3-2.1-4.4-3.1-7.4-5.2C130.1,487.6,129.5,488,128.1,488.9z M133.2,485.7c2.3,1.6,3.5,2.3,5.8,3.9
			c-0.8-1.9-2-3.6-3.8-4.9C134.5,485,134.1,485.2,133.2,485.7z"/>
		<path id="XMLID_500_" class="st0" d="M223.6,480.4c10-0.2,18.4,4.8,18.4,11.4c0,29.4,0,58.7,0,88.1c0,6.4-8.3,11.6-18.4,11.4
			c-21.3-0.3-42.6-0.3-63.6,0.1c0-37,0-74,0-111C181,480.7,202.2,480.7,223.6,480.4z M174,490.2c-5-3-7-4.4-12-7.4
			c0,35.2,0,70.4,0,105.7c5-3,7-4.5,12-7.4C174,550.8,174,520.6,174,490.2z M234.1,484c-2.8-1.4-6.5-2.2-10.3-2.2
			c-19.9,0.3-39.9,0.4-59.8,0c4.6,3,6.9,4.5,11.6,7.4c16.9,0.1,33.8,0.1,50.7-0.2C229.4,487.1,230.9,486,234.1,484z M164.5,589.2
			c-0.2,0.1-0.3,0.2-0.5,0.3c0.3,0,0.5,0,0.8,0C164.6,589.5,164.6,589.3,164.5,589.2z M166.2,588.2c0.8,0.5,1.2,0.7,2,1.2
			c2.8,0,4.2-0.1,7-0.1c-2.2-1.4-3.3-2-5.5-3.4C168.2,587,167.6,587.3,166.2,588.2z M171.2,585c3,1.8,4.5,2.7,7.5,4.5
			c2.7,0,4.1,0,6.8,0c-4.3-2.7-6.5-4-10.8-6.7C173.4,583.6,172.7,584.1,171.2,585z M188,499.1c-5-2.9-7-4.4-12-7.3
			c0,1.8,0,2.7,0,4.4c5,2.9,7,4.4,12,7.3C188,501.7,188,500.9,188,499.1z M176,502.8c5,2.9,7,4.3,12,7.1c0-1.7,0-2.6,0-4.3
			c-5-2.9-7-4.4-12-7.3C176,500.2,176,501.1,176,502.8z M176,509.2c5,2.9,7,4.4,12,7.3c0-1.8,0-2.6,0-4.4c-5-2.9-7-4.4-12-7.3
			C176,506.6,176,507.5,176,509.2z M176,515.8c5,2.9,7,4.3,12,7.1c0-1.7,0-2.6,0-4.3c-5-2.9-7-4.4-12-7.3
			C176,513.2,176,514.2,176,515.8z M176,522.3c5,2.9,7,4.4,12,7.3c0-1.8,0-2.6,0-4.4c-5-2.9-7-4.4-12-7.3
			C176,519.7,176,520.6,176,522.3z M176,529c5,2.8,7,4.3,12,7.1c0-1.7,0-2.6,0-4.3c-5-2.9-7-4.4-12-7.3C176,526.3,176,527.2,176,529
			z M176,535.5c5,2.9,7,4.4,12,7.2c0-1.8,0-2.6,0-4.4c-5-2.9-7-4.3-12-7.3C176,532.8,176,533.7,176,535.5z M176,542.1
			c5,2.8,7,4.3,12,7.1c0-1.7,0-2.6,0-4.3c-5-2.9-7-4.3-12-7.2C176,539.5,176,540.3,176,542.1z M176,548.6c5,2.9,7,4.3,12,7.2
			c0-1.8,0-2.6,0-4.4c-5-2.9-7-4.3-12-7.2C176,545.8,176,546.8,176,548.6z M176,555.2c5,2.8,7,4.2,12,7.1c0-1.7,0-2.6,0-4.3
			c-5-2.9-7-4.3-12-7.2C176,552.6,176,553.5,176,555.2z M188,564.5c-5-2.9-7-4.3-12-7.2c0,1.8,0,2.7,0,4.4c5,2.9,7,4.3,12,7.2
			C188,567.1,188,566.2,188,564.5z M185.4,574c0.9-0.6,1.6-1,2.6-1.6c0-0.5,0-0.8,0-1.3c-5-2.9-7-4.3-12-7.2c0,1.8,0,2.7,0,4.4
			C180,570.6,181.8,571.7,185.4,574z M179.9,577.2c1.4-0.9,2-1.3,3.4-2.2c-2.9-1.9-4.4-2.8-7.4-4.7c0,1.8,0,2.7,0,4.4
			C178,575.8,178.4,576.2,179.9,577.2z M176,577c0,1.1,0,1.6,0,2.7c1-0.6,1.2-0.9,2-1.4C177.2,577.8,177,577.5,176,577z
			 M177.5,582.2c4.6,2.9,6.9,4.3,11.6,7.2c2.8,0,4.2,0,7,0c-4.6-2.9-6.9-4.3-11.6-7.2C181.8,582.2,180.4,582.2,177.5,582.2z
			 M184.8,490.9c-2.7,0-4.1,0-6.8,0c4.5,2.9,6.8,4.3,11.3,7.1c2.8,0,4.2,0,7,0C191.8,495.2,189.4,493.7,184.8,490.9z M178,580.8
			c15.3-0.1,30.6,0,46,0.2c-4.6-3-6.9-4.5-11.6-7.4c-9.2-0.1-13.9-0.1-23.1-0.1C184.8,576.3,182.6,577.8,178,580.8z M188.1,582.1
			c4.6,2.9,6.9,4.3,11.6,7.2c2.7,0,4.1,0,6.8,0c-4.5-2.9-6.8-4.4-11.3-7.3C192.2,582.1,190.9,582.1,188.1,582.1z M195.4,490.9
			c-2.8,0-4.2,0-7,0c4.6,2.8,6.9,4.3,11.6,7.1c2.8,0,4.2,0,7,0C202.2,495.2,200,493.7,195.4,490.9z M212,499.5c-9,0.1-13,0.1-22,0.1
			c0,24.1,0,48.2,0,72.3c9,0,13,0,22,0.1C212,547.8,212,523.7,212,499.5z M198.4,582.1c4.6,2.9,6.9,4.4,11.6,7.3c2.8,0,4.2,0,7,0.1
			c-4.6-3-6.9-4.4-11.6-7.4C202.6,582.2,201.2,582.1,198.4,582.1z M205.7,490.9c-2.7,0-4.1,0-6.8,0c4.5,2.8,6.8,4.2,11.3,7
			c0.9,0,1.4,0,2.3,0c0.9-0.6,1.4-0.9,2.3-1.4C211.1,494.2,209.2,493.1,205.7,490.9z M220.5,589.6c1.3,0,2,0,3.3,0.1
			c1,0,2.3-0.1,3.3-0.1c-4.4-2.9-6.6-4.4-11.1-7.3c-2.8,0-4.2,0-7-0.1C213.6,585.1,215.9,586.6,220.5,589.6z M216.2,490.8
			c-2.8,0-4.2,0-7,0.1c2.9,1.8,4.4,2.7,7.3,4.5c1.4-0.9,2.1-1.3,3.5-2.3C218.5,492.2,217.7,491.7,216.2,490.8z M214,572.6
			c5,2.9,7,4.4,12,7.4c0-29.5,0-59,0-88.6c-5,3-7,4.5-12,7.4C214,523.3,214,548,214,572.6z M226.2,582.3c-2.8,0-4.2-0.1-7-0.1
			c4.1,2.6,6.2,4,10.3,6.7c1.8-0.3,3.3-0.9,4.5-1.5C230.9,585.3,229.4,584.3,226.2,582.3z M221.8,492c0.9-0.5,1.4-0.8,2.3-1.3
			c-1.7,0-2.6,0-4.3,0.1C220.5,491.2,220.9,491.5,221.8,492z M228,496c5,2.9,7,4.3,12,7.1c0-1.8,0-2.7,0-4.5c-5-2.8-7-4.3-12-7.1
			C228,493.4,228,494.2,228,496z M228,502.7c5,2.8,7,4.2,12,7c0-1.7,0-2.6,0-4.3c-5-2.9-7-4.3-12-7.1C228,500,228,500.9,228,502.7z
			 M228,509.2c5,2.9,7,4.3,12,7.2c0-1.8,0-2.7,0-4.5c-5-2.9-7-4.3-12-7.2C228,506.5,228,507.4,228,509.2z M228,515.8
			c5,2.8,7,4.2,12,7.1c0-1.7,0-2.6,0-4.3c-5-2.9-7-4.3-12-7.2C228,513.2,228,514.1,228,515.8z M228,522.2c5,2.9,7,4.3,12,7.3
			c0-1.8,0-2.7,0-4.5c-5-2.9-7-4.4-12-7.2C228,519.7,228,520.6,228,522.2z M228,529c5,2.8,7,4.3,12,7.1c0-1.7,0-2.6,0-4.3
			c-5-2.9-7-4.4-12-7.3C228,526.2,228,527.2,228,529z M228,535.5c5,2.9,7,4.4,12,7.3c0-1.8,0-2.7,0-4.5c-5-2.9-7-4.4-12-7.3
			C228,532.8,228,533.7,228,535.5z M228,542.2c5,2.9,7,4.3,12,7.2c0-1.7,0-2.6,0-4.3c-5-3-7-4.4-12-7.3
			C228,539.5,228,540.3,228,542.2z M228,548.7c5,2.9,7,4.4,12,7.4c0-1.8,0-2.7,0-4.5c-5-3-7-4.4-12-7.4C228,546,228,546.8,228,548.7
			z M228,555.2c5,2.9,7,4.3,12,7.3c0-1.7,0-2.6,0-4.3c-5-3-7-4.5-12-7.4C228,552.7,228,553.5,228,555.2z M228,561.8
			c5,3,7,4.5,12,7.5c0-1.8,0-2.7,0-4.5c-5-3-7-4.5-12-7.4C228,559.2,228,560,228,561.8z M228,568.5c5,2.9,7,4.4,12,7.3
			c0-1.7,0-2.6,0-4.3c-5-3-7-4.5-12-7.5C228,565.8,228,566.7,228,568.5z M228,570.5c0,1.8,0,2.7,0,4.4c5,2.9,6.9,4.3,11.3,7.2
			c0.3-0.8,0.7-1.6,0.7-2.4c0-0.7,0-1.1,0-1.8C235,575,233,573.5,228,570.5z M235.7,586.3c1-0.8,1.9-1.7,2.7-2.6
			c-4.1-2.6-6.4-3.9-10.4-6.5c0,1.8,0,2.7,0,4.4C231,583.5,232.7,584.5,235.7,586.3z M228.9,489.7c4.4,2.7,6.1,4.1,11.1,6.8
			c0-1.7,0-2.6,0-4.3c-3-1.9-4.6-2.9-7.6-4.8C231,488.2,230.2,488.8,228.9,489.7z M233.8,486.2c2.3,1.4,3.5,2.1,5.8,3.5
			c-0.8-1.9-2-3.5-3.8-4.7C235,485.5,234.6,485.8,233.8,486.2z"/>
		<path id="XMLID_476_" class="st0" d="M262,479.2c10-0.4,20-0.9,30-1.5c0,38.7,0,77.3,0,116c-10-0.6-20-1.1-30-1.5
			C262,554.7,262,517,262,479.2z M276,488.8c-5-2.8-7-4.2-12-7c0,36,0,71.9,0,107.9c5-2.8,7-4.2,12-7C276,551.3,276,520.1,276,488.8
			z M277,487.1c4.3-3,6.5-4.5,10.8-7.6c-8.6,0.5-12.9,0.7-21.6,1C270.5,483.2,272.7,484.5,277,487.1z M266.4,590.6
			c-0.1,0.1-0.2,0.2-0.3,0.3c0.3,0,0.5,0,0.8,0C266.7,590.8,266.5,590.7,266.4,590.6z M268.2,589.7c0.8,0.6,1.2,0.8,2,1.4
			c2.8,0.1,4.2,0.2,7,0.3c-2.2-1.5-3.3-2.3-5.5-3.8C270.2,588.3,269.5,588.8,268.2,589.7z M273.5,586.5c2.9,2,4.4,3,7.3,5.1
			c2.8,0.1,4.2,0.2,7,0.4c-4.3-3.1-6.5-4.6-10.8-7.6C275.5,585.2,274.9,585.6,273.5,586.5z M278,494.8c5,2.8,7,4.3,12,7.2
			c0-1.9,0-2.8,0-4.6c-5-2.9-7-4.3-12-7.1C278,492,278,492.9,278,494.8z M278,501.6c5,2.8,7,4.2,12,7.1c0-1.8,0-2.7,0-4.5
			c-5-2.9-7-4.3-12-7.2C278,498.9,278,499.8,278,501.6z M278,508.2c5,2.9,7,4.4,12,7.3c0-1.9,0-2.8,0-4.6c-5-2.9-7-4.4-12-7.3
			C278,505.6,278,506.5,278,508.2z M278,515.2c5,2.9,7,4.3,12,7.2c0-1.8,0-2.7,0-4.5c-5-3-7-4.4-12-7.3
			C278,512.5,278,513.3,278,515.2z M278,521.8c5,3,7,4.4,12,7.5c0-1.9,0-2.8,0-4.6c-5-3-7-4.5-12-7.4C278,519.2,278,520.1,278,521.8
			z M278,528.8c5,2.9,7,4.4,12,7.4c0-1.8,0-2.7,0-4.5c-5-3-7-4.5-12-7.5C278,526,278,526.8,278,528.8z M278,535.5c5,3,7,4.5,12,7.6
			c0-1.9,0-2.8,0-4.6c-5-3.1-7-4.6-12-7.6C278,532.7,278,533.7,278,535.5z M278,537.8c0,1.8,0,2.7,0,4.6c5,3,7,4.5,12,7.5
			c0-1.8,0-2.7,0-4.5C285,542.2,283,540.8,278,537.8z M278,549.1c5,3.1,7,4.6,12,7.7c0-1.9,0-2.8,0-4.6c-5-3.1-7-4.7-12-7.7
			C278,546.2,278,547.2,278,549.1z M278,555.8c5,3,7,4.6,12,7.7c0-1.8,0-2.7,0-4.5c-5-3.1-7-4.7-12-7.8
			C278,553.2,278,554.1,278,555.8z M278,562.6c5,3.1,7,4.7,12,7.9c0-1.9,0-2.8,0-4.6c-5-3.2-7-4.7-12-7.8
			C278,559.8,278,560.8,278,562.6z M278,569.5c5,3.1,7,4.6,12,7.8c0-1.8,0-2.7,0-4.5c-5-3.2-7-4.8-12-7.9
			C278,566.8,278,567.7,278,569.5z M278,571.6c0,1.8,0,2.7,0,4.6c5,3.2,7,4.8,12,8c0-1.9,0-2.8,0-4.6C285,576.3,283,574.8,278,571.6
			z M278,583.1c5,3.1,7,4.7,12,7.9c0-1.8,0-2.7,0-4.5c-5-3.3-7-4.9-12-8.1C278,580.2,278,581.2,278,583.1z M278.5,488.2
			c4.5,2.7,6.4,4,11.4,6.8c0-1.8,0-2.7,0-4.5c-3-1.9-4.7-2.9-7.8-4.8C280.8,486.7,280,487.2,278.5,488.2z M283.9,484.7
			c2.4,1.4,3.1,2.1,6.1,3.5c0-1.9,0-2.8,0-4.6c-1-0.5-1.6-0.8-2.6-1.4C286,483.2,285.2,483.7,283.9,484.7z M289,481
			c0.3,0.2,0.5,0.3,0.8,0.5c0-0.4,0-0.6,0-1C289.5,480.6,289.2,480.8,289,481z"/>
		<path id="XMLID_428_" class="st0" d="M395,468.6c0,40.1,0,80.1,0,120.2c0,7.7-8.4,13.2-18.4,12.1c-15-1.6-30-3-45.1-4.3
			c-10.3-0.8-18.5-7.2-18.5-14c0-35.4,0-70.8,0-106.2c10-0.7,20-1.5,30-2.4c0,34.1,0,68.1,0,102.2c9,0.5,13,0.8,22,1.4
			c0-35.2,0-70.4,0-105.6C375,471,385,469.8,395,468.6z M315,479c0,34.6,0,69.2,0,103.7c0,2.7,1.7,5.2,4.2,7.4
			c3-1.9,4.8-2.9,7.8-4.8c0-33.1,0-66.1,0-99.2C322,483.2,320,481.8,315,479z M327.9,484.2c4.3-3.3,6.5-4.9,10.8-8.3
			c-8.6,0.7-12.9,1.1-21.6,1.7C321.4,480.2,323.5,481.7,327.9,484.2z M322.9,590.3c-0.7,0.4-1.1,0.5-1.8,0.9c2,1.3,4.3,2.4,6.8,2.9
			C325.9,592.7,324.9,591.8,322.9,590.3z M324.4,589.2c3,2.2,4.5,3.3,7.5,5.6c2.7,0.2,4.1,0.3,6.8,0.6c-4.3-3.4-6.5-5-10.8-8.3
			C326.5,588,325.8,588.3,324.4,589.2z M341,494.8c-5-2.9-7-4.3-12-7.2c0,1.9,0,2.8,0,4.7c5,2.9,7,4.4,12,7.4
			C341,497.8,341,496.8,341,494.8z M329,499.6c5,2.9,7,4.4,12,7.3c0-1.9,0-2.8,0-4.7c-5-3-7-4.5-12-7.4
			C329,496.7,329,497.7,329,499.6z M329,506.7c5,3,7,4.5,12,7.6c0-2,0-3,0-4.9c-5-3-7-4.5-12-7.4C329,503.9,329,504.9,329,506.7z
			 M329,514c5,3,7,4.5,12,7.6c0-1.9,0-2.8,0-4.7c-5-3.1-7-4.6-12-7.7C329,511.1,329,512.1,329,514z M329,521.1c5,3.1,7,4.7,12,7.9
			c0-2,0-3,0-4.9c-5-3.2-7-4.7-12-7.8C329,518.2,329,519.2,329,521.1z M329,528.3c5,3.1,7,4.6,12,7.8c0-1.9,0-2.8,0-4.7
			c-5-3.2-7-4.8-12-7.9C329,525.5,329,526.3,329,528.3z M329,535.5c5,3.2,7,4.8,12,8.1c0-2,0-3,0-4.9c-5-3.3-7-4.9-12-8
			C329,532.6,329,533.5,329,535.5z M329,542.7c5,3.2,7,4.8,12,8c0-1.9,0-2.8,0-4.7c-5-3.3-7-4.9-12-8.1
			C329,539.8,329,540.8,329,542.7z M329,549.8c5,3.3,7,4.9,12,8.3c0-2,0-3,0-4.9c-5-3.3-7-5-12-8.2C329,546.8,329,547.8,329,549.8z
			 M329,557.1c5,3.2,7,4.9,12,8.2c0-1.9,0-2.8,0-4.7c-5-3.4-7-5.1-12-8.3C329,554.2,329,555.2,329,557.1z M341,567.8
			c-5-3.4-7-5.1-12-8.5c0,1.9,0,2.9,0,4.8c5,3.4,7,5.1,12,8.5C341,570.8,341,569.8,341,567.8z M338.4,578.2c0.9-0.6,1.6-1,2.6-1.6
			c0-0.6,0-0.8,0-1.4c-5-3.5-7-5.2-12-8.6c0,1.9,0,2.9,0,4.8C333,574.1,334.8,575.5,338.4,578.2z M333,581.6c1.4-0.9,2-1.3,3.4-2.2
			c-2.9-2.3-4.4-3.4-7.4-5.6c0,1.9,0,2.9,0,4.8C331,579.8,331.5,580.3,333,581.6z M329,581c0,1.2,0,1.8,0,2.9c1-0.6,1.2-0.9,2-1.4
			C330.2,581.8,330,581.6,329,581z M333.2,482.7c-1.4,1.1-2,1.6-3.4,2.7c4.4,2.8,6.1,4.1,11.1,7c0-1.9,0-2.8,0-4.7
			C338,485.7,336.2,484.7,333.2,482.7z M330.7,586.8c4.6,3.5,6.9,5.3,11.5,8.9c2.8,0.2,4.2,0.4,7,0.6c-4.6-3.7-6.9-5.5-11.5-9.1
			C334.9,587.1,333.5,587,330.7,586.8z M365.5,579.3c-9.2-0.6-13.8-0.9-23-1.5c-4.5,3-6.8,4.4-11.3,7.3c15.3,1.1,30.5,2.2,45.8,3.6
			C372.4,585,370,583.1,365.5,579.3z M338.5,478.9c-1.4,1.1-2,1.6-3.4,2.7c2.3,1.4,2.8,2.2,5.8,3.6c0-2,0-3,0-4.9
			C340,479.7,339.5,479.4,338.5,478.9z M340.7,478c0-0.4,0-0.6,0-1.1c-0.2,0.2-0.3,0.3-0.5,0.6C340.4,477.7,340.5,477.8,340.7,478z
			 M341.2,587.5c4.6,3.6,6.9,5.4,11.5,9.1c2.7,0.2,4.1,0.4,6.8,0.6c-4.5-3.8-6.8-5.6-11.3-9.2C345.4,587.8,344,587.7,341.2,587.5z
			 M351.4,588.2c4.6,3.6,6.9,5.5,11.5,9.3c2.8,0.3,4.2,0.4,7,0.7c-4.6-3.9-6.9-5.7-11.5-9.4C355.5,588.7,354.2,588.5,351.4,588.2z
			 M373.5,598.7c1.3,0.1,2,0.2,3.3,0.3c1,0.1,2.3,0.1,3.3,0.2c-4.4-3.8-6.6-5.7-11-9.4c-2.8-0.2-4.2-0.4-7-0.6
			C366.5,592.8,368.9,594.8,373.5,598.7z M367,578.5c5,3.7,7,5.6,12,9.4c0-35.3,0-70.6,0-105.8c-5-3-7-4.5-12-7.4
			C367,509.2,367,543.8,367,578.5z M380,480.1c4.3-3.6,6.5-5.5,10.7-9.2c-8.6,1-12.9,1.5-21.5,2.3
			C373.5,475.9,375.7,477.2,380,480.1z M379.2,590.7c-2.8-0.3-4.2-0.4-7-0.6c4.1,3.4,6.2,5.1,10.3,8.6c1.8-0.2,3.3-0.8,4.5-1.4
			C383.9,594.6,382.2,593.2,379.2,590.7z M381,488.8c5,3.1,7,4.6,12,7.8c0-2.1,0-3.2,0-5.4c-5-3.1-7-4.6-12-7.5
			C381,485.8,381,486.8,381,488.8z M381,496.7c5,3.1,7,4.6,12,7.8c0-2.1,0-3.1,0-5.2c-5-3.2-7-4.8-12-7.9
			C381,493.5,381,494.6,381,496.7z M381,504.2c5,3.2,7,4.8,12,8.2c0-2.1,0-3.2,0-5.4c-5-3.2-7-4.8-12-7.9
			C381,501.2,381,502.2,381,504.2z M381,512.2c5,3.2,7,4.8,12,8.1c0-2.1,0-3.1,0-5.2c-5-3.3-7-5-12-8.2
			C381,509.1,381,510.1,381,512.2z M381,519.8c5,3.3,7,5,12,8.5c0-2.1,0-3.2,0-5.4c-5-3.4-7-5.1-12-8.4
			C381,516.7,381,517.8,381,519.8z M381,527.8c5,3.3,7,5,12,8.4c0-2.1,0-3.1,0-5.2c-5-3.5-7-5.2-12-8.5
			C381,524.6,381,525.7,381,527.8z M381,535.3c5,3.4,7,5.2,12,8.8c0-2.1,0-3.2,0-5.4c-5-3.5-7-5.3-12-8.7
			C381,532.2,381,533.2,381,535.3z M381,543.2c5,3.4,7,5.2,12,8.8c0-2.1,0-3.1,0-5.2c-5-3.6-7-5.4-12-8.8
			C381,540.2,381,541.2,381,543.2z M381,551c5,3.6,7,5.4,12,9.1c0-2.1,0-3.2,0-5.4c-5-3.7-7-5.5-12-9C381,547.8,381,548.8,381,551z
			 M381,558.8c5,3.6,7,5.4,12,9.1c0-2.1,0-3.1,0-5.2c-5-3.7-7-5.6-12-9.2C381,555.7,381,556.8,381,558.8z M381,566.5
			c5,3.7,7,5.6,12,9.4c0-2.1,0-3.2,0-5.4c-5-3.8-7-5.7-12-9.3C381,563.3,381,564.3,381,566.5z M381,574.3c5,3.7,7,5.5,12,9.4
			c0-2.1,0-3.1,0-5.2c-5-3.9-7-5.8-12-9.5C381,571.2,381,572.2,381,574.3z M381,576.8c0,2.1,0,3.1,0,5.2c5,3.6,6.9,5.5,11.2,9.3
			c0.2-0.9,0.8-1.9,0.8-2.8c0-0.8,0-1.3,0-2.1C388,582.5,386,580.6,381,576.8z M388.5,596.2c1-0.8,1.9-1.9,2.7-2.9
			c-4.1-3.5-6.3-5.2-10.3-8.5c0,2.1,0,3.1,0,5.2C384,592.3,385.5,593.7,388.5,596.2z M381.9,481.2c4.4,3,6.1,4.5,11.1,7.5
			c0-2.1,0-3.2,0-5.4c-3-2.1-4.6-3.1-7.6-5.2C384,479.5,383.2,480.1,381.9,481.2z M390.4,474c-1.4,1.2-2,1.8-3.4,3
			c2.4,1.5,3.1,2.2,6.1,3.8c0-2.1,0-3.2,0-5.4C392,474.8,391.4,474.5,390.4,474z M392.7,472.9c0-0.5,0-0.7,0-1.1
			c-0.3,0.3-0.4,0.4-0.7,0.7C392.2,472.6,392.4,472.7,392.7,472.9z"/>
		<path id="XMLID_358_" class="st0" d="M493.2,453.9c9.8-1.8,19.7-3.6,29.7-5.6c0,58.3,0,116.7,0,175c-10-2-20-3.9-30-5.6
			c0-26.8,0-53.6,0-80.5c-4,13.5-7.9,27-12,40.5c-9.7-0.9-19.5-1.7-29.2-2.5C448,562.5,444,549.7,440,537c0,24,0,48,0,72
			c-10-1.5-20-2.9-30-4.1c0-46,0-92.1,0-138.1c10-1.3,19.9-2.6,29.8-4.1c9.3,23.4,18.3,46.9,26.8,70.5
			C475.8,506.9,484.8,480.5,493.2,453.9z M424,477.5c-5-3.2-7-4.8-12-7.8c0,44.1,0,88.1,0,132.2c5-3.1,7-4.6,12-7.9
			C424,555.1,424,516.2,424,477.5z M424.9,475.2c4.4-4,6.6-6.1,11-10.2c-8.7,1.2-13,1.8-21.7,2.9
			C418.5,470.9,420.6,472.2,424.9,475.2z M414.6,603.1c-0.2,0.1-0.3,0.2-0.5,0.3c0.3,0,0.4,0.1,0.7,0.1
			C414.8,603.2,414.8,603.2,414.6,603.1z M416.4,602.1c0.8,0.7,1.2,1.1,2,1.9c2.8,0.4,4.2,0.6,7,0.9c-2.2-2.1-3.3-3.1-5.5-5.2
			C418.5,600.7,417.8,601.2,416.4,602.1z M421.4,598.5c3,2.7,4.5,4.1,7.5,6.9c2.7,0.4,4,0.6,6.7,0.9c-4.3-4.2-6.4-6.2-10.7-10.2
			C423.5,597.1,422.8,597.6,421.4,598.5z M426,482.1c0,1.1,0,1.6,0,2.6c1,0.3,0.4,0.4,0.7,0.7C426.4,484.1,427,483.4,426,482.1z
			 M426,493.2c2,1,2.2,1.4,3.5,2.4c-0.7-2.7-1.2-4.1-1.9-6.8c-0.6-0.5-0.6-0.8-1.6-1.3C426,489.8,426,491,426,493.2z M426,501.6
			c3,1.8,3.7,2.7,5.9,4.6c-0.7-2.8-1.2-4.3-1.9-7.1c-1.6-1.3-2.1-1.9-4.1-3.2C426,498.2,426,499.2,426,501.6z M426,510.2
			c4,2.5,5.1,3.8,8.4,6.4c-0.6-2.8-1-4.2-1.6-7c-2.7-2.1-3.8-3.1-6.8-5.2C426,506.7,426,507.9,426,510.2z M426,518.5
			c5,3.4,6.6,5.2,10.9,8.8c-0.6-2.9-1-4.3-1.6-7.2c-3.7-3-5.3-4.4-9.3-7.2C426,515.1,426,516.2,426,518.5z M426,527.1
			c5,3.6,7,5.4,12,9.2c0-2.3,0-3.5,0-5.8c-5-3.7-7-5.5-12-9C426,523.6,426,524.8,426,527.1z M426,535.3c5,3.7,7,5.7,12,9.6
			c0-2.3,0-3.5,0-5.8c-5-3.9-7-5.7-12-9.4C426,532,426,533.1,426,535.3z M426,538.2c0,2.3,0,3.4,0,5.7c5,3.7,7,5.6,12,9.5
			c0-2.2,0-3.4,0-5.6C433,543.8,431,542,426,538.2z M426,552.2c5,3.9,7,5.9,12,9.9c0-2.3,0-3.5,0-5.8c-5-4-7-6-12-9.8
			C426,548.8,426,550,426,552.2z M426,560.8c5,3.9,7,5.9,12,9.9c0-2.2,0-3.4,0-5.6c-5-4.1-7-6.1-12-10
			C426,557.3,426,558.6,426,560.8z M426,569.2c5,4,7,6.1,12,10.3c0-2.3,0-3.5,0-5.8c-5-4.2-7-6.2-12-10.2
			C426,565.8,426,566.8,426,569.2z M426,577.7c5,4,7,6.1,12,10.3c0-2.2,0-3.4,0-5.6c-5-4.2-7-6.3-12-10.4
			C426,574.2,426,575.5,426,577.7z M426,580.3c0,2.3,0,3.4,0,5.7c5,4.2,7,6.3,12,10.7c0-2.3,0-3.5,0-5.8
			C433,586.6,431,584.5,426,580.3z M426,594.6c5,4.2,7,6.3,12,10.7c0-2.2,0-3.4,0-5.6c-5-4.4-7-6.6-12-10.8
			C426,591.2,426,592.3,426,594.6z M428.6,478.2c0.1,0,0.1,0,0.2,0c8.1,5.7,12.1,8.7,20.2,14.9c-1.3-3.4-1.9-5.1-3.2-8.4
			c-6.3-4.7-9.4-6.9-15.7-11.3c-1,1-1.5,1.5-2.5,2.6C428.1,476.8,428.2,477.2,428.6,478.2z M440.1,529.1c4.6,14.4,9,28.8,13.4,43.2
			c4.1-3.2,6.1-4.9,10.2-8.2c-10.7-26.2-22-52.1-33.9-77.7C433.4,500.6,436.8,514.8,440.1,529.1z M450.6,497.1
			c-8-6.2-12-9.2-19.9-14.9c1.6,3.4,2.4,5.2,4,8.7c7.7,5.7,11.5,8.6,19.2,14.8C452.5,502.2,451.9,500.5,450.6,497.1z M431.9,471.8
			c5,3.4,7.5,5.1,12.5,8.7c-1.3-3.2-1.9-4.8-3.2-8c-2.3-1.6-3.4-2.4-5.7-4C434,469.8,433.2,470.5,431.9,471.8z M455.2,509.9
			c-7.5-6.2-11.2-9.1-18.7-14.8c1.6,3.5,2.4,5.3,4,8.9c7.2,5.6,10.8,8.5,17.9,14.4C457.2,515,456.6,513.2,455.2,509.9z M437.1,466.8
			c0.9,0.7,1.3,1.1,2.2,1.8c-0.4-1.2-0.6-1.8-1-3C437.9,466.1,437.6,466.2,437.1,466.8z M460.2,522.7c-7.1-5.9-10.6-8.8-17.7-14.2
			c1.6,3.6,2.4,5.4,4,9.1c6.8,5.4,10.2,8.2,16.9,14.1C462.1,528.1,461.6,526.2,460.2,522.7z M464.9,536c-6.6-5.8-9.8-8.6-16.4-14.1
			c1.6,3.7,2.3,5.6,3.9,9.3c5.1,4.3,7.6,6.6,12.6,11.1c0-2.2,0-3.3,0-5.5C465,536.6,465,536.3,464.9,536z M465,545.5
			c-4-3.9-6.3-5.8-10.6-9.5c1.6,3.8,2.3,5.7,3.9,9.6c2.7,2.4,4.6,3.6,6.6,6.1C465,549.2,465,548,465,545.5z M457.1,572.3
			c-0.5,0.4-0.7,0.6-1.2,1c1,0.1,1.5,0.1,2.5,0.2C457.8,573.1,457.6,572.8,457.1,572.3z M462.2,568.2c-1.4,1.1-2.1,1.7-3.5,2.8
			c1.2,1.1,1.8,1.7,3,2.8c2.8,0.2,4.2,0.3,7,0.6C466.1,571.8,464.9,570.7,462.2,568.2z M465,554.5c-2-1.7-2.8-2.6-4.7-4.3
			c1.9,4.6,2.7,6.9,4.7,11.6C465,558.8,465,557.5,465,554.5z M464,566.8c3.2,3.1,4.8,4.7,8,7.9c2.1,0.2,3.1,0.3,5.2,0.4
			c-4.2-4.2-6.3-6.3-10.4-10.4c-0.1,0-0.1,0-0.2,0C465.5,565.6,465,566,464,566.8z M494.6,456.9c-8.6,26.8-17.7,53.5-26.7,80
			c0,10,0,15,0,25c13-32.1,25.3-64.5,36.9-97.2C500.9,461.5,498.8,460,494.6,456.9z M469.2,564.2c4.1,4,6.1,6,10.2,10.2
			c0.6-1.9,0.9-2.9,1.5-4.9c-3.9-3.9-5.8-5.9-9.7-9.6C470.4,561.7,470,562.5,469.2,564.2z M472,557.7c3.9,3.7,5.8,5.5,9.7,9.4
			c0.6-2,0.9-3,1.5-4.9c-3.7-3.7-5.5-5.5-9.2-9C473.1,555,472.8,555.8,472,557.7z M474.6,550.8c3.7,3.4,5.5,5.2,9.2,8.8
			c0.5-2,0.7-3,1.2-5c-3.4-3.4-5.1-5-8.4-8.2C475.9,548.2,475.5,549.1,474.6,550.8z M477.5,544.2c3.4,3.1,5.1,4.7,8.4,8
			c0.6-2,0.9-3,1.5-5c-3.2-3.1-4.8-4.7-7.9-7.7C478.6,541.3,478.2,542.2,477.5,544.2z M480.1,537.2c3.2,2.9,4.8,4.4,7.9,7.4
			c0.6-1.9,0.9-2.9,1.5-4.8c-3-2.9-4.5-4.3-7.5-7.1C481.4,534.3,481,535.3,480.1,537.2z M482.9,530.2c3,2.7,4.5,4.1,7.4,6.9
			c0.6-2,0.9-3.1,1.5-5.1c-2.8-2.7-4.2-4-7-6.6C484.1,527.3,483.6,528.3,482.9,530.2z M485.6,523.2c2.7,2.5,4,3.8,6.7,6.4
			c0.5-2.2,0.7-3.2,1.2-5.4c-2.4-2.3-3.6-3.4-6-5.6C486.8,520.3,486.4,521.2,485.6,523.2z M490.4,511.2c-0.8,2-1.2,3-2,5
			c2.3,2,3.4,3.1,5.7,5.1c0.5-2.2,0.7-3.3,1.2-5.4C493.4,513.8,492.4,513,490.4,511.2z M493.1,504c-0.8,1.9-1.2,2.9-2,4.8
			c1.9,1.8,2.8,2.6,4.7,4.4c0.5-2.2,0.7-3.3,1.2-5.5C495.5,506.2,494.6,505.5,493.1,504z M495.8,496.5c-0.8,2-1.2,3.1-2,5.1
			c1.5,1.3,2.2,1.9,3.7,3.3c0.5-2.2,0.7-3.3,1.2-5.5C497.6,498.2,497,497.6,495.8,496.5z M495,528.5c0,28.5,0,57,0,85.6
			c5-3.5,7-5.3,12-9.1c0-44.3,0-88.6,0-132.8C503,491,499,509.8,495,528.5z M498.6,489.2c-0.8,2-1.2,3-2,4.9
			c1.1,0.9,1.6,1.4,2.7,2.4c0.4-2.2,0.6-3.3,1-5.6C499.6,490.2,499.2,489.8,498.6,489.2z M507.5,463.8c4.3-4.8,6.4-7.3,10.7-12.4
			c-8.5,1.6-12.8,2.4-21.3,3.9C501.1,458.7,503.1,460.2,507.5,463.8z M497.2,615.7c-0.2,0.2-0.3,0.2-0.5,0.4
			c0.3,0.1,0.4,0.1,0.7,0.1C497.5,616,497.4,615.9,497.2,615.7z M499.1,614.5c0.8,0.9,1.2,1.3,2,2.3c2.8,0.5,4.2,0.8,6.9,1.3
			c-2.3-2.5-3.4-3.8-5.7-6.3C501,612.9,500.2,613.4,499.1,614.5z M501,481.5c-0.7,2.1-1,3.1-1.7,5.2c0.7,0.6,1,0.9,1.7,1.5
			c0.4-2.3,0.6-3.5,1-5.8C501.6,482,501.4,481.8,501,481.5z M502.5,479.7c0.4-2,0.6-2.9,1-4.9c-0.6,1.7-0.9,2.6-1.5,4.3
			C502.1,479.2,502.2,479.4,502.5,479.7z M504,610.3c2.9,3.3,4.3,4.9,7.2,8.3c2.8,0.5,4.2,0.8,6.9,1.3c-4.3-5.1-6.4-7.5-10.7-12.4
			C506.1,608.7,505.4,609.2,504,610.3z M509,475c4,3.9,7,5.8,11,9.9c0-2.8,0-4.2,0-7c-4-4-7-5.9-11-9.7C509,470.9,509,472.2,509,475
			z M509,485.1c4,3.9,7,5.8,11,9.9c0-2.7,0-4,0-6.7c-4-4.1-7-6.1-11-10C509,481.1,509,482.4,509,485.1z M509,495.1
			c4,4.1,7,6.1,11,10.4c0-2.8,0-4.2,0-7c-4-4.2-7-6.2-11-10.2C509,491,509,492.4,509,495.1z M509,505.2c4,4.1,7,6.1,11,10.4
			c0-2.7,0-4,0-6.7c-4-4.3-7-6.4-11-10.5C509,501.2,509,502.6,509,505.2z M509,515.2c4,4.3,7,6.4,11,10.9c0-2.8,0-4.2,0-7
			c-4-4.4-7-6.6-11-10.7C509,511.1,509,512.5,509,515.2z M509,525.3c4,4.3,7,6.4,11,10.9c0-2.7,0-4,0-6.7c-4-4.5-7-6.7-11-11
			C509,521.2,509,522.7,509,525.3z M509,535.2c4,4.5,7,6.7,11,11.4c0-2.8,0-4.2,0-7c-4-4.6-7-6.9-11-11.3
			C509,531.2,509,532.6,509,535.2z M509,545.5c4,4.5,7,6.7,11,11.4c0-2.7,0-4,0-6.7c-4-4.7-7-7-11-11.5
			C509,541.3,509,542.8,509,545.5z M509,555.5c4,4.7,7,7,11,11.9c0-2.8,0-4.2,0-7c-4-4.8-7-7.2-11-11.8
			C509,551.3,509,552.7,509,555.5z M509,565.6c4,4.7,7,7,11,11.9c0-2.7,0-4,0-6.7c-4-4.9-7-7.3-11-12C509,561.6,509,562.8,509,565.6
			z M509,575.6c4,4.9,7,7.3,11,12.4c0-2.8,0-4.2,0-7c-4-5-7-7.5-11-12.3C509,571.5,509,572.8,509,575.6z M509,585.8
			c4,4.9,7,7.4,11,12.5c0-2.7,0-4,0-6.7c-4-5.1-7-7.6-11-12.5C509,581.7,509,583,509,585.8z M509,595.7c4,5.1,7,7.7,11,13
			c0-2.8,0-4.2,0-7c-4-5.2-7-7.8-11-12.8C509,591.6,509,593,509,595.7z M509,605.8c4,5.1,7,7.7,11,13c0-2.7,0-4,0-6.7
			c-4-5.3-7-8-11-13C509,601.8,509,603.2,509,605.8z M509.1,465.2c4.4,3.6,6.8,5.4,10.8,9.2c0-2.7,0-4,0-6.7c-3-2.6-4.4-3.9-7.4-6.4
			C511.1,462.9,510.5,463.7,509.1,465.2z M514.3,459.2c2.3,2,3.6,3,5.6,5c0-2.8,0-4.2,0-7c-1-0.7-1.3-1.1-2.2-1.8
			C516.3,457,515.8,457.7,514.3,459.2z M519.6,453.4c0.2,0.3,0.3,0.4,0.5,0.7c0-0.6,0-0.9,0-1.5C519.8,452.9,519.8,453,519.6,453.4z
			"/>
	</g>
</g>
<g>
	<circle id="XMLID_6_" class="st1" cx="62.8" cy="414.9" r="35"/>
	<circle id="XMLID_2_" class="st2" cx="150.2" cy="416" r="35"/>
	<circle id="XMLID_7_" class="st3" cx="237.9" cy="417.2" r="35"/>
	<circle id="XMLID_8_" class="st4" cx="325.4" cy="414.2" r="35"/>
</g>
<g>
	<text transform="matrix(1 0 0 1 44.7417 431.6253)" class="st0 st5 st6">P</text>
	<text transform="matrix(1 0 0 1 133.5633 432.7753)" class="st0 st5 st6">L</text>
	<text transform="matrix(1 0 0 1 220.5632 433.9258)" class="st0 st5 st6">A</text>
	<text transform="matrix(1 0 0 1 307.224 434.5007)" class="st0 st5 st6">Y</text>
</g>
</svg>
