<?xml version="1.0" encoding="utf-8"?>
<!-- Generator: Adobe Illustrator 19.0.0, SVG Export Plug-In . SVG Version: 6.00 Build 0)  -->
<svg version="1.1" id="Layer_1" xmlns="http://www.w3.org/2000/svg" xmlns:xlink="http://www.w3.org/1999/xlink" x="0px" y="0px"
	 viewBox="-293 265.5 691.5 271.5" style="enable-background:new -293 265.5 691.5 271.5;" xml:space="preserve">
<style type="text/css">
	.st0{fill:#FFFFFF;stroke:#FFFFFF;stroke-miterlimit:10;}
	.st1{fill:none;stroke:#F384CA;stroke-width:3;stroke-miterlimit:10;}
	.st2{fill:none;stroke:#00D8CB;stroke-width:3;stroke-miterlimit:10;}
	.st3{fill:none;stroke:#FF5656;stroke-width:3;stroke-miterlimit:10;}
	.st4{fill:none;stroke:#89BDEF;stroke-width:3;stroke-miterlimit:10;}
	.st5{fill:none;stroke:#FFFFFF;stroke-miterlimit:10;}
	.st6{font-family:'OratorStd';}
	.st7{font-size:60px;}
	.st8{fill:#FFFFFF;}
</style>
<g id="XMLID_3_">
	<g id="XMLID_17_">
		<path id="XMLID_638_" class="st0" d="M-216,422.5c10,0.3,18.6,7.4,18.6,16c0,18.4,0,36.8,0,55.1c0,9-9.9,17.3-18.4,18.3
			c-14.9,2.4-29.6,5-44.5,7.8c-10.2,1.9-18.1-5-18.1-15c0-12,0-24,0-36c9-3.1,19-6,29-8.7c0,9.7,0,19.5,0,29.2c9-1,13-1.5,22-2.5
			c0-12.6,0-25.3,0-37.9c-11,0.3-21.8,0.6-32.8,1c-10.2,0.3-18.2-7.8-18.2-17.9c0-21.7,0-43.5,0-65.2c0-10.2,8-16.9,18.2-15
			c14.9,2.7,29.6,5.3,44.6,7.8c8.5,1.1,18.3,9.3,18.3,18.3c0,9.9,0,19.8,0,29.8c-10,1.4-20,2.8-30,4.4c0-11.1,0-16.6,0-27.7
			c-9-0.9-13-1.4-22-2.5c0,13.2,0,26.4,0,39.5C-238.4,421.9-227.1,422.2-216,422.5z M-276.4,432.1c0,4,1.3,7.7,3.8,10.4
			c3-3,4.2-4.5,7.2-7.4c0-23,0-46.1,0-69.1c-3-3.4-4.3-5.1-7.2-8.6c-2.5,2.3-3.8,5.8-3.8,9.7C-276.4,388.8-276.4,410.4-276.4,432.1z
			 M-276.4,471.6c0,10.9,0,21.9,0,32.8c0,4,1.3,7.2,3.8,9.7c3-3.6,4.2-5.3,7.2-8.8c0-9.6,0-19.2,0-28.8
			C-269.4,474.6-272.4,473.7-276.4,471.6z M-264.2,474.3c4.1-4.3,6.1-6.4,10.2-10.6c-8.1,2.3-12.2,3.5-20.3,6
			C-270.3,471.6-268.2,472.5-264.2,474.3z M-260.4,354c-4-0.7-7.7,0-10.4,2c3,3.5,4.5,5.2,7.4,8.6c16.7,2.7,33.4,5.1,50.2,7.3
			c3.1-2.3,4.6-3.4,7.7-5.6c-2.7-2.3-6.5-4.2-10.2-4.8C-230.7,359.2-245.6,356.7-260.4,354z M-269.1,442.4c-0.7,0.7-1,1-1.7,1.7
			c2,1.7,4.2,2.8,6.7,3.3C-266.1,445.4-267.1,444.4-269.1,442.4z M-269.1,513.6c-0.7,0.7-1,1.1-1.7,1.8c2,1.4,4.2,2.2,6.7,2.2
			C-266.1,516-267.1,515.2-269.1,513.6z M-267.6,440.7c3,2.9,4.5,4.3,7.4,7.1c2.7-0.1,4-0.1,6.7-0.2c-4.3-4-6.4-6.1-10.7-10.4
			C-265.5,438.6-266.2,439.3-267.6,440.7z M-267.6,511.6c3,2.3,4.5,3.5,7.4,5.7c2.7-0.5,4-0.7,6.7-1.2c-4.3-3.3-6.4-5-10.7-8.5
			C-265.5,509.2-266.2,510-267.6,511.6z M-251.4,381c-5-4.9-7-7.4-11-12.5c0,2.7,0,4.1,0,6.8c4,5,6,7.5,11,12.3
			C-251.4,385-251.4,383.7-251.4,381z M-262.4,385.4c4,4.8,6,7.2,11,11.8c0-2.5,0-3.8,0-6.3c-5-4.8-7-7.2-11-12.2
			C-262.4,381.4-262.4,382.7-262.4,385.4z M-262.4,395.3c4,4.8,6,7.2,11,11.8c0-2.6,0-4,0-6.6c-5-4.7-7-7.1-11-12
			C-262.4,391.3-262.4,392.6-262.4,395.3z M-251.4,410.4c-5-4.6-7-6.9-11-11.7c0,2.7,0,4.1,0,6.8c4,4.6,6,6.9,11,11.3
			C-251.4,414.2-251.4,413-251.4,410.4z M-253.6,424.2c0.9-0.8,1.2-1.2,2.2-2.1c0-0.8,0-1.3,0-2.1c-5-4.5-7-6.8-11-11.5
			c0,2.7,0,4.1,0,6.8C-259.4,419-257.1,420.7-253.6,424.2z M-258.8,429.1c1.4-1.3,2.1-2,3.5-3.3c-2.9-2.8-4.1-4.2-7.1-7.2
			c0,2.7,0,4.1,0,6.8C-261.4,426.9-260.3,427.7-258.8,429.1z M-262.4,428.6c0,1.6,0,2.5,0,4.1c1-0.8,1.2-1.1,2-1.9
			C-261.2,429.9-261.4,429.5-262.4,428.6z M-253.6,493c0.9-1.1,1.2-1.6,2.2-2.6c0-0.8,0-1.1,0-1.9c-5-3.8-7-5.8-11-9.8
			c0,2.7,0,4.1,0,6.8C-259.4,488.6-257.1,490.1-253.6,493z M-258.8,498.7c1.4-1.5,2.1-2.3,3.5-3.8c-2.9-2.5-4.1-3.7-7.1-6.3
			c0,2.7,0,4.1,0,6.8C-261.4,496.7-260.3,497.4-258.8,498.7z M-262.4,498.7c0,1.6,0,2.5,0,4.1c1-1,1.2-1.5,2-2.5
			C-261.2,499.7-261.4,499.4-262.4,498.7z M-258.9,472.2c-1.4,1.5-2.1,2.2-3.4,3.7c4.4,3.9,6.9,5.7,10.9,9.4c0-2.6,0-4,0-6.6
			C-254.4,476.1-255.9,474.8-258.9,472.2z M-261.4,436.8c4.6,4.4,6.8,6.6,11.4,10.8c2.8-0.1,4.2-0.1,7-0.2
			c-4.6-4.1-6.9-6.2-11.4-10.6C-257.3,436.8-258.7,436.8-261.4,436.8z M-261.4,506.5c4.6,3.7,6.8,5.5,11.4,9c2.8-0.5,4.2-0.7,7-1.2
			c-4.6-3.5-6.9-5.2-11.4-8.9C-257.3,505.8-258.7,506.1-261.4,506.5z M-249.8,379.6c2.8,0.3,4.2,0.5,7,0.9
			c-4.6-4.7-6.9-7.1-11.4-12.1c-2.7-0.4-4-0.6-6.7-1C-256.5,372.4-254.2,374.8-249.8,379.6z M-249.8,423.9
			c-4.5,4.1-6.7,6.2-11.2,10.5c16,0.1,32,0.1,47.9,0.1c3.1-2.6,4.6-3.9,7.7-6.4c-3-2.2-6.5-3.3-10.5-3.4
			C-227.1,424.4-238.4,424.2-249.8,423.9z M-226.9,489.1c-9.1,1-13.7,1.6-22.9,2.7c-4.5,4.9-6.7,7.4-11.2,12.5
			c15.1-2.3,30.3-4.4,45.5-6.4C-220.1,494.4-222.3,492.7-226.9,489.1z M-253.7,466.8c-1.4,1.4-2.1,2.1-3.4,3.6c2.3,2,3.7,3,5.7,5
			c0-2.5,0-3.8,0-6.3C-252.4,468.1-252.8,467.7-253.7,466.8z M-251.5,465.7c0-0.6,0-0.8,0-1.4c-0.2,0.3-0.3,0.4-0.5,0.7
			C-251.8,465.3-251.7,465.4-251.5,465.7z M-251,436.8c4.6,4.3,6.9,6.4,11.4,10.5c2.7-0.1,4-0.1,6.7-0.2c-4.5-4-6.7-6.1-11.2-10.4
			C-246.8,436.7-248.2,436.7-251,436.8z M-251,504.9c4.6,3.6,6.9,5.4,11.4,8.8c2.7-0.5,4-0.7,6.7-1.1c-4.5-3.4-6.7-5.2-11.2-8.8
			C-246.8,504.2-248.2,504.5-251,504.9z M-243.8,369.9c-2.8-0.4-4.2-0.6-7-1c4.6,4.9,6.9,7.3,11.4,12c2.8,0.3,4.2,0.5,7,0.8
			C-237,377.1-239.2,374.7-243.8,369.9z M-229.4,447c1.1,0,1.6,0,2.7-0.1c0.8-0.8,1.2-1.2,2-2c-3.7-3.2-5.5-4.8-9.2-8.2
			c-2.8,0-4.2,0-7,0C-236.3,441-234,443-229.4,447z M-240.8,503.4c4.6,3.6,6.9,5.3,11.4,8.7c2.8-0.5,4.2-0.7,7-1.1
			c-4.6-3.3-6.9-5-11.4-8.6C-236.7,502.7-238.1,502.9-240.8,503.4z M-229.2,382.1c0.9,0.1,1.3,0.2,2.2,0.3c0.9-0.7,1.3-1,2.2-1.7
			c-3.6-3.6-5.4-5.5-8.9-9.2c-2.7-0.4-4-0.6-6.7-0.9C-235.9,375.2-233.6,377.5-229.2,382.1z M-223.4,436.7c-2.8,0-4.2,0-7,0
			c3,2.7,4.5,4,7.5,6.6c1.4-1.3,2.1-1.9,3.5-3.1C-221.1,438.8-221.8,438.1-223.4,436.7z M-219,510.2c1.3-0.2,1.9-0.3,3.2-0.5
			c1-0.2,2.2-0.6,3.2-0.7c-4.4-3.2-6.6-4.9-10.9-8.3c-2.8,0.4-4.2,0.6-7,1C-225.8,505.3-223.5,507-219,510.2z M-223.2,372.8
			c-2.8-0.4-4.2-0.6-7-0.9c2.9,3,4.3,4.5,7.2,7.4c1.4-1.1,2.1-1.6,3.5-2.7C-221,375.1-221.7,374.3-223.2,372.8z M-225.4,383.9
			c0,9.9,0,14.8,0,24.6c5-3.8,7-5.7,12-9.3c0-9.6,0-14.4,0-24.1C-218.4,378.5-220.4,380.3-225.4,383.9z M-225.4,487.5
			c5,3.6,7,5.3,12,8.7c0-19.4,0-38.7,0-58.1c-5,3.9-7,5.9-12,10C-225.4,461.3-225.4,474.4-225.4,487.5z M-221.2,408.3
			c0.3,0.3,0.4,0.4,0.7,0.7c2.3-0.3,3.4-0.5,5.7-0.8c-1.2-1.1-1.8-1.7-3-2.8C-219.1,406.6-219.8,407.1-221.2,408.3z M-217.7,438.9
			c1-0.9,1.5-1.3,2.5-2.2c-2,0-3,0-5,0C-219.2,437.6-218.7,438-217.7,438.9z M-213.2,499.5c-2.8,0.4-4.2,0.6-7,0.9
			c4.1,3,6.1,4.5,10.2,7.5c1.7-0.7,3.2-1.8,4.5-2.8C-208.6,502.9-210.2,501.8-213.2,499.5z M-217.7,375.3c0.9-0.6,1.3-0.9,2.2-1.5
			c-1.7-0.2-2.5-0.3-4.2-0.6C-218.9,374.1-218.5,374.5-217.7,375.3z M-216,404c1.6,1.5,2.4,2.2,4,3.7c2.2-0.3,3.3-0.5,5.5-0.8
			c-2.4-2.2-3.6-3.3-6-5.5C-213.9,402.5-214.6,403-216,404z M-211.4,381.7c5,4.5,7,6.7,12,11c0-2.4,0-3.5,0-5.9
			c-5-4.3-7-6.5-12-11.1C-211.4,378.1-211.4,379.3-211.4,381.7z M-211.4,390.7c5,4.3,7,6.4,12,10.5c0-2.3,0-3.4,0-5.7
			c-5-4.3-7-6.4-12-10.9C-211.4,387.1-211.4,388.3-211.4,390.7z M-211.4,399.1c5,2.4,7,3.6,12,5.9c0-0.3,0-0.5,0-0.8
			c-5-4.2-7-6.3-12-10.7C-211.4,395.8-211.4,396.9-211.4,399.1z M-211.4,444.4c5,3.8,7,5.7,12,9.3c0-2.3,0-3.4,0-5.7
			c-5-3.8-7-5.7-12-9.6C-211.4,440.8-211.4,442-211.4,444.4z M-211.4,453.3c5,3.8,7,5.7,12,9.3c0-2.4,0-3.5,0-5.9
			c-5-3.7-7-5.6-12-9.4C-211.4,449.7-211.4,450.9-211.4,453.3z M-211.4,462.3c5,3.6,7,5.4,12,8.9c0-2.3,0-3.4,0-5.7
			c-5-3.6-7-5.4-12-9.2C-211.4,458.7-211.4,459.9-211.4,462.3z M-211.4,471.2c5,3.6,7,5.4,12,8.9c0-2.4,0-3.5,0-5.9
			c-5-3.5-7-5.3-12-9C-211.4,467.6-211.4,468.8-211.4,471.2z M-211.4,480.2c5,3.5,7,5.1,12,8.4c0-2.3,0-3.4,0-5.7
			c-5-3.4-7-5.2-12-8.8C-211.4,476.6-211.4,477.8-211.4,480.2z M-211.4,483.1c0,2.4,0,3.6,0,6c5,3.3,6.8,4.9,11.2,8.1
			c0.2-1.1,0.8-2.2,0.8-3.2c0-0.9,0-1.4,0-2.3C-204.4,488.3-206.4,486.6-211.4,483.1z M-203.9,503.4c1-1.2,2-2.6,2.7-4
			c-4.1-2.9-6.2-4.3-10.2-7.3c0,2.4,0,3.6,0,6C-208.4,500.3-206.8,501.3-203.9,503.4z M-207.1,370.6c-1.4,1-2,1.5-3.4,2.5
			c4.4,4.4,6.1,6.5,11.1,10.7c0-0.2,0-0.3,0-0.4c0-2.1,0-3.2,0-5.3C-202.4,375.1-204.1,373.6-207.1,370.6z M-210.6,435.8
			c4.4,3.8,6.1,5.6,11.1,9.3c0-2.4,0-3.5,0-5.9c-3-2.5-4.6-3.8-7.6-6.4C-208.4,434-209.2,434.6-210.6,435.8z M-206.5,404
			c1.1,1,1.6,1.5,2.7,2.5c0.7,0,1-0.1,1.7-0.1C-203.8,405.4-204.7,405-206.5,404z M-200,374.9c-0.7-2.6-2-4.9-3.7-6.8
			c-0.8,0.5-1.2,0.7-2,1.2C-203.5,371.6-202.3,372.7-200,374.9z M-205.8,431.3c2.3,1.9,3.4,2.8,5.7,4.7c-0.5-2.3-1.7-4.6-3.7-6.4
			C-204.6,430.3-205,430.7-205.8,431.3z"/>
		<path id="XMLID_604_" class="st0" d="M-126.4,393.5c0,35.5,0,71.1,0,106.6c-10,1-20,2.2-30,3.5c0-37.5,0-74.9,0-112.4
			c-10-0.8-21-1.7-31-2.7c0-9.9,0-14.8,0-24.7c31,4.2,61,7.7,92,10.5c0,8.4,0,12.6,0,21C-105.4,394.9-115.4,394.2-126.4,393.5z
			 M-174.4,377.5c-4.4-3.9-6-5.9-11-10.1c0,7,0,10.6,0,17.6C-180.4,382-178.8,380.5-174.4,377.5z M-182.8,386.5
			c-0.3,0.1-0.4,0.2-0.7,0.3c0.6,0.1,0.9,0.1,1.5,0.1C-182.4,386.8-182.5,386.7-182.8,386.5z M-110.9,382.9
			c4.5-2.9,6.8-4.4,11.3-7.2c-28-2.5-55.9-5.6-83.7-9.3c4.6,4.4,6.9,6.5,11.5,10.7C-151.6,379.2-131.2,381.2-110.9,382.9z
			 M-181.1,385.3c0.9,0.8,1.3,1.2,2.2,2c2.8,0.3,4.2,0.4,7,0.6c-2.3-2-3.4-3.1-5.7-5.2C-179,383.8-179.7,384.3-181.1,385.3z
			 M-176.1,381.5c3.1,2.7,4.6,4.1,7.7,6.7c2.8,0.3,4.2,0.4,7,0.6c-4.5-3.8-6.7-5.8-11.2-9.8C-174,380.1-174.7,380.6-176.1,381.5z
			 M-158.1,389.2c0.9,0.1,1.3,0.1,2.2,0.2c0.9-0.6,1.3-0.9,2.2-1.5c-3.6-3.1-5.4-4.7-9-7.9c-2.7-0.3-4-0.4-6.7-0.7
			C-164.9,383.3-162.6,385.3-158.1,389.2z M-148.4,384.3c-1.5-1.3-2.2-1.9-3.7-3.2c-2.8-0.3-4.2-0.4-7-0.7c2.9,2.6,4.3,3.8,7.2,6.3
			C-150.5,385.7-149.8,385.2-148.4,384.3z M-153.4,390.7c0,36.5,0,72.9,0,109.4c4-4.1,6-6.1,11-10c0-35.7,0-71.4,0-107.1
			C-147.4,386-149.4,387.5-153.4,390.7z M-151.9,500.8c-0.1,0.2-0.1,0.2-0.2,0.4c0.3,0,0.4-0.1,0.7-0.1
			C-151.6,501-151.7,500.9-151.9,500.8z M-150.1,499.4c0.9,0.5,1.3,0.8,2.2,1.3c2.7-0.3,4-0.5,6.7-0.8c-2.2-1.4-3.3-2.1-5.5-3.6
			C-148,497.6-148.7,498.2-150.1,499.4z M-146.6,383.1c0.9-0.5,1.3-0.8,2.2-1.3c-1.7-0.2-2.5-0.2-4.2-0.4
			C-147.8,382.1-147.4,382.4-146.6,383.1z M-144.9,494.8c2.9,1.9,4.3,2.8,7.2,4.7c2.8-0.3,4.2-0.5,7-0.7c-4.3-2.7-6.5-4.1-10.8-7
			C-142.8,493-143.5,493.6-144.9,494.8z M-128.4,398c0-2.1,0-3.1,0-5.2c-5-3.7-7-5.6-12-9.5c0,2.1,0,3.2,0,5.3
			C-135.4,392.4-133.4,394.3-128.4,398z M-128.4,405.5c0-2,0-3,0-5c-5-3.7-7-5.5-12-9.3c0,2.1,0,3.2,0,5.3
			C-135.4,400.2-133.4,402-128.4,405.5z M-140.4,404.2c5,3.7,7,5.5,12,9.1c0-2.1,0-3.1,0-5.2c-5-3.6-7-5.4-12-9.2
			C-140.4,401-140.4,402.1-140.4,404.2z M-140.4,406.8c0,2.1,0,3.2,0,5.3c5,3.6,7,5.3,12,8.8c0-2,0-3,0-5
			C-133.4,412.3-135.4,410.5-140.4,406.8z M-140.4,414.5c0,2.1,0,3.2,0,5.3c5,3.6,7,5.3,12,8.8c0-2.1,0-3.1,0-5.2
			C-133.4,420-135.4,418.2-140.4,414.5z M-140.4,427.7c5,3.5,7,5.1,12,8.5c0-2,0-3,0-5c-5-3.4-7-5.2-12-8.7
			C-140.4,424.6-140.4,425.6-140.4,427.7z M-140.4,435.4c5,3.5,7,5.2,12,8.5c0-2.1,0-3.1,0-5.2c-5-3.4-7-5.1-12-8.6
			C-140.4,432.3-140.4,433.3-140.4,435.4z M-140.4,443.3c5,3.3,7,5,12,8.2c0-2,0-3,0-5c-5-3.3-7-5-12-8.4
			C-140.4,440.2-140.4,441.2-140.4,443.3z M-140.4,451.1c5,3.3,7,5,12,8.2c0-2.1,0-3.1,0-5.2c-5-3.3-7-4.9-12-8.3
			C-140.4,447.9-140.4,449-140.4,451.1z M-140.4,459c5,3.2,7,4.8,12,7.9c0-2,0-3,0-5c-5-3.2-7-4.8-12-8.1
			C-140.4,455.8-140.4,456.9-140.4,459z M-140.4,466.7c5,3.2,7,4.8,12,7.9c0-2.1,0-3.1,0-5.2c-5-3.1-7-4.7-12-8
			C-140.4,463.5-140.4,464.6-140.4,466.7z M-140.4,474.6c5,3.1,7,4.6,12,7.6c0-2,0-3,0-5c-5-3.1-7-4.7-12-7.8
			C-140.4,471.4-140.4,472.5-140.4,474.6z M-140.4,482.3c5,3.1,7,4.6,12,7.6c0-2.1,0-3.1,0-5.2c-5-3-7-4.6-12-7.7
			C-140.4,479.1-140.4,480.2-140.4,482.3z M-140.4,490.2c5,3,7,4.4,12,7.3c0-2.1,0-3.1,0-5.2c-5-2.9-7-4.4-12-7.4
			C-140.4,487.1-140.4,488.1-140.4,490.2z M-126.9,391.6c2.8,0.2,4.2,0.3,7,0.5c-4.6-3.6-6.9-5.4-11.5-9.2c-2.8-0.2-4.2-0.4-7-0.6
			C-133.8,386.1-131.5,388-126.9,391.6z M-121.1,383.8c-2.7-0.2-4.1-0.3-6.8-0.6c4.5,3.7,6.8,5.5,11.3,9.1c2.8,0.2,4.2,0.3,7,0.5
			C-114.2,389.3-116.5,387.5-121.1,383.8z M-110.6,384.7c-2.8-0.2-4.2-0.3-7-0.6c4.6,3.6,6.9,5.4,11.5,8.9c2.8,0.2,4.2,0.3,7,0.4
			C-103.7,390-106,388.3-110.6,384.7z M-108.5,383.8c4.4,3.5,6.1,5.2,11.1,8.6c0-1.9,0-2.9,0-4.8c-3-2.4-4.6-3.6-7.6-6
			C-106.4,382.4-107.1,382.9-108.5,383.8z M-103.3,380.4c2.3,1.9,3.9,2.8,5.9,4.7c0-2,0-3,0-4.9c-1-0.7-1.4-1.1-2.3-1.8
			C-101.1,379.2-101.9,379.6-103.3,380.4z M-98.1,377.3c0.2,0.2,0.3,0.3,0.5,0.6c0-0.4,0-0.6,0-1.1C-97.8,377-97.9,377.1-98.1,377.3
			z"/>
		<path id="XMLID_550_" class="st0" d="M-2.4,491.8c-10,0.3-20,0.7-30,1.2c0-11.3,0-22.7,0-34c-9,0.2-14,0.3-22,0.5
			c0,11.6,0,23.1,0,34.7c-10,0.6-20,1.3-30,2.1c0-36.1,0-72.2,0-108.3c0-7.1,8.1-12.1,18.3-11.4c15.1,1,30.1,1.8,45.1,2.5
			c10,0.4,18.5,6,18.5,12.5C-2.4,425-2.4,458.4-2.4,491.8z M-78.7,381.3c-2.5,1.7-3.7,4.2-3.7,7c0,35,0,70,0,105c4-3.5,7-5.2,11-8.6
			c0-32.6,0-65.1,0-97.7C-74.4,384.7-75.7,383.5-78.7,381.3z M-80.3,493.9c-0.2,0.2-0.3,0.2-0.5,0.4c0.3,0,0.5,0,0.8-0.1
			C-80.2,494.1-80.2,494.1-80.3,493.9z M-78.6,492.8c0.8,0.5,1.2,0.7,2,1.2c2.8-0.2,4.2-0.3,7-0.5c-2.2-1.3-3.3-2-5.5-3.4
			C-76.4,491.2-77.1,491.7-78.6,492.8z M-66.3,378.2c-4-0.3-7.8,0.5-10.5,2c3,2.3,4.5,3.4,7.5,5.6c16.9,1,33.8,1.8,50.7,2.4
			c3.1-1.9,4.7-2.8,7.8-4.7c-2.8-1.5-6.5-2.6-10.3-2.8C-36.2,380-51.2,379.1-66.3,378.2z M-73.5,488.8c3,1.8,4.5,2.7,7.5,4.4
			c2.7-0.2,4.1-0.3,6.8-0.4c-4.3-2.6-6.5-3.9-10.8-6.6C-71.4,487.3-72.1,487.8-73.5,488.8z M-57.4,396.8c-4-3.3-7-4.9-11-8.3
			c0,1.9,0,2.8,0,4.7c4,3.3,7,5,11,8.2C-57.4,399.6-57.4,398.7-57.4,396.8z M-68.4,400.4c4,3.2,7,4.8,11,8c0-1.8,0-2.7,0-4.5
			c-4-3.2-7-4.9-11-8.2C-68.4,397.6-68.4,398.5-68.4,400.4z M-68.4,407.3c4,3.3,7,4.9,11,8.1c0-1.9,0-2.8,0-4.7c-4-3.2-7-4.8-11-8.1
			C-68.4,404.5-68.4,405.5-68.4,407.3z M-68.4,414.5c4,3.2,7,4.7,11,7.8c0-1.8,0-2.7,0-4.5c-4-3.2-7-4.8-11-8
			C-68.4,411.6-68.4,412.6-68.4,414.5z M-68.4,421.4c4,3.2,7,4.8,11,7.9c0-1.9,0-2.8,0-4.7c-4-3.1-7-4.7-11-7.9
			C-68.4,418.6-68.4,419.5-68.4,421.4z M-57.4,431.6c-4-3.1-7-4.7-11-7.8c0,1.9,0,2.8,0,4.7c4,3.1,7,4.6,11,7.6
			C-57.4,434.3-57.4,433.4-57.4,431.6z M-59.5,441.5c0.9-0.6,1.1-0.9,2.1-1.5c0-0.6,0-0.9,0-1.5c-4-3.1-7-4.6-11-7.8
			c0,1.9,0,2.8,0,4.7C-65.4,437.9-63.1,439.1-59.5,441.5z M-64.7,445.1c1.4-1,2.1-1.4,3.5-2.4c-2.9-1.9-4.2-2.9-7.2-4.9
			c0,1.9,0,2.8,0,4.7C-67.4,443.6-66.2,444.1-64.7,445.1z M-68.4,444.8c0,1.2,0,1.7,0,2.9c1-0.6,1.2-0.8,2-1.4
			C-67.2,445.7-67.4,445.4-68.4,444.8z M-57.4,463.9c0-1.8,0-2.7,0-4.5c-4-3-7-4.5-11-7.5c0,1.9,0,2.8,0,4.7
			C-64.4,459.6-61.4,461-57.4,463.9z M-68.4,463.6c4,3,7,4.4,11,7.3c0-1.9,0-2.8,0-4.7c-4-2.9-7-4.4-11-7.4
			C-68.4,460.8-68.4,461.7-68.4,463.6z M-68.4,470.7c4,2.9,7,4.3,11,7.1c0-1.8,0-2.7,0-4.5c-4-2.9-7-4.4-11-7.3
			C-68.4,467.9-68.4,468.8-68.4,470.7z M-68.4,472.9c0,1.9,0,2.8,0,4.7c4,2.9,7,4.3,11,7.2c0-1.9,0-2.8,0-4.7
			C-61.4,477.3-64.4,475.8-68.4,472.9z M-68.4,484.8c4,2.8,7,4.2,11,6.9c0-1.8,0-2.7,0-4.5c-4-2.8-7-4.2-11-7.1
			C-68.4,481.9-68.4,482.9-68.4,484.8z M-55.7,458c2.8-0.1,4.2-0.1,7-0.2c-4.6-2.9-6.9-4.4-11.5-7.4c-2.8,0-4.2,0.1-7,0.1
			C-62.7,453.6-60.3,455.1-55.7,458z M-60,388c-2.7-0.1-4.1-0.2-6.8-0.4c4.5,3.3,6.8,4.9,11.3,8.1c2.8,0.1,4.2,0.2,7,0.3
			C-53.1,392.9-55.4,391.3-60,388z M-66.8,448.8c15.3-0.2,30.6-0.4,45.9-0.6c-4.6-2.9-6.9-4.3-11.5-7.2c-9.2,0-13.9,0.1-23.1,0.1
			C-60,444.2-62.3,445.7-66.8,448.8z M-49.7,450.3c-2.8,0-4.2,0.1-7,0.1c4.6,3,6.9,4.5,11.5,7.4c2.7-0.1,4.1-0.1,6.8-0.1
			C-42.9,454.7-45.2,453.2-49.7,450.3z M-49.5,388.5c-2.8-0.1-4.2-0.2-7-0.3c4.6,3.2,6.9,4.8,11.5,8c2.8,0.1,4.2,0.2,7,0.3
			C-42.5,393.3-44.8,391.7-49.5,388.5z M-32.4,398.2c-9-0.3-14-0.4-22-0.8c0,14,0,28,0,42c8,0,13,0,22-0.1
			C-32.4,425.7-32.4,412-32.4,398.2z M-34.9,457.6c0.9,0,1.4,0,2.3,0c1-0.6,1.5-0.9,2.5-1.5c-3.7-2.3-5.6-3.5-9.3-5.9
			c-2.8,0-4.2,0.1-7,0.1C-41.8,453.2-39.5,454.7-34.9,457.6z M-39.2,389c-2.7-0.1-4.1-0.2-6.8-0.3c4.5,3.2,6.8,4.8,11.3,7.9
			c0.9,0,1.4,0,2.3,0.1c0.9-0.6,1.4-0.8,2.3-1.4C-33.8,392.8-35.6,391.5-39.2,389z M-28.9,450c-2.8,0-4.2,0-7,0.1
			c3,1.9,4.5,2.9,7.5,4.8c1.4-0.9,2.1-1.4,3.5-2.3C-26.5,451.5-27.3,451-28.9,450z M-28.6,389.4c-2.8-0.1-4.2-0.2-7-0.3
			c2.9,2,4.4,3,7.3,5c1.4-0.9,2.1-1.3,3.5-2.2C-26.4,391-27.1,390.5-28.6,389.4z M-30.4,397.7c0,14.1,0,28.3,0,42.4
			c5,3,7,4.5,12,7.4c0-19,0-37.9,0-56.9C-23.4,393.4-25.4,394.8-30.4,397.7z M-30.4,458.5c0,10.5,0,21.1,0,31.6c5-3.2,7-4.8,12-7.9
			c0-10.4,0-20.8,0-31.2C-23.4,454-25.4,455.5-30.4,458.5z M-28.4,490.8c-0.1,0.1-0.2,0.2-0.3,0.3c0.3,0,0.5,0,0.8,0
			C-28.1,491-28.2,490.9-28.4,490.8z M-26.6,489.8c0.9,0.5,1.4,0.7,2.3,1.2c2.7-0.1,4.1-0.2,6.8-0.3c-2.2-1.3-3.3-2-5.5-3.3
			C-24.5,488.3-25.2,488.8-26.6,489.8z M-23.1,451.5c1-0.7,1.5-1,2.5-1.6c-2,0-3,0-5,0.1C-24.6,450.6-24.1,450.9-23.1,451.5z
			 M-23.1,390.9c0.9-0.5,1.4-0.7,2.3-1.2c-1.7-0.1-2.6-0.1-4.3-0.2C-24.3,390.1-23.9,390.4-23.1,390.9z M-21.4,486.1
			c2.9,1.8,4.4,2.6,7.3,4.4c2.8-0.1,4.2-0.2,7-0.2c-4.3-2.6-6.5-3.9-10.8-6.6C-19.2,484.7-19.9,485.2-21.4,486.1z M-16.4,395.3
			c4,3.1,7,4.6,11,7.7c0-1.8,0-2.7,0-4.5c-4-3-7-4.6-11-7.7C-16.4,392.6-16.4,393.5-16.4,395.3z M-16.4,402.1c4,3,7,4.5,11,7.5
			c0-1.7,0-2.6,0-4.3c-4-3-7-4.6-11-7.6C-16.4,399.4-16.4,400.3-16.4,402.1z M-16.4,408.7c4,3.1,7,4.6,11,7.6c0-1.8,0-2.7,0-4.5
			c-4-3-7-4.5-11-7.6C-16.4,406-16.4,406.9-16.4,408.7z M-16.4,415.5c4,3,7,4.4,11,7.4c0-1.7,0-2.6,0-4.3c-4-3-7-4.5-11-7.5
			C-16.4,412.8-16.4,413.7-16.4,415.5z M-16.4,422.1c4,3,7,4.5,11,7.5c0-1.8,0-2.7,0-4.5c-4-3-7-4.5-11-7.5
			C-16.4,419.4-16.4,420.3-16.4,422.1z M-16.4,428.9c4,2.9,7,4.4,11,7.3c0-1.7,0-2.6,0-4.3c-4-3-7-4.4-11-7.4
			C-16.4,426.2-16.4,427.1-16.4,428.9z M-16.4,435.5c4,3,7,4.4,11,7.4c0-1.8,0-2.7,0-4.5c-4-2.9-7-4.4-11-7.4
			C-16.4,432.8-16.4,433.7-16.4,435.5z M-16.4,442.3c4,2.9,7,4.3,11,7.2c0-1.7,0-2.6,0-4.3c-4-2.9-7-4.4-11-7.4
			C-16.4,439.6-16.4,440.5-16.4,442.3z M-16.4,448.9c4,2.9,7,4.4,11,7.3c0-1.8,0-2.7,0-4.5c-4-2.9-7-4.4-11-7.3
			C-16.4,446.2-16.4,447.1-16.4,448.9z M-16.4,455.7c4,2.8,7,4.2,11,7.1c0-1.7,0-2.6,0-4.3c-4-2.9-7-4.3-11-7.3
			C-16.4,452.9-16.4,453.8-16.4,455.7z M-16.4,462.3c4,2.9,7,4.3,11,7.2c0-1.8,0-2.7,0-4.5c-4-2.9-7-4.3-11-7.2
			C-16.4,459.6-16.4,460.5-16.4,462.3z M-16.4,469c4,2.8,7,4.2,11,7c0-1.7,0-2.6,0-4.3c-4-2.8-7-4.3-11-7.2
			C-16.4,466.3-16.4,467.2-16.4,469z M-16.4,475.7c4,2.8,7,4.3,11,7.1c0-1.8,0-2.7,0-4.5c-4-2.8-7-4.3-11-7.1
			C-16.4,472.9-16.4,473.8-16.4,475.7z M-16.4,482.4c4,2.8,7,4.1,11,6.9c0-1.7,0-2.6,0-4.3c-4-2.8-7-4.2-11-7.1
			C-16.4,479.7-16.4,480.6-16.4,482.4z M-16.3,388.9c4.4,3,6.9,4.5,10.9,7.4c0-1.7,0-2.6,0-4.3c-3-2.1-4.4-3.1-7.4-5.2
			C-14.3,387.6-14.9,388-16.3,388.9z M-11.1,385.7c2.3,1.6,3.5,2.3,5.8,3.9c-0.8-1.9-2-3.6-3.8-4.9C-9.9,385-10.3,385.3-11.1,385.7z
			"/>
		<path id="XMLID_500_" class="st0" d="M79.2,380.4c10-0.2,18.4,4.8,18.4,11.4c0,29.4,0,58.7,0,88.1c0,6.4-8.3,11.6-18.4,11.4
			c-21.3-0.3-42.6-0.3-63.6,0.1c0-37,0-74,0-111C36.6,380.7,57.9,380.7,79.2,380.4z M29.6,390.3c-5-3-7-4.4-12-7.4
			c0,35.2,0,70.4,0,105.7c5-3,7-4.5,12-7.4C29.6,450.9,29.6,420.6,29.6,390.3z M89.7,384c-2.8-1.4-6.5-2.2-10.3-2.2
			c-19.9,0.3-39.9,0.4-59.8,0c4.6,3,6.9,4.5,11.6,7.4c16.9,0.1,33.8,0.1,50.7-0.2C85,387.1,86.5,386,89.7,384z M20.1,489.3
			c-0.2,0.1-0.3,0.2-0.5,0.3c0.3,0,0.5,0,0.8,0C20.2,489.5,20.2,489.4,20.1,489.3z M21.8,488.3c0.8,0.5,1.2,0.7,2,1.2
			c2.8,0,4.2-0.1,7-0.1c-2.2-1.4-3.3-2-5.5-3.4C23.9,487,23.2,487.4,21.8,488.3z M26.9,485c3,1.8,4.5,2.7,7.5,4.5c2.7,0,4.1,0,6.8,0
			c-4.3-2.7-6.5-4-10.8-6.7C29,483.6,28.3,484.1,26.9,485z M43.6,399.1c-5-2.9-7-4.4-12-7.3c0,1.8,0,2.7,0,4.4c5,2.9,7,4.4,12,7.3
			C43.6,401.7,43.6,400.9,43.6,399.1z M31.6,402.8c5,2.9,7,4.3,12,7.1c0-1.7,0-2.6,0-4.3c-5-2.9-7-4.4-12-7.3
			C31.6,400.2,31.6,401.1,31.6,402.8z M31.6,409.3c5,2.9,7,4.4,12,7.3c0-1.8,0-2.6,0-4.4c-5-2.9-7-4.4-12-7.3
			C31.6,406.6,31.6,407.5,31.6,409.3z M31.6,415.9c5,2.9,7,4.3,12,7.1c0-1.7,0-2.6,0-4.3c-5-2.9-7-4.4-12-7.3
			C31.6,413.3,31.6,414.2,31.6,415.9z M31.6,422.4c5,2.9,7,4.4,12,7.3c0-1.8,0-2.6,0-4.4c-5-2.9-7-4.4-12-7.3
			C31.6,419.7,31.6,420.6,31.6,422.4z M31.6,429c5,2.8,7,4.3,12,7.1c0-1.7,0-2.6,0-4.3c-5-2.9-7-4.4-12-7.3
			C31.6,426.4,31.6,427.3,31.6,429z M31.6,435.5c5,2.9,7,4.4,12,7.2c0-1.8,0-2.6,0-4.4c-5-2.9-7-4.3-12-7.3
			C31.6,432.8,31.6,433.7,31.6,435.5z M31.6,442.1c5,2.8,7,4.3,12,7.1c0-1.7,0-2.6,0-4.3c-5-2.9-7-4.3-12-7.2
			C31.6,439.5,31.6,440.4,31.6,442.1z M31.6,448.6c5,2.9,7,4.3,12,7.2c0-1.8,0-2.6,0-4.4c-5-2.9-7-4.3-12-7.2
			C31.6,445.9,31.6,446.8,31.6,448.6z M31.6,455.2c5,2.8,7,4.2,12,7.1c0-1.7,0-2.6,0-4.3c-5-2.9-7-4.3-12-7.2
			C31.6,452.6,31.6,453.5,31.6,455.2z M43.6,464.5c-5-2.9-7-4.3-12-7.2c0,1.8,0,2.7,0,4.4c5,2.9,7,4.3,12,7.2
			C43.6,467.1,43.6,466.3,43.6,464.5z M41,474c0.9-0.6,1.6-1,2.6-1.6c0-0.5,0-0.8,0-1.3c-5-2.9-7-4.3-12-7.2c0,1.8,0,2.7,0,4.4
			C35.6,470.6,37.4,471.7,41,474z M35.5,477.3c1.4-0.9,2-1.3,3.4-2.2c-2.9-1.9-4.4-2.8-7.4-4.7c0,1.8,0,2.7,0,4.4
			C33.6,475.8,34,476.3,35.5,477.3z M31.6,477c0,1.1,0,1.6,0,2.7c1-0.6,1.2-0.9,2-1.4C32.8,477.8,32.6,477.5,31.6,477z M33.1,482.2
			c4.6,2.9,6.9,4.3,11.6,7.2c2.8,0,4.2,0,7,0c-4.6-2.9-6.9-4.3-11.6-7.2C37.4,482.2,36,482.2,33.1,482.2z M40.4,390.9
			c-2.7,0-4.1,0-6.8,0c4.5,2.9,6.8,4.3,11.3,7.1c2.8,0,4.2,0,7,0C47.4,395.2,45,393.7,40.4,390.9z M33.6,480.8
			c15.3-0.1,30.6,0,46,0.2c-4.6-3-6.9-4.5-11.6-7.4c-9.2-0.1-13.9-0.1-23.1-0.1C40.4,476.4,38.2,477.8,33.6,480.8z M43.7,482.1
			c4.6,2.9,6.9,4.3,11.6,7.2c2.7,0,4.1,0,6.8,0c-4.5-2.9-6.8-4.4-11.3-7.3C47.9,482.1,46.5,482.1,43.7,482.1z M51,390.9
			c-2.8,0-4.2,0-7,0c4.6,2.8,6.9,4.3,11.6,7.1c2.8,0,4.2,0,7,0C57.9,395.2,55.6,393.7,51,390.9z M67.6,399.5c-9,0.1-13,0.1-22,0.1
			c0,24.1,0,48.2,0,72.3c9,0,13,0,22,0.1C67.6,447.8,67.6,423.7,67.6,399.5z M54,482.1c4.6,2.9,6.9,4.4,11.6,7.3c2.8,0,4.2,0,7,0.1
			c-4.6-3-6.9-4.4-11.6-7.4C58.2,482.2,56.8,482.1,54,482.1z M61.3,390.9c-2.7,0-4.1,0-6.8,0c4.5,2.8,6.8,4.2,11.3,7
			c0.9,0,1.4,0,2.3,0c0.9-0.6,1.4-0.9,2.3-1.4C66.7,394.2,64.9,393.1,61.3,390.9z M76.1,489.6c1.3,0,2,0,3.3,0.1
			c1,0,2.3-0.1,3.3-0.1c-4.4-2.9-6.6-4.4-11.1-7.3c-2.8,0-4.2,0-7-0.1C69.2,485.1,71.5,486.6,76.1,489.6z M71.8,390.8
			c-2.8,0-4.2,0-7,0.1c2.9,1.8,4.4,2.7,7.3,4.5c1.4-0.9,2.1-1.3,3.5-2.3C74.1,392.2,73.3,391.7,71.8,390.8z M69.6,472.6
			c5,2.9,7,4.4,12,7.4c0-29.5,0-59,0-88.6c-5,3-7,4.5-12,7.4C69.6,423.4,69.6,448,69.6,472.6z M81.9,482.4c-2.8,0-4.2-0.1-7-0.1
			c4.1,2.6,6.2,4,10.3,6.7c1.8-0.3,3.3-0.9,4.5-1.5C86.5,485.4,85,484.4,81.9,482.4z M77.4,392c0.9-0.5,1.4-0.8,2.3-1.3
			c-1.7,0-2.6,0-4.3,0.1C76.1,391.2,76.5,391.5,77.4,392z M83.6,396c5,2.9,7,4.3,12,7.1c0-1.8,0-2.7,0-4.5c-5-2.8-7-4.3-12-7.1
			C83.6,393.4,83.6,394.2,83.6,396z M83.6,402.7c5,2.8,7,4.2,12,7c0-1.7,0-2.6,0-4.3c-5-2.9-7-4.3-12-7.1
			C83.6,400,83.6,400.9,83.6,402.7z M83.6,409.2c5,2.9,7,4.3,12,7.2c0-1.8,0-2.7,0-4.5c-5-2.9-7-4.3-12-7.2
			C83.6,406.5,83.6,407.4,83.6,409.2z M83.6,415.8c5,2.8,7,4.2,12,7.1c0-1.7,0-2.6,0-4.3c-5-2.9-7-4.3-12-7.2
			C83.6,413.2,83.6,414.1,83.6,415.8z M83.6,422.3c5,2.9,7,4.3,12,7.3c0-1.8,0-2.7,0-4.5c-5-2.9-7-4.4-12-7.2
			C83.6,419.7,83.6,420.6,83.6,422.3z M83.6,429c5,2.8,7,4.3,12,7.1c0-1.7,0-2.6,0-4.3c-5-2.9-7-4.4-12-7.3
			C83.6,426.3,83.6,427.2,83.6,429z M83.6,435.5c5,2.9,7,4.4,12,7.3c0-1.8,0-2.7,0-4.5c-5-2.9-7-4.4-12-7.3
			C83.6,432.8,83.6,433.7,83.6,435.5z M83.6,442.2c5,2.9,7,4.3,12,7.2c0-1.7,0-2.6,0-4.3c-5-3-7-4.4-12-7.3
			C83.6,439.5,83.6,440.4,83.6,442.2z M83.6,448.7c5,2.9,7,4.4,12,7.4c0-1.8,0-2.7,0-4.5c-5-3-7-4.4-12-7.4
			C83.6,446,83.6,446.9,83.6,448.7z M83.6,455.3c5,2.9,7,4.3,12,7.3c0-1.7,0-2.6,0-4.3c-5-3-7-4.5-12-7.4
			C83.6,452.7,83.6,453.5,83.6,455.3z M83.6,461.8c5,3,7,4.5,12,7.5c0-1.8,0-2.7,0-4.5c-5-3-7-4.5-12-7.4
			C83.6,459.2,83.6,460,83.6,461.8z M83.6,468.5c5,2.9,7,4.4,12,7.3c0-1.7,0-2.6,0-4.3c-5-3-7-4.5-12-7.5
			C83.6,465.8,83.6,466.7,83.6,468.5z M83.6,470.5c0,1.8,0,2.7,0,4.4c5,2.9,6.9,4.3,11.3,7.2c0.3-0.8,0.7-1.6,0.7-2.4
			c0-0.7,0-1.1,0-1.8C90.6,475,88.6,473.5,83.6,470.5z M91.3,486.4c1-0.8,1.9-1.7,2.7-2.6c-4.1-2.6-6.4-3.9-10.4-6.5
			c0,1.8,0,2.7,0,4.4C86.6,483.5,88.3,484.5,91.3,486.4z M84.5,389.7c4.4,2.7,6.1,4.1,11.1,6.8c0-1.7,0-2.6,0-4.3
			c-3-1.9-4.6-2.9-7.6-4.8C86.6,388.3,85.9,388.8,84.5,389.7z M89.4,386.2c2.3,1.4,3.5,2.1,5.8,3.5c-0.8-1.9-2-3.5-3.8-4.7
			C90.6,385.5,90.2,385.8,89.4,386.2z"/>
		<path id="XMLID_476_" class="st0" d="M117.6,379.3c10-0.4,20-0.9,30-1.5c0,38.7,0,77.3,0,116c-10-0.6-20-1.1-30-1.5
			C117.6,454.7,117.6,417,117.6,379.3z M131.6,388.8c-5-2.8-7-4.2-12-7c0,36,0,71.9,0,107.9c5-2.8,7-4.2,12-7
			C131.6,451.4,131.6,420.1,131.6,388.8z M132.6,387.1c4.3-3,6.5-4.5,10.8-7.6c-8.6,0.5-12.9,0.7-21.6,1
			C126.1,383.2,128.3,384.5,132.6,387.1z M122,490.6c-0.1,0.1-0.2,0.2-0.3,0.3c0.3,0,0.5,0,0.8,0C122.3,490.8,122.2,490.7,122,490.6
			z M123.8,489.7c0.8,0.6,1.2,0.8,2,1.4c2.8,0.1,4.2,0.2,7,0.3c-2.2-1.5-3.3-2.3-5.5-3.8C125.9,488.4,125.2,488.8,123.8,489.7z
			 M129.1,486.5c2.9,2,4.4,3,7.3,5.1c2.8,0.1,4.2,0.2,7,0.4c-4.3-3.1-6.5-4.6-10.8-7.6C131.2,485.2,130.5,485.6,129.1,486.5z
			 M133.6,394.8c5,2.8,7,4.3,12,7.2c0-1.9,0-2.8,0-4.6c-5-2.9-7-4.3-12-7.1C133.6,392,133.6,392.9,133.6,394.8z M133.6,401.6
			c5,2.8,7,4.2,12,7.1c0-1.8,0-2.7,0-4.5c-5-2.9-7-4.3-12-7.2C133.6,398.9,133.6,399.8,133.6,401.6z M133.6,408.3
			c5,2.9,7,4.4,12,7.3c0-1.9,0-2.8,0-4.6c-5-2.9-7-4.4-12-7.3C133.6,405.6,133.6,406.5,133.6,408.3z M133.6,415.2
			c5,2.9,7,4.3,12,7.2c0-1.8,0-2.7,0-4.5c-5-3-7-4.4-12-7.3C133.6,412.5,133.6,413.4,133.6,415.2z M133.6,421.9c5,3,7,4.4,12,7.5
			c0-1.9,0-2.8,0-4.6c-5-3-7-4.5-12-7.4C133.6,419.2,133.6,420.1,133.6,421.9z M133.6,428.8c5,2.9,7,4.4,12,7.4c0-1.8,0-2.7,0-4.5
			c-5-3-7-4.5-12-7.5C133.6,426,133.6,426.9,133.6,428.8z M133.6,435.5c5,3,7,4.5,12,7.6c0-1.9,0-2.8,0-4.6c-5-3.1-7-4.6-12-7.6
			C133.6,432.7,133.6,433.7,133.6,435.5z M133.6,437.8c0,1.8,0,2.7,0,4.6c5,3,7,4.5,12,7.5c0-1.8,0-2.7,0-4.5
			C140.6,442.3,138.6,440.8,133.6,437.8z M133.6,449.1c5,3.1,7,4.6,12,7.7c0-1.9,0-2.8,0-4.6c-5-3.1-7-4.7-12-7.7
			C133.6,446.3,133.6,447.2,133.6,449.1z M133.6,455.9c5,3,7,4.6,12,7.7c0-1.8,0-2.7,0-4.5c-5-3.1-7-4.7-12-7.8
			C133.6,453.2,133.6,454.1,133.6,455.9z M133.6,462.6c5,3.1,7,4.7,12,7.9c0-1.9,0-2.8,0-4.6c-5-3.2-7-4.7-12-7.8
			C133.6,459.9,133.6,460.8,133.6,462.6z M133.6,469.5c5,3.1,7,4.6,12,7.8c0-1.8,0-2.7,0-4.5c-5-3.2-7-4.8-12-7.9
			C133.6,466.8,133.6,467.7,133.6,469.5z M133.6,471.6c0,1.8,0,2.7,0,4.6c5,3.2,7,4.8,12,8c0-1.9,0-2.8,0-4.6
			C140.6,476.4,138.6,474.8,133.6,471.6z M133.6,483.1c5,3.1,7,4.7,12,7.9c0-1.8,0-2.7,0-4.5c-5-3.3-7-4.9-12-8.1
			C133.6,480.3,133.6,481.3,133.6,483.1z M134.2,388.2c4.5,2.7,6.4,4,11.4,6.8c0-1.8,0-2.7,0-4.5c-3-1.9-4.7-2.9-7.8-4.8
			C136.4,386.7,135.6,387.2,134.2,388.2z M139.5,384.7c2.4,1.4,3.1,2.1,6.1,3.5c0-1.9,0-2.8,0-4.6c-1-0.5-1.6-0.8-2.6-1.4
			C141.6,383.2,140.9,383.7,139.5,384.7z M144.6,381c0.3,0.2,0.5,0.3,0.8,0.5c0-0.4,0-0.6,0-1C145.1,380.6,144.9,380.8,144.6,381z"
			/>
		<path id="XMLID_428_" class="st0" d="M250.6,368.6c0,40.1,0,80.1,0,120.2c0,7.7-8.4,13.2-18.4,12.1c-15-1.6-30-3-45.1-4.3
			c-10.3-0.8-18.5-7.2-18.5-14c0-35.4,0-70.8,0-106.2c10-0.7,20-1.5,30-2.4c0,34.1,0,68.1,0,102.2c9,0.5,13,0.8,22,1.4
			c0-35.2,0-70.4,0-105.6C230.6,371,240.6,369.8,250.6,368.6z M170.6,379c0,34.6,0,69.2,0,103.7c0,2.7,1.7,5.2,4.2,7.4
			c3-1.9,4.8-2.9,7.8-4.8c0-33.1,0-66.1,0-99.2C177.6,383.2,175.6,381.8,170.6,379z M183.5,384.3c4.3-3.3,6.5-4.9,10.8-8.3
			c-8.6,0.7-12.9,1.1-21.6,1.7C177,380.3,179.2,381.7,183.5,384.3z M178.5,490.4c-0.7,0.4-1.1,0.5-1.8,0.9c2,1.3,4.3,2.4,6.8,2.9
			C181.5,492.7,180.5,491.9,178.5,490.4z M180,489.3c3,2.2,4.5,3.3,7.5,5.6c2.7,0.2,4.1,0.3,6.8,0.6c-4.3-3.4-6.5-5-10.8-8.3
			C182.1,488,181.4,488.4,180,489.3z M196.6,394.8c-5-2.9-7-4.3-12-7.2c0,1.9,0,2.8,0,4.7c5,2.9,7,4.4,12,7.4
			C196.6,397.8,196.6,396.8,196.6,394.8z M184.6,399.6c5,2.9,7,4.4,12,7.3c0-1.9,0-2.8,0-4.7c-5-3-7-4.5-12-7.4
			C184.6,396.7,184.6,397.7,184.6,399.6z M184.6,406.7c5,3,7,4.5,12,7.6c0-2,0-3,0-4.9c-5-3-7-4.5-12-7.4
			C184.6,403.9,184.6,404.9,184.6,406.7z M184.6,414c5,3,7,4.5,12,7.6c0-1.9,0-2.8,0-4.7c-5-3.1-7-4.6-12-7.7
			C184.6,411.1,184.6,412.1,184.6,414z M184.6,421.1c5,3.1,7,4.7,12,7.9c0-2,0-3,0-4.9c-5-3.2-7-4.7-12-7.8
			C184.6,418.2,184.6,419.2,184.6,421.1z M184.6,428.4c5,3.1,7,4.6,12,7.8c0-1.9,0-2.8,0-4.7c-5-3.2-7-4.8-12-7.9
			C184.6,425.5,184.6,426.4,184.6,428.4z M184.6,435.5c5,3.2,7,4.8,12,8.1c0-2,0-3,0-4.9c-5-3.3-7-4.9-12-8
			C184.6,432.6,184.6,433.5,184.6,435.5z M184.6,442.7c5,3.2,7,4.8,12,8c0-1.9,0-2.8,0-4.7c-5-3.3-7-4.9-12-8.1
			C184.6,439.8,184.6,440.8,184.6,442.7z M184.6,449.8c5,3.3,7,4.9,12,8.3c0-2,0-3,0-4.9c-5-3.3-7-5-12-8.2
			C184.6,446.9,184.6,447.9,184.6,449.8z M184.6,457.1c5,3.2,7,4.9,12,8.2c0-1.9,0-2.8,0-4.7c-5-3.4-7-5.1-12-8.3
			C184.6,454.2,184.6,455.2,184.6,457.1z M196.6,467.8c-5-3.4-7-5.1-12-8.5c0,1.9,0,2.9,0,4.8c5,3.4,7,5.1,12,8.5
			C196.6,470.8,196.6,469.8,196.6,467.8z M194,478.2c0.9-0.6,1.6-1,2.6-1.6c0-0.6,0-0.8,0-1.4c-5-3.5-7-5.2-12-8.6
			c0,1.9,0,2.9,0,4.8C188.6,474.1,190.4,475.5,194,478.2z M188.6,481.6c1.4-0.9,2-1.3,3.4-2.2c-2.9-2.3-4.4-3.4-7.4-5.6
			c0,1.9,0,2.9,0,4.8C186.6,479.8,187.1,480.4,188.6,481.6z M184.6,481c0,1.2,0,1.8,0,2.9c1-0.6,1.2-0.9,2-1.4
			C185.8,481.9,185.6,481.6,184.6,481z M188.9,382.7c-1.4,1.1-2,1.6-3.4,2.7c4.4,2.8,6.1,4.1,11.1,7c0-1.9,0-2.8,0-4.7
			C193.6,385.7,191.9,384.7,188.9,382.7z M186.3,486.8c4.6,3.5,6.9,5.3,11.5,8.9c2.8,0.2,4.2,0.4,7,0.6c-4.6-3.7-6.9-5.5-11.5-9.1
			C190.5,487.1,189.1,487,186.3,486.8z M221.1,479.4c-9.2-0.6-13.8-0.9-23-1.5c-4.5,3-6.8,4.4-11.3,7.3c15.3,1.1,30.5,2.2,45.8,3.6
			C228,485,225.7,483.1,221.1,479.4z M194.2,378.9c-1.4,1.1-2,1.6-3.4,2.7c2.3,1.4,2.8,2.2,5.8,3.6c0-2,0-3,0-4.9
			C195.6,379.7,195.1,379.4,194.2,378.9z M196.3,378c0-0.4,0-0.6,0-1.1c-0.2,0.2-0.3,0.3-0.5,0.6C196,377.7,196.1,377.8,196.3,378z
			 M196.8,487.5c4.6,3.6,6.9,5.4,11.5,9.1c2.7,0.2,4.1,0.4,6.8,0.6c-4.5-3.8-6.8-5.6-11.3-9.2C201,487.9,199.6,487.7,196.8,487.5z
			 M207,488.3c4.6,3.6,6.9,5.5,11.5,9.3c2.8,0.3,4.2,0.4,7,0.7c-4.6-3.9-6.9-5.7-11.5-9.4C211.2,488.7,209.8,488.5,207,488.3z
			 M229.1,498.7c1.3,0.1,2,0.2,3.3,0.3c1,0.1,2.3,0.1,3.3,0.2c-4.4-3.8-6.6-5.7-11-9.4c-2.8-0.2-4.2-0.4-7-0.6
			C222.2,492.9,224.5,494.8,229.1,498.7z M222.6,478.5c5,3.7,7,5.6,12,9.4c0-35.3,0-70.6,0-105.8c-5-3-7-4.5-12-7.4
			C222.6,409.3,222.6,443.9,222.6,478.5z M235.6,380.1c4.3-3.6,6.5-5.5,10.7-9.2c-8.6,1-12.9,1.5-21.5,2.3
			C229.1,375.9,231.3,377.3,235.6,380.1z M234.8,490.7c-2.8-0.3-4.2-0.4-7-0.6c4.1,3.4,6.2,5.1,10.3,8.6c1.8-0.2,3.3-0.8,4.5-1.4
			C239.5,494.6,237.9,493.3,234.8,490.7z M236.6,388.8c5,3.1,7,4.6,12,7.8c0-2.1,0-3.2,0-5.4c-5-3.1-7-4.6-12-7.5
			C236.6,385.8,236.6,386.8,236.6,388.8z M236.6,396.7c5,3.1,7,4.6,12,7.8c0-2.1,0-3.1,0-5.2c-5-3.2-7-4.8-12-7.9
			C236.6,393.5,236.6,394.6,236.6,396.7z M236.6,404.3c5,3.2,7,4.8,12,8.2c0-2.1,0-3.2,0-5.4c-5-3.2-7-4.8-12-7.9
			C236.6,401.3,236.6,402.3,236.6,404.3z M236.6,412.2c5,3.2,7,4.8,12,8.1c0-2.1,0-3.1,0-5.2c-5-3.3-7-5-12-8.2
			C236.6,409.1,236.6,410.1,236.6,412.2z M236.6,419.9c5,3.3,7,5,12,8.5c0-2.1,0-3.2,0-5.4c-5-3.4-7-5.1-12-8.4
			C236.6,416.7,236.6,417.8,236.6,419.9z M236.6,427.8c5,3.3,7,5,12,8.4c0-2.1,0-3.1,0-5.2c-5-3.5-7-5.2-12-8.5
			C236.6,424.6,236.6,425.7,236.6,427.8z M236.6,435.4c5,3.4,7,5.2,12,8.8c0-2.1,0-3.2,0-5.4c-5-3.5-7-5.3-12-8.7
			C236.6,432.3,236.6,433.3,236.6,435.4z M236.6,443.3c5,3.4,7,5.2,12,8.8c0-2.1,0-3.1,0-5.2c-5-3.6-7-5.4-12-8.8
			C236.6,440.2,236.6,441.2,236.6,443.3z M236.6,451c5,3.6,7,5.4,12,9.1c0-2.1,0-3.2,0-5.4c-5-3.7-7-5.5-12-9
			C236.6,447.8,236.6,448.9,236.6,451z M236.6,458.9c5,3.6,7,5.4,12,9.1c0-2.1,0-3.1,0-5.2c-5-3.7-7-5.6-12-9.2
			C236.6,455.7,236.6,456.8,236.6,458.9z M236.6,466.5c5,3.7,7,5.6,12,9.4c0-2.1,0-3.2,0-5.4c-5-3.8-7-5.7-12-9.3
			C236.6,463.4,236.6,464.4,236.6,466.5z M236.6,474.4c5,3.7,7,5.5,12,9.4c0-2.1,0-3.1,0-5.2c-5-3.9-7-5.8-12-9.5
			C236.6,471.3,236.6,472.3,236.6,474.4z M236.6,476.8c0,2.1,0,3.1,0,5.2c5,3.6,6.9,5.5,11.2,9.3c0.2-0.9,0.8-1.9,0.8-2.8
			c0-0.8,0-1.3,0-2.1C243.6,482.5,241.6,480.6,236.6,476.8z M244.2,496.2c1-0.8,1.9-1.9,2.7-2.9c-4.1-3.5-6.3-5.2-10.3-8.5
			c0,2.1,0,3.1,0,5.2C239.6,492.4,241.2,493.7,244.2,496.2z M237.5,381.2c4.4,3,6.1,4.5,11.1,7.5c0-2.1,0-3.2,0-5.4
			c-3-2.1-4.6-3.1-7.6-5.2C239.6,379.5,238.9,380.1,237.5,381.2z M246,374c-1.4,1.2-2,1.8-3.4,3c2.4,1.5,3.1,2.2,6.1,3.8
			c0-2.1,0-3.2,0-5.4C247.6,374.8,247,374.5,246,374z M248.3,372.9c0-0.5,0-0.7,0-1.1c-0.3,0.3-0.4,0.4-0.7,0.7
			C247.9,372.6,248,372.7,248.3,372.9z"/>
		<path id="XMLID_358_" class="st0" d="M348.9,353.9c9.8-1.8,19.7-3.6,29.7-5.6c0,58.3,0,116.7,0,175c-10-2-20-3.9-30-5.6
			c0-26.8,0-53.6,0-80.5c-4,13.5-7.9,27-12,40.5c-9.7-0.9-19.5-1.7-29.2-2.5c-3.8-12.7-7.8-25.5-11.8-38.2c0,24,0,48,0,72
			c-10-1.5-20-2.9-30-4.1c0-46,0-92.1,0-138.1c10-1.3,19.9-2.6,29.8-4.1c9.3,23.4,18.3,46.9,26.8,70.5
			C331.4,406.9,340.4,380.5,348.9,353.9z M279.6,377.5c-5-3.2-7-4.8-12-7.8c0,44.1,0,88.1,0,132.2c5-3.1,7-4.6,12-7.9
			C279.6,455.1,279.6,416.3,279.6,377.5z M280.5,375.3c4.4-4,6.6-6.1,11-10.2c-8.7,1.2-13,1.8-21.7,2.9
			C274.1,370.9,276.2,372.3,280.5,375.3z M270.3,503.1c-0.2,0.1-0.3,0.2-0.5,0.3c0.3,0,0.4,0.1,0.7,0.1
			C270.4,503.3,270.4,503.3,270.3,503.1z M272,502.1c0.8,0.7,1.2,1.1,2,1.9c2.8,0.4,4.2,0.6,7,0.9c-2.2-2.1-3.3-3.1-5.5-5.2
			C274.1,500.7,273.4,501.2,272,502.1z M277,498.5c3,2.7,4.5,4.1,7.5,6.9c2.7,0.4,4,0.6,6.7,0.9c-4.3-4.2-6.4-6.2-10.7-10.2
			C279.1,497.1,278.4,497.6,277,498.5z M281.6,382.1c0,1.1,0,1.6,0,2.6c1,0.3,0.4,0.4,0.7,0.7C282,384.1,282.6,383.4,281.6,382.1z
			 M281.6,393.3c2,1,2.2,1.4,3.5,2.4c-0.7-2.7-1.2-4.1-1.9-6.8c-0.6-0.5-0.6-0.8-1.6-1.3C281.6,389.8,281.6,391,281.6,393.3z
			 M281.6,401.6c3,1.8,3.7,2.7,5.9,4.6c-0.7-2.8-1.2-4.3-1.9-7.1c-1.6-1.3-2.1-1.9-4.1-3.2C281.6,398.2,281.6,399.3,281.6,401.6z
			 M281.6,410.2c4,2.5,5.1,3.8,8.4,6.4c-0.6-2.8-1-4.2-1.6-7c-2.7-2.1-3.8-3.1-6.8-5.2C281.6,406.7,281.6,407.9,281.6,410.2z
			 M281.6,418.5c5,3.4,6.6,5.2,10.9,8.8c-0.6-2.9-1-4.3-1.6-7.2c-3.7-3-5.3-4.4-9.3-7.2C281.6,415.1,281.6,416.2,281.6,418.5z
			 M281.6,427.1c5,3.6,7,5.4,12,9.2c0-2.3,0-3.5,0-5.8c-5-3.7-7-5.5-12-9C281.6,423.6,281.6,424.8,281.6,427.1z M281.6,435.4
			c5,3.7,7,5.7,12,9.6c0-2.3,0-3.5,0-5.8c-5-3.9-7-5.7-12-9.4C281.6,432,281.6,433.1,281.6,435.4z M281.6,438.3c0,2.3,0,3.4,0,5.7
			c5,3.7,7,5.6,12,9.5c0-2.2,0-3.4,0-5.6C288.6,443.9,286.6,442,281.6,438.3z M281.6,452.3c5,3.9,7,5.9,12,9.9c0-2.3,0-3.5,0-5.8
			c-5-4-7-6-12-9.8C281.6,448.9,281.6,450,281.6,452.3z M281.6,460.9c5,3.9,7,5.9,12,9.9c0-2.2,0-3.4,0-5.6c-5-4.1-7-6.1-12-10
			C281.6,457.4,281.6,458.6,281.6,460.9z M281.6,469.2c5,4,7,6.1,12,10.3c0-2.3,0-3.5,0-5.8c-5-4.2-7-6.2-12-10.2
			C281.6,465.8,281.6,466.9,281.6,469.2z M281.6,477.7c5,4,7,6.1,12,10.3c0-2.2,0-3.4,0-5.6c-5-4.2-7-6.3-12-10.4
			C281.6,474.3,281.6,475.5,281.6,477.7z M281.6,480.4c0,2.3,0,3.4,0,5.7c5,4.2,7,6.3,12,10.7c0-2.3,0-3.5,0-5.8
			C288.6,486.6,286.6,484.5,281.6,480.4z M281.6,494.6c5,4.2,7,6.3,12,10.7c0-2.2,0-3.4,0-5.6c-5-4.4-7-6.6-12-10.8
			C281.6,491.2,281.6,492.4,281.6,494.6z M284.3,378.2c0.1,0,0.1,0,0.2,0c8.1,5.7,12.1,8.7,20.2,14.9c-1.3-3.4-1.9-5.1-3.2-8.4
			c-6.3-4.7-9.4-6.9-15.7-11.3c-1,1-1.5,1.5-2.5,2.6C283.7,376.8,283.9,377.2,284.3,378.2z M295.7,429.1c4.6,14.4,9,28.8,13.4,43.2
			c4.1-3.2,6.1-4.9,10.2-8.2c-10.7-26.2-22-52.1-33.9-77.7C289,400.6,292.4,414.9,295.7,429.1z M306.2,397.1
			c-8-6.2-12-9.2-19.9-14.9c1.6,3.4,2.4,5.2,4,8.7c7.7,5.7,11.5,8.6,19.2,14.8C308.1,402.2,307.5,400.5,306.2,397.1z M287.5,371.8
			c5,3.4,7.5,5.1,12.5,8.7c-1.3-3.2-1.9-4.8-3.2-8c-2.3-1.6-3.4-2.4-5.7-4C289.6,369.8,288.9,370.5,287.5,371.8z M310.9,409.9
			c-7.5-6.2-11.2-9.1-18.7-14.8c1.6,3.5,2.4,5.3,4,8.9c7.2,5.6,10.8,8.5,17.9,14.4C312.9,415,312.2,413.3,310.9,409.9z M292.7,366.8
			c0.9,0.7,1.3,1.1,2.2,1.8c-0.4-1.2-0.6-1.8-1-3C293.5,366.1,293.2,366.3,292.7,366.8z M315.9,422.7c-7.1-5.9-10.6-8.8-17.7-14.2
			c1.6,3.6,2.4,5.4,4,9.1c6.8,5.4,10.2,8.2,16.9,14.1C317.8,428.1,317.2,426.3,315.9,422.7z M320.5,436c-6.6-5.8-9.8-8.6-16.4-14.1
			c1.6,3.7,2.3,5.6,3.9,9.3c5.1,4.3,7.6,6.6,12.6,11.1c0-2.2,0-3.3,0-5.5C320.6,436.6,320.6,436.4,320.5,436z M320.6,445.5
			c-4-3.9-6.3-5.8-10.6-9.5c1.6,3.8,2.3,5.7,3.9,9.6c2.7,2.4,4.6,3.6,6.6,6.1C320.6,449.2,320.6,448,320.6,445.5z M312.7,472.4
			c-0.5,0.4-0.7,0.6-1.2,1c1,0.1,1.5,0.1,2.5,0.2C313.4,473.1,313.2,472.9,312.7,472.4z M317.9,468.2c-1.4,1.1-2.1,1.7-3.5,2.8
			c1.2,1.1,1.8,1.7,3,2.8c2.8,0.2,4.2,0.3,7,0.6C321.8,471.9,320.5,470.7,317.9,468.2z M320.6,454.5c-2-1.7-2.8-2.6-4.7-4.3
			c1.9,4.6,2.7,6.9,4.7,11.6C320.6,458.9,320.6,457.5,320.6,454.5z M319.6,466.8c3.2,3.1,4.8,4.7,8,7.9c2.1,0.2,3.1,0.3,5.2,0.4
			c-4.2-4.2-6.3-6.3-10.4-10.4c-0.1,0-0.1,0-0.2,0C321.1,465.6,320.6,466,319.6,466.8z M350.3,356.9c-8.6,26.8-17.7,53.5-26.7,80
			c0,10,0,15,0,25c13-32.1,25.3-64.5,36.9-97.2C356.5,361.5,354.4,360,350.3,356.9z M324.9,464.3c4.1,4,6.1,6,10.2,10.2
			c0.6-1.9,0.9-2.9,1.5-4.9c-3.9-3.9-5.8-5.9-9.7-9.6C326,461.7,325.6,462.5,324.9,464.3z M327.6,457.7c3.9,3.7,5.8,5.5,9.7,9.4
			c0.6-2,0.9-3,1.5-4.9c-3.7-3.7-5.5-5.5-9.2-9C328.8,455,328.4,455.9,327.6,457.7z M330.3,450.9c3.7,3.4,5.5,5.2,9.2,8.8
			c0.5-2,0.7-3,1.2-5c-3.4-3.4-5.1-5-8.4-8.2C331.5,448.2,331.1,449.1,330.3,450.9z M333.1,444.2c3.4,3.1,5.1,4.7,8.4,8
			c0.6-2,0.9-3,1.5-5c-3.2-3.1-4.8-4.7-7.9-7.7C334.2,441.4,333.9,442.3,333.1,444.2z M335.8,437.2c3.2,2.9,4.8,4.4,7.9,7.4
			c0.6-1.9,0.9-2.9,1.5-4.8c-3-2.9-4.5-4.3-7.5-7.1C337,434.4,336.6,435.4,335.8,437.2z M338.5,430.3c3,2.7,4.5,4.1,7.4,6.9
			c0.6-2,0.9-3.1,1.5-5.1c-2.8-2.7-4.2-4-7-6.6C339.7,427.4,339.3,428.4,338.5,430.3z M341.3,423.2c2.7,2.5,4,3.8,6.7,6.4
			c0.5-2.2,0.7-3.2,1.2-5.4c-2.4-2.3-3.6-3.4-6-5.6C342.4,420.4,342,421.3,341.3,423.2z M346,411.2c-0.8,2-1.2,3-2,5
			c2.3,2,3.4,3.1,5.7,5.1c0.5-2.2,0.7-3.3,1.2-5.4C349,413.9,348,413,346,411.2z M348.7,404c-0.8,1.9-1.2,2.9-2,4.8
			c1.9,1.8,2.8,2.6,4.7,4.4c0.5-2.2,0.7-3.3,1.2-5.5C351.1,406.2,350.3,405.5,348.7,404z M351.4,396.5c-0.8,2-1.2,3.1-2,5.1
			c1.5,1.3,2.2,1.9,3.7,3.3c0.5-2.2,0.7-3.3,1.2-5.5C353.2,398.2,352.6,397.6,351.4,396.5z M350.6,428.5c0,28.5,0,57,0,85.6
			c5-3.5,7-5.3,12-9.1c0-44.3,0-88.6,0-132.8C358.6,391,354.6,409.8,350.6,428.5z M354.2,389.2c-0.8,2-1.2,3-2,4.9
			c1.1,0.9,1.6,1.4,2.7,2.4c0.4-2.2,0.6-3.3,1-5.6C355.2,390.2,354.9,389.8,354.2,389.2z M363.1,363.8c4.3-4.8,6.4-7.3,10.7-12.4
			c-8.5,1.6-12.8,2.4-21.3,3.9C356.7,358.7,358.8,360.3,363.1,363.8z M352.9,515.7c-0.2,0.2-0.3,0.2-0.5,0.4
			c0.3,0.1,0.4,0.1,0.7,0.1C353.1,516,353,515.9,352.9,515.7z M354.7,514.5c0.8,0.9,1.2,1.3,2,2.3c2.8,0.5,4.2,0.8,6.9,1.3
			c-2.3-2.5-3.4-3.8-5.7-6.3C356.6,512.9,355.9,513.4,354.7,514.5z M356.6,381.5c-0.7,2.1-1,3.1-1.7,5.2c0.7,0.6,1,0.9,1.7,1.5
			c0.4-2.3,0.6-3.5,1-5.8C357.2,382,357,381.8,356.6,381.5z M358.1,379.7c0.4-2,0.6-2.9,1-4.9c-0.6,1.7-0.9,2.6-1.5,4.3
			C357.8,379.3,357.9,379.4,358.1,379.7z M359.6,510.4c2.9,3.3,4.3,4.9,7.2,8.3c2.8,0.5,4.2,0.8,6.9,1.3c-4.3-5.1-6.4-7.5-10.7-12.4
			C361.7,508.7,361,509.2,359.6,510.4z M364.6,375c4,3.9,7,5.8,11,9.9c0-2.8,0-4.2,0-7c-4-4-7-5.9-11-9.7
			C364.6,370.9,364.6,372.3,364.6,375z M364.6,385.1c4,3.9,7,5.8,11,9.9c0-2.7,0-4,0-6.7c-4-4.1-7-6.1-11-10
			C364.6,381.1,364.6,382.4,364.6,385.1z M364.6,395.1c4,4.1,7,6.1,11,10.4c0-2.8,0-4.2,0-7c-4-4.2-7-6.2-11-10.2
			C364.6,391,364.6,392.4,364.6,395.1z M364.6,405.3c4,4.1,7,6.1,11,10.4c0-2.7,0-4,0-6.7c-4-4.3-7-6.4-11-10.5
			C364.6,401.2,364.6,402.6,364.6,405.3z M364.6,415.2c4,4.3,7,6.4,11,10.9c0-2.8,0-4.2,0-7c-4-4.4-7-6.6-11-10.7
			C364.6,411.1,364.6,412.5,364.6,415.2z M364.6,425.4c4,4.3,7,6.4,11,10.9c0-2.7,0-4,0-6.7c-4-4.5-7-6.7-11-11
			C364.6,421.3,364.6,422.7,364.6,425.4z M364.6,435.3c4,4.5,7,6.7,11,11.4c0-2.8,0-4.2,0-7c-4-4.6-7-6.9-11-11.3
			C364.6,431.3,364.6,432.6,364.6,435.3z M364.6,445.5c4,4.5,7,6.7,11,11.4c0-2.7,0-4,0-6.7c-4-4.7-7-7-11-11.5
			C364.6,441.4,364.6,442.8,364.6,445.5z M364.6,455.5c4,4.7,7,7,11,11.9c0-2.8,0-4.2,0-7c-4-4.8-7-7.2-11-11.8
			C364.6,451.4,364.6,452.7,364.6,455.5z M364.6,465.6c4,4.7,7,7,11,11.9c0-2.7,0-4,0-6.7c-4-4.9-7-7.3-11-12
			C364.6,461.6,364.6,462.9,364.6,465.6z M364.6,475.6c4,4.9,7,7.3,11,12.4c0-2.8,0-4.2,0-7c-4-5-7-7.5-11-12.3
			C364.6,471.5,364.6,472.9,364.6,475.6z M364.6,485.8c4,4.9,7,7.4,11,12.5c0-2.7,0-4,0-6.7c-4-5.1-7-7.6-11-12.5
			C364.6,481.7,364.6,483,364.6,485.8z M364.6,495.7c4,5.1,7,7.7,11,13c0-2.8,0-4.2,0-7c-4-5.2-7-7.8-11-12.8
			C364.6,491.6,364.6,493,364.6,495.7z M364.6,505.9c4,5.1,7,7.7,11,13c0-2.7,0-4,0-6.7c-4-5.3-7-8-11-13
			C364.6,501.8,364.6,503.2,364.6,505.9z M364.8,365.2c4.4,3.6,6.8,5.4,10.8,9.2c0-2.7,0-4,0-6.7c-3-2.6-4.4-3.9-7.4-6.4
			C366.8,362.9,366.1,363.7,364.8,365.2z M370,359.2c2.3,2,3.6,3,5.6,5c0-2.8,0-4.2,0-7c-1-0.7-1.3-1.1-2.2-1.8
			C372,357,371.4,357.7,370,359.2z M375.2,353.4c0.2,0.3,0.3,0.4,0.5,0.7c0-0.6,0-0.9,0-1.5C375.5,352.9,375.4,353,375.2,353.4z"/>
	</g>
</g>
<circle id="XMLID_6_" class="st1" cx="-81.6" cy="314.9" r="35"/>
<circle id="XMLID_2_" class="st2" cx="5.9" cy="316" r="35"/>
<circle id="XMLID_7_" class="st3" cx="93.5" cy="317.2" r="35"/>
<circle id="XMLID_8_" class="st4" cx="181" cy="314.3" r="35"/>
<text transform="matrix(1 0 0 1 -99.6083 331.6753)" class="st5 st6 st7">P</text>
<text id="XMLID_9_" transform="matrix(1 0 0 1 -99.6083 331.6753)" class="st8 st6 st7">P</text>
<text transform="matrix(1 0 0 1 -10.7867 332.8253)" class="st5 st6 st7">L</text>
<text id="XMLID_10_" transform="matrix(1 0 0 1 -10.7867 332.8253)" class="st8 st6 st7">L</text>
<text transform="matrix(1 0 0 1 76.2132 333.9758)" class="st5 st6 st7">A</text>
<text id="XMLID_11_" transform="matrix(1 0 0 1 76.2132 333.9758)" class="st8 st6 st7">A</text>
<text transform="matrix(1 0 0 1 162.874 334.5507)" class="st5 st6 st7">Y</text>
<text id="XMLID_13_" transform="matrix(1 0 0 1 162.874 334.5507)" class="st8 st6 st7">Y</text>
</svg>
